  0
SECTION
  2
HEADER
  9
$ACADVER
  1
AC1018
  9
$ACADMAINTVER
 70
    77
  9
$DWGCODEPAGE
  3
ANSI_936
  9
$INSBASE
 10
0.0
 20
0.0
 30
0.0
  9
$EXTMIN
 10
10.9920433031667
 20
1538.99813489187
 30
0.0
  9
$EXTMAX
 10
90.992043042557
 20
1626.24713279178
 30
0.0
  9
$LIMMIN
 10
0.0
 20
0.0
  9
$LIMMAX
 10
420.0
 20
297.0
  9
$ORTHOMODE
 70
     0
  9
$REGENMODE
 70
     1
  9
$FILLMODE
 70
     1
  9
$QTEXTMODE
 70
     0
  9
$MIRRTEXT
 70
     0
  9
$LTSCALE
 40
1.0
  9
$ATTMODE
 70
     1
  9
$TEXTSIZE
 40
2.5
  9
$TRACEWID
 40
1.0
  9
$TEXTSTYLE
  7
STANDARD
  9
$CLAYER
  8
0
  9
$CELTYPE
  6
ByLayer
  9
$CECOLOR
 62
   256
  9
$CELTSCALE
 40
1.0
  9
$DISPSILH
 70
     0
  9
$DIMSCALE
 40
1.0
  9
$DIMASZ
 40
2.5
  9
$DIMEXO
 40
0.625
  9
$DIMDLI
 40
3.75
  9
$DIMRND
 40
0.0
  9
$DIMDLE
 40
0.0
  9
$DIMEXE
 40
1.25
  9
$DIMTP
 40
0.0
  9
$DIMTM
 40
0.0
  9
$DIMTXT
 40
2.5
  9
$DIMCEN
 40
2.5
  9
$DIMTSZ
 40
0.0
  9
$DIMTOL
 70
     0
  9
$DIMLIM
 70
     0
  9
$DIMTIH
 70
     0
  9
$DIMTOH
 70
     0
  9
$DIMSE1
 70
     0
  9
$DIMSE2
 70
     0
  9
$DIMTAD
 70
     1
  9
$DIMZIN
 70
     8
  9
$DIMBLK
  1

  9
$DIMASO
 70
     1
  9
$DIMSHO
 70
     1
  9
$DIMPOST
  1

  9
$DIMAPOST
  1

  9
$DIMALT
 70
     0
  9
$DIMALTD
 70
     3
  9
$DIMALTF
 40
0.03937007874016
  9
$DIMLFAC
 40
1.0
  9
$DIMTOFL
 70
     1
  9
$DIMTVP
 40
0.0
  9
$DIMTIX
 70
     0
  9
$DIMSOXD
 70
     0
  9
$DIMSAH
 70
     0
  9
$DIMBLK1
  1

  9
$DIMBLK2
  1

  9
$DIMSTYLE
  2
ISO-25
  9
$DIMCLRD
 70
     0
  9
$DIMCLRE
 70
     0
  9
$DIMCLRT
 70
     0
  9
$DIMTFAC
 40
1.0
  9
$DIMGAP
 40
0.625
  9
$DIMJUST
 70
     0
  9
$DIMSD1
 70
     0
  9
$DIMSD2
 70
     0
  9
$DIMTOLJ
 70
     1
  9
$DIMTZIN
 70
     0
  9
$DIMALTZ
 70
     0
  9
$DIMALTTZ
 70
     0
  9
$DIMUPT
 70
     0
  9
$DIMDEC
 70
     4
  9
$DIMTDEC
 70
     4
  9
$DIMALTU
 70
     2
  9
$DIMALTTD
 70
     2
  9
$DIMTXSTY
  7
STANDARD
  9
$DIMAUNIT
 70
     0
  9
$DIMADEC
 70
     0
  9
$DIMALTRND
 40
0.0
  9
$DIMAZIN
 70
     0
  9
$DIMDSEP
 70
    46
  9
$DIMATFIT
 70
     3
  9
$DIMFRAC
 70
     0
  9
$DIMLDRBLK
  1

  9
$DIMLUNIT
 70
     2
  9
$DIMLWD
 70
    -2
  9
$DIMLWE
 70
    -2
  9
$DIMTMOVE
 70
     0
  9
$LUNITS
 70
     2
  9
$LUPREC
 70
     4
  9
$SKETCHINC
 40
1.0
  9
$FILLETRAD
 40
0.0
  9
$AUNITS
 70
     0
  9
$AUPREC
 70
     0
  9
$MENU
  1
.
  9
$ELEVATION
 40
0.0
  9
$PELEVATION
 40
0.0
  9
$THICKNESS
 40
0.0
  9
$LIMCHECK
 70
     0
  9
$CHAMFERA
 40
0.0
  9
$CHAMFERB
 40
0.0
  9
$CHAMFERC
 40
0.0
  9
$CHAMFERD
 40
0.0
  9
$SKPOLY
 70
     0
  9
$TDCREATE
 40
2456997.676706910
  9
$TDUCREATE
 40
2456997.343373576
  9
$TDUPDATE
 40
2456997.680113438
  9
$TDUUPDATE
 40
2456997.346780104
  9
$TDINDWG
 40
0.0010312963
  9
$TDUSRTIMER
 40
0.0010311806
  9
$USRTIMER
 70
     1
  9
$ANGBASE
 50
0.0
  9
$ANGDIR
 70
     0
  9
$PDMODE
 70
     0
  9
$PDSIZE
 40
0.0
  9
$PLINEWID
 40
0.0
  9
$SPLFRAME
 70
     0
  9
$SPLINETYPE
 70
     6
  9
$SPLINESEGS
 70
     8
  9
$HANDSEED
  5
061E
  9
$SURFTAB1
 70
     6
  9
$SURFTAB2
 70
     6
  9
$SURFTYPE
 70
     6
  9
$SURFU
 70
     6
  9
$SURFV
 70
     6
  9
$UCSBASE
  2

  9
$UCSNAME
  2

  9
$UCSORG
 10
0.0
 20
0.0
 30
0.0
  9
$UCSXDIR
 10
1.0
 20
0.0
 30
0.0
  9
$UCSYDIR
 10
0.0
 20
1.0
 30
0.0
  9
$UCSORTHOREF
  2

  9
$UCSORTHOVIEW
 70
     0
  9
$UCSORGTOP
 10
0.0
 20
0.0
 30
0.0
  9
$UCSORGBOTTOM
 10
0.0
 20
0.0
 30
0.0
  9
$UCSORGLEFT
 10
0.0
 20
0.0
 30
0.0
  9
$UCSORGRIGHT
 10
0.0
 20
0.0
 30
0.0
  9
$UCSORGFRONT
 10
0.0
 20
0.0
 30
0.0
  9
$UCSORGBACK
 10
0.0
 20
0.0
 30
0.0
  9
$PUCSBASE
  2

  9
$PUCSNAME
  2

  9
$PUCSORG
 10
0.0
 20
0.0
 30
0.0
  9
$PUCSXDIR
 10
1.0
 20
0.0
 30
0.0
  9
$PUCSYDIR
 10
0.0
 20
1.0
 30
0.0
  9
$PUCSORTHOREF
  2

  9
$PUCSORTHOVIEW
 70
     0
  9
$PUCSORGTOP
 10
0.0
 20
0.0
 30
0.0
  9
$PUCSORGBOTTOM
 10
0.0
 20
0.0
 30
0.0
  9
$PUCSORGLEFT
 10
0.0
 20
0.0
 30
0.0
  9
$PUCSORGRIGHT
 10
0.0
 20
0.0
 30
0.0
  9
$PUCSORGFRONT
 10
0.0
 20
0.0
 30
0.0
  9
$PUCSORGBACK
 10
0.0
 20
0.0
 30
0.0
  9
$USERI1
 70
     0
  9
$USERI2
 70
     0
  9
$USERI3
 70
     0
  9
$USERI4
 70
     0
  9
$USERI5
 70
     0
  9
$USERR1
 40
0.0
  9
$USERR2
 40
0.0
  9
$USERR3
 40
0.0
  9
$USERR4
 40
0.0
  9
$USERR5
 40
0.0
  9
$WORLDVIEW
 70
     1
  9
$SHADEDGE
 70
     3
  9
$SHADEDIF
 70
    70
  9
$TILEMODE
 70
     1
  9
$MAXACTVP
 70
    64
  9
$PINSBASE
 10
0.0
 20
0.0
 30
0.0
  9
$PLIMCHECK
 70
     0
  9
$PEXTMIN
 10
0.0
 20
0.0
 30
0.0
  9
$PEXTMAX
 10
0.0
 20
0.0
 30
0.0
  9
$PLIMMIN
 10
0.0
 20
0.0
  9
$PLIMMAX
 10
12.0
 20
9.0
  9
$UNITMODE
 70
     0
  9
$VISRETAIN
 70
     1
  9
$PLINEGEN
 70
     0
  9
$PSLTSCALE
 70
     1
  9
$TREEDEPTH
 70
  3020
  9
$CMLSTYLE
  2
Standard
  9
$CMLJUST
 70
     0
  9
$CMLSCALE
 40
1.0
  9
$PROXYGRAPHICS
 70
     1
  9
$MEASUREMENT
 70
     1
  9
$CELWEIGHT
370
    -1
  9
$ENDCAPS
280
     0
  9
$JOINSTYLE
280
     0
  9
$LWDISPLAY
290
     0
  9
$INSUNITS
 70
     0
  9
$HYPERLINKBASE
  1

  9
$STYLESHEET
  1

  9
$XEDIT
290
     1
  9
$CEPSNTYPE
380
     0
  9
$PSTYLEMODE
290
     1
  9
$FINGERPRINTGUID
  2
{1F2D6530-6BF2-4D5E-922F-A9C54F637010}
  9
$VERSIONGUID
  2
{15AD9CB5-51D1-451C-B472-5DB36EFAD6AD}
  9
$EXTNAMES
290
     1
  9
$PSVPSCALE
 40
0.0
  9
$OLESTARTUP
290
     0
  9
$SORTENTS
280
   127
  9
$INDEXCTL
280
     0
  9
$HIDETEXT
280
     0
  9
$XCLIPFRAME
290
     0
  9
$HALOGAP
280
     0
  9
$OBSCOLOR
 70
   257
  9
$OBSLTYPE
280
     0
  9
$INTERSECTIONDISPLAY
280
     0
  9
$INTERSECTIONCOLOR
 70
   257
  9
$DIMASSOC
280
     1
  9
$PROJECTNAME
  1

  0
ENDSEC
  0
SECTION
  2
CLASSES
  0
CLASS
  1
ACDBDICTIONARYWDFLT
  2
AcDbDictionaryWithDefault
  3
ObjectDBX Classes
 90
        0
 91
        1
280
     0
281
     0
  0
CLASS
  1
TABLESTYLE
  2
AcDbTableStyle
  3
ObjectDBX Classes
 90
     2047
 91
        1
280
     0
281
     0
  0
CLASS
  1
DICTIONARYVAR
  2
AcDbDictionaryVar
  3
ObjectDBX Classes
 90
        0
 91
        1
280
     0
281
     0
  0
ENDSEC
  0
SECTION
  2
TABLES
  0
TABLE
  2
VPORT
  5
10D
330
0
100
AcDbSymbolTable
 70
     2
  0
VPORT
  5
137
330
10D
100
AcDbSymbolTableRecord
100
AcDbViewportTableRecord
  2
*Active
 70
     0
 10
0.0
 20
0.0
 11
1.0
 21
1.0
 12
50.9920431728618
 22
1582.62263384183
 13
0.0
 23
0.0
 14
10.0
 24
10.0
 15
10.0
 25
10.0
 16
0.0
 26
0.0
 36
1.0
 17
0.0
 27
0.0
 37
0.0
 40
551.708552688342
 41
2.435135135135135
 42
50.0
 43
0.0
 44
0.0
 50
0.0
 51
0.0
 71
     0
 72
  1000
 73
     1
 74
     3
 75
     0
 76
     0
 77
     0
 78
     0
281
     0
 65
     1
110
0.0
120
0.0
130
0.0
111
1.0
121
0.0
131
0.0
112
0.0
122
1.0
132
0.0
 79
     0
146
0.0
  0
ENDTAB
  0
TABLE
  2
LTYPE
  5
10A
330
0
100
AcDbSymbolTable
 70
     1
  0
LTYPE
  5
118
330
10A
100
AcDbSymbolTableRecord
100
AcDbLinetypeTableRecord
  2
ByBlock
 70
     0
  3

 72
    65
 73
     0
 40
0.0
  0
LTYPE
  5
119
330
10A
100
AcDbSymbolTableRecord
100
AcDbLinetypeTableRecord
  2
ByLayer
 70
     0
  3

 72
    65
 73
     0
 40
0.0
  0
LTYPE
  5
11A
330
10A
100
AcDbSymbolTableRecord
100
AcDbLinetypeTableRecord
  2
CONTINUOUS
 70
     0
  3
Solid line
 72
    65
 73
     0
 40
0.0
  0
ENDTAB
  0
TABLE
  2
LAYER
  5
107
330
0
100
AcDbSymbolTable
 70
     1
  0
LAYER
  5
115
330
107
100
AcDbSymbolTableRecord
100
AcDbLayerTableRecord
  2
0
 70
     0
 62
     7
  6
CONTINUOUS
370
    -3
390
114
  0
ENDTAB
  0
TABLE
  2
STYLE
  5
108
330
0
100
AcDbSymbolTable
 70
     1
  0
STYLE
  5
116
330
108
100
AcDbSymbolTableRecord
100
AcDbTextStyleTableRecord
  2
STANDARD
 70
     0
 40
0.0
 41
1.0
 50
0.0
 71
     0
 42
2.5
  3
txt
  4
gbcbig.shx
  0
ENDTAB
  0
TABLE
  2
VIEW
  5
10B
330
0
100
AcDbSymbolTable
 70
     0
  0
ENDTAB
  0
TABLE
  2
UCS
  5
10C
330
0
100
AcDbSymbolTable
 70
     0
  0
ENDTAB
  0
TABLE
  2
APPID
  5
10E
330
0
100
AcDbSymbolTable
 70
     2
  0
APPID
  5
117
330
10E
100
AcDbSymbolTableRecord
100
AcDbRegAppTableRecord
  2
ACAD
 70
     0
  0
APPID
  5
12C
330
10E
100
AcDbSymbolTableRecord
100
AcDbRegAppTableRecord
  2
ACAD_PSEXT
 70
     0
  0
APPID
  5
112C
330
10E
100
AcDbSymbolTableRecord
100
AcDbRegAppTableRecord
  2
FS_CYPCUT
 70
     0
  0
ENDTAB
  0
TABLE
  2
DIMSTYLE
  5
10F
330
0
100
AcDbSymbolTable
 70
     1
100
AcDbDimStyleTable
 71
     0
  0
DIMSTYLE
105
12D
330
10F
100
AcDbSymbolTableRecord
100
AcDbDimStyleTableRecord
  2
ISO-25
 70
     0
 41
2.5
 42
0.625
 43
3.75
 44
1.25
 73
     0
 74
     0
 77
     1
 78
     8
140
2.5
141
2.5
143
0.03937007874016
147
0.625
171
     3
172
     1
274
     3
279
     2
284
     8
285
     8
286
     8
340
116
  0
ENDTAB
  0
TABLE
  2
BLOCK_RECORD
  5
106
330
0
100
AcDbSymbolTable
 70
     2
  0
BLOCK_RECORD
  5
127
330
106
100
AcDbSymbolTableRecord
100
AcDbBlockTableRecord
  2
*Model_Space
340
12A
  0
BLOCK_RECORD
  5
123
330
106
100
AcDbSymbolTableRecord
100
AcDbBlockTableRecord
  2
*Paper_Space
340
126
  0
BLOCK_RECORD
  5
130
330
106
100
AcDbSymbolTableRecord
100
AcDbBlockTableRecord
  2
$MODEL_SPACE
340
0
  0
BLOCK_RECORD
  5
132
330
106
100
AcDbSymbolTableRecord
100
AcDbBlockTableRecord
  2
$PAPER_SPACE
340
0
  0
ENDTAB
  0
ENDSEC
  0
SECTION
  2
BLOCKS
  0
BLOCK
  5
128
330
127
100
AcDbEntity
  8
0
100
AcDbBlockBegin
  2
*Model_Space
 70
     0
 10
0.0
 20
0.0
 30
0.0
  3
*Model_Space
  1

  0
ENDBLK
  5
129
330
127
100
AcDbEntity
  8
0
100
AcDbBlockEnd
  0
BLOCK
  5
124
330
123
100
AcDbEntity
 67
     1
  8
0
100
AcDbBlockBegin
  2
*Paper_Space
 70
     0
 10
0.0
 20
0.0
 30
0.0
  3
*Paper_Space
  1

  0
ENDBLK
  5
125
330
123
100
AcDbEntity
 67
     1
  8
0
100
AcDbBlockEnd
  0
BLOCK
  5
131
330
130
100
AcDbEntity
  8
0
100
AcDbBlockBegin
  2
$MODEL_SPACE
 70
     0
 10
0.0
 20
0.0
 30
0.0
  3
$MODEL_SPACE
  1

  0
ENDBLK
  5
21
330
130
100
AcDbEntity
  8
0
100
AcDbBlockEnd
  0
BLOCK
  5
133
330
132
100
AcDbEntity
  8
0
100
AcDbBlockBegin
  2
$PAPER_SPACE
 70
     0
 10
0.0
 20
0.0
 30
0.0
  3
$PAPER_SPACE
  1

  0
ENDBLK
  5
D5
330
132
100
AcDbEntity
  8
0
100
AcDbBlockEnd
       0
ENDSEC
       0
SECTION
       2
ENTITIES
       0
SPLINE
       5
2000
     100
AcDbEntity
       8
0
     100
AcDbSpline
      70
0
      71
3
      72
212
      73
208
      74
0
      40
0
      40
0
      40
0
      40
0
      40
0.0192307692307692
      40
0.0192307692307692
      40
0.0192307692307692
      40
0.0192307692307692
      40
0.0384615384615385
      40
0.0384615384615385
      40
0.0384615384615385
      40
0.0384615384615385
      40
0.0576923076923077
      40
0.0576923076923077
      40
0.0576923076923077
      40
0.0576923076923077
      40
0.0769230769230769
      40
0.0769230769230769
      40
0.0769230769230769
      40
0.0769230769230769
      40
0.0961538461538462
      40
0.0961538461538462
      40
0.0961538461538462
      40
0.0961538461538462
      40
0.115384615384615
      40
0.115384615384615
      40
0.115384615384615
      40
0.115384615384615
      40
0.134615384615385
      40
0.134615384615385
      40
0.134615384615385
      40
0.134615384615385
      40
0.153846153846154
      40
0.153846153846154
      40
0.153846153846154
      40
0.153846153846154
      40
0.173076923076923
      40
0.173076923076923
      40
0.173076923076923
      40
0.173076923076923
      40
0.192307692307692
      40
0.192307692307692
      40
0.192307692307692
      40
0.192307692307692
      40
0.211538461538462
      40
0.211538461538462
      40
0.211538461538462
      40
0.211538461538462
      40
0.230769230769231
      40
0.230769230769231
      40
0.230769230769231
      40
0.230769230769231
      40
0.25
      40
0.25
      40
0.25
      40
0.25
      40
0.269230769230769
      40
0.269230769230769
      40
0.269230769230769
      40
0.269230769230769
      40
0.288461538461538
      40
0.288461538461538
      40
0.288461538461538
      40
0.288461538461538
      40
0.307692307692308
      40
0.307692307692308
      40
0.307692307692308
      40
0.307692307692308
      40
0.326923076923077
      40
0.326923076923077
      40
0.326923076923077
      40
0.326923076923077
      40
0.346153846153846
      40
0.346153846153846
      40
0.346153846153846
      40
0.346153846153846
      40
0.365384615384615
      40
0.365384615384615
      40
0.365384615384615
      40
0.365384615384615
      40
0.384615384615385
      40
0.384615384615385
      40
0.384615384615385
      40
0.384615384615385
      40
0.403846153846154
      40
0.403846153846154
      40
0.403846153846154
      40
0.403846153846154
      40
0.423076923076923
      40
0.423076923076923
      40
0.423076923076923
      40
0.423076923076923
      40
0.442307692307692
      40
0.442307692307692
      40
0.442307692307692
      40
0.442307692307692
      40
0.461538461538462
      40
0.461538461538462
      40
0.461538461538462
      40
0.461538461538462
      40
0.480769230769231
      40
0.480769230769231
      40
0.480769230769231
      40
0.480769230769231
      40
0.5
      40
0.5
      40
0.5
      40
0.5
      40
0.519230769230769
      40
0.519230769230769
      40
0.519230769230769
      40
0.519230769230769
      40
0.538461538461538
      40
0.538461538461538
      40
0.538461538461538
      40
0.538461538461538
      40
0.557692307692308
      40
0.557692307692308
      40
0.557692307692308
      40
0.557692307692308
      40
0.576923076923077
      40
0.576923076923077
      40
0.576923076923077
      40
0.576923076923077
      40
0.596153846153846
      40
0.596153846153846
      40
0.596153846153846
      40
0.596153846153846
      40
0.615384615384615
      40
0.615384615384615
      40
0.615384615384615
      40
0.615384615384615
      40
0.634615384615385
      40
0.634615384615385
      40
0.634615384615385
      40
0.634615384615385
      40
0.653846153846154
      40
0.653846153846154
      40
0.653846153846154
      40
0.653846153846154
      40
0.673076923076923
      40
0.673076923076923
      40
0.673076923076923
      40
0.673076923076923
      40
0.692307692307692
      40
0.692307692307692
      40
0.692307692307692
      40
0.692307692307692
      40
0.711538461538462
      40
0.711538461538462
      40
0.711538461538462
      40
0.711538461538462
      40
0.730769230769231
      40
0.730769230769231
      40
0.730769230769231
      40
0.730769230769231
      40
0.75
      40
0.75
      40
0.75
      40
0.75
      40
0.769230769230769
      40
0.769230769230769
      40
0.769230769230769
      40
0.769230769230769
      40
0.788461538461538
      40
0.788461538461538
      40
0.788461538461538
      40
0.788461538461538
      40
0.807692307692308
      40
0.807692307692308
      40
0.807692307692308
      40
0.807692307692308
      40
0.826923076923077
      40
0.826923076923077
      40
0.826923076923077
      40
0.826923076923077
      40
0.846153846153846
      40
0.846153846153846
      40
0.846153846153846
      40
0.846153846153846
      40
0.865384615384615
      40
0.865384615384615
      40
0.865384615384615
      40
0.865384615384615
      40
0.884615384615385
      40
0.884615384615385
      40
0.884615384615385
      40
0.884615384615385
      40
0.903846153846154
      40
0.903846153846154
      40
0.903846153846154
      40
0.903846153846154
      40
0.923076923076923
      40
0.923076923076923
      40
0.923076923076923
      40
0.923076923076923
      40
0.942307692307692
      40
0.942307692307692
      40
0.942307692307692
      40
0.942307692307692
      40
0.961538461538462
      40
0.961538461538462
      40
0.961538461538462
      40
0.961538461538462
      40
0.980769230769231
      40
0.980769230769231
      40
0.980769230769231
      40
0.980769230769231
      40
1
      40
1
      40
1
      40
1
      10
52.9569732511359
      20
1574.30654136853
      30
0
      10
51.9567202511359
      20
1573.74426136853
      30
0
      10
50.6714732511359
      20
1573.69335136853
      30
0
      10
49.6284222511359
      20
1574.17265136853
      30
0
      10
49.6284222511359
      20
1574.17265136853
      30
0
      10
49.5440002511359
      20
1574.21190136853
      30
0
      10
49.5300802511359
      20
1574.22271136853
      30
0
      10
49.2576672511359
      20
1574.36581136853
      30
0
      10
49.2576672511359
      20
1574.36581136853
      30
0
      10
49.1253742511359
      20
1574.43578136853
      30
0
      10
48.9930822511359
      20
1574.50574136853
      30
0
      10
48.8607892511359
      20
1574.57571136853
      30
0
      10
48.8607892511359
      20
1574.57571136853
      30
0
      10
48.5961932511359
      20
1574.71564136853
      30
0
      10
48.3315962511359
      20
1574.85556136853
      30
0
      10
48.0670002511359
      20
1574.99548136853
      30
0
      10
48.0670002511359
      20
1574.99548136853
      30
0
      10
47.0086902511359
      20
1575.55535136853
      30
0
      10
45.9503792511359
      20
1576.11522136853
      30
0
      10
44.8920692511359
      20
1576.67509136853
      30
0
      10
44.8920692511359
      20
1576.67509136853
      30
0
      10
44.663311251136
      20
1576.79196136853
      30
0
      10
44.6072132511359
      20
1576.83705136853
      30
0
      10
44.4724302511359
      20
1576.92943136853
      30
0
      10
44.4724302511359
      20
1576.92943136853
      30
0
      10
43.6208372511359
      20
1577.54169136853
      30
0
      10
43.0526842511359
      20
1578.54649136853
      30
0
      10
42.9739152511359
      20
1579.59023136853
      30
0
      10
42.9739152511359
      20
1579.59023136853
      30
0
      10
42.9716272511359
      20
1579.65625136853
      30
0
      10
42.9693402511359
      20
1579.72228136853
      30
0
      10
42.967053251136
      20
1579.78830136853
      30
0
      10
42.967053251136
      20
1579.78830136853
      30
0
      10
42.9560572511359
      20
1580.13389136853
      30
0
      10
42.9473122511359
      20
1580.47954136853
      30
0
      10
42.874654251136
      20
1582.69130136853
      30
0
      10
42.874654251136
      20
1582.69130136853
      30
0
      10
42.8558382511359
      20
1583.24421136853
      30
0
      10
42.8370222511359
      20
1583.79713136853
      30
0
      10
42.8182062511359
      20
1584.35004136853
      30
0
      10
42.8182062511359
      20
1584.35004136853
      30
0
      10
42.7896292511359
      20
1585.09126136853
      30
0
      10
42.7871352511359
      20
1585.47697136853
      30
0
      10
42.7940732511359
      20
1585.93076136853
      30
0
      10
42.7940732511359
      20
1585.93076136853
      30
0
      10
42.8020712511359
      20
1586.34654136853
      30
0
      10
42.8242632511359
      20
1586.65932136853
      30
0
      10
42.8582912511359
      20
1586.77947136853
      30
0
      10
42.8582912511359
      20
1586.77947136853
      30
0
      10
42.8612092511359
      20
1586.78813136853
      30
0
      10
42.8641262511359
      20
1586.79679136853
      30
0
      10
42.867044251136
      20
1586.80545136853
      30
0
      10
42.867044251136
      20
1586.80545136853
      30
0
      10
42.8825892511359
      20
1586.83585136853
      30
0
      10
42.8719142511359
      20
1586.81508136853
      30
0
      10
42.8763742511359
      20
1586.82353136853
      30
0
      10
42.8763742511359
      20
1586.82353136853
      30
0
      10
42.9140742511359
      20
1586.89484136853
      30
0
      10
42.9517742511359
      20
1586.96615136853
      30
0
      10
42.9894732511359
      20
1587.03746136853
      30
0
      10
42.9894732511359
      20
1587.03746136853
      30
0
      10
42.9961932511359
      20
1587.04283136853
      30
0
      10
42.9871922511359
      20
1587.05517136853
      30
0
      10
43.0551372511359
      20
1587.12214136853
      30
0
      10
43.0551372511359
      20
1587.12214136853
      30
0
      10
43.1931642511359
      20
1587.25831136853
      30
0
      10
43.5450082511359
      20
1587.51842136853
      30
0
      10
43.9955432511359
      20
1587.81959136853
      30
0
      10
43.9955432511359
      20
1587.81959136853
      30
0
      10
44.1314292511359
      20
1587.90835136853
      30
0
      10
44.2673152511359
      20
1587.99711136853
      30
0
      10
44.4032002511359
      20
1588.08586136853
      30
0
      10
44.4032002511359
      20
1588.08586136853
      30
0
      10
44.4755072511359
      20
1588.13155136853
      30
0
      10
44.5478142511359
      20
1588.17723136853
      30
0
      10
44.6201222511359
      20
1588.22292136853
      30
0
      10
44.6201222511359
      20
1588.22292136853
      30
0
      10
44.7922622511359
      20
1588.33002136853
      30
0
      10
45.1212172511359
      20
1588.53209136853
      30
0
      10
46.8190262511359
      20
1589.57788136853
      30
0
      10
46.8190262511359
      20
1589.57788136853
      30
0
      10
48.5336112511359
      20
1590.63307136853
      30
0
      10
48.8250822511359
      20
1590.81481136853
      30
0
      10
48.9422632511359
      20
1590.88321136853
      30
0
      10
48.9422632511359
      20
1590.88321136853
      30
0
      10
49.0144752511359
      20
1590.92601136853
      30
0
      10
49.0866872511359
      20
1590.96882136853
      30
0
      10
49.1588982511359
      20
1591.01162136853
      30
0
      10
49.1588982511359
      20
1591.01162136853
      30
0
      10
49.2954602511359
      20
1591.08976136853
      30
0
      10
49.4320222511359
      20
1591.16789136853
      30
0
      10
49.5685842511359
      20
1591.24603136853
      30
0
      10
49.5685842511359
      20
1591.24603136853
      30
0
      10
50.0230172511359
      20
1591.49933136853
      30
0
      10
50.3829672511359
      20
1591.67568136853
      30
0
      10
50.5212562511359
      20
1591.70823136853
      30
0
      10
50.5212562511359
      20
1591.70823136853
      30
0
      10
50.5507802511359
      20
1591.71633136853
      30
0
      10
50.5729332511359
      20
1591.71250136853
      30
0
      10
50.5641532511359
      20
1591.71352136853
      30
0
      10
50.5641532511359
      20
1591.71352136853
      30
0
      10
50.5692952511359
      20
1591.71368136853
      30
0
      10
50.5744372511359
      20
1591.71385136853
      30
0
      10
50.5795792511359
      20
1591.71402136853
      30
0
      10
50.5795792511359
      20
1591.71402136853
      30
0
      10
50.6597162511359
      20
1591.71665136853
      30
0
      10
50.7398532511359
      20
1591.71927136853
      30
0
      10
50.8199902511359
      20
1591.72190136853
      30
0
      10
50.8199902511359
      20
1591.72190136853
      30
0
      10
50.8074842511359
      20
1591.71802136853
      30
0
      10
50.831944251136
      20
1591.73240136853
      30
0
      10
50.921236251136
      20
1591.70622136853
      30
0
      10
50.921236251136
      20
1591.70622136853
      30
0
      10
51.0857712511359
      20
1591.66125136853
      30
0
      10
51.4083732511359
      20
1591.52648136853
      30
0
      10
51.8065642511359
      20
1591.33867136853
      30
0
      10
51.8065642511359
      20
1591.33867136853
      30
0
      10
51.9466742511359
      20
1591.27063136853
      30
0
      10
52.086785251136
      20
1591.20259136853
      30
0
      10
52.2268962511359
      20
1591.13454136853
      30
0
      10
52.2268962511359
      20
1591.13454136853
      30
0
      10
52.3013412511359
      20
1591.09695136853
      30
0
      10
52.3757862511359
      20
1591.05936136853
      30
0
      10
52.4502312511359
      20
1591.02177136853
      30
0
      10
52.4502312511359
      20
1591.02177136853
      30
0
      10
52.5265842511359
      20
1590.98225136853
      30
0
      10
52.6029382511359
      20
1590.94274136853
      30
0
      10
52.6792912511359
      20
1590.90322136853
      30
0
      10
52.6792912511359
      20
1590.90322136853
      30
0
      10
52.8962942511359
      20
1590.78856136853
      30
0
      10
53.1132972511359
      20
1590.67390136853
      30
0
      10
53.3303002511359
      20
1590.55924136853
      30
0
      10
53.3303002511359
      20
1590.55924136853
      30
0
      10
54.2763042511359
      20
1590.05909136853
      30
0
      10
55.2223092511359
      20
1589.55893136853
      30
0
      10
56.1683132511359
      20
1589.05878136853
      30
0
      10
56.1683132511359
      20
1589.05878136853
      30
0
      10
56.5845132511359
      20
1588.83824136853
      30
0
      10
57.000712251136
      20
1588.61770136853
      30
0
      10
57.4169122511359
      20
1588.39717136853
      30
0
      10
57.4169122511359
      20
1588.39717136853
      30
0
      10
57.5578522511359
      20
1588.32104136853
      30
0
      10
57.6987922511359
      20
1588.24491136853
      30
0
      10
57.8397322511359
      20
1588.16878136853
      30
0
      10
57.8397322511359
      20
1588.16878136853
      30
0
      10
58.2393052511359
      20
1587.95106136853
      30
0
      10
58.5610082511359
      20
1587.76990136853
      30
0
      10
58.7317002511359
      20
1587.66655136853
      30
0
      10
58.7317002511359
      20
1587.66655136853
      30
0
      10
58.8169182511359
      20
1587.61529136853
      30
0
      10
58.8649612511359
      20
1587.58164136853
      30
0
      10
58.8649532511359
      20
1587.57627136853
      30
0
      10
58.8649532511359
      20
1587.57627136853
      30
0
      10
58.8681502511359
      20
1587.57122136853
      30
0
      10
58.8713472511359
      20
1587.56616136853
      30
0
      10
58.8745452511359
      20
1587.56111136853
      30
0
      10
58.8745452511359
      20
1587.56111136853
      30
0
      10
58.8844892511359
      20
1587.54451136853
      30
0
      10
58.8944322511359
      20
1587.52791136853
      30
0
      10
58.9043762511359
      20
1587.51131136853
      30
0
      10
58.9043762511359
      20
1587.51131136853
      30
0
      10
58.9078412511359
      20
1587.50175136853
      30
0
      10
58.9130992511359
      20
1587.51044136853
      30
0
      10
58.9216902511359
      20
1587.43404136853
      30
0
      10
58.9216902511359
      20
1587.43404136853
      30
0
      10
58.9244052511359
      20
1587.40643136853
      30
0
      10
58.9271202511359
      20
1587.37882136853
      30
0
      10
58.9298352511359
      20
1587.35121136853
      30
0
      10
58.9298352511359
      20
1587.35121136853
      30
0
      10
58.9522672511359
      20
1587.09110136853
      30
0
      10
58.9799752511359
      20
1586.52555136853
      30
0
      10
59.0032012511359
      20
1585.85376136853
      30
0
      10
59.0032012511359
      20
1585.85376136853
      30
0
      10
59.0097372511359
      20
1585.64730136853
      30
0
      10
59.0162742511359
      20
1585.44084136853
      30
0
      10
59.0228102511359
      20
1585.23438136853
      30
0
      10
59.0228102511359
      20
1585.23438136853
      30
0
      10
59.0661562511359
      20
1583.77329136853
      30
0
      10
59.1602922511359
      20
1580.99758136853
      30
0
      10
59.1664082511359
      20
1580.85152136853
      30
0
      10
59.1664082511359
      20
1580.85152136853
      30
0
      10
59.1861842511359
      20
1580.27385136853
      30
0
      10
59.1924072511359
      20
1580.15921136853
      30
0
      10
59.1912702511359
      20
1580.10459136853
      30
0
      10
59.1912702511359
      20
1580.10459136853
      30
0
      10
59.1927552511359
      20
1580.09269136853
      30
0
      10
59.1842652511359
      20
1579.86670136853
      30
0
      10
59.1674312511359
      20
1579.74870136853
      30
0
      10
59.1674312511359
      20
1579.74870136853
      30
0
      10
59.0489872511359
      20
1578.75616136853
      30
0
      10
58.5026362511359
      20
1577.80956136853
      30
0
      10
57.6875402511359
      20
1577.22746136853
      30
0
      10
57.6875402511359
      20
1577.22746136853
      30
0
      10
57.6679812511359
      20
1577.21381136853
      30
0
      10
57.6484222511359
      20
1577.20016136853
      30
0
      10
57.6288632511359
      20
1577.18650136853
      30
0
      10
57.6288632511359
      20
1577.18650136853
      30
0
      10
57.5999112511359
      20
1577.16835136853
      30
0
      10
57.5709592511359
      20
1577.15020136853
      30
0
      10
57.5420072511359
      20
1577.13205136853
      30
0
      10
57.5420072511359
      20
1577.13205136853
      30
0
      10
57.0326302511359
      20
1576.81799136853
      30
0
      10
56.5232542511359
      20
1576.50394136853
      30
0
      10
56.0138772511359
      20
1576.18988136853
      30
0
      10
56.0138772511359
      20
1576.18988136853
      30
0
      10
54.9949092511359
      20
1575.56210136853
      30
0
      10
53.9759412511359
      20
1574.93432136853
      30
0
      10
52.9569732511359
      20
1574.30654136853
      30
0
    1001
FS_CYPCUT
    1000
Channel
    1070
0
    1000
LeadIn
    1002
{
    1070
1
    1040
44.5
    1040
1.57079633
    1040
5
    1040
1
    1070
0
    1040
0.5
    1070
0
    1002
}
    1000
LeadOut
    1002
{
    1070
0
    1040
0
    1040
0
    1040
0
    1070
0
    1002
}
    1000
IsFill
    1070
0
    1000
PathStart
    1040
44.5
    1000
ToolCompensation
    1002
{
    1070
0
    1040
0
    1070
0
    1002
}
       0
SPLINE
       5
2001
     100
AcDbEntity
       8
0
     100
AcDbSpline
      70
0
      71
3
      72
1476
      73
1472
      74
0
      40
0
      40
0
      40
0
      40
0
      40
0.00271739130434783
      40
0.00271739130434783
      40
0.00271739130434783
      40
0.00271739130434783
      40
0.00543478260869565
      40
0.00543478260869565
      40
0.00543478260869565
      40
0.00543478260869565
      40
0.00815217391304348
      40
0.00815217391304348
      40
0.00815217391304348
      40
0.00815217391304348
      40
0.0108695652173913
      40
0.0108695652173913
      40
0.0108695652173913
      40
0.0108695652173913
      40
0.0135869565217391
      40
0.0135869565217391
      40
0.0135869565217391
      40
0.0135869565217391
      40
0.016304347826087
      40
0.016304347826087
      40
0.016304347826087
      40
0.016304347826087
      40
0.0190217391304348
      40
0.0190217391304348
      40
0.0190217391304348
      40
0.0190217391304348
      40
0.0217391304347826
      40
0.0217391304347826
      40
0.0217391304347826
      40
0.0217391304347826
      40
0.0244565217391304
      40
0.0244565217391304
      40
0.0244565217391304
      40
0.0244565217391304
      40
0.0271739130434783
      40
0.0271739130434783
      40
0.0271739130434783
      40
0.0271739130434783
      40
0.0298913043478261
      40
0.0298913043478261
      40
0.0298913043478261
      40
0.0298913043478261
      40
0.0326086956521739
      40
0.0326086956521739
      40
0.0326086956521739
      40
0.0326086956521739
      40
0.0353260869565217
      40
0.0353260869565217
      40
0.0353260869565217
      40
0.0353260869565217
      40
0.0380434782608696
      40
0.0380434782608696
      40
0.0380434782608696
      40
0.0380434782608696
      40
0.0407608695652174
      40
0.0407608695652174
      40
0.0407608695652174
      40
0.0407608695652174
      40
0.0434782608695652
      40
0.0434782608695652
      40
0.0434782608695652
      40
0.0434782608695652
      40
0.046195652173913
      40
0.046195652173913
      40
0.046195652173913
      40
0.046195652173913
      40
0.0489130434782609
      40
0.0489130434782609
      40
0.0489130434782609
      40
0.0489130434782609
      40
0.0516304347826087
      40
0.0516304347826087
      40
0.0516304347826087
      40
0.0516304347826087
      40
0.0543478260869565
      40
0.0543478260869565
      40
0.0543478260869565
      40
0.0543478260869565
      40
0.0570652173913043
      40
0.0570652173913043
      40
0.0570652173913043
      40
0.0570652173913043
      40
0.0597826086956522
      40
0.0597826086956522
      40
0.0597826086956522
      40
0.0597826086956522
      40
0.0625
      40
0.0625
      40
0.0625
      40
0.0625
      40
0.0652173913043478
      40
0.0652173913043478
      40
0.0652173913043478
      40
0.0652173913043478
      40
0.0679347826086956
      40
0.0679347826086956
      40
0.0679347826086956
      40
0.0679347826086956
      40
0.0706521739130435
      40
0.0706521739130435
      40
0.0706521739130435
      40
0.0706521739130435
      40
0.0733695652173913
      40
0.0733695652173913
      40
0.0733695652173913
      40
0.0733695652173913
      40
0.0760869565217391
      40
0.0760869565217391
      40
0.0760869565217391
      40
0.0760869565217391
      40
0.078804347826087
      40
0.078804347826087
      40
0.078804347826087
      40
0.078804347826087
      40
0.0815217391304348
      40
0.0815217391304348
      40
0.0815217391304348
      40
0.0815217391304348
      40
0.0842391304347826
      40
0.0842391304347826
      40
0.0842391304347826
      40
0.0842391304347826
      40
0.0869565217391304
      40
0.0869565217391304
      40
0.0869565217391304
      40
0.0869565217391304
      40
0.0896739130434783
      40
0.0896739130434783
      40
0.0896739130434783
      40
0.0896739130434783
      40
0.0923913043478261
      40
0.0923913043478261
      40
0.0923913043478261
      40
0.0923913043478261
      40
0.0951086956521739
      40
0.0951086956521739
      40
0.0951086956521739
      40
0.0951086956521739
      40
0.0978260869565217
      40
0.0978260869565217
      40
0.0978260869565217
      40
0.0978260869565217
      40
0.10054347826087
      40
0.10054347826087
      40
0.10054347826087
      40
0.10054347826087
      40
0.103260869565217
      40
0.103260869565217
      40
0.103260869565217
      40
0.103260869565217
      40
0.105978260869565
      40
0.105978260869565
      40
0.105978260869565
      40
0.105978260869565
      40
0.108695652173913
      40
0.108695652173913
      40
0.108695652173913
      40
0.108695652173913
      40
0.111413043478261
      40
0.111413043478261
      40
0.111413043478261
      40
0.111413043478261
      40
0.114130434782609
      40
0.114130434782609
      40
0.114130434782609
      40
0.114130434782609
      40
0.116847826086957
      40
0.116847826086957
      40
0.116847826086957
      40
0.116847826086957
      40
0.119565217391304
      40
0.119565217391304
      40
0.119565217391304
      40
0.119565217391304
      40
0.122282608695652
      40
0.122282608695652
      40
0.122282608695652
      40
0.122282608695652
      40
0.125
      40
0.125
      40
0.125
      40
0.125
      40
0.127717391304348
      40
0.127717391304348
      40
0.127717391304348
      40
0.127717391304348
      40
0.130434782608696
      40
0.130434782608696
      40
0.130434782608696
      40
0.130434782608696
      40
0.133152173913043
      40
0.133152173913043
      40
0.133152173913043
      40
0.133152173913043
      40
0.135869565217391
      40
0.135869565217391
      40
0.135869565217391
      40
0.135869565217391
      40
0.138586956521739
      40
0.138586956521739
      40
0.138586956521739
      40
0.138586956521739
      40
0.141304347826087
      40
0.141304347826087
      40
0.141304347826087
      40
0.141304347826087
      40
0.144021739130435
      40
0.144021739130435
      40
0.144021739130435
      40
0.144021739130435
      40
0.146739130434783
      40
0.146739130434783
      40
0.146739130434783
      40
0.146739130434783
      40
0.14945652173913
      40
0.14945652173913
      40
0.14945652173913
      40
0.14945652173913
      40
0.152173913043478
      40
0.152173913043478
      40
0.152173913043478
      40
0.152173913043478
      40
0.154891304347826
      40
0.154891304347826
      40
0.154891304347826
      40
0.154891304347826
      40
0.157608695652174
      40
0.157608695652174
      40
0.157608695652174
      40
0.157608695652174
      40
0.160326086956522
      40
0.160326086956522
      40
0.160326086956522
      40
0.160326086956522
      40
0.16304347826087
      40
0.16304347826087
      40
0.16304347826087
      40
0.16304347826087
      40
0.165760869565217
      40
0.165760869565217
      40
0.165760869565217
      40
0.165760869565217
      40
0.168478260869565
      40
0.168478260869565
      40
0.168478260869565
      40
0.168478260869565
      40
0.171195652173913
      40
0.171195652173913
      40
0.171195652173913
      40
0.171195652173913
      40
0.173913043478261
      40
0.173913043478261
      40
0.173913043478261
      40
0.173913043478261
      40
0.176630434782609
      40
0.176630434782609
      40
0.176630434782609
      40
0.176630434782609
      40
0.179347826086957
      40
0.179347826086957
      40
0.179347826086957
      40
0.179347826086957
      40
0.182065217391304
      40
0.182065217391304
      40
0.182065217391304
      40
0.182065217391304
      40
0.184782608695652
      40
0.184782608695652
      40
0.184782608695652
      40
0.184782608695652
      40
0.1875
      40
0.1875
      40
0.1875
      40
0.1875
      40
0.190217391304348
      40
0.190217391304348
      40
0.190217391304348
      40
0.190217391304348
      40
0.192934782608696
      40
0.192934782608696
      40
0.192934782608696
      40
0.192934782608696
      40
0.195652173913043
      40
0.195652173913043
      40
0.195652173913043
      40
0.195652173913043
      40
0.198369565217391
      40
0.198369565217391
      40
0.198369565217391
      40
0.198369565217391
      40
0.201086956521739
      40
0.201086956521739
      40
0.201086956521739
      40
0.201086956521739
      40
0.203804347826087
      40
0.203804347826087
      40
0.203804347826087
      40
0.203804347826087
      40
0.206521739130435
      40
0.206521739130435
      40
0.206521739130435
      40
0.206521739130435
      40
0.209239130434783
      40
0.209239130434783
      40
0.209239130434783
      40
0.209239130434783
      40
0.21195652173913
      40
0.21195652173913
      40
0.21195652173913
      40
0.21195652173913
      40
0.214673913043478
      40
0.214673913043478
      40
0.214673913043478
      40
0.214673913043478
      40
0.217391304347826
      40
0.217391304347826
      40
0.217391304347826
      40
0.217391304347826
      40
0.220108695652174
      40
0.220108695652174
      40
0.220108695652174
      40
0.220108695652174
      40
0.222826086956522
      40
0.222826086956522
      40
0.222826086956522
      40
0.222826086956522
      40
0.22554347826087
      40
0.22554347826087
      40
0.22554347826087
      40
0.22554347826087
      40
0.228260869565217
      40
0.228260869565217
      40
0.228260869565217
      40
0.228260869565217
      40
0.230978260869565
      40
0.230978260869565
      40
0.230978260869565
      40
0.230978260869565
      40
0.233695652173913
      40
0.233695652173913
      40
0.233695652173913
      40
0.233695652173913
      40
0.236413043478261
      40
0.236413043478261
      40
0.236413043478261
      40
0.236413043478261
      40
0.239130434782609
      40
0.239130434782609
      40
0.239130434782609
      40
0.239130434782609
      40
0.241847826086957
      40
0.241847826086957
      40
0.241847826086957
      40
0.241847826086957
      40
0.244565217391304
      40
0.244565217391304
      40
0.244565217391304
      40
0.244565217391304
      40
0.247282608695652
      40
0.247282608695652
      40
0.247282608695652
      40
0.247282608695652
      40
0.25
      40
0.25
      40
0.25
      40
0.25
      40
0.252717391304348
      40
0.252717391304348
      40
0.252717391304348
      40
0.252717391304348
      40
0.255434782608696
      40
0.255434782608696
      40
0.255434782608696
      40
0.255434782608696
      40
0.258152173913043
      40
0.258152173913043
      40
0.258152173913043
      40
0.258152173913043
      40
0.260869565217391
      40
0.260869565217391
      40
0.260869565217391
      40
0.260869565217391
      40
0.263586956521739
      40
0.263586956521739
      40
0.263586956521739
      40
0.263586956521739
      40
0.266304347826087
      40
0.266304347826087
      40
0.266304347826087
      40
0.266304347826087
      40
0.269021739130435
      40
0.269021739130435
      40
0.269021739130435
      40
0.269021739130435
      40
0.271739130434783
      40
0.271739130434783
      40
0.271739130434783
      40
0.271739130434783
      40
0.27445652173913
      40
0.27445652173913
      40
0.27445652173913
      40
0.27445652173913
      40
0.277173913043478
      40
0.277173913043478
      40
0.277173913043478
      40
0.277173913043478
      40
0.279891304347826
      40
0.279891304347826
      40
0.279891304347826
      40
0.279891304347826
      40
0.282608695652174
      40
0.282608695652174
      40
0.282608695652174
      40
0.282608695652174
      40
0.285326086956522
      40
0.285326086956522
      40
0.285326086956522
      40
0.285326086956522
      40
0.28804347826087
      40
0.28804347826087
      40
0.28804347826087
      40
0.28804347826087
      40
0.290760869565217
      40
0.290760869565217
      40
0.290760869565217
      40
0.290760869565217
      40
0.293478260869565
      40
0.293478260869565
      40
0.293478260869565
      40
0.293478260869565
      40
0.296195652173913
      40
0.296195652173913
      40
0.296195652173913
      40
0.296195652173913
      40
0.298913043478261
      40
0.298913043478261
      40
0.298913043478261
      40
0.298913043478261
      40
0.301630434782609
      40
0.301630434782609
      40
0.301630434782609
      40
0.301630434782609
      40
0.304347826086957
      40
0.304347826086957
      40
0.304347826086957
      40
0.304347826086957
      40
0.307065217391304
      40
0.307065217391304
      40
0.307065217391304
      40
0.307065217391304
      40
0.309782608695652
      40
0.309782608695652
      40
0.309782608695652
      40
0.309782608695652
      40
0.3125
      40
0.3125
      40
0.3125
      40
0.3125
      40
0.315217391304348
      40
0.315217391304348
      40
0.315217391304348
      40
0.315217391304348
      40
0.317934782608696
      40
0.317934782608696
      40
0.317934782608696
      40
0.317934782608696
      40
0.320652173913043
      40
0.320652173913043
      40
0.320652173913043
      40
0.320652173913043
      40
0.323369565217391
      40
0.323369565217391
      40
0.323369565217391
      40
0.323369565217391
      40
0.326086956521739
      40
0.326086956521739
      40
0.326086956521739
      40
0.326086956521739
      40
0.328804347826087
      40
0.328804347826087
      40
0.328804347826087
      40
0.328804347826087
      40
0.331521739130435
      40
0.331521739130435
      40
0.331521739130435
      40
0.331521739130435
      40
0.334239130434783
      40
0.334239130434783
      40
0.334239130434783
      40
0.334239130434783
      40
0.33695652173913
      40
0.33695652173913
      40
0.33695652173913
      40
0.33695652173913
      40
0.339673913043478
      40
0.339673913043478
      40
0.339673913043478
      40
0.339673913043478
      40
0.342391304347826
      40
0.342391304347826
      40
0.342391304347826
      40
0.342391304347826
      40
0.345108695652174
      40
0.345108695652174
      40
0.345108695652174
      40
0.345108695652174
      40
0.347826086956522
      40
0.347826086956522
      40
0.347826086956522
      40
0.347826086956522
      40
0.35054347826087
      40
0.35054347826087
      40
0.35054347826087
      40
0.35054347826087
      40
0.353260869565217
      40
0.353260869565217
      40
0.353260869565217
      40
0.353260869565217
      40
0.355978260869565
      40
0.355978260869565
      40
0.355978260869565
      40
0.355978260869565
      40
0.358695652173913
      40
0.358695652173913
      40
0.358695652173913
      40
0.358695652173913
      40
0.361413043478261
      40
0.361413043478261
      40
0.361413043478261
      40
0.361413043478261
      40
0.364130434782609
      40
0.364130434782609
      40
0.364130434782609
      40
0.364130434782609
      40
0.366847826086957
      40
0.366847826086957
      40
0.366847826086957
      40
0.366847826086957
      40
0.369565217391304
      40
0.369565217391304
      40
0.369565217391304
      40
0.369565217391304
      40
0.372282608695652
      40
0.372282608695652
      40
0.372282608695652
      40
0.372282608695652
      40
0.375
      40
0.375
      40
0.375
      40
0.375
      40
0.377717391304348
      40
0.377717391304348
      40
0.377717391304348
      40
0.377717391304348
      40
0.380434782608696
      40
0.380434782608696
      40
0.380434782608696
      40
0.380434782608696
      40
0.383152173913043
      40
0.383152173913043
      40
0.383152173913043
      40
0.383152173913043
      40
0.385869565217391
      40
0.385869565217391
      40
0.385869565217391
      40
0.385869565217391
      40
0.388586956521739
      40
0.388586956521739
      40
0.388586956521739
      40
0.388586956521739
      40
0.391304347826087
      40
0.391304347826087
      40
0.391304347826087
      40
0.391304347826087
      40
0.394021739130435
      40
0.394021739130435
      40
0.394021739130435
      40
0.394021739130435
      40
0.396739130434783
      40
0.396739130434783
      40
0.396739130434783
      40
0.396739130434783
      40
0.39945652173913
      40
0.39945652173913
      40
0.39945652173913
      40
0.39945652173913
      40
0.402173913043478
      40
0.402173913043478
      40
0.402173913043478
      40
0.402173913043478
      40
0.404891304347826
      40
0.404891304347826
      40
0.404891304347826
      40
0.404891304347826
      40
0.407608695652174
      40
0.407608695652174
      40
0.407608695652174
      40
0.407608695652174
      40
0.410326086956522
      40
0.410326086956522
      40
0.410326086956522
      40
0.410326086956522
      40
0.41304347826087
      40
0.41304347826087
      40
0.41304347826087
      40
0.41304347826087
      40
0.415760869565217
      40
0.415760869565217
      40
0.415760869565217
      40
0.415760869565217
      40
0.418478260869565
      40
0.418478260869565
      40
0.418478260869565
      40
0.418478260869565
      40
0.421195652173913
      40
0.421195652173913
      40
0.421195652173913
      40
0.421195652173913
      40
0.423913043478261
      40
0.423913043478261
      40
0.423913043478261
      40
0.423913043478261
      40
0.426630434782609
      40
0.426630434782609
      40
0.426630434782609
      40
0.426630434782609
      40
0.429347826086957
      40
0.429347826086957
      40
0.429347826086957
      40
0.429347826086957
      40
0.432065217391304
      40
0.432065217391304
      40
0.432065217391304
      40
0.432065217391304
      40
0.434782608695652
      40
0.434782608695652
      40
0.434782608695652
      40
0.434782608695652
      40
0.4375
      40
0.4375
      40
0.4375
      40
0.4375
      40
0.440217391304348
      40
0.440217391304348
      40
0.440217391304348
      40
0.440217391304348
      40
0.442934782608696
      40
0.442934782608696
      40
0.442934782608696
      40
0.442934782608696
      40
0.445652173913043
      40
0.445652173913043
      40
0.445652173913043
      40
0.445652173913043
      40
0.448369565217391
      40
0.448369565217391
      40
0.448369565217391
      40
0.448369565217391
      40
0.451086956521739
      40
0.451086956521739
      40
0.451086956521739
      40
0.451086956521739
      40
0.453804347826087
      40
0.453804347826087
      40
0.453804347826087
      40
0.453804347826087
      40
0.456521739130435
      40
0.456521739130435
      40
0.456521739130435
      40
0.456521739130435
      40
0.459239130434783
      40
0.459239130434783
      40
0.459239130434783
      40
0.459239130434783
      40
0.46195652173913
      40
0.46195652173913
      40
0.46195652173913
      40
0.46195652173913
      40
0.464673913043478
      40
0.464673913043478
      40
0.464673913043478
      40
0.464673913043478
      40
0.467391304347826
      40
0.467391304347826
      40
0.467391304347826
      40
0.467391304347826
      40
0.470108695652174
      40
0.470108695652174
      40
0.470108695652174
      40
0.470108695652174
      40
0.472826086956522
      40
0.472826086956522
      40
0.472826086956522
      40
0.472826086956522
      40
0.47554347826087
      40
0.47554347826087
      40
0.47554347826087
      40
0.47554347826087
      40
0.478260869565217
      40
0.478260869565217
      40
0.478260869565217
      40
0.478260869565217
      40
0.480978260869565
      40
0.480978260869565
      40
0.480978260869565
      40
0.480978260869565
      40
0.483695652173913
      40
0.483695652173913
      40
0.483695652173913
      40
0.483695652173913
      40
0.486413043478261
      40
0.486413043478261
      40
0.486413043478261
      40
0.486413043478261
      40
0.489130434782609
      40
0.489130434782609
      40
0.489130434782609
      40
0.489130434782609
      40
0.491847826086957
      40
0.491847826086957
      40
0.491847826086957
      40
0.491847826086957
      40
0.494565217391304
      40
0.494565217391304
      40
0.494565217391304
      40
0.494565217391304
      40
0.497282608695652
      40
0.497282608695652
      40
0.497282608695652
      40
0.497282608695652
      40
0.5
      40
0.5
      40
0.5
      40
0.5
      40
0.502717391304348
      40
0.502717391304348
      40
0.502717391304348
      40
0.502717391304348
      40
0.505434782608696
      40
0.505434782608696
      40
0.505434782608696
      40
0.505434782608696
      40
0.508152173913043
      40
0.508152173913043
      40
0.508152173913043
      40
0.508152173913043
      40
0.510869565217391
      40
0.510869565217391
      40
0.510869565217391
      40
0.510869565217391
      40
0.513586956521739
      40
0.513586956521739
      40
0.513586956521739
      40
0.513586956521739
      40
0.516304347826087
      40
0.516304347826087
      40
0.516304347826087
      40
0.516304347826087
      40
0.519021739130435
      40
0.519021739130435
      40
0.519021739130435
      40
0.519021739130435
      40
0.521739130434783
      40
0.521739130434783
      40
0.521739130434783
      40
0.521739130434783
      40
0.52445652173913
      40
0.52445652173913
      40
0.52445652173913
      40
0.52445652173913
      40
0.527173913043478
      40
0.527173913043478
      40
0.527173913043478
      40
0.527173913043478
      40
0.529891304347826
      40
0.529891304347826
      40
0.529891304347826
      40
0.529891304347826
      40
0.532608695652174
      40
0.532608695652174
      40
0.532608695652174
      40
0.532608695652174
      40
0.535326086956522
      40
0.535326086956522
      40
0.535326086956522
      40
0.535326086956522
      40
0.53804347826087
      40
0.53804347826087
      40
0.53804347826087
      40
0.53804347826087
      40
0.540760869565217
      40
0.540760869565217
      40
0.540760869565217
      40
0.540760869565217
      40
0.543478260869565
      40
0.543478260869565
      40
0.543478260869565
      40
0.543478260869565
      40
0.546195652173913
      40
0.546195652173913
      40
0.546195652173913
      40
0.546195652173913
      40
0.548913043478261
      40
0.548913043478261
      40
0.548913043478261
      40
0.548913043478261
      40
0.551630434782609
      40
0.551630434782609
      40
0.551630434782609
      40
0.551630434782609
      40
0.554347826086957
      40
0.554347826086957
      40
0.554347826086957
      40
0.554347826086957
      40
0.557065217391304
      40
0.557065217391304
      40
0.557065217391304
      40
0.557065217391304
      40
0.559782608695652
      40
0.559782608695652
      40
0.559782608695652
      40
0.559782608695652
      40
0.5625
      40
0.5625
      40
0.5625
      40
0.5625
      40
0.565217391304348
      40
0.565217391304348
      40
0.565217391304348
      40
0.565217391304348
      40
0.567934782608696
      40
0.567934782608696
      40
0.567934782608696
      40
0.567934782608696
      40
0.570652173913043
      40
0.570652173913043
      40
0.570652173913043
      40
0.570652173913043
      40
0.573369565217391
      40
0.573369565217391
      40
0.573369565217391
      40
0.573369565217391
      40
0.576086956521739
      40
0.576086956521739
      40
0.576086956521739
      40
0.576086956521739
      40
0.578804347826087
      40
0.578804347826087
      40
0.578804347826087
      40
0.578804347826087
      40
0.581521739130435
      40
0.581521739130435
      40
0.581521739130435
      40
0.581521739130435
      40
0.584239130434783
      40
0.584239130434783
      40
0.584239130434783
      40
0.584239130434783
      40
0.58695652173913
      40
0.58695652173913
      40
0.58695652173913
      40
0.58695652173913
      40
0.589673913043478
      40
0.589673913043478
      40
0.589673913043478
      40
0.589673913043478
      40
0.592391304347826
      40
0.592391304347826
      40
0.592391304347826
      40
0.592391304347826
      40
0.595108695652174
      40
0.595108695652174
      40
0.595108695652174
      40
0.595108695652174
      40
0.597826086956522
      40
0.597826086956522
      40
0.597826086956522
      40
0.597826086956522
      40
0.60054347826087
      40
0.60054347826087
      40
0.60054347826087
      40
0.60054347826087
      40
0.603260869565217
      40
0.603260869565217
      40
0.603260869565217
      40
0.603260869565217
      40
0.605978260869565
      40
0.605978260869565
      40
0.605978260869565
      40
0.605978260869565
      40
0.608695652173913
      40
0.608695652173913
      40
0.608695652173913
      40
0.608695652173913
      40
0.611413043478261
      40
0.611413043478261
      40
0.611413043478261
      40
0.611413043478261
      40
0.614130434782609
      40
0.614130434782609
      40
0.614130434782609
      40
0.614130434782609
      40
0.616847826086957
      40
0.616847826086957
      40
0.616847826086957
      40
0.616847826086957
      40
0.619565217391304
      40
0.619565217391304
      40
0.619565217391304
      40
0.619565217391304
      40
0.622282608695652
      40
0.622282608695652
      40
0.622282608695652
      40
0.622282608695652
      40
0.625
      40
0.625
      40
0.625
      40
0.625
      40
0.627717391304348
      40
0.627717391304348
      40
0.627717391304348
      40
0.627717391304348
      40
0.630434782608696
      40
0.630434782608696
      40
0.630434782608696
      40
0.630434782608696
      40
0.633152173913043
      40
0.633152173913043
      40
0.633152173913043
      40
0.633152173913043
      40
0.635869565217391
      40
0.635869565217391
      40
0.635869565217391
      40
0.635869565217391
      40
0.638586956521739
      40
0.638586956521739
      40
0.638586956521739
      40
0.638586956521739
      40
0.641304347826087
      40
0.641304347826087
      40
0.641304347826087
      40
0.641304347826087
      40
0.644021739130435
      40
0.644021739130435
      40
0.644021739130435
      40
0.644021739130435
      40
0.646739130434783
      40
0.646739130434783
      40
0.646739130434783
      40
0.646739130434783
      40
0.64945652173913
      40
0.64945652173913
      40
0.64945652173913
      40
0.64945652173913
      40
0.652173913043478
      40
0.652173913043478
      40
0.652173913043478
      40
0.652173913043478
      40
0.654891304347826
      40
0.654891304347826
      40
0.654891304347826
      40
0.654891304347826
      40
0.657608695652174
      40
0.657608695652174
      40
0.657608695652174
      40
0.657608695652174
      40
0.660326086956522
      40
0.660326086956522
      40
0.660326086956522
      40
0.660326086956522
      40
0.66304347826087
      40
0.66304347826087
      40
0.66304347826087
      40
0.66304347826087
      40
0.665760869565217
      40
0.665760869565217
      40
0.665760869565217
      40
0.665760869565217
      40
0.668478260869565
      40
0.668478260869565
      40
0.668478260869565
      40
0.668478260869565
      40
0.671195652173913
      40
0.671195652173913
      40
0.671195652173913
      40
0.671195652173913
      40
0.673913043478261
      40
0.673913043478261
      40
0.673913043478261
      40
0.673913043478261
      40
0.676630434782609
      40
0.676630434782609
      40
0.676630434782609
      40
0.676630434782609
      40
0.679347826086957
      40
0.679347826086957
      40
0.679347826086957
      40
0.679347826086957
      40
0.682065217391304
      40
0.682065217391304
      40
0.682065217391304
      40
0.682065217391304
      40
0.684782608695652
      40
0.684782608695652
      40
0.684782608695652
      40
0.684782608695652
      40
0.6875
      40
0.6875
      40
0.6875
      40
0.6875
      40
0.690217391304348
      40
0.690217391304348
      40
0.690217391304348
      40
0.690217391304348
      40
0.692934782608696
      40
0.692934782608696
      40
0.692934782608696
      40
0.692934782608696
      40
0.695652173913043
      40
0.695652173913043
      40
0.695652173913043
      40
0.695652173913043
      40
0.698369565217391
      40
0.698369565217391
      40
0.698369565217391
      40
0.698369565217391
      40
0.701086956521739
      40
0.701086956521739
      40
0.701086956521739
      40
0.701086956521739
      40
0.703804347826087
      40
0.703804347826087
      40
0.703804347826087
      40
0.703804347826087
      40
0.706521739130435
      40
0.706521739130435
      40
0.706521739130435
      40
0.706521739130435
      40
0.709239130434783
      40
0.709239130434783
      40
0.709239130434783
      40
0.709239130434783
      40
0.71195652173913
      40
0.71195652173913
      40
0.71195652173913
      40
0.71195652173913
      40
0.714673913043478
      40
0.714673913043478
      40
0.714673913043478
      40
0.714673913043478
      40
0.717391304347826
      40
0.717391304347826
      40
0.717391304347826
      40
0.717391304347826
      40
0.720108695652174
      40
0.720108695652174
      40
0.720108695652174
      40
0.720108695652174
      40
0.722826086956522
      40
0.722826086956522
      40
0.722826086956522
      40
0.722826086956522
      40
0.72554347826087
      40
0.72554347826087
      40
0.72554347826087
      40
0.72554347826087
      40
0.728260869565217
      40
0.728260869565217
      40
0.728260869565217
      40
0.728260869565217
      40
0.730978260869565
      40
0.730978260869565
      40
0.730978260869565
      40
0.730978260869565
      40
0.733695652173913
      40
0.733695652173913
      40
0.733695652173913
      40
0.733695652173913
      40
0.736413043478261
      40
0.736413043478261
      40
0.736413043478261
      40
0.736413043478261
      40
0.739130434782609
      40
0.739130434782609
      40
0.739130434782609
      40
0.739130434782609
      40
0.741847826086957
      40
0.741847826086957
      40
0.741847826086957
      40
0.741847826086957
      40
0.744565217391304
      40
0.744565217391304
      40
0.744565217391304
      40
0.744565217391304
      40
0.747282608695652
      40
0.747282608695652
      40
0.747282608695652
      40
0.747282608695652
      40
0.75
      40
0.75
      40
0.75
      40
0.75
      40
0.752717391304348
      40
0.752717391304348
      40
0.752717391304348
      40
0.752717391304348
      40
0.755434782608696
      40
0.755434782608696
      40
0.755434782608696
      40
0.755434782608696
      40
0.758152173913043
      40
0.758152173913043
      40
0.758152173913043
      40
0.758152173913043
      40
0.760869565217391
      40
0.760869565217391
      40
0.760869565217391
      40
0.760869565217391
      40
0.763586956521739
      40
0.763586956521739
      40
0.763586956521739
      40
0.763586956521739
      40
0.766304347826087
      40
0.766304347826087
      40
0.766304347826087
      40
0.766304347826087
      40
0.769021739130435
      40
0.769021739130435
      40
0.769021739130435
      40
0.769021739130435
      40
0.771739130434783
      40
0.771739130434783
      40
0.771739130434783
      40
0.771739130434783
      40
0.77445652173913
      40
0.77445652173913
      40
0.77445652173913
      40
0.77445652173913
      40
0.777173913043478
      40
0.777173913043478
      40
0.777173913043478
      40
0.777173913043478
      40
0.779891304347826
      40
0.779891304347826
      40
0.779891304347826
      40
0.779891304347826
      40
0.782608695652174
      40
0.782608695652174
      40
0.782608695652174
      40
0.782608695652174
      40
0.785326086956522
      40
0.785326086956522
      40
0.785326086956522
      40
0.785326086956522
      40
0.78804347826087
      40
0.78804347826087
      40
0.78804347826087
      40
0.78804347826087
      40
0.790760869565217
      40
0.790760869565217
      40
0.790760869565217
      40
0.790760869565217
      40
0.793478260869565
      40
0.793478260869565
      40
0.793478260869565
      40
0.793478260869565
      40
0.796195652173913
      40
0.796195652173913
      40
0.796195652173913
      40
0.796195652173913
      40
0.798913043478261
      40
0.798913043478261
      40
0.798913043478261
      40
0.798913043478261
      40
0.801630434782609
      40
0.801630434782609
      40
0.801630434782609
      40
0.801630434782609
      40
0.804347826086957
      40
0.804347826086957
      40
0.804347826086957
      40
0.804347826086957
      40
0.807065217391304
      40
0.807065217391304
      40
0.807065217391304
      40
0.807065217391304
      40
0.809782608695652
      40
0.809782608695652
      40
0.809782608695652
      40
0.809782608695652
      40
0.8125
      40
0.8125
      40
0.8125
      40
0.8125
      40
0.815217391304348
      40
0.815217391304348
      40
0.815217391304348
      40
0.815217391304348
      40
0.817934782608696
      40
0.817934782608696
      40
0.817934782608696
      40
0.817934782608696
      40
0.820652173913043
      40
0.820652173913043
      40
0.820652173913043
      40
0.820652173913043
      40
0.823369565217391
      40
0.823369565217391
      40
0.823369565217391
      40
0.823369565217391
      40
0.826086956521739
      40
0.826086956521739
      40
0.826086956521739
      40
0.826086956521739
      40
0.828804347826087
      40
0.828804347826087
      40
0.828804347826087
      40
0.828804347826087
      40
0.831521739130435
      40
0.831521739130435
      40
0.831521739130435
      40
0.831521739130435
      40
0.834239130434783
      40
0.834239130434783
      40
0.834239130434783
      40
0.834239130434783
      40
0.83695652173913
      40
0.83695652173913
      40
0.83695652173913
      40
0.83695652173913
      40
0.839673913043478
      40
0.839673913043478
      40
0.839673913043478
      40
0.839673913043478
      40
0.842391304347826
      40
0.842391304347826
      40
0.842391304347826
      40
0.842391304347826
      40
0.845108695652174
      40
0.845108695652174
      40
0.845108695652174
      40
0.845108695652174
      40
0.847826086956522
      40
0.847826086956522
      40
0.847826086956522
      40
0.847826086956522
      40
0.85054347826087
      40
0.85054347826087
      40
0.85054347826087
      40
0.85054347826087
      40
0.853260869565217
      40
0.853260869565217
      40
0.853260869565217
      40
0.853260869565217
      40
0.855978260869565
      40
0.855978260869565
      40
0.855978260869565
      40
0.855978260869565
      40
0.858695652173913
      40
0.858695652173913
      40
0.858695652173913
      40
0.858695652173913
      40
0.861413043478261
      40
0.861413043478261
      40
0.861413043478261
      40
0.861413043478261
      40
0.864130434782609
      40
0.864130434782609
      40
0.864130434782609
      40
0.864130434782609
      40
0.866847826086957
      40
0.866847826086957
      40
0.866847826086957
      40
0.866847826086957
      40
0.869565217391304
      40
0.869565217391304
      40
0.869565217391304
      40
0.869565217391304
      40
0.872282608695652
      40
0.872282608695652
      40
0.872282608695652
      40
0.872282608695652
      40
0.875
      40
0.875
      40
0.875
      40
0.875
      40
0.877717391304348
      40
0.877717391304348
      40
0.877717391304348
      40
0.877717391304348
      40
0.880434782608696
      40
0.880434782608696
      40
0.880434782608696
      40
0.880434782608696
      40
0.883152173913043
      40
0.883152173913043
      40
0.883152173913043
      40
0.883152173913043
      40
0.885869565217391
      40
0.885869565217391
      40
0.885869565217391
      40
0.885869565217391
      40
0.888586956521739
      40
0.888586956521739
      40
0.888586956521739
      40
0.888586956521739
      40
0.891304347826087
      40
0.891304347826087
      40
0.891304347826087
      40
0.891304347826087
      40
0.894021739130435
      40
0.894021739130435
      40
0.894021739130435
      40
0.894021739130435
      40
0.896739130434783
      40
0.896739130434783
      40
0.896739130434783
      40
0.896739130434783
      40
0.89945652173913
      40
0.89945652173913
      40
0.89945652173913
      40
0.89945652173913
      40
0.902173913043478
      40
0.902173913043478
      40
0.902173913043478
      40
0.902173913043478
      40
0.904891304347826
      40
0.904891304347826
      40
0.904891304347826
      40
0.904891304347826
      40
0.907608695652174
      40
0.907608695652174
      40
0.907608695652174
      40
0.907608695652174
      40
0.910326086956522
      40
0.910326086956522
      40
0.910326086956522
      40
0.910326086956522
      40
0.91304347826087
      40
0.91304347826087
      40
0.91304347826087
      40
0.91304347826087
      40
0.915760869565217
      40
0.915760869565217
      40
0.915760869565217
      40
0.915760869565217
      40
0.918478260869565
      40
0.918478260869565
      40
0.918478260869565
      40
0.918478260869565
      40
0.921195652173913
      40
0.921195652173913
      40
0.921195652173913
      40
0.921195652173913
      40
0.923913043478261
      40
0.923913043478261
      40
0.923913043478261
      40
0.923913043478261
      40
0.926630434782609
      40
0.926630434782609
      40
0.926630434782609
      40
0.926630434782609
      40
0.929347826086957
      40
0.929347826086957
      40
0.929347826086957
      40
0.929347826086957
      40
0.932065217391304
      40
0.932065217391304
      40
0.932065217391304
      40
0.932065217391304
      40
0.934782608695652
      40
0.934782608695652
      40
0.934782608695652
      40
0.934782608695652
      40
0.9375
      40
0.9375
      40
0.9375
      40
0.9375
      40
0.940217391304348
      40
0.940217391304348
      40
0.940217391304348
      40
0.940217391304348
      40
0.942934782608696
      40
0.942934782608696
      40
0.942934782608696
      40
0.942934782608696
      40
0.945652173913043
      40
0.945652173913043
      40
0.945652173913043
      40
0.945652173913043
      40
0.948369565217391
      40
0.948369565217391
      40
0.948369565217391
      40
0.948369565217391
      40
0.951086956521739
      40
0.951086956521739
      40
0.951086956521739
      40
0.951086956521739
      40
0.953804347826087
      40
0.953804347826087
      40
0.953804347826087
      40
0.953804347826087
      40
0.956521739130435
      40
0.956521739130435
      40
0.956521739130435
      40
0.956521739130435
      40
0.959239130434783
      40
0.959239130434783
      40
0.959239130434783
      40
0.959239130434783
      40
0.96195652173913
      40
0.96195652173913
      40
0.96195652173913
      40
0.96195652173913
      40
0.964673913043478
      40
0.964673913043478
      40
0.964673913043478
      40
0.964673913043478
      40
0.967391304347826
      40
0.967391304347826
      40
0.967391304347826
      40
0.967391304347826
      40
0.970108695652174
      40
0.970108695652174
      40
0.970108695652174
      40
0.970108695652174
      40
0.972826086956522
      40
0.972826086956522
      40
0.972826086956522
      40
0.972826086956522
      40
0.97554347826087
      40
0.97554347826087
      40
0.97554347826087
      40
0.97554347826087
      40
0.978260869565217
      40
0.978260869565217
      40
0.978260869565217
      40
0.978260869565217
      40
0.980978260869565
      40
0.980978260869565
      40
0.980978260869565
      40
0.980978260869565
      40
0.983695652173913
      40
0.983695652173913
      40
0.983695652173913
      40
0.983695652173913
      40
0.986413043478261
      40
0.986413043478261
      40
0.986413043478261
      40
0.986413043478261
      40
0.989130434782609
      40
0.989130434782609
      40
0.989130434782609
      40
0.989130434782609
      40
0.991847826086957
      40
0.991847826086957
      40
0.991847826086957
      40
0.991847826086957
      40
0.994565217391304
      40
0.994565217391304
      40
0.994565217391304
      40
0.994565217391304
      40
0.997282608695652
      40
0.997282608695652
      40
0.997282608695652
      40
0.997282608695652
      40
1
      40
1
      40
1
      40
1
      10
90.5165922511359
      20
1562.26015136853
      30
0
      10
89.6355112511359
      20
1563.40151136853
      30
0
      10
88.5637552511359
      20
1564.43244136853
      30
0
      10
87.366639251136
      20
1565.24120136853
      30
0
      10
87.366639251136
      20
1565.24120136853
      30
0
      10
86.5451792511359
      20
1565.75967136853
      30
0
      10
85.7237192511359
      20
1566.27813136853
      30
0
      10
84.9022582511359
      20
1566.79659136853
      30
0
      10
84.9022582511359
      20
1566.79659136853
      30
0
      10
84.0638872511359
      20
1567.31608136853
      30
0
      10
83.2255162511359
      20
1567.83557136853
      30
0
      10
82.3871452511359
      20
1568.35506136853
      30
0
      10
82.3871452511359
      20
1568.35506136853
      30
0
      10
81.5446512511359
      20
1568.86802136853
      30
0
      10
80.7021572511359
      20
1569.38099136853
      30
0
      10
79.8596632511359
      20
1569.89396136853
      30
0
      10
79.8596632511359
      20
1569.89396136853
      30
0
      10
79.752153251136
      20
1569.96146136853
      30
0
      10
79.6446432511359
      20
1570.02895136853
      30
0
      10
79.5371332511359
      20
1570.09645136853
      30
0
      10
79.5371332511359
      20
1570.09645136853
      30
0
      10
78.7662542511359
      20
1570.63954136853
      30
0
      10
78.8328682511359
      20
1571.24397136853
      30
0
      10
79.7073102511359
      20
1571.51561136853
      30
0
      10
79.7073102511359
      20
1571.51561136853
      30
0
      10
80.1312312511359
      20
1571.63035136853
      30
0
      10
80.555152251136
      20
1571.74510136853
      30
0
      10
80.9790722511359
      20
1571.85984136853
      30
0
      10
80.9790722511359
      20
1571.85984136853
      30
0
      10
81.8452382511359
      20
1572.09476136853
      30
0
      10
82.7114052511359
      20
1572.32968136853
      30
0
      10
83.5775712511359
      20
1572.56460136853
      30
0
      10
83.5775712511359
      20
1572.56460136853
      30
0
      10
83.6807202511359
      20
1572.59468136853
      30
0
      10
83.7838702511359
      20
1572.62477136853
      30
0
      10
83.8870192511359
      20
1572.65485136853
      30
0
      10
83.8870192511359
      20
1572.65485136853
      30
0
      10
83.9849652511359
      20
1572.68827136853
      30
0
      10
84.0829112511359
      20
1572.72169136853
      30
0
      10
84.1808572511359
      20
1572.75511136853
      30
0
      10
84.1808572511359
      20
1572.75511136853
      30
0
      10
85.1556762511359
      20
1573.10760136853
      30
0
      10
86.0812092511359
      20
1573.64141136853
      30
0
      10
86.8709002511359
      20
1574.30685136853
      30
0
      10
86.8709002511359
      20
1574.30685136853
      30
0
      10
86.9282362511359
      20
1574.35825136853
      30
0
      10
86.9855722511359
      20
1574.40965136853
      30
0
      10
87.0429082511359
      20
1574.46105136853
      30
0
      10
87.0429082511359
      20
1574.46105136853
      30
0
      10
87.245196251136
      20
1574.70744136853
      30
0
      10
87.3015312511359
      20
1574.81665136853
      30
0
      10
87.4285532511359
      20
1575.14482136853
      30
0
      10
87.4285532511359
      20
1575.14482136853
      30
0
      10
87.5827312511359
      20
1575.59095136853
      30
0
      10
87.6542222511359
      20
1576.25619136853
      30
0
      10
87.3667842511359
      20
1577.11498136853
      30
0
      10
87.3667842511359
      20
1577.11498136853
      30
0
      10
86.9583172511359
      20
1578.33232136853
      30
0
      10
86.1756982511359
      20
1578.73640136853
      30
0
      10
85.8247752511359
      20
1578.86004136853
      30
0
      10
85.8247752511359
      20
1578.86004136853
      30
0
      10
85.7710582511359
      20
1578.87561136853
      30
0
      10
85.7173412511359
      20
1578.89119136853
      30
0
      10
85.6636252511359
      20
1578.90676136853
      30
0
      10
85.6636252511359
      20
1578.90676136853
      30
0
      10
85.4867352511359
      20
1578.94450136853
      30
0
      10
84.5736012511359
      20
1579.02641136853
      30
0
      10
84.0201452511359
      20
1578.99168136853
      30
0
      10
84.0201452511359
      20
1578.99168136853
      30
0
      10
83.8094682511359
      20
1578.97718136853
      30
0
      10
83.5987912511359
      20
1578.96269136853
      30
0
      10
83.3881132511359
      20
1578.94819136853
      30
0
      10
83.3881132511359
      20
1578.94819136853
      30
0
      10
82.8492102511359
      20
1578.91071136853
      30
0
      10
81.9073952511359
      20
1578.69096136853
      30
0
      10
81.8149992511359
      20
1578.65134136853
      30
0
      10
81.8149992511359
      20
1578.65134136853
      30
0
      10
81.5540462511359
      20
1578.57326136853
      30
0
      10
81.2930922511359
      20
1578.49518136853
      30
0
      10
81.0321392511359
      20
1578.41710136853
      30
0
      10
81.0321392511359
      20
1578.41710136853
      30
0
      10
80.5099952511359
      20
1578.26178136853
      30
0
      10
79.9878512511359
      20
1578.10645136853
      30
0
      10
79.4657082511359
      20
1577.95113136853
      30
0
      10
79.4657082511359
      20
1577.95113136853
      30
0
      10
78.4205582511359
      20
1577.64347136853
      30
0
      10
77.3754082511359
      20
1577.33581136853
      30
0
      10
76.3302592511359
      20
1577.02815136853
      30
0
      10
76.3302592511359
      20
1577.02815136853
      30
0
      10
75.2841222511359
      20
1576.72376136853
      30
0
      10
74.2379862511359
      20
1576.41937136853
      30
0
      10
73.1918492511359
      20
1576.11498136853
      30
0
      10
73.1918492511359
      20
1576.11498136853
      30
0
      10
72.9301842511359
      20
1576.03929136853
      30
0
      10
72.6685182511359
      20
1575.96361136853
      30
0
      10
72.4068532511359
      20
1575.88792136853
      30
0
      10
72.4068532511359
      20
1575.88792136853
      30
0
      10
71.7513672511359
      20
1575.71959136853
      30
0
      10
71.1850952511359
      20
1575.70454136853
      30
0
      10
70.5579902511359
      20
1575.77079136853
      30
0
      10
70.5579902511359
      20
1575.77079136853
      30
0
      10
69.9483932511359
      20
1575.84253136853
      30
0
      10
69.3503902511359
      20
1576.01828136853
      30
0
      10
68.8107002511359
      20
1576.28776136853
      30
0
      10
68.8107002511359
      20
1576.28776136853
      30
0
      10
68.7436582511359
      20
1576.32431136853
      30
0
      10
68.676617251136
      20
1576.36086136853
      30
0
      10
68.6095762511359
      20
1576.39741136853
      30
0
      10
68.6095762511359
      20
1576.39741136853
      30
0
      10
68.4396032511359
      20
1576.50058136853
      30
0
      10
66.9562372511359
      20
1577.30005136853
      30
0
      10
66.6527762511359
      20
1577.49856136853
      30
0
      10
66.6527762511359
      20
1577.49856136853
      30
0
      10
65.7676042511359
      20
1578.10673136853
      30
0
      10
65.1534692511359
      20
1579.11687136853
      30
0
      10
65.0330002511359
      20
1580.18263136853
      30
0
      10
65.0330002511359
      20
1580.18263136853
      30
0
      10
65.0113702511359
      20
1580.43583136853
      30
0
      10
64.9997632511359
      20
1580.89898136853
      30
0
      10
64.9171902511359
      20
1583.31761136853
      30
0
      10
64.9171902511359
      20
1583.31761136853
      30
0
      10
64.8980202511359
      20
1583.92815136853
      30
0
      10
64.8788492511359
      20
1584.53869136853
      30
0
      10
64.8596792511359
      20
1585.14923136853
      30
0
      10
64.8596792511359
      20
1585.14923136853
      30
0
      10
64.8540712511359
      20
1585.42906136853
      30
0
      10
64.8484642511359
      20
1585.70890136853
      30
0
      10
64.8428562511359
      20
1585.98874136853
      30
0
      10
64.8428562511359
      20
1585.98874136853
      30
0
      10
64.896493251136
      20
1587.06022136853
      30
0
      10
65.4457192511359
      20
1588.10665136853
      30
0
      10
66.2915132511359
      20
1588.76855136853
      30
0
      10
66.2915132511359
      20
1588.76855136853
      30
0
      10
66.3655552511359
      20
1588.82110136853
      30
0
      10
66.4395972511359
      20
1588.87366136853
      30
0
      10
66.5136402511359
      20
1588.92621136853
      30
0
      10
66.5136402511359
      20
1588.92621136853
      30
0
      10
66.7052152511359
      20
1589.04600136853
      30
0
      10
68.2752522511359
      20
1590.06290136853
      30
0
      10
68.5211882511359
      20
1590.21703136853
      30
0
      10
68.5211882511359
      20
1590.21703136853
      30
0
      10
69.4778612511359
      20
1590.77254136853
      30
0
      10
70.6491822511359
      20
1591.02724136853
      30
0
      10
71.7531252511359
      20
1590.89867136853
      30
0
      10
71.7531252511359
      20
1590.89867136853
      30
0
      10
71.8701802511359
      20
1590.87958136853
      30
0
      10
71.9872352511359
      20
1590.86050136853
      30
0
      10
72.1042902511359
      20
1590.84141136853
      30
0
      10
72.1042902511359
      20
1590.84141136853
      30
0
      10
72.6277402511359
      20
1590.72658136853
      30
0
      10
73.1511912511359
      20
1590.61174136853
      30
0
      10
73.6746422511359
      20
1590.49691136853
      30
0
      10
73.6746422511359
      20
1590.49691136853
      30
0
      10
74.7210412511359
      20
1590.26511136853
      30
0
      10
75.7674402511359
      20
1590.03331136853
      30
0
      10
76.8138392511359
      20
1589.80150136853
      30
0
      10
76.8138392511359
      20
1589.80150136853
      30
0
      10
78.5550802511359
      20
1589.40781136853
      30
0
      10
80.2963202511359
      20
1589.01411136853
      30
0
      10
82.0375612511359
      20
1588.62041136853
      30
0
      10
82.0375612511359
      20
1588.62041136853
      30
0
      10
82.5933562511359
      20
1588.49966136853
      30
0
      10
83.1491522511359
      20
1588.37890136853
      30
0
      10
83.7049472511359
      20
1588.25814136853
      30
0
      10
83.7049472511359
      20
1588.25814136853
      30
0
      10
83.7869852511359
      20
1588.24491136853
      30
0
      10
83.8690232511359
      20
1588.23169136853
      30
0
      10
83.9510612511359
      20
1588.21846136853
      30
0
      10
83.9510612511359
      20
1588.21846136853
      30
0
      10
83.9865912511359
      20
1588.22039136853
      30
0
      10
84.0221202511359
      20
1588.22232136853
      30
0
      10
84.0576492511359
      20
1588.22424136853
      30
0
      10
84.0576492511359
      20
1588.22424136853
      30
0
      10
84.0906752511359
      20
1588.22629136853
      30
0
      10
84.1237012511359
      20
1588.22834136853
      30
0
      10
84.1567272511359
      20
1588.23039136853
      30
0
      10
84.1567272511359
      20
1588.23039136853
      30
0
      10
84.4770882511359
      20
1588.23930136853
      30
0
      10
85.0103432511359
      20
1588.37306136853
      30
0
      10
85.3609522511359
      20
1588.58529136853
      30
0
      10
85.3609522511359
      20
1588.58529136853
      30
0
      10
86.1243132511359
      20
1589.01255136853
      30
0
      10
86.6913412511359
      20
1589.77786136853
      30
0
      10
86.9251342511359
      20
1590.64726136853
      30
0
      10
86.9251342511359
      20
1590.64726136853
      30
0
      10
87.1043942511359
      20
1591.30381136853
      30
0
      10
87.0773392511359
      20
1591.94919136853
      30
0
      10
86.9475722511359
      20
1592.35798136853
      30
0
      10
86.9475722511359
      20
1592.35798136853
      30
0
      10
86.8230002511359
      20
1592.78716136853
      30
0
      10
86.6175072511359
      20
1593.06525136853
      30
0
      10
86.4947862511359
      20
1593.20259136853
      30
0
      10
86.4947862511359
      20
1593.20259136853
      30
0
      10
86.4624332511359
      20
1593.23524136853
      30
0
      10
86.4300792511359
      20
1593.26788136853
      30
0
      10
86.3977262511359
      20
1593.30052136853
      30
0
      10
86.3977262511359
      20
1593.30052136853
      30
0
      10
86.2697292511359
      20
1593.39385136853
      30
0
      10
86.1417322511359
      20
1593.48717136853
      30
0
      10
86.0137362511359
      20
1593.58050136853
      30
0
      10
86.0137362511359
      20
1593.58050136853
      30
0
      10
84.9776372511359
      20
1594.28587136853
      30
0
      10
83.8156712511359
      20
1594.77202136853
      30
0
      10
82.5602772511359
      20
1594.99364136853
      30
0
      10
82.5602772511359
      20
1594.99364136853
      30
0
      10
82.1376642511359
      20
1595.07887136853
      30
0
      10
81.7150512511359
      20
1595.16410136853
      30
0
      10
81.2924382511359
      20
1595.24933136853
      30
0
      10
81.2924382511359
      20
1595.24933136853
      30
0
      10
80.8697042511359
      20
1595.33404136853
      30
0
      10
80.446970251136
      20
1595.41876136853
      30
0
      10
80.0242362511359
      20
1595.50347136853
      30
0
      10
80.0242362511359
      20
1595.50347136853
      30
0
      10
79.8128292511359
      20
1595.54566136853
      30
0
      10
79.6014232511359
      20
1595.58786136853
      30
0
      10
79.3900162511359
      20
1595.63005136853
      30
0
      10
79.3900162511359
      20
1595.63005136853
      30
0
      10
78.7481332511359
      20
1595.73326136853
      30
0
      10
78.4689882511359
      20
1595.90872136853
      30
0
      10
78.3541782511359
      20
1596.17821136853
      30
0
      10
78.3541782511359
      20
1596.17821136853
      30
0
      10
78.2578182511359
      20
1596.44013136853
      30
0
      10
78.4021152511359
      20
1596.76478136853
      30
0
      10
78.7960172511359
      20
1597.08892136853
      30
0
      10
78.7960172511359
      20
1597.08892136853
      30
0
      10
79.0853912511359
      20
1597.29457136853
      30
0
      10
79.3747652511359
      20
1597.50022136853
      30
0
      10
79.6641382511359
      20
1597.70587136853
      30
0
      10
79.6641382511359
      20
1597.70587136853
      30
0
      10
80.4522532511359
      20
1598.26250136853
      30
0
      10
81.2403672511359
      20
1598.81913136853
      30
0
      10
82.0284812511359
      20
1599.37576136853
      30
0
      10
82.0284812511359
      20
1599.37576136853
      30
0
      10
82.8123502511359
      20
1599.93825136853
      30
0
      10
83.5962192511359
      20
1600.50074136853
      30
0
      10
84.3800892511359
      20
1601.06323136853
      30
0
      10
84.3800892511359
      20
1601.06323136853
      30
0
      10
84.7704502511359
      20
1601.34674136853
      30
0
      10
85.1608112511359
      20
1601.63024136853
      30
0
      10
85.5511722511359
      20
1601.91375136853
      30
0
      10
85.5511722511359
      20
1601.91375136853
      30
0
      10
85.7418462511359
      20
1602.05322136853
      30
0
      10
85.9325212511359
      20
1602.19268136853
      30
0
      10
86.1231952511359
      20
1602.33215136853
      30
0
      10
86.1231952511359
      20
1602.33215136853
      30
0
      10
86.2174802511359
      20
1602.40710136853
      30
0
      10
86.3117642511359
      20
1602.48205136853
      30
0
      10
86.4060482511359
      20
1602.55699136853
      30
0
      10
86.4060482511359
      20
1602.55699136853
      30
0
      10
87.3390102511359
      20
1603.32093136853
      30
0
      10
88.1720152511359
      20
1604.22739136853
      30
0
      10
88.8708362511359
      20
1605.20887136853
      30
0
      10
88.8708362511359
      20
1605.20887136853
      30
0
      10
88.9488332511359
      20
1605.32252136853
      30
0
      10
89.0268312511359
      20
1605.43616136853
      30
0
      10
89.1048282511359
      20
1605.54980136853
      30
0
      10
89.1048282511359
      20
1605.54980136853
      30
0
      10
89.2463302511359
      20
1605.81019136853
      30
0
      10
89.3025262511359
      20
1605.95038136853
      30
0
      10
89.3937232511359
      20
1606.29899136853
      30
0
      10
89.3937232511359
      20
1606.29899136853
      30
0
      10
89.4867382511359
      20
1606.69702136853
      30
0
      10
89.5217132511359
      20
1607.21802136853
      30
0
      10
89.3343732511359
      20
1607.78592136853
      30
0
      10
89.3343732511359
      20
1607.78592136853
      30
0
      10
89.2247322511359
      20
1608.12788136853
      30
0
      10
89.0079382511359
      20
1608.50600136853
      30
0
      10
88.8010452511359
      20
1608.72345136853
      30
0
      10
88.8010452511359
      20
1608.72345136853
      30
0
      10
88.3056582511359
      20
1609.26538136853
      30
0
      10
87.7176152511359
      20
1609.32063136853
      30
0
      10
87.3908912511359
      20
1609.30019136853
      30
0
      10
87.3908912511359
      20
1609.30019136853
      30
0
      10
87.3216262511359
      20
1609.29137136853
      30
0
      10
87.2523612511359
      20
1609.28255136853
      30
0
      10
87.1830962511359
      20
1609.27373136853
      30
0
      10
87.1830962511359
      20
1609.27373136853
      30
0
      10
87.0929572511359
      20
1609.24716136853
      30
0
      10
87.0028182511359
      20
1609.22059136853
      30
0
      10
86.9126792511359
      20
1609.19402136853
      30
0
      10
86.9126792511359
      20
1609.19402136853
      30
0
      10
86.6938842511359
      20
1609.11752136853
      30
0
      10
86.4750902511359
      20
1609.04103136853
      30
0
      10
86.256296251136
      20
1608.96453136853
      30
0
      10
86.256296251136
      20
1608.96453136853
      30
0
      10
86.0413532511359
      20
1608.87577136853
      30
0
      10
85.8264092511359
      20
1608.78701136853
      30
0
      10
85.6114662511359
      20
1608.69824136853
      30
0
      10
85.6114662511359
      20
1608.69824136853
      30
0
      10
84.9733112511359
      20
1608.41430136853
      30
0
      10
84.3565232511359
      20
1608.07850136853
      30
0
      10
83.7732092511359
      20
1607.70093136853
      30
0
      10
83.7732092511359
      20
1607.70093136853
      30
0
      10
83.6769392511359
      20
1607.63686136853
      30
0
      10
83.5806682511359
      20
1607.57279136853
      30
0
      10
83.4843982511359
      20
1607.50872136853
      30
0
      10
83.4843982511359
      20
1607.50872136853
      30
0
      10
83.3293242511359
      20
1607.39738136853
      30
0
      10
83.1742502511359
      20
1607.28604136853
      30
0
      10
83.0191772511359
      20
1607.17470136853
      30
0
      10
83.0191772511359
      20
1607.17470136853
      30
0
      10
82.2133002511359
      20
1606.59407136853
      30
0
      10
81.4074232511359
      20
1606.01343136853
      30
0
      10
80.6015462511359
      20
1605.43280136853
      30
0
      10
80.6015462511359
      20
1605.43280136853
      30
0
      10
79.7912972511359
      20
1604.85837136853
      30
0
      10
78.9810472511359
      20
1604.28395136853
      30
0
      10
78.1707982511359
      20
1603.70952136853
      30
0
      10
78.1707982511359
      20
1603.70952136853
      30
0
      10
77.4132202511359
      20
1603.18176136853
      30
0
      10
76.6556412511359
      20
1602.65399136853
      30
0
      10
75.8980632511359
      20
1602.12622136853
      30
0
      10
75.8980632511359
      20
1602.12622136853
      30
0
      10
75.0633832511359
      20
1601.59822136853
      30
0
      10
74.5854462511359
      20
1601.91192136853
      30
0
      10
74.7776612511359
      20
1602.84272136853
      30
0
      10
74.7776612511359
      20
1602.84272136853
      30
0
      10
74.8025822511359
      20
1602.94076136853
      30
0
      10
74.8275032511359
      20
1603.03880136853
      30
0
      10
74.8524232511359
      20
1603.13684136853
      30
0
      10
74.8524232511359
      20
1603.13684136853
      30
0
      10
75.8827362511359
      20
1606.90890136853
      30
0
      10
76.1204092511359
      20
1607.53871136853
      30
0
      10
76.1899082511359
      20
1608.02953136853
      30
0
      10
76.1899082511359
      20
1608.02953136853
      30
0
      10
76.4100442511359
      20
1609.10420136853
      30
0
      10
76.4767352511359
      20
1610.28771136853
      30
0
      10
76.3794202511359
      20
1611.32229136853
      30
0
      10
76.3794202511359
      20
1611.32229136853
      30
0
      10
76.3728852511359
      20
1611.35602136853
      30
0
      10
76.3663492511359
      20
1611.38975136853
      30
0
      10
76.3598132511359
      20
1611.42348136853
      30
0
      10
76.3598132511359
      20
1611.42348136853
      30
0
      10
76.3330642511359
      20
1611.50434136853
      30
0
      10
76.3063152511359
      20
1611.58519136853
      30
0
      10
76.2795662511359
      20
1611.66605136853
      30
0
      10
76.2795662511359
      20
1611.66605136853
      30
0
      10
76.1367342511359
      20
1612.00727136853
      30
0
      10
75.7974562511359
      20
1612.50987136853
      30
0
      10
75.0074942511359
      20
1612.72833136853
      30
0
      10
75.0074942511359
      20
1612.72833136853
      30
0
      10
74.9487382511359
      20
1612.74243136853
      30
0
      10
74.8899822511359
      20
1612.75653136853
      30
0
      10
74.8312262511359
      20
1612.77063136853
      30
0
      10
74.8312262511359
      20
1612.77063136853
      30
0
      10
74.7676852511359
      20
1612.78151136853
      30
0
      10
74.7041452511359
      20
1612.79238136853
      30
0
      10
74.6406052511359
      20
1612.80326136853
      30
0
      10
74.6406052511359
      20
1612.80326136853
      30
0
      10
73.5798332511359
      20
1612.95041136853
      30
0
      10
72.8409242511359
      20
1612.51916136853
      30
0
      10
72.460276251136
      20
1612.20780136853
      30
0
      10
72.460276251136
      20
1612.20780136853
      30
0
      10
72.3876892511359
      20
1612.14109136853
      30
0
      10
72.3151022511359
      20
1612.07438136853
      30
0
      10
72.2425152511359
      20
1612.00767136853
      30
0
      10
72.2425152511359
      20
1612.00767136853
      30
0
      10
72.2158382511359
      20
1611.97778136853
      30
0
      10
72.1891622511359
      20
1611.94788136853
      30
0
      10
72.1624852511359
      20
1611.91798136853
      30
0
      10
72.1624852511359
      20
1611.91798136853
      30
0
      10
71.5367462511359
      20
1611.08838136853
      30
0
      10
70.9171902511359
      20
1610.00640136853
      30
0
      10
70.5192582511359
      20
1608.95556136853
      30
0
      10
70.5192582511359
      20
1608.95556136853
      30
0
      10
70.4433172511359
      20
1608.73967136853
      30
0
      10
70.3673772511359
      20
1608.52378136853
      30
0
      10
70.2914362511359
      20
1608.30790136853
      30
0
      10
70.2914362511359
      20
1608.30790136853
      30
0
      10
69.4170892511359
      20
1605.22962136853
      30
0
      10
68.4791442511359
      20
1601.74883136853
      30
0
      10
67.6254782511359
      20
1598.45482136853
      30
0
      10
67.6254782511359
      20
1598.45482136853
      30
0
      10
67.5787352511359
      20
1598.28800136853
      30
0
      10
67.5319932511359
      20
1598.12117136853
      30
0
      10
67.4852502511359
      20
1597.95435136853
      30
0
      10
67.4852502511359
      20
1597.95435136853
      30
0
      10
67.1204552511359
      20
1596.87033136853
      30
0
      10
66.4044872511359
      20
1595.87113136853
      30
0
      10
65.4863702511359
      20
1595.18667136853
      30
0
      10
65.4863702511359
      20
1595.18667136853
      30
0
      10
65.2464092511359
      20
1595.02848136853
      30
0
      10
65.0064492511359
      20
1594.87030136853
      30
0
      10
64.7664882511359
      20
1594.71211136853
      30
0
      10
64.7664882511359
      20
1594.71211136853
      30
0
      10
64.3575092511359
      20
1594.44932136853
      30
0
      10
63.9485302511359
      20
1594.18653136853
      30
0
      10
63.5395512511359
      20
1593.92373136853
      30
0
      10
63.5395512511359
      20
1593.92373136853
      30
0
      10
63.2135752511359
      20
1593.70112136853
      30
0
      10
62.6958942511359
      20
1593.48801136853
      30
0
      10
62.2368962511359
      20
1593.41071136853
      30
0
      10
62.2368962511359
      20
1593.41071136853
      30
0
      10
61.5687642511359
      20
1593.28773136853
      30
0
      10
60.8656842511359
      20
1593.34425136853
      30
0
      10
60.2357622511359
      20
1593.59214136853
      30
0
      10
60.2357622511359
      20
1593.59214136853
      30
0
      10
59.8819792511359
      20
1593.74415136853
      30
0
      10
59.8345732511359
      20
1593.78965136853
      30
0
      10
58.7342792511359
      20
1594.35708136853
      30
0
      10
58.7342792511359
      20
1594.35708136853
      30
0
      10
57.6679062511359
      20
1594.91239136853
      30
0
      10
56.6015342511359
      20
1595.46770136853
      30
0
      10
55.5351612511359
      20
1596.02301136853
      30
0
      10
55.5351612511359
      20
1596.02301136853
      30
0
      10
55.0484582511359
      20
1596.26356136853
      30
0
      10
54.9507212511359
      20
1596.34794136853
      30
0
      10
54.6899342511359
      20
1596.55477136853
      30
0
      10
54.6899342511359
      20
1596.55477136853
      30
0
      10
53.9583152511359
      20
1597.17257136853
      30
0
      10
53.4755972511359
      20
1598.09639136853
      30
0
      10
53.4143572511359
      20
1599.04750136853
      30
0
      10
53.4143572511359
      20
1599.04750136853
      30
0
      10
53.4123652511359
      20
1599.12103136853
      30
0
      10
53.4103732511359
      20
1599.19456136853
      30
0
      10
53.4083802511359
      20
1599.26810136853
      30
0
      10
53.4083802511359
      20
1599.26810136853
      30
0
      10
53.4048052511359
      20
1599.40045136853
      30
0
      10
53.4012292511359
      20
1599.53280136853
      30
0
      10
53.3976532511359
      20
1599.66515136853
      30
0
      10
53.3976532511359
      20
1599.66515136853
      30
0
      10
53.3847022511359
      20
1600.15156136853
      30
0
      10
53.3717512511359
      20
1600.63797136853
      30
0
      10
53.3587992511359
      20
1601.12438136853
      30
0
      10
53.3587992511359
      20
1601.12438136853
      30
0
      10
53.3393382511359
      20
1601.36223136853
      30
0
      10
53.3646102511359
      20
1601.87423136853
      30
0
      10
53.4446082511359
      20
1602.24380136853
      30
0
      10
53.4446082511359
      20
1602.24380136853
      30
0
      10
53.6209012511359
      20
1603.14364136853
      30
0
      10
54.0414552511359
      20
1604.00793136853
      30
0
      10
54.6390432511359
      20
1604.69192136853
      30
0
      10
54.6390432511359
      20
1604.69192136853
      30
0
      10
54.809565251136
      20
1604.87047136853
      30
0
      10
54.9800872511359
      20
1605.04902136853
      30
0
      10
55.1506082511359
      20
1605.22757136853
      30
0
      10
55.1506082511359
      20
1605.22757136853
      30
0
      10
55.5459142511359
      20
1605.63838136853
      30
0
      10
55.9412202511359
      20
1606.04920136853
      30
0
      10
56.3365262511359
      20
1606.46001136853
      30
0
      10
56.3365262511359
      20
1606.46001136853
      30
0
      10
57.9186962511359
      20
1608.10236136853
      30
0
      10
59.5008662511359
      20
1609.74471136853
      30
0
      10
61.0830362511359
      20
1611.38706136853
      30
0
      10
61.0830362511359
      20
1611.38706136853
      30
0
      10
61.3960012511359
      20
1611.71513136853
      30
0
      10
61.7089662511359
      20
1612.04319136853
      30
0
      10
62.0219322511359
      20
1612.37126136853
      30
0
      10
62.0219322511359
      20
1612.37126136853
      30
0
      10
62.7673612511359
      20
1613.20996136853
      30
0
      10
63.4033032511359
      20
1614.16708136853
      30
0
      10
63.8892262511359
      20
1615.18028136853
      30
0
      10
63.8892262511359
      20
1615.18028136853
      30
0
      10
63.9572012511359
      20
1615.33022136853
      30
0
      10
64.0251772511359
      20
1615.48016136853
      30
0
      10
64.0931522511359
      20
1615.63010136853
      30
0
      10
64.0931522511359
      20
1615.63010136853
      30
0
      10
64.1676632511359
      20
1615.85653136853
      30
0
      10
64.2155532511359
      20
1616.07451136853
      30
0
      10
64.1828692511359
      20
1616.47654136853
      30
0
      10
64.1828692511359
      20
1616.47654136853
      30
0
      10
64.1367482511359
      20
1616.92576136853
      30
0
      10
63.9075902511359
      20
1617.49879136853
      30
0
      10
63.2681592511359
      20
1617.99035136853
      30
0
      10
63.2681592511359
      20
1617.99035136853
      30
0
      10
62.4769772511359
      20
1618.59799136853
      30
0
      10
61.6760792511359
      20
1618.54499136853
      30
0
      10
61.2499132511359
      20
1618.45126136853
      30
0
      10
61.2499132511359
      20
1618.45126136853
      30
0
      10
61.1687942511359
      20
1618.42851136853
      30
0
      10
61.0876762511359
      20
1618.40576136853
      30
0
      10
61.0065572511359
      20
1618.38301136853
      30
0
      10
61.0065572511359
      20
1618.38301136853
      30
0
      10
60.9505612511359
      20
1618.35861136853
      30
0
      10
60.8945642511359
      20
1618.33420136853
      30
0
      10
60.8385682511359
      20
1618.30979136853
      30
0
      10
60.8385682511359
      20
1618.30979136853
      30
0
      10
59.3875732511359
      20
1617.61590136853
      30
0
      10
58.0908832511359
      20
1616.66748136853
      30
0
      10
56.9763122511359
      20
1615.46548136853
      30
0
      10
56.9763122511359
      20
1615.46548136853
      30
0
      10
56.1520702511359
      20
1614.63065136853
      30
0
      10
54.5800462511359
      20
1613.03415136853
      30
0
      10
54.5059372511359
      20
1612.95859136853
      30
0
      10
54.5059372511359
      20
1612.95859136853
      30
0
      10
53.7314582511359
      20
1612.18270136853
      30
0
      10
53.0877242511359
      20
1612.41061136853
      30
0
      10
53.0609062511359
      20
1613.46153136853
      30
0
      10
53.0609062511359
      20
1613.46153136853
      30
0
      10
53.0524462511359
      20
1613.72845136853
      30
0
      10
52.9004452511359
      20
1621.13910136853
      30
0
      10
52.8970662511359
      20
1621.42850136853
      30
0
      10
52.8970662511359
      20
1621.42850136853
      30
0
      10
52.8911902511359
      20
1621.55067136853
      30
0
      10
52.8853132511359
      20
1621.67285136853
      30
0
      10
52.8794372511359
      20
1621.79502136853
      30
0
      10
52.8794372511359
      20
1621.79502136853
      30
0
      10
52.8698712511359
      20
1621.89917136853
      30
0
      10
52.8603042511359
      20
1622.00333136853
      30
0
      10
52.8507372511359
      20
1622.10748136853
      30
0
      10
52.8507372511359
      20
1622.10748136853
      30
0
      10
52.7367622511359
      20
1623.14888136853
      30
0
      10
52.4404092511359
      20
1624.18555136853
      30
0
      10
51.9833142511359
      20
1625.12260136853
      30
0
      10
51.9833142511359
      20
1625.12260136853
      30
0
      10
51.9580862511359
      20
1625.16830136853
      30
0
      10
51.9328582511359
      20
1625.21399136853
      30
0
      10
51.9076302511359
      20
1625.25968136853
      30
0
      10
51.9076302511359
      20
1625.25968136853
      30
0
      10
51.7251352511359
      20
1625.50325136853
      30
0
      10
51.6756162511359
      20
1625.53952136853
      30
0
      10
51.4831842511359
      20
1625.69964136853
      30
0
      10
51.4831842511359
      20
1625.69964136853
      30
0
      10
51.0911392511359
      20
1626.01076136853
      30
0
      10
50.3603852511359
      20
1626.32994136853
      30
0
      10
49.2938172511359
      20
1626.22767136853
      30
0
      10
49.2938172511359
      20
1626.22767136853
      30
0
      10
48.0541782511359
      20
1626.10731136853
      30
0
      10
47.4964622511359
      20
1625.45178136853
      30
0
      10
47.3122132511359
      20
1625.17169136853
      30
0
      10
47.3122132511359
      20
1625.17169136853
      30
0
      10
47.2885842511359
      20
1625.13132136853
      30
0
      10
47.2649542511359
      20
1625.09095136853
      30
0
      10
47.2413242511359
      20
1625.05058136853
      30
0
      10
47.2413242511359
      20
1625.05058136853
      30
0
      10
47.0994302511359
      20
1624.73680136853
      30
0
      10
46.8369782511359
      20
1623.96841136853
      30
0
      10
46.7273602511359
      20
1623.39614136853
      30
0
      10
46.7273602511359
      20
1623.39614136853
      30
0
      10
46.5977462511359
      20
1622.77721136853
      30
0
      10
46.5309812511359
      20
1622.14438136853
      30
0
      10
46.5305042511359
      20
1621.51834136853
      30
0
      10
46.5305042511359
      20
1621.51834136853
      30
0
      10
46.545291251136
      20
1621.14891136853
      30
0
      10
46.5600782511359
      20
1620.77947136853
      30
0
      10
46.5748642511359
      20
1620.41004136853
      30
0
      10
46.5748642511359
      20
1620.41004136853
      30
0
      10
46.6554182511359
      20
1618.63794136853
      30
0
      10
46.7359712511359
      20
1616.86585136853
      30
0
      10
46.8165252511359
      20
1615.09376136853
      30
0
      10
46.8165252511359
      20
1615.09376136853
      30
0
      10
46.8939542511359
      20
1613.23247136853
      30
0
      10
46.9153232511359
      20
1613.19013136853
      30
0
      10
46.8905922511359
      20
1612.96408136853
      30
0
      10
46.8905922511359
      20
1612.96408136853
      30
0
      10
46.8164922511359
      20
1612.22281136853
      30
0
      10
46.3104152511359
      20
1612.03909136853
      30
0
      10
45.6471772511359
      20
1612.53459136853
      30
0
      10
45.6471772511359
      20
1612.53459136853
      30
0
      10
45.4890602511359
      20
1612.67131136853
      30
0
      10
45.3309422511359
      20
1612.80804136853
      30
0
      10
45.1728252511359
      20
1612.94476136853
      30
0
      10
45.1728252511359
      20
1612.94476136853
      30
0
      10
44.4703992511359
      20
1613.56987136853
      30
0
      10
43.7679732511359
      20
1614.19498136853
      30
0
      10
43.0655472511359
      20
1614.82008136853
      30
0
      10
43.0655472511359
      20
1614.82008136853
      30
0
      10
42.0317182511359
      20
1615.79203136853
      30
0
      10
40.9429362511359
      20
1616.60187136853
      30
0
      10
39.6899032511359
      20
1617.20199136853
      30
0
      10
39.6899032511359
      20
1617.20199136853
      30
0
      10
38.9159652511359
      20
1617.56560136853
      30
0
      10
38.6262792511359
      20
1617.67528136853
      30
0
      10
38.5149462511359
      20
1617.68197136853
      30
0
      10
38.5149462511359
      20
1617.68197136853
      30
0
      10
38.1157842511359
      20
1617.76376136853
      30
0
      10
37.1943942511359
      20
1617.83639136853
      30
0
      10
36.3547592511359
      20
1617.05493136853
      30
0
      10
36.3547592511359
      20
1617.05493136853
      30
0
      10
35.4771542511359
      20
1616.23805136853
      30
0
      10
35.5570132511359
      20
1615.35453136853
      30
0
      10
35.6670532511359
      20
1614.93877136853
      30
0
      10
35.6670532511359
      20
1614.93877136853
      30
0
      10
35.6891912511359
      20
1614.87105136853
      30
0
      10
35.7113292511359
      20
1614.80332136853
      30
0
      10
35.7334672511359
      20
1614.73560136853
      30
0
      10
35.7334672511359
      20
1614.73560136853
      30
0
      10
35.7738392511359
      20
1614.65579136853
      30
0
      10
35.8142112511359
      20
1614.57597136853
      30
0
      10
35.8545832511359
      20
1614.49616136853
      30
0
      10
35.8545832511359
      20
1614.49616136853
      30
0
      10
36.3823382511359
      20
1613.50676136853
      30
0
      10
37.0601692511359
      20
1612.57948136853
      30
0
      10
37.8426232511359
      20
1611.77212136853
      30
0
      10
37.8426232511359
      20
1611.77212136853
      30
0
      10
37.9218992511359
      20
1611.69261136853
      30
0
      10
38.0011762511359
      20
1611.61309136853
      30
0
      10
38.0804522511359
      20
1611.53357136853
      30
0
      10
38.0804522511359
      20
1611.53357136853
      30
0
      10
38.232048251136
      20
1611.39373136853
      30
0
      10
38.3836452511359
      20
1611.25390136853
      30
0
      10
38.5352412511359
      20
1611.11406136853
      30
0
      10
38.5352412511359
      20
1611.11406136853
      30
0
      10
39.3787932511359
      20
1610.34662136853
      30
0
      10
40.222344251136
      20
1609.57919136853
      30
0
      10
41.0658962511359
      20
1608.81176136853
      30
0
      10
41.0658962511359
      20
1608.81176136853
      30
0
      10
42.6926942511359
      20
1607.32728136853
      30
0
      10
44.3194922511359
      20
1605.84279136853
      30
0
      10
45.9462902511359
      20
1604.35831136853
      30
0
      10
45.9462902511359
      20
1604.35831136853
      30
0
      10
46.7198632511359
      20
1603.56081136853
      30
0
      10
47.2452302511359
      20
1602.48265136853
      30
0
      10
47.3814142511359
      20
1601.37903136853
      30
0
      10
47.3814142511359
      20
1601.37903136853
      30
0
      10
47.4076742511359
      20
1601.27927136853
      30
0
      10
47.4175112511359
      20
1600.75631136853
      30
0
      10
47.4930012511359
      20
1598.79237136853
      30
0
      10
47.4930012511359
      20
1598.79237136853
      30
0
      10
47.4656202511359
      20
1597.64105136853
      30
0
      10
46.8628212511359
      20
1596.52163136853
      30
0
      10
45.8768742511359
      20
1595.87949136853
      30
0
      10
45.8768742511359
      20
1595.87949136853
      30
0
      10
45.3632132511359
      20
1595.56750136853
      30
0
      10
44.8495512511359
      20
1595.25552136853
      30
0
      10
44.3358902511359
      20
1594.94353136853
      30
0
      10
44.3358902511359
      20
1594.94353136853
      30
0
      10
43.3086392511359
      20
1594.31941136853
      30
0
      10
42.2813882511359
      20
1593.69529136853
      30
0
      10
41.2541382511359
      20
1593.07117136853
      30
0
      10
41.2541382511359
      20
1593.07117136853
      30
0
      10
40.2250482511359
      20
1592.49562136853
      30
0
      10
38.9359602511359
      20
1592.48593136853
      30
0
      10
37.8904892511359
      20
1592.99094136853
      30
0
      10
37.8904892511359
      20
1592.99094136853
      30
0
      10
37.6534262511359
      20
1593.12101136853
      30
0
      10
37.4163622511359
      20
1593.25107136853
      30
0
      10
37.1792992511359
      20
1593.38114136853
      30
0
      10
37.1792992511359
      20
1593.38114136853
      30
0
      10
36.749294251136
      20
1593.61984136853
      30
0
      10
36.3192882511359
      20
1593.85855136853
      30
0
      10
35.8892822511359
      20
1594.09726136853
      30
0
      10
35.8892822511359
      20
1594.09726136853
      30
0
      10
35.2167182511359
      20
1594.48442136853
      30
0
      10
34.5528172511359
      20
1595.10946136853
      30
0
      10
34.0900682511359
      20
1595.79768136853
      30
0
      10
34.0900682511359
      20
1595.79768136853
      30
0
      10
34.0331722511359
      20
1595.88621136853
      30
0
      10
33.9762772511359
      20
1595.97475136853
      30
0
      10
33.9193812511359
      20
1596.06328136853
      30
0
      10
33.9193812511359
      20
1596.06328136853
      30
0
      10
33.7561052511359
      20
1596.33310136853
      30
0
      10
33.6154322511359
      20
1596.61510136853
      30
0
      10
33.5006942511359
      20
1596.90486136853
      30
0
      10
33.5006942511359
      20
1596.90486136853
      30
0
      10
32.5390062511359
      20
1599.79081136853
      30
0
      10
31.3532422511359
      20
1603.30217136853
      30
0
      10
30.2253522511359
      20
1606.48281136853
      30
0
      10
30.2253522511359
      20
1606.48281136853
      30
0
      10
30.1554642511359
      20
1606.67481136853
      30
0
      10
30.0855762511359
      20
1606.86681136853
      30
0
      10
30.0156882511359
      20
1607.05882136853
      30
0
      10
30.0156882511359
      20
1607.05882136853
      30
0
      10
29.9716242511359
      20
1607.16434136853
      30
0
      10
29.9275612511359
      20
1607.26986136853
      30
0
      10
29.8834972511359
      20
1607.37538136853
      30
0
      10
29.8834972511359
      20
1607.37538136853
      30
0
      10
29.4266322511359
      20
1608.42520136853
      30
0
      10
28.8091462511359
      20
1609.41930136853
      30
0
      10
28.0815202511359
      20
1610.30073136853
      30
0
      10
28.0815202511359
      20
1610.30073136853
      30
0
      10
27.9164372511359
      20
1610.52962136853
      30
0
      10
27.7020972511359
      20
1610.68288136853
      30
0
      10
27.5900712511359
      20
1610.76211136853
      30
0
      10
27.5900712511359
      20
1610.76211136853
      30
0
      10
27.1710122511359
      20
1611.05294136853
      30
0
      10
26.3831182511359
      20
1611.41975136853
      30
0
      10
25.3258512511359
      20
1611.17144136853
      30
0
      10
25.3258512511359
      20
1611.17144136853
      30
0
      10
24.1923912511359
      20
1610.90426136853
      30
0
      10
23.8835312511359
      20
1610.13851136853
      30
0
      10
23.8004122511359
      20
1609.78332136853
      30
0
      10
23.8004122511359
      20
1609.78332136853
      30
0
      10
23.7908982511359
      20
1609.72799136853
      30
0
      10
23.7813842511359
      20
1609.67266136853
      30
0
      10
23.7718712511359
      20
1609.61733136853
      30
0
      10
23.7718712511359
      20
1609.61733136853
      30
0
      10
23.7549532511359
      20
1609.45309136853
      30
0
      10
23.7738102511359
      20
1608.46692136853
      30
0
      10
23.8637862511359
      20
1607.89308136853
      30
0
      10
23.8637862511359
      20
1607.89308136853
      30
0
      10
23.9506672511359
      20
1607.22898136853
      30
0
      10
24.0947332511359
      20
1606.57106136853
      30
0
      10
24.2895342511359
      20
1605.93511136853
      30
0
      10
24.2895342511359
      20
1605.93511136853
      30
0
      10
24.7468632511359
      20
1604.60549136853
      30
0
      10
25.2641252511359
      20
1603.18277136853
      30
0
      10
25.7389862511359
      20
1601.80216136853
      30
0
      10
25.7389862511359
      20
1601.80216136853
      30
0
      10
25.8064322511359
      20
1601.59744136853
      30
0
      10
25.8738782511359
      20
1601.39272136853
      30
0
      10
25.9413252511359
      20
1601.18799136853
      30
0
      10
25.9413252511359
      20
1601.18799136853
      30
0
      10
26.1662732511359
      20
1600.29480136853
      30
0
      10
25.6875602511359
      20
1599.97880136853
      30
0
      10
24.8032832511359
      20
1600.48288136853
      30
0
      10
24.8032832511359
      20
1600.48288136853
      30
0
      10
24.4402712511359
      20
1600.70369136853
      30
0
      10
23.7935132511359
      20
1601.07566136853
      30
0
      10
20.4402492511359
      20
1603.13912136853
      30
0
      10
20.4402492511359
      20
1603.13912136853
      30
0
      10
19.5972252511359
      20
1603.66441136853
      30
0
      10
18.7542002511359
      20
1604.18971136853
      30
0
      10
17.9111762511359
      20
1604.71500136853
      30
0
      10
17.9111762511359
      20
1604.71500136853
      30
0
      10
17.5631722511359
      20
1604.93212136853
      30
0
      10
17.2151672511359
      20
1605.14924136853
      30
0
      10
16.8671632511359
      20
1605.36636136853
      30
0
      10
16.8671632511359
      20
1605.36636136853
      30
0
      10
15.8695652511359
      20
1605.94969136853
      30
0
      10
14.7814482511359
      20
1606.41423136853
      30
0
      10
13.6629612511359
      20
1606.71726136853
      30
0
      10
13.6629612511359
      20
1606.71726136853
      30
0
      10
13.4957702511359
      20
1606.75867136853
      30
0
      10
13.3285802511359
      20
1606.80008136853
      30
0
      10
13.1613892511359
      20
1606.84149136853
      30
0
      10
13.1613892511359
      20
1606.84149136853
      30
0
      10
12.9300352511359
      20
1606.87242136853
      30
0
      10
12.7094592511359
      20
1606.87824136853
      30
0
      10
12.339104251136
      20
1606.76200136853
      30
0
      10
12.339104251136
      20
1606.76200136853
      30
0
      10
12.0635102511359
      20
1606.66596136853
      30
0
      10
11.7614902511359
      20
1606.48160136853
      30
0
      10
11.5040142511359
      20
1606.13676136853
      30
0
      10
11.5040142511359
      20
1606.13676136853
      30
0
      10
11.4725722511359
      20
1606.09110136853
      30
0
      10
11.4411292511359
      20
1606.04543136853
      30
0
      10
11.4096872511359
      20
1605.99977136853
      30
0
      10
11.4096872511359
      20
1605.99977136853
      30
0
      10
11.3799142511359
      20
1605.94882136853
      30
0
      10
11.3501412511359
      20
1605.89786136853
      30
0
      10
11.3203682511359
      20
1605.84690136853
      30
0
      10
11.3203682511359
      20
1605.84690136853
      30
0
      10
10.746727251136
      20
1604.77235136853
      30
0
      10
11.0505352511359
      20
1603.76429136853
      30
0
      10
11.2887272511359
      20
1603.29377136853
      30
0
      10
11.2887272511359
      20
1603.29377136853
      30
0
      10
11.3331402511359
      20
1603.21360136853
      30
0
      10
11.3775522511359
      20
1603.13344136853
      30
0
      10
11.4219652511359
      20
1603.05327136853
      30
0
      10
11.4219652511359
      20
1603.05327136853
      30
0
      10
11.4590372511359
      20
1603.00239136853
      30
0
      10
11.4961092511359
      20
1602.95150136853
      30
0
      10
11.5331812511359
      20
1602.90062136853
      30
0
      10
11.5331812511359
      20
1602.90062136853
      30
0
      10
12.2748382511359
      20
1601.95385136853
      30
0
      10
13.1482062511359
      20
1601.08628136853
      30
0
      10
14.1153632511359
      20
1600.36239136853
      30
0
      10
14.1153632511359
      20
1600.36239136853
      30
0
      10
14.2130052511359
      20
1600.29146136853
      30
0
      10
14.3106462511359
      20
1600.22053136853
      30
0
      10
14.4082872511359
      20
1600.14960136853
      30
0
      10
14.4082872511359
      20
1600.14960136853
      30
0
      10
14.5260872511359
      20
1600.07053136853
      30
0
      10
14.6438882511359
      20
1599.99146136853
      30
0
      10
14.7616892511359
      20
1599.91239136853
      30
0
      10
14.7616892511359
      20
1599.91239136853
      30
0
      10
15.0105082511359
      20
1599.72457136853
      30
0
      10
21.8770262511359
      20
1595.47141136853
      30
0
      10
22.1206272511359
      20
1595.35269136853
      30
0
      10
22.1206272511359
      20
1595.35269136853
      30
0
      10
23.0800802511359
      20
1594.76902136853
      30
0
      10
23.0409802511359
      20
1594.08352136853
      30
0
      10
22.0385842511359
      20
1593.80747136853
      30
0
      10
22.0385842511359
      20
1593.80747136853
      30
0
      10
21.8316072511359
      20
1593.75188136853
      30
0
      10
21.6246302511359
      20
1593.69630136853
      30
0
      10
21.4176532511359
      20
1593.64071136853
      30
0
      10
21.4176532511359
      20
1593.64071136853
      30
0
      10
20.5852812511359
      20
1593.41595136853
      30
0
      10
19.7529102511359
      20
1593.19119136853
      30
0
      10
18.9205392511359
      20
1592.96643136853
      30
0
      10
18.9205392511359
      20
1592.96643136853
      30
0
      10
17.6604282511359
      20
1592.67131136853
      30
0
      10
16.5313012511359
      20
1592.16434136853
      30
0
      10
15.5169162511359
      20
1591.41154136853
      30
0
      10
15.5169162511359
      20
1591.41154136853
      30
0
      10
15.3553362511359
      20
1591.28232136853
      30
0
      10
15.1937562511359
      20
1591.15310136853
      30
0
      10
15.0321762511359
      20
1591.02388136853
      30
0
      10
15.0321762511359
      20
1591.02388136853
      30
0
      10
14.9933622511359
      20
1590.98690136853
      30
0
      10
14.9545472511359
      20
1590.94992136853
      30
0
      10
14.9157322511359
      20
1590.91294136853
      30
0
      10
14.9157322511359
      20
1590.91294136853
      30
0
      10
14.8687942511359
      20
1590.84983136853
      30
0
      10
14.8218562511359
      20
1590.78671136853
      30
0
      10
14.7749182511359
      20
1590.72359136853
      30
0
      10
14.7749182511359
      20
1590.72359136853
      30
0
      10
14.5518312511359
      20
1590.37784136853
      30
0
      10
14.2434022511359
      20
1589.65911136853
      30
0
      10
14.521583251136
      20
1588.56904136853
      30
0
      10
14.521583251136
      20
1588.56904136853
      30
0
      10
14.7132722511359
      20
1587.83194136853
      30
0
      10
15.0564592511359
      20
1587.29791136853
      30
0
      10
15.5501192511359
      20
1586.83280136853
      30
0
      10
15.5501192511359
      20
1586.83280136853
      30
0
      10
16.0382102511359
      20
1586.38807136853
      30
0
      10
16.6537352511359
      20
1586.09651136853
      30
0
      10
17.3330812511359
      20
1586.05290136853
      30
0
      10
17.3330812511359
      20
1586.05290136853
      30
0
      10
17.4202292511359
      20
1586.05107136853
      30
0
      10
17.5073772511359
      20
1586.04925136853
      30
0
      10
17.5945262511359
      20
1586.04743136853
      30
0
      10
17.5945262511359
      20
1586.04743136853
      30
0
      10
17.6499762511359
      20
1586.04814136853
      30
0
      10
17.7054262511359
      20
1586.04886136853
      30
0
      10
17.7608762511359
      20
1586.04957136853
      30
0
      10
17.7608762511359
      20
1586.04957136853
      30
0
      10
18.229661251136
      20
1586.15089136853
      30
0
      10
18.6485082511359
      20
1586.30695136853
      30
0
      10
27.2369622511359
      20
1588.82003136853
      30
0
      10
27.2369622511359
      20
1588.82003136853
      30
0
      10
29.3285832511359
      20
1589.41996136853
      30
0
      10
29.5758392511359
      20
1589.51428136853
      30
0
      10
29.7963622511359
      20
1589.53322136853
      30
0
      10
29.7963622511359
      20
1589.53322136853
      30
0
      10
30.8931432511359
      20
1589.71883136853
      30
0
      10
32.0767492511359
      20
1589.52820136853
      30
0
      10
33.0597882511359
      20
1589.02401136853
      30
0
      10
33.0597882511359
      20
1589.02401136853
      30
0
      10
33.126568251136
      20
1588.98673136853
      30
0
      10
33.1933482511359
      20
1588.94945136853
      30
0
      10
33.2601282511359
      20
1588.91217136853
      30
0
      10
33.2601282511359
      20
1588.91217136853
      30
0
      10
33.7000132511359
      20
1588.66747136853
      30
0
      10
34.1398982511359
      20
1588.42276136853
      30
0
      10
34.579783251136
      20
1588.17806136853
      30
0
      10
34.579783251136
      20
1588.17806136853
      30
0
      10
34.6983732511359
      20
1588.11243136853
      30
0
      10
34.8169642511359
      20
1588.04681136853
      30
0
      10
34.9355542511359
      20
1587.98119136853
      30
0
      10
34.9355542511359
      20
1587.98119136853
      30
0
      10
35.2453182511359
      20
1587.83248136853
      30
0
      10
35.729031251136
      20
1587.48434136853
      30
0
      10
36.0241752511359
      20
1587.12769136853
      30
0
      10
36.0241752511359
      20
1587.12769136853
      30
0
      10
36.5405422511359
      20
1586.53763136853
      30
0
      10
36.8795272511359
      20
1585.78809136853
      30
0
      10
36.9556892511359
      20
1585.01151136853
      30
0
      10
36.9556892511359
      20
1585.01151136853
      30
0
      10
36.9619512511359
      20
1584.87234136853
      30
0
      10
36.9682122511359
      20
1584.73316136853
      30
0
      10
36.9744732511359
      20
1584.59398136853
      30
0
      10
36.9744732511359
      20
1584.59398136853
      30
0
      10
37.0156112511359
      20
1583.37291136853
      30
0
      10
37.0567492511359
      20
1582.15184136853
      30
0
      10
37.0978882511359
      20
1580.93077136853
      30
0
      10
37.0978882511359
      20
1580.93077136853
      30
0
      10
37.1072822511359
      20
1580.62547136853
      30
0
      10
37.1166772511359
      20
1580.32017136853
      30
0
      10
37.1260722511359
      20
1580.01487136853
      30
0
      10
37.1260722511359
      20
1580.01487136853
      30
0
      10
37.1701232511359
      20
1579.15590136853
      30
0
      10
37.1264292511359
      20
1578.85989136853
      30
0
      10
36.9743552511359
      20
1578.34322136853
      30
0
      10
36.9743552511359
      20
1578.34322136853
      30
0
      10
36.7389572511359
      20
1577.59637136853
      30
0
      10
36.2720372511359
      20
1576.91750136853
      30
0
      10
35.6503062511359
      20
1576.44507136853
      30
0
      10
35.6503062511359
      20
1576.44507136853
      30
0
      10
35.5812292511359
      20
1576.39745136853
      30
0
      10
35.5121522511359
      20
1576.34983136853
      30
0
      10
35.4430742511359
      20
1576.30221136853
      30
0
      10
35.4430742511359
      20
1576.30221136853
      30
0
      10
35.0489192511359
      20
1576.04856136853
      30
0
      10
34.6547632511359
      20
1575.79490136853
      30
0
      10
34.2606072511359
      20
1575.54124136853
      30
0
      10
34.2606072511359
      20
1575.54124136853
      30
0
      10
34.0307522511359
      20
1575.39483136853
      30
0
      10
33.800897251136
      20
1575.24842136853
      30
0
      10
33.5710422511359
      20
1575.10201136853
      30
0
      10
33.5710422511359
      20
1575.10201136853
      30
0
      10
32.6075302511359
      20
1574.55669136853
      30
0
      10
31.4342172511359
      20
1574.31377136853
      30
0
      10
30.3326962511359
      20
1574.45625136853
      30
0
      10
30.3326962511359
      20
1574.45625136853
      30
0
      10
30.1857422511359
      20
1574.48373136853
      30
0
      10
30.0387882511359
      20
1574.51121136853
      30
0
      10
29.8918352511359
      20
1574.53869136853
      30
0
      10
29.8918352511359
      20
1574.53869136853
      30
0
      10
27.7641822511359
      20
1575.01127136853
      30
0
      10
25.6365302511359
      20
1575.48386136853
      30
0
      10
23.5088782511359
      20
1575.95645136853
      30
0
      10
23.5088782511359
      20
1575.95645136853
      30
0
      10
22.4733562511359
      20
1576.19167136853
      30
0
      10
21.4378352511359
      20
1576.42689136853
      30
0
      10
20.4023132511359
      20
1576.66211136853
      30
0
      10
20.4023132511359
      20
1576.66211136853
      30
0
      10
19.1812712511359
      20
1576.90777136853
      30
0
      10
17.8487912511359
      20
1576.89779136853
      30
0
      10
16.6544482511359
      20
1576.64920136853
      30
0
      10
16.6544482511359
      20
1576.64920136853
      30
0
      10
16.6228032511359
      20
1576.63918136853
      30
0
      10
16.5911572511359
      20
1576.62917136853
      30
0
      10
16.5595122511359
      20
1576.61915136853
      30
0
      10
16.5595122511359
      20
1576.61915136853
      30
0
      10
16.246975251136
      20
1576.48711136853
      30
0
      10
16.2052662511359
      20
1576.44752136853
      30
0
      10
15.9939092511359
      20
1576.29068136853
      30
0
      10
15.9939092511359
      20
1576.29068136853
      30
0
      10
15.6410502511359
      20
1576.00542136853
      30
0
      10
15.2382922511359
      20
1575.50706136853
      30
0
      10
15.0339712511359
      20
1574.65355136853
      30
0
      10
15.0339712511359
      20
1574.65355136853
      30
0
      10
14.7572322511359
      20
1573.49685136853
      30
0
      10
15.0830302511359
      20
1572.75203136853
      30
0
      10
15.3397922511359
      20
1572.37725136853
      30
0
      10
15.3397922511359
      20
1572.37725136853
      30
0
      10
15.3961502511359
      20
1572.30638136853
      30
0
      10
15.4525082511359
      20
1572.23551136853
      30
0
      10
15.5088662511359
      20
1572.16463136853
      30
0
      10
15.5088662511359
      20
1572.16463136853
      30
0
      10
15.5355782511359
      20
1572.13857136853
      30
0
      10
15.5622902511359
      20
1572.11251136853
      30
0
      10
15.5890012511359
      20
1572.08645136853
      30
0
      10
15.5890012511359
      20
1572.08645136853
      30
0
      10
16.3045542511359
      20
1571.52724136853
      30
0
      10
17.3234092511359
      20
1570.97363136853
      30
0
      10
18.2898342511359
      20
1570.67470136853
      30
0
      10
18.2898342511359
      20
1570.67470136853
      30
0
      10
18.7374952511359
      20
1570.50357136853
      30
0
      10
19.3282952511359
      20
1570.42190136853
      30
0
      10
22.8380972511359
      20
1569.70715136853
      30
0
      10
22.8380972511359
      20
1569.70715136853
      30
0
      10
23.5371782511359
      20
1569.58952136853
      30
0
      10
23.8093582511359
      20
1569.33666136853
      30
0
      10
23.8162022511359
      20
1568.99861136853
      30
0
      10
23.8162022511359
      20
1568.99861136853
      30
0
      10
23.8097402511359
      20
1568.76043136853
      30
0
      10
23.6346572511359
      20
1568.48841136853
      30
0
      10
23.2858972511359
      20
1568.21932136853
      30
0
      10
23.2858972511359
      20
1568.21932136853
      30
0
      10
22.5484682511359
      20
1567.70087136853
      30
0
      10
21.8110402511359
      20
1567.18243136853
      30
0
      10
21.0736112511359
      20
1566.66398136853
      30
0
      10
21.0736112511359
      20
1566.66398136853
      30
0
      10
20.2705672511359
      20
1566.09198136853
      30
0
      10
19.4675232511359
      20
1565.51998136853
      30
0
      10
18.6644792511359
      20
1564.94798136853
      30
0
      10
18.6644792511359
      20
1564.94798136853
      30
0
      10
17.8659242511359
      20
1564.36963136853
      30
0
      10
17.0673702511359
      20
1563.79127136853
      30
0
      10
16.2688152511359
      20
1563.21291136853
      30
0
      10
16.2688152511359
      20
1563.21291136853
      30
0
      10
16.1048912511359
      20
1563.09153136853
      30
0
      10
15.9409682511359
      20
1562.97015136853
      30
0
      10
15.7770442511359
      20
1562.84877136853
      30
0
      10
15.7770442511359
      20
1562.84877136853
      30
0
      10
15.6833322511359
      20
1562.77291136853
      30
0
      10
15.5896202511359
      20
1562.69705136853
      30
0
      10
15.4959082511359
      20
1562.62120136853
      30
0
      10
15.4959082511359
      20
1562.62120136853
      30
0
      10
14.5687652511359
      20
1561.84842136853
      30
0
      10
13.7425132511359
      20
1560.93562136853
      30
0
      10
13.0513992511359
      20
1559.94918136853
      30
0
      10
13.0513992511359
      20
1559.94918136853
      30
0
      10
12.7416652511359
      20
1559.51438136853
      30
0
      10
12.7385852511359
      20
1559.40680136853
      30
0
      10
12.6321702511359
      20
1559.10704136853
      30
0
      10
12.6321702511359
      20
1559.10704136853
      30
0
      10
12.4798462511359
      20
1558.60731136853
      30
0
      10
12.4105562511359
      20
1557.81792136853
      30
0
      10
12.8356362511359
      20
1557.02226136853
      30
0
      10
12.8356362511359
      20
1557.02226136853
      30
0
      10
13.2900932511359
      20
1556.16536136853
      30
0
      10
14.136249251136
      20
1555.75663136853
      30
0
      10
15.0632962511359
      20
1555.81957136853
      30
0
      10
15.0632962511359
      20
1555.81957136853
      30
0
      10
15.2465592511359
      20
1555.84492136853
      30
0
      10
15.4298212511359
      20
1555.87026136853
      30
0
      10
15.6130842511359
      20
1555.89561136853
      30
0
      10
15.6130842511359
      20
1555.89561136853
      30
0
      10
15.6855842511359
      20
1555.90704136853
      30
0
      10
15.7580832511359
      20
1555.91848136853
      30
0
      10
15.8305822511359
      20
1555.92991136853
      30
0
      10
15.8305822511359
      20
1555.92991136853
      30
0
      10
16.2938752511359
      20
1556.19523136853
      30
0
      10
17.5285492511359
      20
1557.01935136853
      30
0
      10
18.3399112511359
      20
1557.61762136853
      30
0
      10
18.3399112511359
      20
1557.61762136853
      30
0
      10
19.8726982511359
      20
1558.73872136853
      30
0
      10
22.8292442511359
      20
1560.85967136853
      30
0
      10
25.1030322511359
      20
1562.44018136853
      30
0
      10
25.1030322511359
      20
1562.44018136853
      30
0
      10
25.4293632511359
      20
1562.66502136853
      30
0
      10
25.7556942511359
      20
1562.88986136853
      30
0
      10
26.0820252511359
      20
1563.11470136853
      30
0
      10
26.0820252511359
      20
1563.11470136853
      30
0
      10
26.9052842511359
      20
1563.61564136853
      30
0
      10
27.3657332511359
      20
1563.27906136853
      30
0
      10
27.1525232511359
      20
1562.32818136853
      30
0
      10
27.1525232511359
      20
1562.32818136853
      30
0
      10
27.1258132511359
      20
1562.22668136853
      30
0
      10
27.0991032511359
      20
1562.12518136853
      30
0
      10
27.0723942511359
      20
1562.02367136853
      30
0
      10
27.0723942511359
      20
1562.02367136853
      30
0
      10
27.0098722511359
      20
1561.79645136853
      30
0
      10
26.9473502511359
      20
1561.56922136853
      30
0
      10
26.8848282511359
      20
1561.34200136853
      30
0
      10
26.8848282511359
      20
1561.34200136853
      30
0
      10
26.6303302511359
      20
1560.43428136853
      30
0
      10
26.3758322511359
      20
1559.52656136853
      30
0
      10
26.1213332511359
      20
1558.61885136853
      30
0
      10
26.1213332511359
      20
1558.61885136853
      30
0
      10
25.7088882511359
      20
1557.28366136853
      30
0
      10
25.5299902511359
      20
1555.98743136853
      30
0
      10
25.5734042511359
      20
1554.63588136853
      30
0
      10
25.5734042511359
      20
1554.63588136853
      30
0
      10
25.5854782511359
      20
1554.44422136853
      30
0
      10
25.5975532511359
      20
1554.25256136853
      30
0
      10
25.6096282511359
      20
1554.06090136853
      30
0
      10
25.6096282511359
      20
1554.06090136853
      30
0
      10
25.6454152511359
      20
1553.86147136853
      30
0
      10
25.7271102511359
      20
1553.55623136853
      30
0
      10
26.0512652511359
      20
1553.19641136853
      30
0
      10
26.0512652511359
      20
1553.19641136853
      30
0
      10
26.2924322511359
      20
1552.91682136853
      30
0
      10
26.8020572511359
      20
1552.64395136853
      30
0
      10
27.3693972511359
      20
1552.57794136853
      30
0
      10
27.3693972511359
      20
1552.57794136853
      30
0
      10
27.4122932511359
      20
1552.57319136853
      30
0
      10
27.4551892511359
      20
1552.56844136853
      30
0
      10
27.4980852511359
      20
1552.56369136853
      30
0
      10
27.4980852511359
      20
1552.56369136853
      30
0
      10
27.7161802511359
      20
1552.53490136853
      30
0
      10
28.1167502511359
      20
1552.56889136853
      30
0
      10
28.1551402511359
      20
1552.57988136853
      30
0
      10
28.1551402511359
      20
1552.57988136853
      30
0
      10
28.8176062511359
      20
1552.66772136853
      30
0
      10
29.2603522511359
      20
1552.86952136853
      30
0
      10
29.5382392511359
      20
1553.05045136853
      30
0
      10
29.5382392511359
      20
1553.05045136853
      30
0
      10
29.8161252511359
      20
1553.23137136853
      30
0
      10
29.9291512511359
      20
1553.39142136853
      30
0
      10
29.932178251136
      20
1553.39574136853
      30
0
      10
29.932178251136
      20
1553.39574136853
      30
0
      10
30.6605562511359
      20
1554.48727136853
      30
0
      10
31.3012372511359
      20
1555.79394136853
      30
0
      10
31.7005372511359
      20
1557.09356136853
      30
0
      10
31.7005372511359
      20
1557.09356136853
      30
0
      10
31.7365652511359
      20
1557.18398136853
      30
0
      10
33.2033222511359
      20
1562.47236136853
      30
0
      10
33.9024332511359
      20
1565.17580136853
      30
0
      10
33.9024332511359
      20
1565.17580136853
      30
0
      10
34.0452422511359
      20
1565.72273136853
      30
0
      10
34.1880522511359
      20
1566.26965136853
      30
0
      10
34.3308612511359
      20
1566.81657136853
      30
0
      10
34.3308612511359
      20
1566.81657136853
      30
0
      10
34.4879232511359
      20
1567.42168136853
      30
0
      10
34.5500832511359
      20
1567.52154136853
      30
0
      10
34.6973142511359
      20
1567.86213136853
      30
0
      10
34.6973142511359
      20
1567.86213136853
      30
0
      10
35.0983462511359
      20
1568.71707136853
      30
0
      10
35.7161102511359
      20
1569.48645136853
      30
0
      10
36.4697622511359
      20
1570.04291136853
      30
0
      10
36.4697622511359
      20
1570.04291136853
      30
0
      10
36.6028712511359
      20
1570.13163136853
      30
0
      10
36.7359802511359
      20
1570.22035136853
      30
0
      10
36.8690902511359
      20
1570.30907136853
      30
0
      10
36.8690902511359
      20
1570.30907136853
      30
0
      10
37.2805452511359
      20
1570.57406136853
      30
0
      10
37.6920012511359
      20
1570.83904136853
      30
0
      10
38.1034572511359
      20
1571.10403136853
      30
0
      10
38.1034572511359
      20
1571.10403136853
      30
0
      10
38.219462251136
      20
1571.17841136853
      30
0
      10
38.3354682511359
      20
1571.25279136853
      30
0
      10
38.451473251136
      20
1571.32718136853
      30
0
      10
38.451473251136
      20
1571.32718136853
      30
0
      10
38.8697832511359
      20
1571.60785136853
      30
0
      10
39.4880222511359
      20
1571.82875136853
      30
0
      10
40.0507972511359
      20
1571.87819136853
      30
0
      10
40.0507972511359
      20
1571.87819136853
      30
0
      10
40.6302692511359
      20
1571.93688136853
      30
0
      10
41.2233442511359
      20
1571.86240136853
      30
0
      10
41.7622682511359
      20
1571.64710136853
      30
0
      10
41.7622682511359
      20
1571.64710136853
      30
0
      10
41.8655142511359
      20
1571.59849136853
      30
0
      10
41.9687602511359
      20
1571.54989136853
      30
0
      10
42.0720072511359
      20
1571.50129136853
      30
0
      10
42.0720072511359
      20
1571.50129136853
      30
0
      10
42.2052882511359
      20
1571.43181136853
      30
0
      10
42.3385702511359
      20
1571.36234136853
      30
0
      10
42.4718512511359
      20
1571.29286136853
      30
0
      10
42.4718512511359
      20
1571.29286136853
      30
0
      10
43.5382922511359
      20
1570.73745136853
      30
0
      10
44.6047342511359
      20
1570.18204136853
      30
0
      10
45.6711752511359
      20
1569.62663136853
      30
0
      10
45.6711752511359
      20
1569.62663136853
      30
0
      10
45.9377962511359
      20
1569.48780136853
      30
0
      10
46.2044172511359
      20
1569.34897136853
      30
0
      10
46.471038251136
      20
1569.21014136853
      30
0
      10
46.471038251136
      20
1569.21014136853
      30
0
      10
46.5938662511359
      20
1569.14508136853
      30
0
      10
46.7166942511359
      20
1569.08002136853
      30
0
      10
46.8395222511359
      20
1569.01496136853
      30
0
      10
46.8395222511359
      20
1569.01496136853
      30
0
      10
47.8259902511359
      20
1568.42987136853
      30
0
      10
48.5028322511359
      20
1567.31828136853
      30
0
      10
48.5686942511359
      20
1566.18647136853
      30
0
      10
48.5686942511359
      20
1566.18647136853
      30
0
      10
48.5705602511359
      20
1566.11740136853
      30
0
      10
48.5724272511359
      20
1566.04833136853
      30
0
      10
48.5742932511359
      20
1565.97926136853
      30
0
      10
48.5742932511359
      20
1565.97926136853
      30
0
      10
48.5865572511359
      20
1565.52028136853
      30
0
      10
48.5988202511359
      20
1565.06130136853
      30
0
      10
48.6110842511359
      20
1564.60232136853
      30
0
      10
48.6110842511359
      20
1564.60232136853
      30
0
      10
48.6143762511359
      20
1564.47744136853
      30
0
      10
48.6176692511359
      20
1564.35256136853
      30
0
      10
48.6209612511359
      20
1564.22767136853
      30
0
      10
48.6209612511359
      20
1564.22767136853
      30
0
      10
48.6407032511359
      20
1564.01372136853
      30
0
      10
48.6115632511359
      20
1563.47683136853
      30
0
      10
48.5310052511359
      20
1563.11599136853
      30
0
      10
48.5310052511359
      20
1563.11599136853
      30
0
      10
48.3515732511359
      20
1562.21671136853
      30
0
      10
47.9284302511359
      20
1561.35389136853
      30
0
      10
47.3288752511359
      20
1560.67213136853
      30
0
      10
47.3288752511359
      20
1560.67213136853
      30
0
      10
47.1507062511359
      20
1560.48592136853
      30
0
      10
46.9725372511359
      20
1560.29971136853
      30
0
      10
46.7943682511359
      20
1560.11350136853
      30
0
      10
46.7943682511359
      20
1560.11350136853
      30
0
      10
45.2133102511359
      20
1558.47111136853
      30
0
      10
43.6322522511359
      20
1556.82871136853
      30
0
      10
42.0511942511359
      20
1555.18631136853
      30
0
      10
42.0511942511359
      20
1555.18631136853
      30
0
      10
41.3502232511359
      20
1554.45510136853
      30
0
      10
40.6492512511359
      20
1553.72388136853
      30
0
      10
39.9482792511359
      20
1552.99267136853
      30
0
      10
39.9482792511359
      20
1552.99267136853
      30
0
      10
39.2052102511359
      20
1552.15265136853
      30
0
      10
38.5710352511359
      20
1551.19527136853
      30
0
      10
38.0880612511359
      20
1550.18167136853
      30
0
      10
38.0880612511359
      20
1550.18167136853
      30
0
      10
38.0229272511359
      20
1550.03719136853
      30
0
      10
37.9577932511359
      20
1549.89270136853
      30
0
      10
37.8926592511359
      20
1549.74822136853
      30
0
      10
37.8926592511359
      20
1549.74822136853
      30
0
      10
37.8158452511359
      20
1549.51177136853
      30
0
      10
37.7701942511359
      20
1549.29489136853
      30
0
      10
37.8053802511359
      20
1548.88938136853
      30
0
      10
37.8053802511359
      20
1548.88938136853
      30
0
      10
37.853873251136
      20
1548.43848136853
      30
0
      10
38.0923322511359
      20
1547.86190136853
      30
0
      10
38.7358582511359
      20
1547.37470136853
      30
0
      10
38.7358582511359
      20
1547.37470136853
      30
0
      10
39.5265922511359
      20
1546.77689136853
      30
0
      10
40.3244102511359
      20
1546.83543136853
      30
0
      10
40.7448452511359
      20
1546.92996136853
      30
0
      10
40.7448452511359
      20
1546.92996136853
      30
0
      10
40.8243652511359
      20
1546.95262136853
      30
0
      10
40.9038842511359
      20
1546.97527136853
      30
0
      10
40.9834042511359
      20
1546.99792136853
      30
0
      10
40.9834042511359
      20
1546.99792136853
      30
0
      10
41.0438892511359
      20
1547.02467136853
      30
0
      10
41.1043732511359
      20
1547.05142136853
      30
0
      10
41.1648582511359
      20
1547.07818136853
      30
0
      10
41.1648582511359
      20
1547.07818136853
      30
0
      10
42.3959022511359
      20
1547.67028136853
      30
0
      10
43.5522812511359
      20
1548.46394136853
      30
0
      10
44.5254662511359
      20
1549.42614136853
      30
0
      10
44.5254662511359
      20
1549.42614136853
      30
0
      10
44.8554202511359
      20
1549.76067136853
      30
0
      10
45.1853742511359
      20
1550.09520136853
      30
0
      10
45.5153282511359
      20
1550.42974136853
      30
0
      10
45.5153282511359
      20
1550.42974136853
      30
0
      10
46.1721542511359
      20
1551.09665136853
      30
0
      10
46.8289802511359
      20
1551.76356136853
      30
0
      10
47.4858062511359
      20
1552.43047136853
      30
0
      10
47.4858062511359
      20
1552.43047136853
      30
0
      10
48.2581762511359
      20
1553.18898136853
      30
0
      10
48.8982752511359
      20
1552.97100136853
      30
0
      10
48.9194952511359
      20
1551.88955136853
      30
0
      10
48.9194952511359
      20
1551.88955136853
      30
0
      10
48.9387732511359
      20
1550.98840136853
      30
0
      10
48.9580512511359
      20
1550.08726136853
      30
0
      10
48.9773302511359
      20
1549.18611136853
      30
0
      10
48.9773302511359
      20
1549.18611136853
      30
0
      10
49.0136362511359
      20
1547.38378136853
      30
0
      10
49.0499422511359
      20
1545.58145136853
      30
0
      10
49.0862492511359
      20
1543.77912136853
      30
0
      10
49.0862492511359
      20
1543.77912136853
      30
0
      10
49.0923712511359
      20
1543.66354136853
      30
0
      10
49.0984942511359
      20
1543.54796136853
      30
0
      10
49.1046172511359
      20
1543.43238136853
      30
0
      10
49.1046172511359
      20
1543.43238136853
      30
0
      10
49.1144292511359
      20
1543.32822136853
      30
0
      10
49.1242422511359
      20
1543.22405136853
      30
0
      10
49.1340552511359
      20
1543.11988136853
      30
0
      10
49.1340552511359
      20
1543.11988136853
      30
0
      10
49.2504392511359
      20
1542.07848136853
      30
0
      10
49.5486802511359
      20
1541.04291136853
      30
0
      10
50.0070812511359
      20
1540.10644136853
      30
0
      10
50.0070812511359
      20
1540.10644136853
      30
0
      10
50.0305072511359
      20
1540.06494136853
      30
0
      10
50.0539332511359
      20
1540.02343136853
      30
0
      10
50.0773582511359
      20
1539.98193136853
      30
0
      10
50.0773582511359
      20
1539.98193136853
      30
0
      10
50.2649402511359
      20
1539.73382136853
      30
0
      10
50.3144312511359
      20
1539.69871136853
      30
0
      10
50.5096492511359
      20
1539.53792136853
      30
0
      10
50.5096492511359
      20
1539.53792136853
      30
0
      10
50.9047752511359
      20
1539.22634136853
      30
0
      10
51.6478462511359
      20
1538.91123136853
      30
0
      10
52.7128832511359
      20
1539.02011136853
      30
0
      10
52.7128832511359
      20
1539.02011136853
      30
0
      10
53.9440252511359
      20
1539.14746136853
      30
0
      10
54.4946372511359
      20
1539.80432136853
      30
0
      10
54.6738902511359
      20
1540.07957136853
      30
0
      10
54.6738902511359
      20
1540.07957136853
      30
0
      10
54.6965172511359
      20
1540.11855136853
      30
0
      10
54.7191432511359
      20
1540.15754136853
      30
0
      10
54.7417702511359
      20
1540.19653136853
      30
0
      10
54.7417702511359
      20
1540.19653136853
      30
0
      10
54.8952902511359
      20
1540.53954136853
      30
0
      10
55.1488422511359
      20
1541.29010136853
      30
0
      10
55.2594122511359
      20
1541.86786136853
      30
0
      10
55.2594122511359
      20
1541.86786136853
      30
0
      10
55.2951442511359
      20
1542.07554136853
      30
0
      10
55.3308752511359
      20
1542.28322136853
      30
0
      10
55.3666072511359
      20
1542.49090136853
      30
0
      10
55.3666072511359
      20
1542.49090136853
      30
0
      10
55.3880872511359
      20
1542.70010136853
      30
0
      10
55.4095682511359
      20
1542.90930136853
      30
0
      10
55.4310482511359
      20
1543.11850136853
      30
0
      10
55.4310482511359
      20
1543.11850136853
      30
0
      10
55.4380392511359
      20
1543.32769136853
      30
0
      10
55.4450292511359
      20
1543.53688136853
      30
0
      10
55.4520192511359
      20
1543.74607136853
      30
0
      10
55.4520192511359
      20
1543.74607136853
      30
0
      10
55.3747842511359
      20
1545.47837136853
      30
0
      10
55.2975482511359
      20
1547.21067136853
      30
0
      10
55.2203132511359
      20
1548.94297136853
      30
0
      10
55.2203132511359
      20
1548.94297136853
      30
0
      10
55.1801332511359
      20
1549.84351136853
      30
0
      10
55.1399542511359
      20
1550.74404136853
      30
0
      10
55.0997742511359
      20
1551.64457136853
      30
0
      10
55.0997742511359
      20
1551.64457136853
      30
0
      10
55.0921992511359
      20
1551.82613136853
      30
0
      10
55.0846252511359
      20
1552.00768136853
      30
0
      10
55.0770502511359
      20
1552.18923136853
      30
0
      10
55.0770502511359
      20
1552.18923136853
      30
0
      10
55.0665052511359
      20
1553.11823136853
      30
0
      10
55.6091612511359
      20
1553.38737136853
      30
0
      10
56.3407262511359
      20
1552.83411136853
      30
0
      10
56.3407262511359
      20
1552.83411136853
      30
0
      10
57.0266462511359
      20
1552.22699136853
      30
0
      10
57.7125672511359
      20
1551.61987136853
      30
0
      10
58.3984872511359
      20
1551.01275136853
      30
0
      10
58.3984872511359
      20
1551.01275136853
      30
0
      10
58.7497552511359
      20
1550.70046136853
      30
0
      10
59.1010232511359
      20
1550.38817136853
      30
0
      10
59.4522912511359
      20
1550.07589136853
      30
0
      10
59.4522912511359
      20
1550.07589136853
      30
0
      10
60.4417172511359
      20
1549.19059136853
      30
0
      10
61.3875752511359
      20
1548.46006136853
      30
0
      10
62.4543982511359
      20
1547.77169136853
      30
0
      10
62.4543982511359
      20
1547.77169136853
      30
0
      10
62.5500042511359
      20
1547.71393136853
      30
0
      10
62.6456112511359
      20
1547.65616136853
      30
0
      10
62.7412172511359
      20
1547.59839136853
      30
0
      10
62.7412172511359
      20
1547.59839136853
      30
0
      10
62.7879682511359
      20
1547.59758136853
      30
0
      10
62.8347182511359
      20
1547.59678136853
      30
0
      10
62.8814682511359
      20
1547.59597136853
      30
0
      10
62.8814682511359
      20
1547.59597136853
      30
0
      10
63.3829742511359
      20
1547.59523136853
      30
0
      10
63.6634442511359
      20
1547.55265136853
      30
0
      10
64.090905251136
      20
1547.61610136853
      30
0
      10
64.090905251136
      20
1547.61610136853
      30
0
      10
64.2178302511359
      20
1547.64275136853
      30
0
      10
64.3447542511359
      20
1547.66941136853
      30
0
      10
64.4716792511359
      20
1547.69606136853
      30
0
      10
64.4716792511359
      20
1547.69606136853
      30
0
      10
64.9072812511359
      20
1547.81649136853
      30
0
      10
65.3091092511359
      20
1548.03211136853
      30
0
      10
65.6398462511359
      20
1548.34466136853
      30
0
      10
65.6398462511359
      20
1548.34466136853
      30
0
      10
66.0497402511359
      20
1548.71863136853
      30
0
      10
66.3129042511359
      20
1549.25539136853
      30
0
      10
66.3508612511359
      20
1549.64097136853
      30
0
      10
66.3508612511359
      20
1549.64097136853
      30
0
      10
66.397754251136
      20
1549.96491136853
      30
0
      10
66.3559832511359
      20
1550.24400136853
      30
0
      10
66.3077332511359
      20
1550.43200136853
      30
0
      10
66.3077332511359
      20
1550.43200136853
      30
0
      10
66.2854122511359
      20
1550.50131136853
      30
0
      10
66.2630912511359
      20
1550.57062136853
      30
0
      10
66.2407702511359
      20
1550.63993136853
      30
0
      10
66.2407702511359
      20
1550.63993136853
      30
0
      10
66.2029822511359
      20
1550.71509136853
      30
0
      10
66.1651942511359
      20
1550.79025136853
      30
0
      10
66.1274072511359
      20
1550.86541136853
      30
0
      10
66.1274072511359
      20
1550.86541136853
      30
0
      10
65.6007692511359
      20
1551.85475136853
      30
0
      10
64.9247802511359
      20
1552.78318136853
      30
0
      10
64.1441552511359
      20
1553.59204136853
      30
0
      10
64.1441552511359
      20
1553.59204136853
      30
0
      10
64.0650612511359
      20
1553.67171136853
      30
0
      10
63.9859672511359
      20
1553.75138136853
      30
0
      10
63.9068732511359
      20
1553.83105136853
      30
0
      10
63.9068732511359
      20
1553.83105136853
      30
0
      10
63.7486002511359
      20
1553.98784136853
      30
0
      10
62.9864142511359
      20
1554.67241136853
      30
0
      10
59.6812882511359
      20
1557.68350136853
      30
0
      10
59.6812882511359
      20
1557.68350136853
      30
0
      10
58.8385692511359
      20
1558.45127136853
      30
0
      10
57.9958502511359
      20
1559.21903136853
      30
0
      10
57.1531312511359
      20
1559.98680136853
      30
0
      10
57.1531312511359
      20
1559.98680136853
      30
0
      10
56.7830382511359
      20
1560.32661136853
      30
0
      10
56.4129442511359
      20
1560.66643136853
      30
0
      10
56.0428512511359
      20
1561.00624136853
      30
0
      10
56.0428512511359
      20
1561.00624136853
      30
0
      10
55.2661992511359
      20
1561.80086136853
      30
0
      10
54.7384642511359
      20
1562.87798136853
      30
0
      10
54.5980992511359
      20
1563.98146136853
      30
0
      10
54.5980992511359
      20
1563.98146136853
      30
0
      10
54.5896302511359
      20
1564.07474136853
      30
0
      10
54.5811602511359
      20
1564.16802136853
      30
0
      10
54.572691251136
      20
1564.26130136853
      30
0
      10
54.572691251136
      20
1564.26130136853
      30
0
      10
54.5648352511359
      20
1564.47399136853
      30
0
      10
54.4953572511359
      20
1566.18710136853
      30
0
      10
54.4893722511359
      20
1566.43702136853
      30
0
      10
54.4893722511359
      20
1566.43702136853
      30
0
      10
54.5053192511359
      20
1567.58537136853
      30
0
      10
55.1207582511359
      20
1568.71564136853
      30
0
      10
56.0828972511359
      20
1569.35229136853
      30
0
      10
56.0828972511359
      20
1569.35229136853
      30
0
      10
56.2543292511359
      20
1569.45595136853
      30
0
      10
60.5359142511359
      20
1572.05581136853
      30
0
      10
60.7065862511359
      20
1572.16071136853
      30
0
      10
60.7065862511359
      20
1572.16071136853
      30
0
      10
61.6664122511359
      20
1572.70652136853
      30
0
      10
62.8099212511359
      20
1572.75066136853
      30
0
      10
63.8118072511359
      20
1572.37693136853
      30
0
      10
63.8118072511359
      20
1572.37693136853
      30
0
      10
64.0540022511359
      20
1572.29823136853
      30
0
      10
64.3070412511359
      20
1572.13321136853
      30
0
      10
65.1198752511359
      20
1571.68980136853
      30
0
      10
65.1198752511359
      20
1571.68980136853
      30
0
      10
65.9348282511359
      20
1571.23316136853
      30
0
      10
66.1400412511359
      20
1571.13285136853
      30
0
      10
66.3658852511359
      20
1570.98337136853
      30
0
      10
66.3658852511359
      20
1570.98337136853
      30
0
      10
67.3224602511359
      20
1570.35184136853
      30
0
      10
68.0957702511359
      20
1569.39529136853
      30
0
      10
68.5199982511359
      20
1568.33379136853
      30
0
      10
68.5199982511359
      20
1568.33379136853
      30
0
      10
68.6739692511359
      20
1567.87628136853
      30
0
      10
68.8279412511359
      20
1567.41876136853
      30
0
      10
68.9819122511359
      20
1566.96125136853
      30
0
      10
68.9819122511359
      20
1566.96125136853
      30
0
      10
69.8640922511359
      20
1564.27579136853
      30
0
      10
71.6298992511359
      20
1559.20427136853
      30
0
      10
71.7303332511359
      20
1558.93972136853
      30
0
      10
71.7303332511359
      20
1558.93972136853
      30
0
      10
71.8022162511359
      20
1558.74026136853
      30
0
      10
71.8740992511359
      20
1558.54080136853
      30
0
      10
71.9459822511359
      20
1558.34134136853
      30
0
      10
71.9459822511359
      20
1558.34134136853
      30
0
      10
71.9891062511359
      20
1558.23506136853
      30
0
      10
72.0322302511359
      20
1558.12879136853
      30
0
      10
72.0753542511359
      20
1558.02252136853
      30
0
      10
72.0753542511359
      20
1558.02252136853
      30
0
      10
72.5203742511359
      20
1556.96430136853
      30
0
      10
73.1019942511359
      20
1555.95228136853
      30
0
      10
73.7831042511359
      20
1555.02953136853
      30
0
      10
73.7831042511359
      20
1555.02953136853
      30
0
      10
73.8369112511359
      20
1554.95895136853
      30
0
      10
73.8907192511359
      20
1554.88836136853
      30
0
      10
73.9445262511359
      20
1554.81778136853
      30
0
      10
73.9445262511359
      20
1554.81778136853
      30
0
      10
73.9774262511359
      20
1554.78660136853
      30
0
      10
74.0103252511359
      20
1554.75541136853
      30
0
      10
74.0432252511359
      20
1554.72423136853
      30
0
      10
74.0432252511359
      20
1554.72423136853
      30
0
      10
74.2961422511359
      20
1554.52890136853
      30
0
      10
74.3325482511359
      20
1554.52244136853
      30
0
      10
74.5400822511359
      20
1554.41966136853
      30
0
      10
74.5400822511359
      20
1554.41966136853
      30
0
      10
74.8463142511359
      20
1554.28549136853
      30
0
      10
75.2428962511359
      20
1554.16468136853
      30
0
      10
75.8431362511359
      20
1554.13478136853
      30
0
      10
75.8431362511359
      20
1554.13478136853
      30
0
      10
76.0604772511359
      20
1554.11583136853
      30
0
      10
76.4698092511359
      20
1554.16898136853
      30
0
      10
76.4901462511359
      20
1554.17932136853
      30
0
      10
76.4901462511359
      20
1554.17932136853
      30
0
      10
76.5185502511359
      20
1554.18493136853
      30
0
      10
76.5469542511359
      20
1554.19055136853
      30
0
      10
76.5753592511359
      20
1554.19616136853
      30
0
      10
76.5753592511359
      20
1554.19616136853
      30
0
      10
76.6375712511359
      20
1554.21147136853
      30
0
      10
76.6997832511359
      20
1554.22679136853
      30
0
      10
76.7619952511359
      20
1554.24211136853
      30
0
      10
76.7619952511359
      20
1554.24211136853
      30
0
      10
76.8192472511359
      20
1554.26030136853
      30
0
      10
76.8764992511359
      20
1554.27849136853
      30
0
      10
76.9337512511359
      20
1554.29668136853
      30
0
      10
76.9337512511359
      20
1554.29668136853
      30
0
      10
77.8111982511359
      20
1554.60906136853
      30
0
      10
78.0800822511359
      20
1555.24946136853
      30
0
      10
78.1616772511359
      20
1555.57942136853
      30
0
      10
78.1616772511359
      20
1555.57942136853
      30
0
      10
78.2071842511359
      20
1555.73145136853
      30
0
      10
78.2152162511359
      20
1555.88433136853
      30
0
      10
78.1762492511359
      20
1556.76649136853
      30
0
      10
78.1762492511359
      20
1556.76649136853
      30
0
      10
78.0987642511359
      20
1557.88585136853
      30
0
      10
77.8720582511359
      20
1558.96819136853
      30
0
      10
77.4793092511359
      20
1560.03891136853
      30
0
      10
77.4793092511359
      20
1560.03891136853
      30
0
      10
77.3213922511359
      20
1560.48301136853
      30
0
      10
77.1634762511359
      20
1560.92711136853
      30
0
      10
77.0055602511359
      20
1561.37121136853
      30
0
      10
77.0055602511359
      20
1561.37121136853
      30
0
      10
76.7032322511359
      20
1562.24344136853
      30
0
      10
76.4009042511359
      20
1563.11566136853
      30
0
      10
76.0985762511359
      20
1563.98789136853
      30
0
      10
76.0985762511359
      20
1563.98789136853
      30
0
      10
75.8499712511359
      20
1564.90016136853
      30
0
      10
76.3104262511359
      20
1565.23841136853
      30
0
      10
77.1819022511359
      20
1564.76002136853
      30
0
      10
77.1819022511359
      20
1564.76002136853
      30
0
      10
77.3400262511359
      20
1564.66582136853
      30
0
      10
77.4981492511359
      20
1564.57163136853
      30
0
      10
77.6562732511359
      20
1564.47744136853
      30
0
      10
77.6562732511359
      20
1564.47744136853
      30
0
      10
80.1331072511359
      20
1562.98793136853
      30
0
      10
82.8701582511359
      20
1561.29569136853
      30
0
      10
85.0341002511359
      20
1559.92470136853
      30
0
      10
85.0341002511359
      20
1559.92470136853
      30
0
      10
85.9455482511359
      20
1559.34621136853
      30
0
      10
87.003166251136
      20
1558.71360136853
      30
0
      10
87.8324082511359
      20
1558.28921136853
      30
0
      10
87.8324082511359
      20
1558.28921136853
      30
0
      10
87.8403382511359
      20
1558.28854136853
      30
0
      10
87.8482682511359
      20
1558.28787136853
      30
0
      10
87.8561992511359
      20
1558.28720136853
      30
0
      10
87.8561992511359
      20
1558.28720136853
      30
0
      10
88.0395612511359
      20
1558.27043136853
      30
0
      10
88.2229232511359
      20
1558.25367136853
      30
0
      10
88.4062862511359
      20
1558.23690136853
      30
0
      10
88.4062862511359
      20
1558.23690136853
      30
0
      10
89.4394532511359
      20
1558.17097136853
      30
0
      10
90.3499012511359
      20
1558.62731136853
      30
0
      10
90.7780122511359
      20
1559.64281136853
      30
0
      10
90.7780122511359
      20
1559.64281136853
      30
0
      10
90.8006722511359
      20
1559.70252136853
      30
0
      10
90.8233322511359
      20
1559.76223136853
      30
0
      10
90.8459922511359
      20
1559.82195136853
      30
0
      10
90.8459922511359
      20
1559.82195136853
      30
0
      10
90.8638902511359
      20
1559.88059136853
      30
0
      10
90.8817882511359
      20
1559.93922136853
      30
0
      10
90.8996852511359
      20
1559.99786136853
      30
0
      10
90.8996852511359
      20
1559.99786136853
      30
0
      10
91.1184922511359
      20
1560.81064136853
      30
0
      10
90.9036802511359
      20
1561.50511136853
      30
0
      10
90.7185212511359
      20
1561.90270136853
      30
0
      10
90.7185212511359
      20
1561.90270136853
      30
0
      10
90.6716412511359
      20
1561.99067136853
      30
0
      10
90.6247602511359
      20
1562.07865136853
      30
0
      10
90.5778802511359
      20
1562.16662136853
      30
0
      10
90.5778802511359
      20
1562.16662136853
      30
0
      10
90.5574512511359
      20
1562.19780136853
      30
0
      10
90.5370212511359
      20
1562.22898136853
      30
0
      10
90.5165922511359
      20
1562.26015136853
      30
0
    1001
FS_CYPCUT
    1000
Channel
    1070
0
    1000
LeadIn
    1002
{
    1070
1
    1040
0.104950577
    1040
0.313380629
    1040
4.21885273
    1040
0
    1070
0
    1040
0
    1070
0
    1002
}
    1000
LeadOut
    1002
{
    1070
0
    1040
0
    1040
0
    1040
0
    1070
0
    1002
}
    1000
IsFill
    1070
1
    1000
PathStart
    1040
0.104950577
    1000
ToolCompensation
    1002
{
    1070
0
    1040
0
    1070
0
    1002
}
       0
ENDSEC
  0
SECTION
  2
OBJECTS
  0
DICTIONARY
  5
111
330
0
100
AcDbDictionary
281
     1
  3
ACAD_COLOR
350
120
  3
ACAD_GROUP
350
112
  3
ACAD_LAYOUT
350
11E
  3
ACAD_MATERIAL
350
11F
  3
ACAD_MLINESTYLE
350
11B
  3
ACAD_PLOTSETTINGS
350
11D
  3
ACAD_PLOTSTYLENAME
350
113
  3
ACAD_TABLESTYLE
350
121
  3
AcDbVariableDictionary
350
135
  0
DICTIONARY
  5
120
102
{ACAD_REACTORS
330
111
102
}
330
111
100
AcDbDictionary
281
     1
  0
DICTIONARY
  5
112
102
{ACAD_REACTORS
330
111
102
}
330
111
100
AcDbDictionary
281
     1
  0
DICTIONARY
  5
11E
102
{ACAD_REACTORS
330
111
102
}
330
111
100
AcDbDictionary
281
     1
  3
Model
350
12A
  3
1
350
126
  0
DICTIONARY
  5
11F
102
{ACAD_REACTORS
330
111
102
}
330
111
100
AcDbDictionary
281
     1
  0
DICTIONARY
  5
11B
102
{ACAD_REACTORS
330
111
102
}
330
111
100
AcDbDictionary
281
     1
  3
Standard
350
11C
  0
DICTIONARY
  5
11D
102
{ACAD_REACTORS
330
111
102
}
330
111
100
AcDbDictionary
281
     1
  0
ACDBDICTIONARYWDFLT
  5
113
102
{ACAD_REACTORS
330
111
102
}
330
111
100
AcDbDictionary
281
     1
  3
Normal
350
114
100
AcDbDictionaryWithDefault
340
114
  0
DICTIONARY
  5
121
102
{ACAD_REACTORS
330
111
102
}
330
111
100
AcDbDictionary
281
     1
  3
Standard
350
122
  0
DICTIONARY
  5
135
102
{ACAD_REACTORS
330
111
102
}
330
111
100
AcDbDictionary
281
     1
  3
CTABLESTYLE
350
136
  0
LAYOUT
  5
12A
102
{ACAD_REACTORS
330
11E
102
}
330
11E
100
AcDbPlotSettings
  1

  2
 OneNote 2010
  4

  6

 40
0.0
 41
0.0
 42
0.0
 43
0.0
 44
0.0
 45
0.0
 46
0.0
 47
0.0
 48
0.0
 49
0.0
140
0.0
141
0.0
142
1.0
143
1.0
 70
  1712
 72
     0
 73
     0
 74
     0
  7

 75
     0
147
1.0
 76
     0
 77
     2
 78
   300
148
0.0
149
0.0
100
AcDbLayout
  1
Model
 70
     1
 71
     0
 10
0.0
 20
0.0
 11
12.0
 21
9.0
 12
0.0
 22
0.0
 32
0.0
 14
0.0
 24
0.0
 34
0.0
 15
0.0
 25
0.0
 35
0.0
146
0.0
 13
0.0
 23
0.0
 33
0.0
 16
1.0
 26
0.0
 36
0.0
 17
0.0
 27
1.0
 37
0.0
 76
     0
330
127
  0
LAYOUT
  5
126
102
{ACAD_REACTORS
330
11E
102
}
330
11E
100
AcDbPlotSettings
  1

  2
 OneNote 2010
  4

  6

 40
0.0
 41
0.0
 42
0.0
 43
0.0
 44
0.0
 45
0.0
 46
0.0
 47
0.0
 48
0.0
 49
0.0
140
0.0
141
0.0
142
1.0
143
1.0
 70
   688
 72
     0
 73
     0
 74
     5
  7

 75
    16
147
1.0
 76
     0
 77
     2
 78
   300
148
0.0
149
0.0
100
AcDbLayout
  1
1
 70
     1
 71
     1
 10
0.0
 20
0.0
 11
12.0
 21
9.0
 12
0.0
 22
0.0
 32
0.0
 14
0.0
 24
0.0
 34
0.0
 15
0.0
 25
0.0
 35
0.0
146
0.0
 13
0.0
 23
0.0
 33
0.0
 16
1.0
 26
0.0
 36
0.0
 17
0.0
 27
1.0
 37
0.0
 76
     0
330
123
  0
MLINESTYLE
  5
11C
102
{ACAD_REACTORS
330
11B
102
}
330
11B
100
AcDbMlineStyle
  2
STANDARD
 70
     0
  3

 62
   256
 51
90.0
 52
90.0
 71
     2
 49
0.5
 62
   256
  6
BYLAYER
 49
-0.5
 62
   256
  6
BYLAYER
  0
ACDBPLACEHOLDER
  5
114
102
{ACAD_REACTORS
330
113
102
}
330
113
  0
TABLESTYLE
  5
122
102
{ACAD_REACTORS
330
121
102
}
330
121
100
AcDbTableStyle
  3
Standard
 70
     0
 71
     0
 40
0.06
 41
0.06
280
     0
281
     0
  7
STANDARD
140
0.18
170
     2
 62
     0
 63
     7
283
     0
274
    -2
284
     1
 64
     0
275
    -2
285
     1
 65
     0
276
    -2
286
     1
 66
     0
277
    -2
287
     1
 67
     0
278
    -2
288
     1
 68
     0
279
    -2
289
     1
 69
     0
  7
STANDARD
140
0.25
170
     5
 62
     0
 63
     7
283
     0
274
    -2
284
     1
 64
     0
275
    -2
285
     1
 65
     0
276
    -2
286
     1
 66
     0
277
    -2
287
     1
 67
     0
278
    -2
288
     1
 68
     0
279
    -2
289
     1
 69
     0
  7
STANDARD
140
0.18
170
     5
 62
     0
 63
     7
283
     0
274
    -2
284
     1
 64
     0
275
    -2
285
     1
 65
     0
276
    -2
286
     1
 66
     0
277
    -2
287
     1
 67
     0
278
    -2
288
     1
 68
     0
279
    -2
289
     1
 69
     0
  0
DICTIONARYVAR
  5
136
102
{ACAD_REACTORS
330
135
102
}
330
135
100
DictionaryVariables
280
     0
  1
STANDARD
  0
ENDSEC
  0
EOF
