  0
SECTION
  2
HEADER
  9
$ACADVER
  1
AC1018
  9
$ACADMAINTVER
 70
     0
  9
$DWGCODEPAGE
  3
ANSI_936
  9
$LASTSAVEDBY
  1
Administrator
  9
$INSBASE
 10
0.0
 20
0.0
 30
0.0
  9
$EXTMIN
 10
1013.617330639271
 20
1106.872385112621
 30
0.0
  9
$EXTMAX
 10
1170.337207416277
 20
1223.943452924486
 30
0.0
  9
$LIMMIN
 10
0.0
 20
0.0
  9
$LIMMAX
 10
420.0
 20
297.0
  9
$ORTHOMODE
 70
     0
  9
$REGENMODE
 70
     1
  9
$FILLMODE
 70
     1
  9
$QTEXTMODE
 70
     0
  9
$MIRRTEXT
 70
     0
  9
$LTSCALE
 40
1.0
  9
$ATTMODE
 70
     1
  9
$TEXTSIZE
 40
2.5
  9
$TRACEWID
 40
1.0
  9
$TEXTSTYLE
  7
Standard
  9
$CLAYER
  8
0
  9
$CELTYPE
  6
ByLayer
  9
$CECOLOR
 62
   256
  9
$CELTSCALE
 40
1.0
  9
$DISPSILH
 70
     0
  9
$DIMSCALE
 40
1.0
  9
$DIMASZ
 40
2.5
  9
$DIMEXO
 40
0.625
  9
$DIMDLI
 40
3.75
  9
$DIMRND
 40
0.0
  9
$DIMDLE
 40
0.0
  9
$DIMEXE
 40
1.25
  9
$DIMTP
 40
0.0
  9
$DIMTM
 40
0.0
  9
$DIMTXT
 40
2.5
  9
$DIMCEN
 40
2.5
  9
$DIMTSZ
 40
0.0
  9
$DIMTOL
 70
     0
  9
$DIMLIM
 70
     0
  9
$DIMTIH
 70
     0
  9
$DIMTOH
 70
     0
  9
$DIMSE1
 70
     0
  9
$DIMSE2
 70
     0
  9
$DIMTAD
 70
     1
  9
$DIMZIN
 70
     8
  9
$DIMBLK
  1

  9
$DIMASO
 70
     1
  9
$DIMSHO
 70
     1
  9
$DIMPOST
  1

  9
$DIMAPOST
  1

  9
$DIMALT
 70
     0
  9
$DIMALTD
 70
     3
  9
$DIMALTF
 40
0.03937007874016
  9
$DIMLFAC
 40
1.0
  9
$DIMTOFL
 70
     1
  9
$DIMTVP
 40
0.0
  9
$DIMTIX
 70
     0
  9
$DIMSOXD
 70
     0
  9
$DIMSAH
 70
     0
  9
$DIMBLK1
  1

  9
$DIMBLK2
  1

  9
$DIMSTYLE
  2
ISO-25
  9
$DIMCLRD
 70
     0
  9
$DIMCLRE
 70
     0
  9
$DIMCLRT
 70
     0
  9
$DIMTFAC
 40
1.0
  9
$DIMGAP
 40
0.625
  9
$DIMJUST
 70
     0
  9
$DIMSD1
 70
     0
  9
$DIMSD2
 70
     0
  9
$DIMTOLJ
 70
     0
  9
$DIMTZIN
 70
     8
  9
$DIMALTZ
 70
     0
  9
$DIMALTTZ
 70
     0
  9
$DIMUPT
 70
     0
  9
$DIMDEC
 70
     2
  9
$DIMTDEC
 70
     2
  9
$DIMALTU
 70
     2
  9
$DIMALTTD
 70
     3
  9
$DIMTXSTY
  7
Standard
  9
$DIMAUNIT
 70
     0
  9
$DIMADEC
 70
     0
  9
$DIMALTRND
 40
0.0
  9
$DIMAZIN
 70
     0
  9
$DIMDSEP
 70
    44
  9
$DIMATFIT
 70
     3
  9
$DIMFRAC
 70
     0
  9
$DIMLDRBLK
  1

  9
$DIMLUNIT
 70
     2
  9
$DIMLWD
 70
    -2
  9
$DIMLWE
 70
    -2
  9
$DIMTMOVE
 70
     0
  9
$LUNITS
 70
     2
  9
$LUPREC
 70
     4
  9
$SKETCHINC
 40
1.0
  9
$FILLETRAD
 40
2.0
  9
$AUNITS
 70
     0
  9
$AUPREC
 70
     0
  9
$MENU
  1
.
  9
$ELEVATION
 40
0.0
  9
$PELEVATION
 40
0.0
  9
$THICKNESS
 40
0.0
  9
$LIMCHECK
 70
     0
  9
$CHAMFERA
 40
0.0
  9
$CHAMFERB
 40
0.0
  9
$CHAMFERC
 40
45.0
  9
$CHAMFERD
 40
0.7853981633974863
  9
$SKPOLY
 70
     0
  9
$TDCREATE
 40
2455453.578182686
  9
$TDUCREATE
 40
2455453.244849352
  9
$TDUPDATE
 40
2456784.488181597
  9
$TDUUPDATE
 40
2456784.154848264
  9
$TDINDWG
 40
0.0802830324
  9
$TDUSRTIMER
 40
0.0802801389
  9
$USRTIMER
 70
     1
  9
$ANGBASE
 50
0.0
  9
$ANGDIR
 70
     0
  9
$PDMODE
 70
     0
  9
$PDSIZE
 40
0.0
  9
$PLINEWID
 40
0.0
  9
$SPLFRAME
 70
     0
  9
$SPLINETYPE
 70
     6
  9
$SPLINESEGS
 70
     8
  9
$HANDSEED
  5
44B
  9
$SURFTAB1
 70
     6
  9
$SURFTAB2
 70
     6
  9
$SURFTYPE
 70
     6
  9
$SURFU
 70
     6
  9
$SURFV
 70
     6
  9
$UCSBASE
  2

  9
$UCSNAME
  2

  9
$UCSORG
 10
0.0
 20
0.0
 30
0.0
  9
$UCSXDIR
 10
1.0
 20
0.0
 30
0.0
  9
$UCSYDIR
 10
0.0
 20
1.0
 30
0.0
  9
$UCSORTHOREF
  2

  9
$UCSORTHOVIEW
 70
     0
  9
$UCSORGTOP
 10
0.0
 20
0.0
 30
0.0
  9
$UCSORGBOTTOM
 10
0.0
 20
0.0
 30
0.0
  9
$UCSORGLEFT
 10
0.0
 20
0.0
 30
0.0
  9
$UCSORGRIGHT
 10
0.0
 20
0.0
 30
0.0
  9
$UCSORGFRONT
 10
0.0
 20
0.0
 30
0.0
  9
$UCSORGBACK
 10
0.0
 20
0.0
 30
0.0
  9
$PUCSBASE
  2

  9
$PUCSNAME
  2

  9
$PUCSORG
 10
0.0
 20
0.0
 30
0.0
  9
$PUCSXDIR
 10
1.0
 20
0.0
 30
0.0
  9
$PUCSYDIR
 10
0.0
 20
1.0
 30
0.0
  9
$PUCSORTHOREF
  2

  9
$PUCSORTHOVIEW
 70
     0
  9
$PUCSORGTOP
 10
0.0
 20
0.0
 30
0.0
  9
$PUCSORGBOTTOM
 10
0.0
 20
0.0
 30
0.0
  9
$PUCSORGLEFT
 10
0.0
 20
0.0
 30
0.0
  9
$PUCSORGRIGHT
 10
0.0
 20
0.0
 30
0.0
  9
$PUCSORGFRONT
 10
0.0
 20
0.0
 30
0.0
  9
$PUCSORGBACK
 10
0.0
 20
0.0
 30
0.0
  9
$USERI1
 70
     0
  9
$USERI2
 70
     0
  9
$USERI3
 70
     0
  9
$USERI4
 70
     0
  9
$USERI5
 70
     0
  9
$USERR1
 40
0.0
  9
$USERR2
 40
0.0
  9
$USERR3
 40
0.0
  9
$USERR4
 40
0.0
  9
$USERR5
 40
0.0
  9
$WORLDVIEW
 70
     1
  9
$SHADEDGE
 70
     3
  9
$SHADEDIF
 70
    70
  9
$TILEMODE
 70
     1
  9
$MAXACTVP
 70
    64
  9
$PINSBASE
 10
0.0
 20
0.0
 30
0.0
  9
$PLIMCHECK
 70
     0
  9
$PEXTMIN
 10
0.0
 20
0.0
 30
0.0
  9
$PEXTMAX
 10
0.0
 20
0.0
 30
0.0
  9
$PLIMMIN
 10
0.0
 20
0.0
  9
$PLIMMAX
 10
12.0
 20
9.0
  9
$UNITMODE
 70
     0
  9
$VISRETAIN
 70
     1
  9
$PLINEGEN
 70
     0
  9
$PSLTSCALE
 70
     1
  9
$TREEDEPTH
 70
  3020
  9
$CMLSTYLE
  2
Standard
  9
$CMLJUST
 70
     0
  9
$CMLSCALE
 40
20.0
  9
$PROXYGRAPHICS
 70
     1
  9
$MEASUREMENT
 70
     1
  9
$CELWEIGHT
370
    -1
  9
$ENDCAPS
280
     0
  9
$JOINSTYLE
280
     0
  9
$LWDISPLAY
290
     0
  9
$INSUNITS
 70
     4
  9
$HYPERLINKBASE
  1

  9
$STYLESHEET
  1

  9
$XEDIT
290
     1
  9
$CEPSNTYPE
380
     0
  9
$PSTYLEMODE
290
     1
  9
$FINGERPRINTGUID
  2
{40B45DA7-CBF7-4CFF-8557-8729CAE59837}
  9
$VERSIONGUID
  2
{9C80F28B-5C2C-4083-A25E-1DB167C0E0F9}
  9
$EXTNAMES
290
     1
  9
$PSVPSCALE
 40
0.0
  9
$OLESTARTUP
290
     0
  9
$SORTENTS
280
   127
  9
$INDEXCTL
280
     0
  9
$HIDETEXT
280
     1
  9
$XCLIPFRAME
290
     0
  9
$HALOGAP
280
     0
  9
$OBSCOLOR
 70
   257
  9
$OBSLTYPE
280
     0
  9
$INTERSECTIONDISPLAY
280
     0
  9
$INTERSECTIONCOLOR
 70
   257
  9
$DIMASSOC
280
     2
  9
$PROJECTNAME
  1

  0
ENDSEC
  0
SECTION
  2
CLASSES
  0
CLASS
  1
ACDBDICTIONARYWDFLT
  2
AcDbDictionaryWithDefault
  3
ObjectDBX Classes
 90
        0
 91
        1
280
     0
281
     0
  0
CLASS
  1
DICTIONARYVAR
  2
AcDbDictionaryVar
  3
ObjectDBX Classes
 90
        0
 91
        9
280
     0
281
     0
  0
CLASS
  1
TABLESTYLE
  2
AcDbTableStyle
  3
ObjectDBX Classes
 90
     4095
 91
        1
280
     0
281
     0
  0
CLASS
  1
MATERIAL
  2
AcDbMaterial
  3
ObjectDBX Classes
 90
        0
 91
        3
280
     0
281
     0
  0
CLASS
  1
VISUALSTYLE
  2
AcDbVisualStyle
  3
ObjectDBX Classes
 90
     4095
 91
       16
280
     0
281
     0
  0
CLASS
  1
SCALE
  2
AcDbScale
  3
ObjectDBX Classes
 90
     1153
 91
       33
280
     0
281
     0
  0
CLASS
  1
MLEADERSTYLE
  2
AcDbMLeaderStyle
  3
ACDB_MLEADERSTYLE_CLASS
 90
     4095
 91
        2
280
     0
281
     0
  0
CLASS
  1
CELLSTYLEMAP
  2
AcDbCellStyleMap
  3
ObjectDBX Classes
 90
     1152
 91
        1
280
     0
281
     0
  0
CLASS
  1
SORTENTSTABLE
  2
AcDbSortentsTable
  3
ObjectDBX Classes
 90
        0
 91
        1
280
     0
281
     0
  0
CLASS
  1
DIMASSOC
  2
AcDbDimAssoc
  3
"AcDbDimAssoc|Product Desc:     AcDim ARX App For Dimension|Company:          Autodesk, Inc.|WEB Address:      www.autodesk.com"
 90
        0
 91
        0
280
     0
281
     0
  0
ENDSEC
  0
SECTION
  2
TABLES
  0
TABLE
  2
VPORT
  5
8
330
0
100
AcDbSymbolTable
 70
     2
  0
VPORT
  5
44A
330
8
100
AcDbSymbolTableRecord
100
AcDbViewportTableRecord
  2
*Active
 70
     0
 10
0.0
 20
0.0
 11
1.0
 21
1.0
 12
1069.97487670084
 22
1171.345217993299
 13
0.0
 23
0.0
 14
10.0
 24
10.0
 15
10.0
 25
10.0
 16
0.0
 26
0.0
 36
1.0
 17
0.0
 27
0.0
 37
0.0
 40
150.2504320749858
 41
2.28108108108108
 42
50.0
 43
0.0
 44
0.0
 50
0.0
 51
0.0
 71
     0
 72
  1000
 73
     1
 74
     3
 75
     0
 76
     0
 77
     0
 78
     0
281
     0
 65
     1
110
0.0
120
0.0
130
0.0
111
1.0
121
0.0
131
0.0
112
0.0
122
1.0
132
0.0
 79
     0
146
0.0
  0
ENDTAB
  0
TABLE
  2
LTYPE
  5
5
330
0
100
AcDbSymbolTable
 70
     1
  0
LTYPE
  5
14
330
5
100
AcDbSymbolTableRecord
100
AcDbLinetypeTableRecord
  2
ByBlock
 70
     0
  3

 72
    65
 73
     0
 40
0.0
  0
LTYPE
  5
15
330
5
100
AcDbSymbolTableRecord
100
AcDbLinetypeTableRecord
  2
ByLayer
 70
     0
  3

 72
    65
 73
     0
 40
0.0
  0
LTYPE
  5
16
330
5
100
AcDbSymbolTableRecord
100
AcDbLinetypeTableRecord
  2
Continuous
 70
     0
  3
Solid line
 72
    65
 73
     0
 40
0.0
  0
ENDTAB
  0
TABLE
  2
LAYER
  5
2
330
0
100
AcDbSymbolTable
 70
     2
  0
LAYER
  5
10
102
{ACAD_XDICTIONARY
360
13C
102
}
330
2
100
AcDbSymbolTableRecord
100
AcDbLayerTableRecord
  2
0
 70
     0
 62
     7
  6
Continuous
370
    -3
390
F
  0
LAYER
  5
1D9
330
2
100
AcDbSymbolTableRecord
100
AcDbLayerTableRecord
  2
Defpoints
 70
     0
 62
     7
  6
Continuous
290
     0
370
    -3
390
F
  0
ENDTAB
  0
TABLE
  2
STYLE
  5
3
330
0
100
AcDbSymbolTable
 70
     2
  0
STYLE
  5
11
330
3
100
AcDbSymbolTableRecord
100
AcDbTextStyleTableRecord
  2
Standard
 70
     0
 40
0.0
 41
1.0
 50
0.0
 71
     0
 42
2.5
  3
txt
  4
gbcbig.shx
  0
STYLE
  5
132
330
3
100
AcDbSymbolTableRecord
100
AcDbTextStyleTableRecord
  2
Annotative
 70
     0
 40
0.0
 41
1.0
 50
0.0
 71
     0
 42
2.5
  3
txt.shx
  4
gbcbig.shx
1001
AcadAnnotative
1000
AnnotativeData
1002
{
1070
     1
1070
     1
1002
}
  0
ENDTAB
  0
TABLE
  2
VIEW
  5
6
330
0
100
AcDbSymbolTable
 70
     0
  0
ENDTAB
  0
TABLE
  2
UCS
  5
7
330
0
100
AcDbSymbolTable
 70
     0
  0
ENDTAB
  0
TABLE
  2
APPID
  5
9
330
0
100
AcDbSymbolTable
 70
     8
  0
APPID
  5
12
330
9
100
AcDbSymbolTableRecord
100
AcDbRegAppTableRecord
  2
ACAD
 70
     0
  0
APPID
  5
9E
330
9
100
AcDbSymbolTableRecord
100
AcDbRegAppTableRecord
  2
ACAD_PSEXT
 70
     0
  0
APPID
  5
133
330
9
100
AcDbSymbolTableRecord
100
AcDbRegAppTableRecord
  2
AcadAnnoPO
 70
     0
  0
APPID
  5
134
330
9
100
AcDbSymbolTableRecord
100
AcDbRegAppTableRecord
  2
AcadAnnotative
 70
     0
  0
APPID
  5
135
330
9
100
AcDbSymbolTableRecord
100
AcDbRegAppTableRecord
  2
ACAD_DSTYLE_DIMJAG
 70
     0
  0
APPID
  5
136
330
9
100
AcDbSymbolTableRecord
100
AcDbRegAppTableRecord
  2
ACAD_DSTYLE_DIMTALN
 70
     0
  0
APPID
  5
165
330
9
100
AcDbSymbolTableRecord
100
AcDbRegAppTableRecord
  2
ACAD_MLEADERVER
 70
     0
  0
APPID
  5
1B2
330
9
100
AcDbSymbolTableRecord
100
AcDbRegAppTableRecord
  2
ACAD_EXEMPT_FROM_CAD_STANDARDS
 70
     0
  0
ENDTAB
  0
TABLE
  2
DIMSTYLE
  5
A
330
0
100
AcDbSymbolTable
 70
     2
100
AcDbDimStyleTable
 71
     2
340
27
340
137
  0
DIMSTYLE
105
27
330
A
100
AcDbSymbolTableRecord
100
AcDbDimStyleTableRecord
  2
ISO-25
 70
     0
 41
2.5
 42
0.625
 43
3.75
 44
1.25
 73
     0
 74
     0
 77
     1
 78
     8
140
2.5
141
2.5
143
0.03937007874016
147
0.625
171
     3
172
     1
271
     2
272
     2
274
     3
278
    44
283
     0
284
     8
340
11
  0
DIMSTYLE
105
137
330
A
100
AcDbSymbolTableRecord
100
AcDbDimStyleTableRecord
  2
Annotative
 70
     0
 40
0.0
 41
2.5
 42
0.625
 43
3.75
 44
1.25
 73
     0
 74
     0
 77
     1
 78
     8
140
2.5
141
2.5
143
0.03937007874016
147
0.625
171
     3
172
     1
271
     2
272
     2
274
     3
278
    44
283
     0
284
     8
340
11
1001
AcadAnnotative
1000
AnnotativeData
1002
{
1070
     1
1070
     1
1002
}
1001
ACAD_DSTYLE_DIMJAG
1070
   388
1040
1.5
1001
ACAD_DSTYLE_DIMTALN
1070
   392
1070
     0
  0
ENDTAB
  0
TABLE
  2
BLOCK_RECORD
  5
1
330
0
100
AcDbSymbolTable
 70
     3
  0
BLOCK_RECORD
  5
1F
102
{ACAD_XDICTIONARY
360
1BE
102
}
330
1
100
AcDbSymbolTableRecord
100
AcDbBlockTableRecord
  2
*Model_Space
340
22
  0
BLOCK_RECORD
  5
D2
330
1
100
AcDbSymbolTableRecord
100
AcDbBlockTableRecord
  2
*Paper_Space
340
D3
  0
BLOCK_RECORD
  5
D6
330
1
100
AcDbSymbolTableRecord
100
AcDbBlockTableRecord
  2
*Paper_Space0
340
D7
  0
BLOCK_RECORD
  5
1DA
330
1
100
AcDbSymbolTableRecord
100
AcDbBlockTableRecord
  2
*D1
340
0
  0
BLOCK_RECORD
  5
216
330
1
100
AcDbSymbolTableRecord
100
AcDbBlockTableRecord
  2
*D2
340
0
  0
ENDTAB
  0
ENDSEC
  0
SECTION
  2
BLOCKS
  0
BLOCK
  5
20
330
1F
100
AcDbEntity
  8
0
100
AcDbBlockBegin
  2
*Model_Space
 70
     0
 10
0.0
 20
0.0
 30
0.0
  3
*Model_Space
  1

  0
ENDBLK
  5
21
330
1F
100
AcDbEntity
  8
0
100
AcDbBlockEnd
  0
BLOCK
  5
D4
330
D2
100
AcDbEntity
 67
     1
  8
0
100
AcDbBlockBegin
  2
*Paper_Space
 70
     0
 10
0.0
 20
0.0
 30
0.0
  3
*Paper_Space
  1

  0
ENDBLK
  5
D5
330
D2
100
AcDbEntity
 67
     1
  8
0
100
AcDbBlockEnd
  0
BLOCK
  5
D8
330
D6
100
AcDbEntity
  8
0
100
AcDbBlockBegin
  2
*Paper_Space0
 70
     0
 10
0.0
 20
0.0
 30
0.0
  3
*Paper_Space0
  1

  0
ENDBLK
  5
D9
330
D6
100
AcDbEntity
  8
0
100
AcDbBlockEnd
  0
BLOCK
  5
1DB
330
1DA
100
AcDbEntity
  8
0
100
AcDbBlockBegin
  2
*D1
 70
     1
 10
0.0
 20
0.0
 30
0.0
  3
*D1
  1

  0
LINE
  5
1E8
330
1DA
100
AcDbEntity
  8
0
 62
     0
370
    -2
100
AcDbLine
 10
1160.277864545203
 20
1114.407919018554
 30
0.0
 11
1171.517430351514
 21
1114.407919018554
 31
0.0
  0
LINE
  5
1E9
330
1DA
100
AcDbEntity
  8
0
 62
     0
370
    -2
100
AcDbLine
 10
1160.277864545203
 20
1107.907919018554
 30
0.0
 11
1171.517430351514
 21
1107.907919018554
 31
0.0
  0
LINE
  5
1EA
330
1DA
100
AcDbEntity
  8
0
 62
     0
370
    -2
100
AcDbLine
 10
1170.267430351514
 20
1111.907919018554
 30
0.0
 11
1170.267430351514
 21
1110.407919018554
 31
0.0
  0
LINE
  5
1EB
330
1DA
100
AcDbEntity
  8
0
 62
     0
370
    -2
100
AcDbLine
 10
1170.267430351514
 20
1107.907919018554
 30
0.0
 11
1170.267430351514
 21
1098.741252351887
 31
0.0
  0
SOLID
  5
1EC
330
1DA
100
AcDbEntity
  8
0
 62
     0
100
AcDbTrace
 10
1169.850763684847
 20
1111.907919018554
 30
0.0
 11
1170.684097018181
 21
1111.907919018554
 31
0.0
 12
1170.267430351514
 22
1114.407919018554
 32
0.0
 13
1170.267430351514
 23
1114.407919018554
 33
0.0
  0
SOLID
  5
1ED
330
1DA
100
AcDbEntity
  8
0
 62
     0
100
AcDbTrace
 10
1169.850763684847
 20
1110.407919018554
 30
0.0
 11
1170.684097018181
 21
1110.407919018554
 31
0.0
 12
1170.267430351514
 22
1107.907919018554
 32
0.0
 13
1170.267430351514
 23
1107.907919018554
 33
0.0
  0
MTEXT
  5
1EE
330
1DA
100
AcDbEntity
  8
0
 62
     0
100
AcDbMText
 10
1168.18409701818
 20
1102.074585685221
 30
0.0
 40
2.5
 41
0.0
 71
     5
 72
     1
  1
6,5
 11
0.0000000000000001
 21
1.0
 31
0.0
 73
     1
 44
1.0
  0
POINT
  5
1EF
330
1DA
100
AcDbEntity
  8
Defpoints
 62
     0
100
AcDbPoint
 10
1159.652864545203
 20
1114.407919018554
 30
0.0
  0
POINT
  5
1F0
330
1DA
100
AcDbEntity
  8
Defpoints
 62
     0
100
AcDbPoint
 10
1159.652864545203
 20
1107.907919018554
 30
0.0
  0
POINT
  5
1F1
330
1DA
100
AcDbEntity
  8
Defpoints
 62
     0
100
AcDbPoint
 10
1170.267430351514
 20
1107.907919018554
 30
0.0
  0
ENDBLK
  5
1DC
330
1DA
100
AcDbEntity
  8
0
100
AcDbBlockEnd
  0
BLOCK
  5
217
330
216
100
AcDbEntity
  8
0
100
AcDbBlockBegin
  2
*D2
 70
     1
 10
0.0
 20
0.0
 30
0.0
  3
*D2
  1

  0
LINE
  5
223
330
216
100
AcDbEntity
  8
0
 62
     0
370
    -2
100
AcDbLine
 10
1127.777864545203
 20
1156.907919018554
 30
0.0
 11
1143.628654088386
 21
1156.907919018554
 31
0.0
  0
LINE
  5
224
330
216
100
AcDbEntity
  8
0
 62
     0
370
    -2
100
AcDbLine
 10
1109.277864545203
 20
1136.407919018554
 30
0.0
 11
1143.628654088386
 21
1136.407919018554
 31
0.0
  0
LINE
  5
225
330
216
100
AcDbEntity
  8
0
 62
     0
370
    -2
100
AcDbLine
 10
1142.378654088386
 20
1154.407919018554
 30
0.0
 11
1142.378654088386
 21
1138.907919018554
 31
0.0
  0
SOLID
  5
226
330
216
100
AcDbEntity
  8
0
 62
     0
100
AcDbTrace
 10
1141.96198742172
 20
1154.407919018554
 30
0.0
 11
1142.795320755053
 21
1154.407919018554
 31
0.0
 12
1142.378654088386
 22
1156.907919018554
 32
0.0
 13
1142.378654088386
 23
1156.907919018554
 33
0.0
  0
SOLID
  5
227
330
216
100
AcDbEntity
  8
0
 62
     0
100
AcDbTrace
 10
1141.96198742172
 20
1138.907919018554
 30
0.0
 11
1142.795320755053
 21
1138.907919018554
 31
0.0
 12
1142.378654088386
 22
1136.407919018554
 32
0.0
 13
1142.378654088386
 23
1136.407919018554
 33
0.0
  0
MTEXT
  5
228
330
216
100
AcDbEntity
  8
0
 62
     0
100
AcDbMText
 10
1140.295320755053
 20
1146.657919018554
 30
0.0
 40
2.5
 41
0.0
 71
     5
 72
     1
  1
20,5
 11
0.0000000000000001
 21
1.0
 31
0.0
 73
     1
 44
1.0
  0
POINT
  5
229
330
216
100
AcDbEntity
  8
Defpoints
 62
     0
100
AcDbPoint
 10
1127.152864545203
 20
1156.907919018554
 30
0.0
  0
POINT
  5
22A
330
216
100
AcDbEntity
  8
Defpoints
 62
     0
100
AcDbPoint
 10
1108.652864545203
 20
1136.407919018554
 30
0.0
  0
POINT
  5
22B
330
216
100
AcDbEntity
  8
Defpoints
 62
     0
100
AcDbPoint
 10
1142.378654088386
 20
1136.407919018554
 30
0.0
  0
ENDBLK
  5
218
330
216
100
AcDbEntity
  8
0
100
AcDbBlockEnd
  0
ENDSEC
  0
SECTION
  2
ENTITIES
  0
LINE
  5
1B8
330
1F
100
AcDbEntity
  8
0
 62
     1
100
AcDbLine
 10
1017.652864545203
 20
1222.907919018554
 30
0.0
 11
1027.652864545203
 21
1222.907919018554
 31
0.0
  0
LINE
  5
1BA
330
1F
100
AcDbEntity
  8
0
 62
     1
100
AcDbLine
 10
1154.652864545204
 20
1107.907919018554
 30
0.0
 11
1139.652864545204
 21
1107.907919018554
 31
0.0
  0
LINE
  5
1BC
330
1F
100
AcDbEntity
  8
0
 62
     1
100
AcDbLine
 10
1014.652864545204
 20
1120.907919018554
 30
0.0
 11
1014.652864545203
 21
1113.907919018554
 31
0.0
  0
LINE
  5
1C2
330
1F
100
AcDbEntity
  8
0
 62
     1
100
AcDbLine
 10
1159.652864545203
 20
1220.907919018554
 30
0.0
 11
1159.652864545203
 21
1154.907919018554
 31
0.0
  0
LINE
  5
1C3
330
1F
100
AcDbEntity
  8
0
 62
     1
100
AcDbLine
 10
1164.652864545203
 20
1139.907919018554
 30
0.0
 11
1157.652864545203
 21
1139.907919018554
 31
0.0
  0
LINE
  5
1C4
330
1F
100
AcDbEntity
  8
0
 62
     1
100
AcDbLine
 10
1164.652864545203
 20
1151.907919018554
 30
0.0
 11
1157.652864545203
 21
1151.907919018554
 31
0.0
  0
LINE
  5
1C8
330
1F
100
AcDbEntity
  8
0
 62
     1
100
AcDbLine
 10
1169.652864545203
 20
1147.907919018554
 30
0.0
 11
1164.652864545203
 21
1147.907919018554
 31
0.0
  0
LINE
  5
1C9
330
1F
100
AcDbEntity
  8
0
 62
     1
100
AcDbLine
 10
1169.652864545203
 20
1143.907919018554
 30
0.0
 11
1164.652864545203
 21
1143.907919018554
 31
0.0
  0
ARC
  5
1CA
330
1F
100
AcDbEntity
  8
0
 62
     1
100
AcDbCircle
 10
1164.652864545203
 20
1145.907919018554
 30
0.0
 40
2.0
100
AcDbArc
 50
90.0
 51
270.0
  0
ARC
  5
1CB
330
1F
100
AcDbEntity
  8
0
 62
     1
100
AcDbCircle
 10
1164.572524350186
 20
1146.682493774783
 30
0.0
 40
5.226042817005422
100
AcDbArc
 50
13.56122882569152
 51
89.11915466612645
  0
ARC
  5
1CC
330
1F
100
AcDbEntity
  8
0
 62
     1
100
AcDbCircle
 10
1164.572524350186
 20
1145.133344262325
 30
0.0
 40
5.226042817005292
100
AcDbArc
 50
270.8808453338735
 51
346.4387711743084
  0
LINE
  5
1D0
330
1F
100
AcDbEntity
  8
0
 62
     1
100
AcDbLine
 10
1159.652864545203
 20
1136.907919018554
 30
0.0
 11
1159.652864545203
 21
1112.907919018554
 31
0.0
  0
ARC
  5
1D1
330
1F
100
AcDbEntity
  8
0
 62
     1
100
AcDbCircle
 10
1157.652864545203
 20
1154.907919018554
 30
0.0
 40
2.0
100
AcDbArc
 50
269.9999999999999
 51
0.0
  0
ARC
  5
1D3
330
1F
100
AcDbEntity
  8
0
 62
     1
100
AcDbCircle
 10
1157.652864545203
 20
1136.907919018554
 30
0.0
 40
2.0
100
AcDbArc
 50
0.0
 51
89.99999999999992
  0
ARC
  5
1D6
330
1F
100
AcDbEntity
  8
0
 62
     1
100
AcDbCircle
 10
1157.652864545203
 20
1152.407919018554
 30
0.0
 40
0.5000000000002274
100
AcDbArc
 50
90.0
 51
270.0
  0
ARC
  5
1D7
330
1F
100
AcDbEntity
  8
0
 62
     1
100
AcDbCircle
 10
1157.652864545203
 20
1139.407919018554
 30
0.0
 40
0.5
100
AcDbArc
 50
90.0
 51
270.0
  0
ARC
  5
1F6
330
1F
100
AcDbEntity
  8
0
 62
     1
100
AcDbCircle
 10
1141.900836533631
 20
1114.407919018554
 30
0.0
 40
3.25
100
AcDbArc
 50
37.97987244484263
 51
322.0201275551373
  0
LINE
  5
1F7
330
1F
100
AcDbEntity
  8
0
 62
     1
100
AcDbLine
 10
1150.652864545203
 20
1116.407919018554
 30
0.0
 11
1144.462574225121
 21
1116.407919018554
 31
0.0
  0
LINE
  5
1F8
330
1F
100
AcDbEntity
  8
0
 62
     1
100
AcDbLine
 10
1150.652864545203
 20
1112.407919018553
 30
0.0
 11
1144.462574225121
 21
1112.407919018553
 31
0.0
  0
ARC
  5
1F9
330
1F
100
AcDbEntity
  8
0
 62
     1
100
AcDbCircle
 10
1150.652864545203
 20
1114.407919018554
 30
0.0
 40
2.0
100
AcDbArc
 50
270.0
 51
90.0
  0
LINE
  5
1FC
330
1F
100
AcDbEntity
  8
0
 62
     1
100
AcDbLine
 10
1134.652864545203
 20
1157.407919018554
 30
0.0
 11
1134.652864545204
 21
1112.907919018554
 31
0.0
  0
LINE
  5
1FF
330
1F
100
AcDbEntity
  8
0
 62
     1
100
AcDbLine
 10
1119.652864545203
 20
1157.407919018554
 30
0.0
 11
1119.652864545203
 21
1127.907919018554
 31
0.0
  0
LINE
  5
200
330
1F
100
AcDbEntity
  8
0
 62
     1
100
AcDbLine
 10
1133.652864545203
 20
1157.407919018554
 30
0.0
 11
1133.652864545203
 21
1156.907919018554
 31
0.0
  0
LINE
  5
201
330
1F
100
AcDbEntity
  8
0
 62
     1
100
AcDbLine
 10
1120.652864545203
 20
1157.407919018554
 30
0.0
 11
1120.652864545203
 21
1156.907919018554
 31
0.0
  0
LINE
  5
202
330
1F
100
AcDbEntity
  8
0
 62
     1
100
AcDbLine
 10
1133.652864545203
 20
1156.907919018554
 30
0.0
 11
1120.652864545203
 21
1156.907919018554
 31
0.0
  0
ARC
  5
207
330
1F
100
AcDbEntity
  8
0
 62
     1
100
AcDbCircle
 10
1120.152864545203
 20
1157.407919018554
 30
0.0
 40
0.5
100
AcDbArc
 50
359.999999999974
 51
180.0
  0
ARC
  5
208
330
1F
100
AcDbEntity
  8
0
 62
     1
100
AcDbCircle
 10
1134.152864545203
 20
1157.407919018554
 30
0.0
 40
0.5
100
AcDbArc
 50
359.999999999974
 51
180.0
  0
LINE
  5
20F
330
1F
100
AcDbEntity
  8
0
 62
     1
100
AcDbLine
 10
1114.652864545203
 20
1122.907919018554
 30
0.0
 11
1094.152864545203
 21
1122.907919018554
 31
0.0
  0
LINE
  5
211
330
1F
100
AcDbEntity
  8
0
 62
     1
100
AcDbLine
 10
1059.652864545203
 20
1107.907919018554
 30
0.0
 11
1049.652864545203
 21
1107.907919018554
 31
0.0
  0
CIRCLE
  5
213
330
1F
100
AcDbEntity
  8
0
 62
     1
100
AcDbCircle
 10
1108.652864545203
 20
1136.407919018554
 30
0.0
 40
4.5
  0
ARC
  5
231
330
1F
100
AcDbEntity
  8
0
 62
     1
100
AcDbCircle
 10
1085.652864545203
 20
1135.907919018554
 30
0.0
 40
4.5
100
AcDbArc
 50
321.0575587310224
 51
218.9424412689898
  0
LINE
  5
233
330
1F
100
AcDbEntity
  8
0
 62
     1
100
AcDbLine
 10
1089.152864545203
 20
1133.079491893808
 30
0.0
 11
1089.152864545203
 21
1127.907919018554
 31
0.0
  0
LINE
  5
234
330
1F
100
AcDbEntity
  8
0
 62
     1
100
AcDbLine
 10
1082.152864545204
 20
1133.079491893807
 30
0.0
 11
1082.152864545203
 21
1127.907919018554
 31
0.0
  0
LINE
  5
235
330
1F
100
AcDbEntity
  8
0
 62
     1
100
AcDbLine
 10
1077.152864545203
 20
1122.907919018554
 30
0.0
 11
1069.652864545203
 21
1122.907919018554
 31
0.0
  0
LINE
  5
239
330
1F
100
AcDbEntity
  8
0
 62
     1
100
AcDbLine
 10
1064.652864545203
 20
1117.907919018554
 30
0.0
 11
1064.652864545203
 21
1112.907919018554
 31
0.0
  0
ARC
  5
23A
330
1F
100
AcDbEntity
  8
0
 62
     1
100
AcDbCircle
 10
1077.152864545203
 20
1127.907919018554
 30
0.0
 40
5.0
100
AcDbArc
 50
270.0
 51
359.9999999999988
  0
ARC
  5
23B
330
1F
100
AcDbEntity
  8
0
 62
     1
100
AcDbCircle
 10
1094.152864545203
 20
1127.907919018554
 30
0.0
 40
5.0
100
AcDbArc
 50
180.0
 51
270.0
  0
ARC
  5
23C
330
1F
100
AcDbEntity
  8
0
 62
     1
100
AcDbCircle
 10
1114.652864545203
 20
1127.907919018554
 30
0.0
 40
5.0
100
AcDbArc
 50
270.0
 51
0.0000000000003689
  0
ARC
  5
23D
330
1F
100
AcDbEntity
  8
0
 62
     1
100
AcDbCircle
 10
1139.652864545204
 20
1112.907919018554
 30
0.0
 40
5.0
100
AcDbArc
 50
180.0000000000002
 51
270.0
  0
ARC
  5
23E
330
1F
100
AcDbEntity
  8
0
 62
     1
100
AcDbCircle
 10
1154.652864545204
 20
1112.907919018554
 30
0.0
 40
5.0
100
AcDbArc
 50
270.0
 51
0.0000000000004453
  0
ARC
  5
23F
330
1F
100
AcDbEntity
  8
0
 62
     1
100
AcDbCircle
 10
1069.652864545203
 20
1117.907919018554
 30
0.0
 40
5.0
100
AcDbArc
 50
90.0
 51
180.0000000000009
  0
LINE
  5
240
330
1F
100
AcDbEntity
  8
0
 62
     1
100
AcDbLine
 10
1049.652864545203
 20
1113.907919018554
 30
0.0
 11
1014.652864545203
 21
1113.907919018554
 31
0.0
  0
LINE
  5
241
330
1F
100
AcDbEntity
  8
0
 62
     1
100
AcDbLine
 10
1049.652864545203
 20
1113.907919018554
 30
0.0
 11
1049.652864545203
 21
1107.907919018553
 31
0.0
  0
LINE
  5
242
330
1F
100
AcDbEntity
  8
0
 62
     1
100
AcDbLine
 10
1026.652864545203
 20
1125.907919018554
 30
0.0
 11
1019.652864545204
 21
1125.907919018554
 31
0.0
  0
LINE
  5
243
330
1F
100
AcDbEntity
  8
0
 62
     1
100
AcDbLine
 10
1026.652864545203
 20
1140.907919018554
 30
0.0
 11
1026.652864545203
 21
1125.907919018554
 31
0.0
  0
LINE
  5
244
330
1F
100
AcDbEntity
  8
0
 62
     1
100
AcDbLine
 10
1053.652864545203
 20
1140.907919018554
 30
0.0
 11
1026.652864545203
 21
1140.907919018554
 31
0.0
  0
LINE
  5
245
330
1F
100
AcDbEntity
  8
0
 62
     1
100
AcDbLine
 10
1053.652864545203
 20
1140.907919018554
 30
0.0
 11
1053.652864545203
 21
1125.907919018554
 31
0.0
  0
LINE
  5
246
330
1F
100
AcDbEntity
  8
0
 62
     1
100
AcDbLine
 10
1055.652864545203
 20
1146.907919018554
 30
0.0
 11
1055.652864545203
 21
1125.907919018554
 31
0.0
  0
ARC
  5
249
330
1F
100
AcDbEntity
  8
0
 62
     1
100
AcDbCircle
 10
1054.652864545203
 20
1125.907919018554
 30
0.0
 40
1.0
100
AcDbArc
 50
180.0
 51
0.0
  0
ARC
  5
24A
330
1F
100
AcDbEntity
  8
0
 62
     1
100
AcDbCircle
 10
1019.652864545204
 20
1120.907919018554
 30
0.0
 40
5.0
100
AcDbArc
 50
90.0000000000011
 51
179.9999999999994
  0
ARC
  5
24B
330
1F
100
AcDbEntity
  8
0
 62
     1
100
AcDbCircle
 10
1059.652864545203
 20
1112.907919018554
 30
0.0
 40
5.0
100
AcDbArc
 50
270.0
 51
0.0000000000012977
  0
LINE
  5
24C
330
1F
100
AcDbEntity
  8
0
 62
     1
100
AcDbLine
 10
1050.652864545203
 20
1151.907919018554
 30
0.0
 11
1026.652864545203
 21
1151.907919018554
 31
0.0
  0
LINE
  5
250
330
1F
100
AcDbEntity
  8
0
 62
     1
100
AcDbLine
 10
1021.652864545203
 20
1170.907919018555
 30
0.0
 11
1021.652864545203
 21
1156.907919018554
 31
0.0
  0
LINE
  5
251
330
1F
100
AcDbEntity
  8
0
 62
     1
100
AcDbLine
 10
1019.652864545203
 20
1172.907919018554
 30
0.0
 11
1014.652864545203
 21
1172.907919018554
 31
0.0
  0
ARC
  5
252
330
1F
100
AcDbEntity
  8
0
 62
     1
100
AcDbCircle
 10
1050.652864545203
 20
1146.907919018554
 30
0.0
 40
5.0
100
AcDbArc
 50
0.0
 51
90.0
  0
LINE
  5
254
330
1F
100
AcDbEntity
  8
0
 62
     1
100
AcDbLine
 10
1017.652864545203
 20
1216.907919018554
 30
0.0
 11
1023.652864545203
 21
1216.907919018554
 31
0.0
  0
LINE
  5
255
330
1F
100
AcDbEntity
  8
0
 62
     1
100
AcDbLine
 10
1017.652864545203
 20
1212.907919018554
 30
0.0
 11
1023.652864545203
 21
1212.907919018554
 31
0.0
  0
LINE
  5
257
330
1F
100
AcDbEntity
  8
0
 62
     1
100
AcDbLine
 10
1025.652864545203
 20
1214.907919018554
 30
0.0
 11
1025.652864545203
 21
1214.907919018554
 31
0.0
  0
LINE
  5
258
330
1F
100
AcDbEntity
  8
0
 62
     1
100
AcDbLine
 10
1014.652864545203
 20
1209.907919018554
 30
0.0
 11
1014.652864545203
 21
1172.907919018554
 31
0.0
  0
ARC
  5
259
330
1F
100
AcDbEntity
  8
0
 62
     1
100
AcDbCircle
 10
1017.652864545203
 20
1219.907919018554
 30
0.0
 40
3.0
100
AcDbArc
 50
90.0
 51
270.0
  0
ARC
  5
25A
330
1F
100
AcDbEntity
  8
0
 62
     1
100
AcDbCircle
 10
1023.652864545203
 20
1214.907919018554
 30
0.0
 40
2.0
100
AcDbArc
 50
0.0
 51
90.0
  0
ARC
  5
25B
330
1F
100
AcDbEntity
  8
0
 62
     1
100
AcDbCircle
 10
1023.652864545203
 20
1214.907919018554
 30
0.0
 40
2.0
100
AcDbArc
 50
270.0
 51
0.0
  0
LINE
  5
25E
330
1F
100
AcDbEntity
  8
0
 62
     1
100
AcDbLine
 10
1014.652864545203
 20
1209.907919018554
 30
0.0
 11
1017.652864545203
 21
1212.907919018554
 31
0.0
  0
LINE
  5
260
330
1F
100
AcDbEntity
  8
0
 62
     1
100
AcDbLine
 10
1032.652864545203
 20
1217.907919018554
 30
0.0
 11
1032.652864545203
 21
1214.907919018554
 31
0.0
  0
LINE
  5
261
330
1F
100
AcDbEntity
  8
0
 62
     1
100
AcDbLine
 10
1034.652864545203
 20
1212.907919018554
 30
0.0
 11
1043.652864545203
 21
1212.907919018554
 31
0.0
  0
LINE
  5
264
330
1F
100
AcDbEntity
  8
0
 62
     1
100
AcDbLine
 10
1047.652864545203
 20
1218.907919018554
 30
0.0
 11
1055.652864545203
 21
1218.907919018554
 31
0.0
  0
LINE
  5
266
330
1F
100
AcDbEntity
  8
0
 62
     1
100
AcDbLine
 10
1055.652864545203
 20
1220.907919018554
 30
0.0
 11
1055.652864545203
 21
1218.907919018554
 31
0.0
  0
LINE
  5
268
330
1F
100
AcDbEntity
  8
0
 62
     1
100
AcDbLine
 10
1045.652864545203
 20
1216.907919018554
 30
0.0
 11
1045.652864545203
 21
1214.907919018554
 31
0.0
  0
ARC
  5
26B
330
1F
100
AcDbEntity
  8
0
 62
     1
100
AcDbCircle
 10
1027.652864545203
 20
1217.907919018554
 30
0.0
 40
5.0
100
AcDbArc
 50
0.0
 51
90.0
  0
ARC
  5
26C
330
1F
100
AcDbEntity
  8
0
 62
     1
100
AcDbCircle
 10
1034.652864545203
 20
1214.907919018554
 30
0.0
 40
2.0
100
AcDbArc
 50
180.0
 51
270.0
  0
ARC
  5
26D
330
1F
100
AcDbEntity
  8
0
 62
     1
100
AcDbCircle
 10
1043.652864545203
 20
1214.907919018554
 30
0.0
 40
2.0
100
AcDbArc
 50
270.0
 51
0.0
  0
ARC
  5
26E
330
1F
100
AcDbEntity
  8
0
 62
     1
100
AcDbCircle
 10
1047.652864545203
 20
1216.907919018554
 30
0.0
 40
2.0
100
AcDbArc
 50
90.0
 51
180.0
  0
ARC
  5
270
330
1F
100
AcDbEntity
  8
0
 62
     1
100
AcDbCircle
 10
1019.652864545203
 20
1170.907919018555
 30
0.0
 40
2.0
100
AcDbArc
 50
0.0
 51
90.00000000000184
  0
ARC
  5
271
330
1F
100
AcDbEntity
  8
0
 62
     1
100
AcDbCircle
 10
1026.652864545203
 20
1156.907919018554
 30
0.0
 40
5.0
100
AcDbArc
 50
180.0000000000004
 51
270.0
  0
CIRCLE
  5
30C
330
1F
100
AcDbEntity
  8
0
 62
     1
100
AcDbCircle
 10
1021.982659157978
 20
1195.098849818197
 30
0.0
 40
2.5
  0
CIRCLE
  5
30E
330
1F
100
AcDbEntity
  8
0
 62
     1
100
AcDbCircle
 10
1137.022968478577
 20
1179.848590955381
 30
0.0
 40
10.0
  0
CIRCLE
  5
310
330
1F
100
AcDbEntity
  8
0
 62
     1
100
AcDbCircle
 10
1125.022968478577
 20
1167.848590955381
 30
0.0
 40
2.5
  0
CIRCLE
  5
311
330
1F
100
AcDbEntity
  8
0
 62
     1
100
AcDbCircle
 10
1149.022968478578
 20
1167.848590955381
 30
0.0
 40
2.5
  0
CIRCLE
  5
312
330
1F
100
AcDbEntity
  8
0
 62
     1
100
AcDbCircle
 10
1149.022968478578
 20
1191.848590955381
 30
0.0
 40
2.5
  0
CIRCLE
  5
314
330
1F
100
AcDbEntity
  8
0
 62
     1
100
AcDbCircle
 10
1141.337809793892
 20
1131.127016372005
 30
0.0
 40
2.5
  0
CIRCLE
  5
315
330
1F
100
AcDbEntity
  8
0
 62
     1
100
AcDbCircle
 10
1058.354922861592
 20
1116.633191721893
 30
0.0
 40
2.5
  0
CIRCLE
  5
316
330
1F
100
AcDbEntity
  8
0
 62
     1
100
AcDbCircle
 10
1031.974433018539
 20
1135.41322231138
 30
0.0
 40
2.5
  0
ARC
  5
321
330
1F
100
AcDbEntity
  8
0
 62
     1
100
AcDbCircle
 10
1102.379332016383
 20
1214.244058845229
 30
0.0
 40
9.471047851446465
100
AcDbArc
 50
309.4304571814886
 51
350.569542818512
  0
ARC
  5
32D
330
1F
100
AcDbEntity
  8
0
 62
     1
100
AcDbCircle
 10
1102.379332016383
 20
1196.523674619487
 30
0.0
 40
9.471047851446465
100
AcDbArc
 50
9.430457181489591
 51
50.56954281851142
  0
ARC
  5
32E
330
1F
100
AcDbEntity
  8
0
 62
     1
100
AcDbCircle
 10
1117.725634920697
 20
1187.663482506617
 30
0.0
 40
9.471047851446462
100
AcDbArc
 50
69.43045718148893
 51
110.5695428185123
  0
ARC
  5
32F
330
1F
100
AcDbEntity
  8
0
 62
     1
100
AcDbCircle
 10
1133.07193782501
 20
1196.523674619487
 30
0.0
 40
9.471047851446465
100
AcDbArc
 50
129.4304571814886
 51
170.5695428185104
  0
ARC
  5
330
330
1F
100
AcDbEntity
  8
0
 62
     1
100
AcDbCircle
 10
1133.07193782501
 20
1214.244058845229
 30
0.0
 40
9.471047851446465
100
AcDbArc
 50
189.430457181488
 51
230.5695428185103
  0
ARC
  5
331
330
1F
100
AcDbEntity
  8
0
 62
     1
100
AcDbCircle
 10
1117.725634920696
 20
1223.1042509581
 30
0.0
 40
9.471047851446465
100
AcDbArc
 50
249.4304571814889
 51
290.5695428185124
  0
ARC
  5
332
330
1F
100
AcDbEntity
  8
0
 62
     1
100
AcDbCircle
 10
1113.695350970014
 20
1212.36452330387
 30
0.0
 40
2.0
100
AcDbArc
 50
69.43045718148721
 51
170.5695428185135
  0
ARC
  5
333
330
1F
100
AcDbEntity
  8
0
 62
     1
100
AcDbCircle
 10
1121.755918871379
 20
1212.36452330387
 30
0.0
 40
2.0
100
AcDbArc
 50
9.430457181485351
 51
110.5695428185128
  0
ARC
  5
334
330
1F
100
AcDbEntity
  8
0
 62
     1
100
AcDbCircle
 10
1125.786202822061
 20
1205.383866732359
 30
0.0
 40
2.0
100
AcDbArc
 50
309.4304571814848
 51
50.56954281851101
  0
ARC
  5
335
330
1F
100
AcDbEntity
  8
0
 62
     1
100
AcDbCircle
 10
1121.755918871379
 20
1198.403210160847
 30
0.0
 40
2.0
100
AcDbArc
 50
249.4304571814872
 51
350.5695428185146
  0
ARC
  5
336
330
1F
100
AcDbEntity
  8
0
 62
     1
100
AcDbCircle
 10
1113.695350970014
 20
1198.403210160847
 30
0.0
 40
2.0
100
AcDbArc
 50
189.4304571814853
 51
290.5695428185128
  0
ARC
  5
337
330
1F
100
AcDbEntity
  8
0
 62
     1
100
AcDbCircle
 10
1109.665067019332
 20
1205.383866732358
 30
0.0
 40
2.0
100
AcDbArc
 50
129.4304571814848
 51
230.569542818511
  0
LINE
  5
33A
330
1F
100
AcDbEntity
  8
0
 62
     1
100
AcDbLine
 10
1073.652864545203
 20
1222.907919018554
 30
0.0
 11
1072.652864545203
 21
1220.907919018554
 31
0.0
  0
LINE
  5
33B
330
1F
100
AcDbEntity
  8
0
 62
     1
100
AcDbLine
 10
1073.652864545203
 20
1222.907919018554
 30
0.0
 11
1074.652864545203
 21
1220.907919018554
 31
0.0
  0
LINE
  5
33C
330
1F
100
AcDbEntity
  8
0
 62
     1
100
AcDbLine
 10
1075.652864545203
 20
1222.907919018554
 30
0.0
 11
1074.652864545203
 21
1220.907919018554
 31
0.0
  0
LINE
  5
33D
330
1F
100
AcDbEntity
  8
0
 62
     1
100
AcDbLine
 10
1075.652864545203
 20
1222.907919018554
 30
0.0
 11
1076.652864545203
 21
1220.907919018554
 31
0.0
  0
LINE
  5
33E
330
1F
100
AcDbEntity
  8
0
 62
     1
100
AcDbLine
 10
1077.652864545203
 20
1222.907919018554
 30
0.0
 11
1076.652864545203
 21
1220.907919018554
 31
0.0
  0
LINE
  5
33F
330
1F
100
AcDbEntity
  8
0
 62
     1
100
AcDbLine
 10
1077.652864545203
 20
1222.907919018554
 30
0.0
 11
1078.652864545203
 21
1220.907919018554
 31
0.0
  0
LINE
  5
340
330
1F
100
AcDbEntity
  8
0
 62
     1
100
AcDbLine
 10
1079.652864545203
 20
1222.907919018554
 30
0.0
 11
1078.652864545203
 21
1220.907919018554
 31
0.0
  0
LINE
  5
341
330
1F
100
AcDbEntity
  8
0
 62
     1
100
AcDbLine
 10
1079.652864545203
 20
1222.907919018554
 30
0.0
 11
1080.652864545203
 21
1220.907919018554
 31
0.0
  0
LINE
  5
342
330
1F
100
AcDbEntity
  8
0
 62
     1
100
AcDbLine
 10
1081.652864545203
 20
1222.907919018554
 30
0.0
 11
1080.652864545203
 21
1220.907919018554
 31
0.0
  0
LINE
  5
343
330
1F
100
AcDbEntity
  8
0
 62
     1
100
AcDbLine
 10
1081.652864545203
 20
1222.907919018554
 30
0.0
 11
1082.652864545203
 21
1220.907919018554
 31
0.0
  0
LINE
  5
344
330
1F
100
AcDbEntity
  8
0
 62
     1
100
AcDbLine
 10
1083.652864545203
 20
1222.907919018554
 30
0.0
 11
1082.652864545203
 21
1220.907919018554
 31
0.0
  0
LINE
  5
345
330
1F
100
AcDbEntity
  8
0
 62
     1
100
AcDbLine
 10
1083.652864545203
 20
1222.907919018554
 30
0.0
 11
1084.652864545203
 21
1220.907919018554
 31
0.0
  0
LINE
  5
346
330
1F
100
AcDbEntity
  8
0
 62
     1
100
AcDbLine
 10
1085.652864545203
 20
1222.907919018554
 30
0.0
 11
1084.652864545203
 21
1220.907919018554
 31
0.0
  0
LINE
  5
347
330
1F
100
AcDbEntity
  8
0
 62
     1
100
AcDbLine
 10
1085.652864545203
 20
1222.907919018554
 30
0.0
 11
1086.652864545203
 21
1220.907919018554
 31
0.0
  0
LINE
  5
348
330
1F
100
AcDbEntity
  8
0
 62
     1
100
AcDbLine
 10
1087.652864545203
 20
1222.907919018554
 30
0.0
 11
1086.652864545203
 21
1220.907919018554
 31
0.0
  0
LINE
  5
349
330
1F
100
AcDbEntity
  8
0
 62
     1
100
AcDbLine
 10
1087.652864545203
 20
1222.907919018554
 30
0.0
 11
1088.652864545203
 21
1220.907919018554
 31
0.0
  0
LINE
  5
34A
330
1F
100
AcDbEntity
  8
0
 62
     1
100
AcDbLine
 10
1089.652864545203
 20
1222.907919018554
 30
0.0
 11
1088.652864545203
 21
1220.907919018554
 31
0.0
  0
LINE
  5
34B
330
1F
100
AcDbEntity
  8
0
 62
     1
100
AcDbLine
 10
1089.652864545203
 20
1222.907919018554
 30
0.0
 11
1090.652864545203
 21
1220.907919018554
 31
0.0
  0
LINE
  5
34C
330
1F
100
AcDbEntity
  8
0
 62
     1
100
AcDbLine
 10
1091.652864545203
 20
1222.907919018554
 30
0.0
 11
1090.652864545203
 21
1220.907919018554
 31
0.0
  0
LINE
  5
34D
330
1F
100
AcDbEntity
  8
0
 62
     1
100
AcDbLine
 10
1091.652864545203
 20
1222.907919018554
 30
0.0
 11
1092.652864545203
 21
1220.907919018554
 31
0.0
  0
LINE
  5
34E
330
1F
100
AcDbEntity
  8
0
 62
     1
100
AcDbLine
 10
1093.652864545203
 20
1222.907919018554
 30
0.0
 11
1092.652864545203
 21
1220.907919018554
 31
0.0
  0
LINE
  5
34F
330
1F
100
AcDbEntity
  8
0
 62
     1
100
AcDbLine
 10
1093.652864545203
 20
1222.907919018554
 30
0.0
 11
1094.652864545203
 21
1220.907919018554
 31
0.0
  0
LINE
  5
350
330
1F
100
AcDbEntity
  8
0
 62
     1
100
AcDbLine
 10
1095.652864545203
 20
1222.907919018554
 30
0.0
 11
1094.652864545203
 21
1220.907919018554
 31
0.0
  0
LINE
  5
351
330
1F
100
AcDbEntity
  8
0
 62
     1
100
AcDbLine
 10
1095.652864545203
 20
1222.907919018554
 30
0.0
 11
1096.652864545203
 21
1220.907919018554
 31
0.0
  0
LINE
  5
352
330
1F
100
AcDbEntity
  8
0
 62
     1
100
AcDbLine
 10
1097.652864545203
 20
1222.907919018554
 30
0.0
 11
1096.652864545203
 21
1220.907919018554
 31
0.0
  0
LINE
  5
353
330
1F
100
AcDbEntity
  8
0
 62
     1
100
AcDbLine
 10
1097.652864545203
 20
1222.907919018554
 30
0.0
 11
1098.652864545203
 21
1220.907919018554
 31
0.0
  0
LINE
  5
354
330
1F
100
AcDbEntity
  8
0
 62
     1
100
AcDbLine
 10
1099.652864545203
 20
1222.907919018554
 30
0.0
 11
1098.652864545203
 21
1220.907919018554
 31
0.0
  0
LINE
  5
355
330
1F
100
AcDbEntity
  8
0
 62
     1
100
AcDbLine
 10
1099.652864545203
 20
1222.907919018554
 30
0.0
 11
1100.652864545203
 21
1220.907919018554
 31
0.0
  0
LINE
  5
356
330
1F
100
AcDbEntity
  8
0
 62
     1
100
AcDbLine
 10
1101.652864545203
 20
1222.907919018554
 30
0.0
 11
1100.652864545203
 21
1220.907919018554
 31
0.0
  0
LINE
  5
357
330
1F
100
AcDbEntity
  8
0
 62
     1
100
AcDbLine
 10
1101.652864545203
 20
1222.907919018554
 30
0.0
 11
1102.652864545203
 21
1220.907919018554
 31
0.0
  0
LINE
  5
358
330
1F
100
AcDbEntity
  8
0
 62
     1
100
AcDbLine
 10
1103.652864545203
 20
1222.907919018554
 30
0.0
 11
1102.652864545203
 21
1220.907919018554
 31
0.0
  0
LINE
  5
359
330
1F
100
AcDbEntity
  8
0
 62
     1
100
AcDbLine
 10
1103.652864545203
 20
1222.907919018554
 30
0.0
 11
1104.652864545203
 21
1220.907919018554
 31
0.0
  0
LINE
  5
35A
330
1F
100
AcDbEntity
  8
0
 62
     1
100
AcDbLine
 10
1105.652864545203
 20
1222.907919018554
 30
0.0
 11
1104.652864545203
 21
1220.907919018554
 31
0.0
  0
LINE
  5
35B
330
1F
100
AcDbEntity
  8
0
 62
     1
100
AcDbLine
 10
1105.652864545203
 20
1222.907919018554
 30
0.0
 11
1106.652864545203
 21
1220.907919018554
 31
0.0
  0
LINE
  5
35C
330
1F
100
AcDbEntity
  8
0
 62
     1
100
AcDbLine
 10
1107.652864545203
 20
1222.907919018554
 30
0.0
 11
1106.652864545203
 21
1220.907919018554
 31
0.0
  0
LINE
  5
35D
330
1F
100
AcDbEntity
  8
0
 62
     1
100
AcDbLine
 10
1107.652864545203
 20
1222.907919018554
 30
0.0
 11
1108.652864545203
 21
1220.907919018554
 31
0.0
  0
LINE
  5
35E
330
1F
100
AcDbEntity
  8
0
 62
     1
100
AcDbLine
 10
1109.652864545203
 20
1222.907919018554
 30
0.0
 11
1108.652864545203
 21
1220.907919018554
 31
0.0
  0
LINE
  5
35F
330
1F
100
AcDbEntity
  8
0
 62
     1
100
AcDbLine
 10
1109.652864545203
 20
1222.907919018554
 30
0.0
 11
1110.652864545203
 21
1220.907919018554
 31
0.0
  0
LINE
  5
360
330
1F
100
AcDbEntity
  8
0
 62
     1
100
AcDbLine
 10
1111.652864545203
 20
1222.907919018554
 30
0.0
 11
1110.652864545203
 21
1220.907919018554
 31
0.0
  0
LINE
  5
361
330
1F
100
AcDbEntity
  8
0
 62
     1
100
AcDbLine
 10
1111.652864545203
 20
1222.907919018554
 30
0.0
 11
1112.652864545203
 21
1220.907919018554
 31
0.0
  0
LINE
  5
362
330
1F
100
AcDbEntity
  8
0
 62
     1
100
AcDbLine
 10
1113.652864545203
 20
1222.907919018554
 30
0.0
 11
1112.652864545203
 21
1220.907919018554
 31
0.0
  0
LINE
  5
363
330
1F
100
AcDbEntity
  8
0
 62
     1
100
AcDbLine
 10
1113.652864545203
 20
1222.907919018554
 30
0.0
 11
1114.652864545203
 21
1220.907919018554
 31
0.0
  0
LINE
  5
364
330
1F
100
AcDbEntity
  8
0
 62
     1
100
AcDbLine
 10
1115.652864545203
 20
1222.907919018554
 30
0.0
 11
1114.652864545203
 21
1220.907919018554
 31
0.0
  0
LINE
  5
365
330
1F
100
AcDbEntity
  8
0
 62
     1
100
AcDbLine
 10
1115.652864545203
 20
1222.907919018554
 30
0.0
 11
1116.652864545203
 21
1220.907919018554
 31
0.0
  0
LINE
  5
366
330
1F
100
AcDbEntity
  8
0
 62
     1
100
AcDbLine
 10
1117.652864545203
 20
1222.907919018554
 30
0.0
 11
1116.652864545203
 21
1220.907919018554
 31
0.0
  0
LINE
  5
367
330
1F
100
AcDbEntity
  8
0
 62
     1
100
AcDbLine
 10
1117.652864545203
 20
1222.907919018554
 30
0.0
 11
1118.652864545203
 21
1220.907919018554
 31
0.0
  0
LINE
  5
368
330
1F
100
AcDbEntity
  8
0
 62
     1
100
AcDbLine
 10
1119.652864545203
 20
1222.907919018554
 30
0.0
 11
1118.652864545203
 21
1220.907919018554
 31
0.0
  0
LINE
  5
369
330
1F
100
AcDbEntity
  8
0
 62
     1
100
AcDbLine
 10
1119.652864545203
 20
1222.907919018554
 30
0.0
 11
1120.652864545203
 21
1220.907919018554
 31
0.0
  0
LINE
  5
36A
330
1F
100
AcDbEntity
  8
0
 62
     1
100
AcDbLine
 10
1121.652864545203
 20
1222.907919018554
 30
0.0
 11
1120.652864545203
 21
1220.907919018554
 31
0.0
  0
LINE
  5
36B
330
1F
100
AcDbEntity
  8
0
 62
     1
100
AcDbLine
 10
1121.652864545203
 20
1222.907919018554
 30
0.0
 11
1122.652864545203
 21
1220.907919018554
 31
0.0
  0
LINE
  5
36C
330
1F
100
AcDbEntity
  8
0
 62
     1
100
AcDbLine
 10
1123.652864545203
 20
1222.907919018554
 30
0.0
 11
1122.652864545203
 21
1220.907919018554
 31
0.0
  0
LINE
  5
36D
330
1F
100
AcDbEntity
  8
0
 62
     1
100
AcDbLine
 10
1123.652864545203
 20
1222.907919018554
 30
0.0
 11
1124.652864545203
 21
1220.907919018554
 31
0.0
  0
LINE
  5
39E
330
1F
100
AcDbEntity
  8
0
 62
     1
100
AcDbLine
 10
1124.652864545203
 20
1220.907919018554
 30
0.0
 11
1159.652864545203
 21
1220.907919018554
 31
0.0
  0
LINE
  5
39F
330
1F
100
AcDbEntity
  8
0
 62
     1
100
AcDbLine
 10
1055.652864545203
 20
1220.907919018554
 30
0.0
 11
1072.652864545203
 21
1220.907919018554
 31
0.0
  0
LINE
  5
3A4
330
1F
100
AcDbEntity
  8
0
 62
     1
100
AcDbLine
 10
1144.170368750966
 20
1212.876482358285
 30
0.0
 11
1138.974216328259
 21
1203.876482358285
 31
0.0
  0
LINE
  5
3A5
330
1F
100
AcDbEntity
  8
0
 62
     1
100
AcDbLine
 10
1138.974216328259
 20
1203.876482358285
 30
0.0
 11
1149.366521173672
 21
1203.876482358285
 31
0.0
  0
LINE
  5
3A6
330
1F
100
AcDbEntity
  8
0
 62
     1
100
AcDbLine
 10
1149.366521173672
 20
1203.876482358285
 30
0.0
 11
1144.170368750966
 21
1212.876482358285
 31
0.0
  0
LINE
  5
3A7
330
1F
100
AcDbEntity
  8
0
 62
     1
100
AcDbLine
 10
1066.39830326315
 20
1169.280325573499
 30
0.0
 11
1067.424533833675
 21
1170.545217059587
 31
0.0
  0
LINE
  5
3A8
330
1F
100
AcDbEntity
  8
0
 62
     1
100
AcDbLine
 10
1063.510003899735
 20
1161.824765490915
 30
0.0
 11
1066.39830326315
 21
1169.280325573499
 31
0.0
  0
LINE
  5
3A9
330
1F
100
AcDbEntity
  8
0
 62
     1
100
AcDbLine
 10
1067.424533833675
 20
1170.545217059587
 30
0.0
 11
1068.516636635201
 21
1173.364259350102
 31
0.0
  0
ELLIPSE
  5
3AA
330
1F
100
AcDbEntity
  8
0
 62
     1
100
AcDbEllipse
 10
1063.128039177832
 20
1158.070570937167
 30
0.0
 11
1.374518098232533
 21
3.548040205172488
 31
0.0
210
0.0
220
0.0
230
0.9999999999999998
 40
0.8987459747372843
 41
0.2967588290937035
 42
5.986426478085862
  0
ARC
  5
3AB
330
1F
100
AcDbEntity
  8
0
 62
     1
100
AcDbCircle
 10
1072.590771065214
 20
1182.496697614125
 30
0.0
 40
10.0
100
AcDbArc
 50
230.5130428061271
 51
245.9575454291631
  0
LINE
  5
3AC
330
1F
100
AcDbEntity
  8
0
 62
     1
100
AcDbLine
 10
1065.374948358544
 20
1161.10228215854
 30
0.0
 11
1068.26324772196
 21
1168.557842241125
 31
0.0
  0
LINE
  5
3AD
330
1F
100
AcDbEntity
  8
0
 62
     1
100
AcDbLine
 10
1064.195034484586
 20
1172.544838398545
 30
0.0
 11
1066.231745552741
 21
1174.779004012296
 31
0.0
  0
LINE
  5
3AE
330
1F
100
AcDbEntity
  8
0
 62
     1
100
AcDbLine
 10
1068.26324772196
 20
1168.557842241125
 30
0.0
 11
1068.35700606308
 21
1170.1839753934
 31
0.0
  0
LINE
  5
3AF
330
1F
100
AcDbEntity
  8
0
 62
     1
100
AcDbLine
 10
1063.520180385846
 20
1171.0623838121
 30
0.0
 11
1064.195034484586
 21
1172.544838398545
 31
0.0
  0
LINE
  5
3B0
330
1F
100
AcDbEntity
  8
0
 62
     1
100
AcDbLine
 10
1068.35700606308
 20
1170.1839753934
 30
0.0
 11
1069.449108864606
 21
1173.003017683915
 31
0.0
  0
LINE
  5
3B1
330
1F
100
AcDbEntity
  8
0
 62
     1
100
AcDbLine
 10
1058.133662492663
 20
1165.153655154922
 30
0.0
 11
1063.520180385846
 21
1171.0623838121
 31
0.0
  0
ARC
  5
3B2
330
1F
100
AcDbEntity
  8
0
 62
     1
100
AcDbCircle
 10
1072.590771065214
 20
1182.496697614125
 30
0.0
 40
10.0
100
AcDbArc
 50
251.6895133943612
 51
267.1340160173999
  0
ELLIPSE
  5
3B3
330
1F
100
AcDbEntity
  8
0
 62
     1
100
AcDbEllipse
 10
1054.943301666648
 20
1163.138345849629
 30
0.0
 11
2.563399910831043
 21
2.811915752123562
 31
0.0
210
0.0
220
0.0
230
0.9999999999999996
 40
0.8987459747372843
 41
0.2967588290937275
 42
5.986426478085942
  0
LINE
  5
3B4
330
1F
100
AcDbEntity
  8
0
 62
     1
100
AcDbLine
 10
1072.090771065214
 20
1169.486013751313
 30
0.0
 11
1072.090771065214
 21
1172.509205436406
 31
0.0
  0
LINE
  5
3B5
330
1F
100
AcDbEntity
  8
0
 62
     1
100
AcDbLine
 10
1056.655644658222
 20
1166.501046442215
 30
0.0
 11
1062.042162551404
 21
1172.409775099393
 31
0.0
  0
LINE
  5
3B6
330
1F
100
AcDbEntity
  8
0
 62
     1
100
AcDbLine
 10
1071.590771065214
 20
1167.935820326137
 30
0.0
 11
1072.090771065214
 21
1169.486013751313
 31
0.0
  0
LINE
  5
3B7
330
1F
100
AcDbEntity
  8
0
 62
     1
100
AcDbLine
 10
1062.042162551404
 20
1172.409775099393
 30
0.0
 11
1063.456025567365
 21
1173.218534042192
 31
0.0
  0
LINE
  5
3B8
330
1F
100
AcDbEntity
  8
0
 62
     1
100
AcDbLine
 10
1071.590771065214
 20
1159.940343519984
 30
0.0
 11
1071.590771065214
 21
1167.935820326137
 31
0.0
  0
LINE
  5
3B9
330
1F
100
AcDbEntity
  8
0
 62
     1
100
AcDbLine
 10
1063.456025567365
 20
1173.218534042192
 30
0.0
 11
1065.49273663552
 21
1175.452699655942
 31
0.0
  0
ELLIPSE
  5
3BA
330
1F
100
AcDbEntity
  8
0
 62
     1
100
AcDbEllipse
 10
1072.590771065214
 20
1156.301679782268
 30
0.0
 11
0.0000000000000002
 21
3.804982168143395
 31
0.0
210
0.0
220
0.0
230
0.9999999999999998
 40
0.8987459747372843
 41
0.2967588290937062
 42
5.98642647808588
  0
ARC
  5
3BB
330
1F
100
AcDbEntity
  8
0
 62
     1
100
AcDbCircle
 10
1072.590771065214
 20
1182.496697614125
 30
0.0
 40
10.0
100
AcDbArc
 50
209.3365722178913
 51
224.7810748409282
  0
LINE
  5
3BC
330
1F
100
AcDbEntity
  8
0
 62
     1
100
AcDbLine
 10
1073.590771065214
 20
1159.940343519984
 30
0.0
 11
1073.590771065214
 21
1167.935820326138
 31
0.0
  0
LINE
  5
3BD
330
1F
100
AcDbEntity
  8
0
 62
     1
100
AcDbLine
 10
1061.166953653688
 20
1176.249755135909
 30
0.0
 11
1063.873203872913
 21
1177.59730762682
 31
0.0
  0
LINE
  5
3BE
330
1F
100
AcDbEntity
  8
0
 62
     1
100
AcDbLine
 10
1073.590771065214
 20
1167.935820326138
 30
0.0
 11
1073.090771065213
 21
1169.486013751313
 31
0.0
  0
LINE
  5
3BF
330
1F
100
AcDbEntity
  8
0
 62
     1
100
AcDbLine
 10
1060.002146582859
 20
1175.111192821759
 30
0.0
 11
1061.166953653688
 21
1176.249755135909
 31
0.0
  0
LINE
  5
3C0
330
1F
100
AcDbEntity
  8
0
 62
     1
100
AcDbLine
 10
1073.090771065213
 20
1169.486013751313
 30
0.0
 11
1073.090771065213
 21
1172.509205436406
 31
0.0
  0
LINE
  5
3C1
330
1F
100
AcDbEntity
  8
0
 62
     1
100
AcDbLine
 10
1052.84488924911
 20
1171.547302136534
 30
0.0
 11
1060.002146582859
 21
1175.111192821759
 31
0.0
  0
ARC
  5
3C2
330
1F
100
AcDbEntity
  8
0
 62
     1
100
AcDbCircle
 10
1072.590771065214
 20
1182.496697614125
 30
0.0
 40
10.0
100
AcDbArc
 50
272.8659839825988
 51
288.3104866056354
  0
ELLIPSE
  5
3C3
330
1F
100
AcDbEntity
  8
0
 62
     1
100
AcDbEllipse
 10
1049.141952685745
 20
1170.820573436216
 30
0.0
 11
3.406080361182565
 21
1.696026495387279
 31
0.0
210
0.0
220
0.0
230
0.9999999999999998
 40
0.8987459747372843
 41
0.2967588290937266
 42
5.986426478085851
  0
LINE
  5
3C4
330
1F
100
AcDbEntity
  8
0
 62
     1
100
AcDbLine
 10
1076.824536067348
 20
1170.1839753934
 30
0.0
 11
1075.732433265822
 21
1173.003017683915
 31
0.0
  0
LINE
  5
3C5
330
1F
100
AcDbEntity
  8
0
 62
     1
100
AcDbLine
 10
1051.953412537556
 20
1173.337628719244
 30
0.0
 11
1059.110669871305
 21
1176.901519404468
 31
0.0
  0
LINE
  5
3C6
330
1F
100
AcDbEntity
  8
0
 62
     1
100
AcDbLine
 10
1076.918294408469
 20
1168.557842241124
 30
0.0
 11
1076.824536067348
 21
1170.1839753934
 31
0.0
  0
LINE
  5
3C7
330
1F
100
AcDbEntity
  8
0
 62
     1
100
AcDbLine
 10
1059.110669871305
 20
1176.901519404468
 30
0.0
 11
1060.721215297911
 21
1177.144918427265
 31
0.0
  0
LINE
  5
3C8
330
1F
100
AcDbEntity
  8
0
 62
     1
100
AcDbLine
 10
1079.806593771885
 20
1161.10228215854
 30
0.0
 11
1076.918294408469
 21
1168.557842241124
 31
0.0
  0
LINE
  5
3C9
330
1F
100
AcDbEntity
  8
0
 62
     1
100
AcDbLine
 10
1060.721215297911
 20
1177.144918427265
 30
0.0
 11
1063.427465517136
 21
1178.492470918175
 31
0.0
  0
ELLIPSE
  5
3CA
330
1F
100
AcDbEntity
  8
0
 62
     1
100
AcDbEllipse
 10
1082.053502952597
 20
1158.070570937167
 30
0.0
 11
-1.374518098232525
 21
3.548040205172491
 31
0.0
210
0.0
220
0.0
230
1.0
 40
0.8987459747372843
 41
0.2967588290936858
 42
5.986426478085883
  0
ARC
  5
3CB
330
1F
100
AcDbEntity
  8
0
 62
     1
100
AcDbCircle
 10
1072.590771065214
 20
1182.496697614125
 30
0.0
 40
10.0
100
AcDbArc
 50
188.1601016296586
 51
203.6046042526932
  0
LINE
  5
3CC
330
1F
100
AcDbEntity
  8
0
 62
     1
100
AcDbLine
 10
1081.671538230694
 20
1161.824765490915
 30
0.0
 11
1078.783238867278
 21
1169.280325573499
 31
0.0
  0
LINE
  5
3CD
330
1F
100
AcDbEntity
  8
0
 62
     1
100
AcDbLine
 10
1059.681722665774
 20
1180.79835607046
 30
0.0
 11
1062.692017948112
 21
1181.077301007587
 31
0.0
  0
LINE
  5
3CE
330
1F
100
AcDbEntity
  8
0
 62
     1
100
AcDbLine
 10
1078.783238867278
 20
1169.280325573499
 30
0.0
 11
1077.757008296753
 21
1170.545217059587
 31
0.0
  0
LINE
  5
3CF
330
1F
100
AcDbEntity
  8
0
 62
     1
100
AcDbLine
 10
1058.184276272191
 20
1180.157455178121
 30
0.0
 11
1059.681722665774
 21
1180.79835607046
 31
0.0
  0
LINE
  5
3D0
330
1F
100
AcDbEntity
  8
0
 62
     1
100
AcDbLine
 10
1077.757008296753
 20
1170.545217059587
 30
0.0
 11
1076.664905495227
 21
1173.364259350102
 31
0.0
  0
LINE
  5
3D1
330
1F
100
AcDbEntity
  8
0
 62
     1
100
AcDbLine
 10
1050.222906760529
 20
1179.41972565009
 30
0.0
 11
1058.184276272191
 21
1180.157455178121
 31
0.0
  0
ARC
  5
3D2
330
1F
100
AcDbEntity
  8
0
 62
     1
100
AcDbCircle
 10
1072.590771065214
 20
1182.496697614125
 30
0.0
 40
10.0
100
AcDbArc
 50
294.0424545708363
 51
309.486957193872
  0
ELLIPSE
  5
3D3
330
1F
100
AcDbEntity
  8
0
 62
     1
100
AcDbEllipse
 10
1046.507496561377
 20
1180.079726292667
 30
0.0
 11
3.78875078501356
 21
0.351079462441704
 31
0.0
210
0.0
220
0.0
230
1.0
 40
0.8987459747372843
 41
0.2967588290937097
 42
5.986426478085878
  0
LINE
  5
3D4
330
1F
100
AcDbEntity
  8
0
 62
     1
100
AcDbLine
 10
1080.986507645843
 20
1172.544838398545
 30
0.0
 11
1078.949796577687
 21
1174.779004012296
 31
0.0
  0
LINE
  5
3D5
330
1F
100
AcDbEntity
  8
0
 62
     1
100
AcDbLine
 10
1050.038370041603
 20
1181.41119400268
 30
0.0
 11
1057.999739553263
 21
1182.148923530711
 31
0.0
  0
LINE
  5
3D6
330
1F
100
AcDbEntity
  8
0
 62
     1
100
AcDbLine
 10
1081.661361744584
 20
1171.062383812099
 30
0.0
 11
1080.986507645843
 21
1172.544838398545
 31
0.0
  0
LINE
  5
3D7
330
1F
100
AcDbEntity
  8
0
 62
     1
100
AcDbLine
 10
1057.999739553263
 20
1182.148923530711
 30
0.0
 11
1059.58945430631
 21
1181.794090246755
 31
0.0
  0
LINE
  5
3D8
330
1F
100
AcDbEntity
  8
0
 62
     1
100
AcDbLine
 10
1087.047879637766
 20
1165.153655154921
 30
0.0
 11
1081.661361744584
 21
1171.062383812099
 31
0.0
  0
LINE
  5
3D9
330
1F
100
AcDbEntity
  8
0
 62
     1
100
AcDbLine
 10
1059.58945430631
 20
1181.794090246755
 30
0.0
 11
1062.599749588648
 21
1182.073035183881
 31
0.0
  0
ELLIPSE
  5
3DA
330
1F
100
AcDbEntity
  8
0
 62
     1
100
AcDbEllipse
 10
1090.23824046378
 20
1163.138345849628
 30
0.0
 11
-2.563399910831038
 21
2.811915752123566
 31
0.0
210
0.0
220
0.0
230
1.0
 40
0.8987459747372843
 41
0.2967588290937018
 42
5.986426478085889
  0
ARC
  5
3DB
330
1F
100
AcDbEntity
  8
0
 62
     1
100
AcDbCircle
 10
1072.590771065214
 20
1182.496697614125
 30
0.0
 40
10.0
100
AcDbArc
 50
166.9836310414213
 51
182.42813366446
  0
LINE
  5
3DC
330
1F
100
AcDbEntity
  8
0
 62
     1
100
AcDbLine
 10
1088.525897472207
 20
1166.501046442214
 30
0.0
 11
1083.139379579024
 21
1172.409775099393
 31
0.0
  0
LINE
  5
3DD
330
1F
100
AcDbEntity
  8
0
 62
     1
100
AcDbLine
 10
1059.939930195711
 20
1185.576327441318
 30
0.0
 11
1062.84771348266
 21
1184.748991765215
 31
0.0
  0
LINE
  5
3DE
330
1F
100
AcDbEntity
  8
0
 62
     1
100
AcDbLine
 10
1083.139379579024
 20
1172.409775099393
 30
0.0
 11
1081.725516563063
 21
1173.218534042191
 31
0.0
  0
LINE
  5
3DF
330
1F
100
AcDbEntity
  8
0
 62
     1
100
AcDbLine
 10
1058.312082912463
 20
1185.519645187655
 30
0.0
 11
1059.939930195711
 21
1185.576327441318
 31
0.0
  0
LINE
  5
3E0
330
1F
100
AcDbEntity
  8
0
 62
     1
100
AcDbLine
 10
1081.725516563063
 20
1173.218534042191
 30
0.0
 11
1079.688805494908
 21
1175.452699655942
 31
0.0
  0
LINE
  5
3E1
330
1F
100
AcDbEntity
  8
0
 62
     1
100
AcDbLine
 10
1050.621828290911
 20
1187.707711277479
 30
0.0
 11
1058.312082912463
 21
1185.519645187655
 31
0.0
  0
ARC
  5
3E2
330
1F
100
AcDbEntity
  8
0
 62
     1
100
AcDbCircle
 10
1072.590771065214
 20
1182.496697614125
 30
0.0
 40
10.0
100
AcDbArc
 50
315.2189251590708
 51
330.6634277821075
  0
ELLIPSE
  5
3E3
330
1F
100
AcDbEntity
  8
0
 62
     1
100
AcDbEllipse
 10
1047.395731191165
 20
1189.665304518983
 30
0.0
 11
3.659729421135628
 21
-1.041282797305082
 31
0.0
210
0.0
220
0.0
230
1.0
 40
0.8987459747372843
 41
0.2967588290937026
 42
5.986426478085825
  0
LINE
  5
3E4
330
1F
100
AcDbEntity
  8
0
 62
     1
100
AcDbLine
 10
1084.014588476741
 20
1176.249755135909
 30
0.0
 11
1081.308338257516
 21
1177.59730762682
 31
0.0
  0
LINE
  5
3E5
330
1F
100
AcDbEntity
  8
0
 62
     1
100
AcDbLine
 10
1051.169154271056
 20
1189.631362563825
 30
0.0
 11
1058.859408892607
 21
1187.443296474001
 31
0.0
  0
LINE
  5
3E6
330
1F
100
AcDbEntity
  8
0
 62
     1
100
AcDbLine
 10
1085.179395547571
 20
1175.111192821758
 30
0.0
 11
1084.014588476741
 21
1176.249755135909
 31
0.0
  0
LINE
  5
3E7
330
1F
100
AcDbEntity
  8
0
 62
     1
100
AcDbLine
 10
1058.859408892607
 20
1187.443296474001
 30
0.0
 11
1060.213593185783
 21
1186.538153084491
 31
0.0
  0
LINE
  5
3E8
330
1F
100
AcDbEntity
  8
0
 62
     1
100
AcDbLine
 10
1092.336652881319
 20
1171.547302136534
 30
0.0
 11
1085.179395547571
 21
1175.111192821758
 31
0.0
  0
LINE
  5
3E9
330
1F
100
AcDbEntity
  8
0
 62
     1
100
AcDbLine
 10
1060.213593185783
 20
1186.538153084491
 30
0.0
 11
1063.121376472732
 21
1185.710817408388
 31
0.0
  0
ELLIPSE
  5
3EA
330
1F
100
AcDbEntity
  8
0
 62
     1
100
AcDbEllipse
 10
1096.039589444684
 20
1170.820573436216
 30
0.0
 11
-3.406080361182564
 21
1.696026495387284
 31
0.0
210
0.0
220
0.0
230
1.0
 40
0.8987459747372843
 41
0.2967588290937231
 42
5.986426478085865
  0
ARC
  5
3EB
330
1F
100
AcDbEntity
  8
0
 62
     1
100
AcDbCircle
 10
1072.590771065214
 20
1182.496697614125
 30
0.0
 40
10.0
100
AcDbArc
 50
145.807160453185
 51
161.2516630762222
  0
LINE
  5
3EC
330
1F
100
AcDbEntity
  8
0
 62
     1
100
AcDbLine
 10
1093.228129592872
 20
1173.337628719244
 30
0.0
 11
1086.070872259123
 21
1176.901519404469
 31
0.0
  0
LINE
  5
3ED
330
1F
100
AcDbEntity
  8
0
 62
     1
100
AcDbLine
 10
1061.906703885804
 20
1189.938377739196
 30
0.0
 11
1064.319262931879
 21
1188.116497717345
 31
0.0
  0
LINE
  5
3EE
330
1F
100
AcDbEntity
  8
0
 62
     1
100
AcDbLine
 10
1086.070872259123
 20
1176.901519404469
 30
0.0
 11
1084.460326832517
 21
1177.144918427265
 31
0.0
  0
LINE
  5
3EF
330
1F
100
AcDbEntity
  8
0
 62
     1
100
AcDbLine
 10
1060.368305508708
 20
1190.473569376654
 30
0.0
 11
1061.906703885804
 21
1189.938377739196
 31
0.0
  0
LINE
  5
3F0
330
1F
100
AcDbEntity
  8
0
 62
     1
100
AcDbLine
 10
1084.460326832517
 20
1177.144918427265
 30
0.0
 11
1081.754076613293
 21
1178.492470918175
 31
0.0
  0
LINE
  5
3F1
330
1F
100
AcDbEntity
  8
0
 62
     1
100
AcDbLine
 10
1053.987777277078
 20
1195.291920634409
 30
0.0
 11
1060.368305508708
 21
1190.473569376654
 31
0.0
  0
ARC
  5
3F2
330
1F
100
AcDbEntity
  8
0
 62
     1
100
AcDbCircle
 10
1072.590771065214
 20
1182.496697614125
 30
0.0
 40
10.0
100
AcDbArc
 50
336.3953957473068
 51
351.8398983703416
  0
ELLIPSE
  5
3F3
330
1F
100
AcDbEntity
  8
0
 62
     1
100
AcDbEllipse
 10
1051.686695566479
 20
1198.282722660174
 30
0.0
 11
3.036441319672545
 21
-2.293014045328653
 31
0.0
210
0.0
220
0.0
230
1.0
 40
0.8987459747372843
 41
0.2967588290937231
 42
5.986426478085991
  0
LINE
  5
3F4
330
1F
100
AcDbEntity
  8
0
 62
     1
100
AcDbLine
 10
1085.499819464655
 20
1180.79835607046
 30
0.0
 11
1082.489524182317
 21
1181.077301007587
 31
0.0
  0
LINE
  5
3F5
330
1F
100
AcDbEntity
  8
0
 62
     1
100
AcDbLine
 10
1055.193046549836
 20
1196.88795508897
 30
0.0
 11
1061.573574781465
 21
1192.069603831215
 31
0.0
  0
LINE
  5
3F6
330
1F
100
AcDbEntity
  8
0
 62
     1
100
AcDbLine
 10
1086.997265858239
 20
1180.157455178121
 30
0.0
 11
1085.499819464655
 21
1180.79835607046
 31
0.0
  0
LINE
  5
3F7
330
1F
100
AcDbEntity
  8
0
 62
     1
100
AcDbLine
 10
1061.573574781465
 20
1192.069603831215
 30
0.0
 11
1062.509338522183
 21
1190.736394966476
 31
0.0
  0
LINE
  5
3F8
330
1F
100
AcDbEntity
  8
0
 62
     1
100
AcDbLine
 10
1094.9586353699
 20
1179.41972565009
 30
0.0
 11
1086.997265858239
 21
1180.157455178121
 31
0.0
  0
LINE
  5
3F9
330
1F
100
AcDbEntity
  8
0
 62
     1
100
AcDbLine
 10
1062.509338522183
 20
1190.736394966476
 30
0.0
 11
1064.921897568257
 21
1188.914514944626
 31
0.0
  0
ELLIPSE
  5
3FA
330
1F
100
AcDbEntity
  8
0
 62
     1
100
AcDbEllipse
 10
1098.674045569052
 20
1180.079726292668
 30
0.0
 11
-3.78875078501356
 21
0.3510794624417102
 31
0.0
210
0.0
220
0.0
230
0.9999999999999998
 40
0.8987459747372843
 41
0.2967588290936458
 42
5.986426478085903
  0
ARC
  5
3FB
330
1F
100
AcDbEntity
  8
0
 62
     1
100
AcDbCircle
 10
1072.590771065214
 20
1182.496697614125
 30
0.0
 40
10.0
100
AcDbArc
 50
124.6306898649528
 51
140.0751924879869
  0
LINE
  5
3FC
330
1F
100
AcDbEntity
  8
0
 62
     1
100
AcDbLine
 10
1095.143172088826
 20
1181.41119400268
 30
0.0
 11
1087.181802577164
 21
1182.148923530711
 31
0.0
  0
LINE
  5
3FD
330
1F
100
AcDbEntity
  8
0
 62
     1
100
AcDbLine
 10
1065.316420050936
 20
1193.29538790041
 30
0.0
 11
1066.907925388512
 21
1190.725018525148
 31
0.0
  0
LINE
  5
3FE
330
1F
100
AcDbEntity
  8
0
 62
     1
100
AcDbLine
 10
1087.181802577164
 20
1182.148923530711
 30
0.0
 11
1085.592087824118
 21
1181.794090246755
 31
0.0
  0
LINE
  5
3FF
330
1F
100
AcDbEntity
  8
0
 62
     1
100
AcDbLine
 10
1064.075239805378
 20
1194.35017283275
 30
0.0
 11
1065.316420050936
 21
1193.29538790041
 31
0.0
  0
LINE
  5
400
330
1F
100
AcDbEntity
  8
0
 62
     1
100
AcDbLine
 10
1085.592087824118
 20
1181.794090246755
 30
0.0
 11
1082.58179254178
 21
1182.073035183882
 31
0.0
  0
LINE
  5
401
330
1F
100
AcDbEntity
  8
0
 62
     1
100
AcDbLine
 10
1059.866163657079
 20
1201.148064221671
 30
0.0
 11
1064.075239805378
 21
1194.35017283275
 31
0.0
  0
ARC
  5
402
330
1F
100
AcDbEntity
  8
0
 62
     1
100
AcDbCircle
 10
1072.590771065214
 20
1182.496697614125
 30
0.0
 40
10.0
100
AcDbArc
 50
357.5718663355411
 51
13.01636895857807
  0
ELLIPSE
  5
403
330
1F
100
AcDbEntity
  8
0
 62
     1
100
AcDbEllipse
 10
1058.800871171379
 20
1204.768150645512
 30
0.0
 11
2.003064992485493
 21
-3.235061040501137
 31
0.0
210
0.0
220
0.0
230
1.0
 40
0.8987459747372843
 41
0.2967588290937488
 42
5.986426478085918
  0
LINE
  5
404
330
1F
100
AcDbEntity
  8
0
 62
     1
100
AcDbLine
 10
1085.241611934718
 20
1185.576327441318
 30
0.0
 11
1082.333828647769
 21
1184.748991765215
 31
0.0
  0
LINE
  5
405
330
1F
100
AcDbEntity
  8
0
 62
     1
100
AcDbLine
 10
1061.566597928538
 20
1202.200928547426
 30
0.0
 11
1065.775674076837
 21
1195.403037158506
 31
0.0
  0
LINE
  5
406
330
1F
100
AcDbEntity
  8
0
 62
     1
100
AcDbLine
 10
1086.869459217966
 20
1185.519645187655
 30
0.0
 11
1085.241611934718
 21
1185.576327441318
 31
0.0
  0
LINE
  5
407
330
1F
100
AcDbEntity
  8
0
 62
     1
100
AcDbLine
 10
1065.775674076837
 20
1195.403037158506
 30
0.0
 11
1066.166637186666
 21
1193.821820063287
 31
0.0
  0
LINE
  5
408
330
1F
100
AcDbEntity
  8
0
 62
     1
100
AcDbLine
 10
1094.559713839517
 20
1187.707711277479
 30
0.0
 11
1086.869459217966
 21
1185.519645187655
 31
0.0
  0
LINE
  5
409
330
1F
100
AcDbEntity
  8
0
 62
     1
100
AcDbLine
 10
1066.166637186666
 20
1193.821820063287
 30
0.0
 11
1067.758142524242
 21
1191.251450688026
 31
0.0
  0
ELLIPSE
  5
40A
330
1F
100
AcDbEntity
  8
0
 62
     1
100
AcDbEllipse
 10
1097.785810939263
 20
1189.665304518982
 30
0.0
 11
-3.65972942113563
 21
-1.041282797305077
 31
0.0
210
0.0
220
0.0
230
1.0
 40
0.8987459747372843
 41
0.2967588290937622
 42
5.986426478085886
  0
ARC
  5
40B
330
1F
100
AcDbEntity
  8
0
 62
     1
100
AcDbCircle
 10
1072.590771065214
 20
1182.496697614125
 30
0.0
 40
10.0
100
AcDbArc
 50
103.4542192767159
 51
118.898721899753
  0
LINE
  5
40C
330
1F
100
AcDbEntity
  8
0
 62
     1
100
AcDbLine
 10
1094.012387859373
 20
1189.631362563825
 30
0.0
 11
1086.322133237821
 21
1187.443296474001
 31
0.0
  0
LINE
  5
40D
330
1F
100
AcDbEntity
  8
0
 62
     1
100
AcDbLine
 10
1069.708577629117
 20
1195.193975100852
 30
0.0
 11
1070.26408764352
 21
1192.222258999218
 31
0.0
  0
LINE
  5
40E
330
1F
100
AcDbEntity
  8
0
 62
     1
100
AcDbLine
 10
1086.322133237821
 20
1187.443296474001
 30
0.0
 11
1084.967948944645
 21
1186.538153084491
 31
0.0
  0
LINE
  5
40F
330
1F
100
AcDbEntity
  8
0
 62
     1
100
AcDbLine
 10
1068.932243784876
 20
1196.625898778198
 30
0.0
 11
1069.708577629117
 21
1195.193975100852
 31
0.0
  0
LINE
  5
410
330
1F
100
AcDbEntity
  8
0
 62
     1
100
AcDbLine
 10
1084.967948944645
 20
1186.538153084491
 30
0.0
 11
1082.060165657696
 21
1185.710817408387
 31
0.0
  0
LINE
  5
411
330
1F
100
AcDbEntity
  8
0
 62
     1
100
AcDbLine
 10
1067.463078777032
 20
1204.485237397794
 30
0.0
 11
1068.932243784876
 21
1196.625898778198
 31
0.0
  0
ARC
  5
412
330
1F
100
AcDbEntity
  8
0
 62
     1
100
AcDbCircle
 10
1072.590771065214
 20
1182.496697614125
 30
0.0
 40
10.0
100
AcDbArc
 50
18.74833692377446
 51
34.19283954681095
  0
ELLIPSE
  5
413
330
1F
100
AcDbEntity
  8
0
 62
     1
100
AcDbEllipse
 10
1067.777449169414
 20
1208.245695488581
 30
0.0
 11
0.6991636386969931
 21
-3.740195116061888
 31
0.0
210
0.0
220
0.0
230
1.0
 40
0.8987459747372843
 41
0.2967588290936955
 42
5.986426478085872
  0
LINE
  5
414
330
1F
100
AcDbEntity
  8
0
 62
     1
100
AcDbLine
 10
1083.274838244625
 20
1189.938377739196
 30
0.0
 11
1080.862279198551
 21
1188.116497717345
 31
0.0
  0
LINE
  5
415
330
1F
100
AcDbEntity
  8
0
 62
     1
100
AcDbLine
 10
1069.4290249764
 20
1204.852736433427
 30
0.0
 11
1070.898189984244
 21
1196.993397813832
 31
0.0
  0
LINE
  5
416
330
1F
100
AcDbEntity
  8
0
 62
     1
100
AcDbLine
 10
1084.813236621722
 20
1190.473569376655
 30
0.0
 11
1083.274838244625
 21
1189.938377739196
 31
0.0
  0
LINE
  5
417
330
1F
100
AcDbEntity
  8
0
 62
     1
100
AcDbLine
 10
1070.898189984244
 20
1196.993397813832
 30
0.0
 11
1070.6915507288
 21
1195.377724618669
 31
0.0
  0
LINE
  5
418
330
1F
100
AcDbEntity
  8
0
 62
     1
100
AcDbLine
 10
1091.193764853351
 20
1195.291920634409
 30
0.0
 11
1084.813236621722
 21
1190.473569376655
 31
0.0
  0
LINE
  5
419
330
1F
100
AcDbEntity
  8
0
 62
     1
100
AcDbLine
 10
1070.6915507288
 20
1195.377724618669
 30
0.0
 11
1071.247060743203
 21
1192.406008517035
 31
0.0
  0
ELLIPSE
  5
41A
330
1F
100
AcDbEntity
  8
0
 62
     1
100
AcDbEllipse
 10
1093.494846563949
 20
1198.282722660174
 30
0.0
 11
-3.036441319672547
 21
-2.293014045328648
 31
0.0
210
0.0
220
0.0
230
0.9999999999999996
 40
0.8987459747372843
 41
0.2967588290936893
 42
5.986426478085887
  0
ARC
  5
41B
330
1F
100
AcDbEntity
  8
0
 62
     1
100
AcDbCircle
 10
1072.590771065214
 20
1182.496697614125
 30
0.0
 40
10.0
100
AcDbArc
 50
82.27774868847937
 51
97.72225131151865
  0
LINE
  5
41C
330
1F
100
AcDbEntity
  8
0
 62
     1
100
AcDbLine
 10
1089.988495580593
 20
1196.88795508897
 30
0.0
 11
1083.607967348963
 21
1192.069603831214
 31
0.0
  0
LINE
  5
41D
330
1F
100
AcDbEntity
  8
0
 62
     1
100
AcDbLine
 10
1074.489991401628
 20
1195.377724618668
 30
0.0
 11
1073.934481387225
 21
1192.406008517034
 31
0.0
  0
LINE
  5
41E
330
1F
100
AcDbEntity
  8
0
 62
     1
100
AcDbLine
 10
1083.607967348963
 20
1192.069603831214
 30
0.0
 11
1082.672203608246
 21
1190.736394966476
 31
0.0
  0
LINE
  5
41F
330
1F
100
AcDbEntity
  8
0
 62
     1
100
AcDbLine
 10
1074.283352146184
 20
1196.993397813831
 30
0.0
 11
1074.489991401628
 21
1195.377724618668
 31
0.0
  0
LINE
  5
420
330
1F
100
AcDbEntity
  8
0
 62
     1
100
AcDbLine
 10
1082.672203608246
 20
1190.736394966476
 30
0.0
 11
1080.259644562171
 21
1188.914514944625
 31
0.0
  0
LINE
  5
421
330
1F
100
AcDbEntity
  8
0
 62
     1
100
AcDbLine
 10
1075.752517154029
 20
1204.852736433427
 30
0.0
 11
1074.283352146184
 21
1196.993397813831
 31
0.0
  0
ARC
  5
422
330
1F
100
AcDbEntity
  8
0
 62
     1
100
AcDbCircle
 10
1072.590771065214
 20
1182.496697614125
 30
0.0
 40
10.0
100
AcDbArc
 50
39.92480751200996
 51
55.36931013504835
  0
ELLIPSE
  5
423
330
1F
100
AcDbEntity
  8
0
 62
     1
100
AcDbEllipse
 10
1077.404092961015
 20
1208.24569548858
 30
0.0
 11
-0.6991636386970013
 21
-3.740195116061886
 31
0.0
210
0.0
220
0.0
230
0.9999999999999998
 40
0.8987459747372843
 41
0.2967588290937115
 42
5.986426478085864
  0
LINE
  5
424
330
1F
100
AcDbEntity
  8
0
 62
     1
100
AcDbLine
 10
1079.865122079493
 20
1193.29538790041
 30
0.0
 11
1078.273616741917
 21
1190.725018525149
 31
0.0
  0
LINE
  5
425
330
1F
100
AcDbEntity
  8
0
 62
     1
100
AcDbLine
 10
1077.718463353397
 20
1204.485237397794
 30
0.0
 11
1076.249298345552
 21
1196.625898778199
 31
0.0
  0
LINE
  5
426
330
1F
100
AcDbEntity
  8
0
 62
     1
100
AcDbLine
 10
1081.106302325052
 20
1194.350172832751
 30
0.0
 11
1079.865122079493
 21
1193.29538790041
 31
0.0
  0
LINE
  5
427
330
1F
100
AcDbEntity
  8
0
 62
     1
100
AcDbLine
 10
1076.249298345552
 20
1196.625898778199
 30
0.0
 11
1075.472964501312
 21
1195.193975100852
 31
0.0
  0
LINE
  5
428
330
1F
100
AcDbEntity
  8
0
 62
     1
100
AcDbLine
 10
1085.31537847335
 20
1201.148064221671
 30
0.0
 11
1081.106302325052
 21
1194.350172832751
 31
0.0
  0
LINE
  5
429
330
1F
100
AcDbEntity
  8
0
 62
     1
100
AcDbLine
 10
1075.472964501312
 20
1195.193975100852
 30
0.0
 11
1074.917454486909
 21
1192.222258999218
 31
0.0
  0
ELLIPSE
  5
42A
330
1F
100
AcDbEntity
  8
0
 62
     1
100
AcDbEllipse
 10
1086.38067095905
 20
1204.768150645513
 30
0.0
 11
-2.003064992485501
 21
-3.235061040501133
 31
0.0
210
0.0
220
0.0
230
0.9999999999999998
 40
0.8987459747372843
 41
0.2967588290937337
 42
5.986426478085928
  0
ARC
  5
42B
330
1F
100
AcDbEntity
  8
0
 62
     1
100
AcDbCircle
 10
1072.590771065214
 20
1182.496697614125
 30
0.0
 40
10.0
100
AcDbArc
 50
61.10127810024572
 51
76.54578072328217
  0
LINE
  5
42C
330
1F
100
AcDbEntity
  8
0
 62
     1
100
AcDbLine
 10
1083.614944201891
 20
1202.200928547426
 30
0.0
 11
1079.405868053592
 21
1195.403037158505
 31
0.0
  0
LINE
  5
42D
330
1F
100
AcDbEntity
  8
0
 62
     1
100
AcDbLine
 10
1079.014904943763
 20
1193.821820063287
 30
0.0
 11
1077.423399606187
 21
1191.251450688026
 31
0.0
  0
LINE
  5
42E
330
1F
100
AcDbEntity
  8
0
 62
     1
100
AcDbLine
 10
1079.405868053592
 20
1195.403037158505
 30
0.0
 11
1079.014904943763
 21
1193.821820063287
 31
0.0
  0
ENDSEC
  0
SECTION
  2
OBJECTS
  0
DICTIONARY
  5
C
330
0
100
AcDbDictionary
281
     1
  3
ACAD_COLOR
350
6B
  3
ACAD_GROUP
350
D
  3
ACAD_LAYOUT
350
1A
  3
ACAD_MATERIAL
350
6A
  3
ACAD_MLEADERSTYLE
350
12D
  3
ACAD_MLINESTYLE
350
17
  3
ACAD_PLOTSETTINGS
350
19
  3
ACAD_PLOTSTYLENAME
350
E
  3
ACAD_SCALELIST
350
10C
  3
ACAD_TABLESTYLE
350
7E
  3
ACAD_VISUALSTYLE
350
EF
  3
ACDB_RECOMPOSE_DATA
350
15D
  3
AcDbVariableDictionary
350
5E
  0
DICTIONARY
  5
13C
330
10
100
AcDbDictionary
280
     1
281
     1
  3
ADSK_XREC_LAYER_RECONCILED
360
209
  0
DICTIONARY
  5
1BE
330
1F
100
AcDbDictionary
280
     1
281
     1
  3
ACAD_SORTENTS
360
1BF
  0
DICTIONARY
  5
6B
102
{ACAD_REACTORS
330
C
102
}
330
C
100
AcDbDictionary
281
     1
  0
DICTIONARY
  5
D
102
{ACAD_REACTORS
330
C
102
}
330
C
100
AcDbDictionary
281
     1
  0
DICTIONARY
  5
1A
102
{ACAD_REACTORS
330
C
102
}
330
C
100
AcDbDictionary
281
     1
  3
Model
350
22
  3
1
350
D3
  3
2
350
D7
  0
DICTIONARY
  5
6A
102
{ACAD_REACTORS
330
C
102
}
330
C
100
AcDbDictionary
281
     1
  3
ByBlock
350
ED
  3
ByLayer
350
EC
  3
Global
350
EE
  0
DICTIONARY
  5
12D
102
{ACAD_REACTORS
330
C
102
}
330
C
100
AcDbDictionary
281
     1
  3
Annotative
350
13B
  3
Standard
350
12E
  0
DICTIONARY
  5
17
102
{ACAD_REACTORS
330
C
102
}
330
C
100
AcDbDictionary
281
     1
  3
Standard
350
18
  0
DICTIONARY
  5
19
102
{ACAD_REACTORS
330
C
102
}
330
C
100
AcDbDictionary
281
     1
  0
ACDBDICTIONARYWDFLT
  5
E
102
{ACAD_REACTORS
330
C
102
}
330
C
100
AcDbDictionary
281
     1
  3
Normal
350
F
100
AcDbDictionaryWithDefault
340
F
  0
DICTIONARY
  5
10C
102
{ACAD_REACTORS
330
C
102
}
330
C
100
AcDbDictionary
281
     1
  3
A0
350
10D
  3
A1
350
188
  3
A2
350
189
  3
A3
350
18A
  3
A4
350
18B
  3
A5
350
18C
  3
A6
350
18D
  3
A7
350
18E
  3
A8
350
18F
  3
A9
350
190
  3
B0
350
191
  3
B1
350
192
  3
B2
350
193
  3
B3
350
194
  3
B4
350
195
  3
B5
350
196
  3
B6
350
197
  3
B7
350
198
  3
B8
350
199
  3
B9
350
19A
  3
C0
350
19B
  3
C1
350
19C
  3
C2
350
19D
  3
C3
350
19E
  3
C4
350
19F
  3
C5
350
1A0
  3
C6
350
1A1
  3
C7
350
1A2
  3
C8
350
1A3
  3
C9
350
1A4
  3
D0
350
1A5
  3
D1
350
1A6
  3
D2
350
1A7
  0
DICTIONARY
  5
7E
102
{ACAD_REACTORS
330
C
102
}
330
C
100
AcDbDictionary
281
     1
  3
Standard
350
7F
  0
DICTIONARY
  5
EF
102
{ACAD_REACTORS
330
C
102
}
330
C
100
AcDbDictionary
281
     1
  3
2dWireframe
350
F5
  3
3D Hidden
350
F7
  3
3dWireframe
350
F6
  3
Basic
350
F4
  3
Brighten
350
FB
  3
ColorChange
350
FF
  3
Conceptual
350
F8
  3
Dim
350
FA
  3
Facepattern
350
FE
  3
Flat
350
F0
  3
FlatWithEdges
350
F1
  3
Gouraud
350
F2
  3
GouraudWithEdges
350
F3
  3
Linepattern
350
FD
  3
Realistic
350
F9
  3
Thicken
350
FC
  0
XRECORD
  5
15D
102
{ACAD_REACTORS
330
C
102
}
330
C
100
AcDbXrecord
280
     1
 90
        1
330
7F
  0
DICTIONARY
  5
5E
102
{ACAD_REACTORS
330
C
102
}
330
C
100
AcDbDictionary
281
     1
  3
CANNOSCALE
350
146
  3
CMLEADERSTYLE
350
145
  3
CTABLESTYLE
350
84
  3
DIMASSOC
350
5F
  3
HIDETEXT
350
63
  3
LIGHTINGUNITS
350
43B
  3
MSLTSCALE
350
43A
  3
PSOLHEIGHT
350
43D
  3
PSOLWIDTH
350
43C
  0
XRECORD
  5
209
102
{ACAD_REACTORS
330
13C
102
}
330
13C
100
AcDbXrecord
280
     1
290
     1
  0
SORTENTSTABLE
  5
1BF
102
{ACAD_REACTORS
330
1BE
102
}
330
1BE
100
AcDbSortentsTable
330
1F
331
3E5
  5
364
331
270
  5
270
331
347
  5
406
331
211
  5
234
331
3A6
  5
3EC
331
23B
  5
240
331
3ED
  5
36C
331
243
  5
24C
331
34F
  5
40E
331
1C4
  5
246
331
3AE
  5
321
331
3B6
  5
335
331
3F5
  5
3A8
331
1CC
  5
1FD
331
310
  5
3E4
331
357
  5
416
331
3BE
  5
33D
331
3FB
  5
3AE
331
403
  5
3B6
331
40B
  5
3BE
331
249
  5
261
331
35F
  5
41E
331
413
  5
3C6
331
1FC
  5
207
331
251
  5
23C
331
3C6
  5
345
331
330
  5
3F5
331
367
  5
426
331
1BA
  5
231
331
259
  5
30B
331
3CE
  5
34D
331
261
  5
1C1
331
3D6
  5
355
331
39F
  5
42E
331
3DE
  5
35D
331
41B
  5
3CE
331
423
  5
3D6
331
42B
  5
3DE
331
234
  5
22D
331
340
  5
3FF
331
3A7
  5
310
331
3E6
  5
365
331
23C
  5
210
331
271
  5
23B
331
348
  5
407
331
350
  5
40F
331
3AF
  5
32E
331
244
  5
239
331
3EE
  5
36D
331
3F6
  5
3A9
331
311
  5
3E5
331
3B7
  5
336
331
3BF
  5
33E
331
3FC
  5
3AF
331
404
  5
3B7
331
321
  5
3ED
331
358
  5
417
331
40C
  5
3BF
331
24A
  5
23E
331
3C7
  5
346
331
252
  5
24F
331
360
  5
41F
331
414
  5
3C7
331
368
  5
427
331
3CF
  5
34E
331
25A
  5
26E
331
331
  5
3F7
331
1F6
  5
259
331
3D7
  5
356
331
3DF
  5
35E
331
41C
  5
3CF
331
424
  5
3D7
331
341
  5
400
331
42C
  5
3DF
331
235
  5
241
331
3E7
  5
366
331
349
  5
408
331
23D
  5
232
331
213
  5
25D
331
3A8
  5
311
331
3B0
  5
32F
331
3EF
  5
39E
331
245
  5
24D
331
351
  5
410
331
3B8
  5
337
331
312
  5
3E6
331
3F7
  5
3AA
331
3FD
  5
3B0
331
405
  5
3B8
331
359
  5
418
331
40D
  5
3C0
331
1D6
  5
256
331
24B
  5
20C
331
3C0
  5
33F
331
361
  5
420
331
415
  5
3C8
331
3C8
  5
347
331
332
  5
3EE
331
369
  5
428
331
1F7
  5
24A
331
1BC
  5
24B
331
25B
  5
1FB
331
3D0
  5
34F
331
3D8
  5
357
331
33A
  5
3F9
331
41D
  5
3D0
331
425
  5
3D8
331
3E0
  5
35F
331
42D
  5
3E0
331
26B
  5
264
331
342
  5
401
331
3A9
  5
312
331
3E8
  5
367
331
23E
  5
204
331
34A
  5
409
331
352
  5
411
331
3B1
  5
330
331
246
  5
24E
331
3F0
  5
39F
331
3B9
  5
338
331
3FE
  5
3B1
331
406
  5
3B9
331
3C1
  5
340
331
35A
  5
419
331
40E
  5
3C1
331
1D7
  5
257
331
24C
  5
23A
331
3C9
  5
348
331
416
  5
3C9
331
1FF
  5
20F
331
254
  5
1CE
331
362
  5
421
331
36A
  5
429
331
3D1
  5
350
331
207
  5
25B
331
333
  5
3F8
331
33B
  5
3FA
331
20F
  5
23F
331
264
  5
1C5
331
3D9
  5
358
331
41E
  5
3D1
331
426
  5
3D9
331
343
  5
402
331
42E
  5
3E1
331
26C
  5
1C4
331
3E1
  5
360
331
3E9
  5
368
331
23F
  5
242
331
34B
  5
40A
331
3AA
  5
314
331
3B2
  5
331
331
3F1
  5
3A4
331
30C
  5
3E2
331
353
  5
412
331
1C8
  5
251
331
3BA
  5
339
331
314
  5
3E7
331
3FF
  5
3B2
331
407
  5
3BA
331
1D0
  5
203
331
35B
  5
41A
331
40F
  5
3C2
331
1F8
  5
249
331
3C2
  5
341
331
363
  5
422
331
417
  5
3CA
331
200
  5
20E
331
255
  5
1F5
331
3CA
  5
349
331
3D2
  5
351
331
334
  5
3F6
331
36B
  5
42A
331
208
  5
25C
331
3DA
  5
359
331
33C
  5
3FB
331
41F
  5
3D2
331
427
  5
3DA
331
3E2
  5
361
331
26D
  5
266
331
344
  5
403
331
34C
  5
40B
331
3AB
  5
315
331
240
  5
235
331
3EA
  5
369
331
354
  5
413
331
1C9
  5
250
331
3B3
  5
332
331
3F2
  5
3A5
331
315
  5
3E8
331
3BB
  5
33A
331
3F8
  5
3AB
331
400
  5
3B3
331
408
  5
3BB
331
1D1
  5
201
331
3C3
  5
342
331
35C
  5
41B
331
410
  5
3C3
331
1F9
  5
25A
331
3CB
  5
34A
331
201
  5
22E
331
32D
  5
3EF
331
364
  5
423
331
36C
  5
42B
331
3D3
  5
352
331
25E
  5
30C
331
335
  5
3F4
331
33D
  5
3FC
331
266
  5
267
331
3DB
  5
35A
331
418
  5
3CB
331
420
  5
3D3
331
428
  5
3DB
331
231
  5
260
331
3E3
  5
362
331
345
  5
404
331
3A4
  5
3EA
331
239
  5
208
331
26E
  5
1CB
331
3EB
  5
36A
331
241
  5
20D
331
34D
  5
40C
331
1C2
  5
1FF
331
3AC
  5
316
331
3B4
  5
333
331
3F3
  5
3A6
331
1CA
  5
255
331
30E
  5
3E3
331
355
  5
414
331
3BC
  5
33B
331
316
  5
3E9
331
3F9
  5
3AC
331
401
  5
3B4
331
409
  5
3BC
331
35D
  5
41C
331
411
  5
3C4
331
3C4
  5
343
331
32E
  5
3F1
331
365
  5
424
331
1B8
  5
1B8
331
202
  5
244
331
257
  5
26D
331
3CC
  5
34B
331
3D4
  5
353
331
336
  5
3F2
331
36D
  5
42C
331
3DC
  5
35B
331
33E
  5
3FD
331
419
  5
3CC
331
421
  5
3D4
331
429
  5
3DC
331
3A5
  5
3EB
331
3E4
  5
363
331
23A
  5
243
331
346
  5
405
331
34E
  5
40D
331
3AD
  5
317
331
1C3
  5
245
331
242
  5
23D
331
3EC
  5
36B
331
3F4
  5
3A7
331
356
  5
415
331
1CB
  5
1FE
331
3B5
  5
334
331
3BD
  5
33C
331
3FA
  5
3AD
331
402
  5
3B5
331
40A
  5
3BD
331
1D3
  5
22F
331
3C5
  5
344
331
250
  5
26F
331
35E
  5
41D
331
412
  5
3C5
331
366
  5
425
331
3CD
  5
34C
331
258
  5
262
331
32F
  5
3F3
331
3D5
  5
354
331
260
  5
263
331
337
  5
3F0
331
33F
  5
3FE
331
39E
  5
42D
331
3DD
  5
35C
331
41A
  5
3CD
331
422
  5
3D5
331
42A
  5
3DD
331
233
  5
213
331
268
  5
265
  0
LAYOUT
  5
22
102
{ACAD_REACTORS
330
1A
102
}
330
1A
100
AcDbPlotSettings
  1

  2
none_device
  4
ISO_A4_(210.00_x_297.00_MM)
  6

 40
7.5
 41
20.0
 42
7.5
 43
20.0
 44
210.0
 45
297.0
 46
11.54999923706054
 47
-13.65000009536743
 48
0.0
 49
0.0
140
0.0
141
0.0
142
1.0
143
8.704084754739808
 70
 11952
 72
     1
 73
     0
 74
     0
  7

 75
     0
147
0.1148885871608098
 76
     0
 77
     2
 78
   300
148
0.0
149
0.0
100
AcDbLayout
  1
Model
 70
     1
 71
     0
 10
0.0
 20
0.0
 11
12.0
 21
9.0
 12
0.0
 22
0.0
 32
0.0
 14
0.0
 24
0.0
 34
0.0
 15
0.0
 25
0.0
 35
0.0
146
0.0
 13
0.0
 23
0.0
 33
0.0
 16
1.0
 26
0.0
 36
0.0
 17
0.0
 27
1.0
 37
0.0
 76
     0
330
1F
331
EA
1001
ACAD_PSEXT
1000
None
1000
None
1000
Not applicable
1000
The layout will not be plotted unless a new plotter configuration name is selected.
1070
     0
  0
LAYOUT
  5
D3
102
{ACAD_REACTORS
330
1A
102
}
330
1A
100
AcDbPlotSettings
  1

  2
C:\Documents and Settings\basas\Application Data\Autodesk\AutoCAD 2005\R16.1\enu\plotters\Default Windows System Printer.pc3
  4

  6

 40
0.0
 41
0.0
 42
0.0
 43
0.0
 44
0.0
 45
0.0
 46
0.0
 47
0.0
 48
0.0
 49
0.0
140
0.0
141
0.0
142
1.0
143
1.0
 70
   688
 72
     0
 73
     0
 74
     5
  7

 75
    16
147
1.0
 76
     0
 77
     2
 78
   300
148
0.0
149
0.0
100
AcDbLayout
  1
1
 70
     1
 71
     1
 10
0.0
 20
0.0
 11
12.0
 21
9.0
 12
0.0
 22
0.0
 32
0.0
 14
0.0
 24
0.0
 34
0.0
 15
0.0
 25
0.0
 35
0.0
146
0.0
 13
0.0
 23
0.0
 33
0.0
 16
1.0
 26
0.0
 36
0.0
 17
0.0
 27
1.0
 37
0.0
 76
     0
330
D2
  0
LAYOUT
  5
D7
102
{ACAD_REACTORS
330
1A
102
}
330
1A
100
AcDbPlotSettings
  1

  2
C:\Documents and Settings\basas\Application Data\Autodesk\AutoCAD 2005\R16.1\enu\plotters\Default Windows System Printer.pc3
  4

  6

 40
0.0
 41
0.0
 42
0.0
 43
0.0
 44
0.0
 45
0.0
 46
0.0
 47
0.0
 48
0.0
 49
0.0
140
0.0
141
0.0
142
1.0
143
1.0
 70
   688
 72
     0
 73
     0
 74
     5
  7

 75
    16
147
1.0
 76
     0
 77
     2
 78
   300
148
0.0
149
0.0
100
AcDbLayout
  1
2
 70
     1
 71
     2
 10
0.0
 20
0.0
 11
12.0
 21
9.0
 12
0.0
 22
0.0
 32
0.0
 14
0.0
 24
0.0
 34
0.0
 15
0.0
 25
0.0
 35
0.0
146
0.0
 13
0.0
 23
0.0
 33
0.0
 16
1.0
 26
0.0
 36
0.0
 17
0.0
 27
1.0
 37
0.0
 76
     0
330
D6
  0
MATERIAL
  5
ED
330
6A
100
AcDbMaterial
  1
ByBlock
  0
MATERIAL
  5
EC
330
6A
100
AcDbMaterial
  1
ByLayer
  0
MATERIAL
  5
EE
330
6A
100
AcDbMaterial
  1
Global
 43
0.0007999999797903
 43
0.0
 43
0.0
 43
0.0
 43
0.0
 43
0.0007999999797903
 43
0.0
 43
0.0
 43
0.0
 43
0.0
 43
1.0
 43
0.0
 43
0.0
 43
0.0
 43
0.0
 43
1.0
 49
0.0007999999797903
 49
0.0
 49
0.0
 49
0.0
 49
0.0
 49
0.0007999999797903
 49
0.0
 49
0.0
 49
0.0
 49
0.0
 49
1.0
 49
0.0
 49
0.0
 49
0.0
 49
0.0
 49
1.0
142
0.0007999999797903
142
0.0
142
0.0
142
0.0
142
0.0
142
0.0007999999797903
142
0.0
142
0.0
142
0.0
142
0.0
142
1.0
142
0.0
142
0.0
142
0.0
142
0.0
142
1.0
144
0.0007999999797903
144
0.0
144
0.0
144
0.0
144
0.0
144
0.0007999999797903
144
0.0
144
0.0
144
0.0
144
0.0
144
1.0
144
0.0
144
0.0
144
0.0
144
0.0
144
1.0
  0
MLEADERSTYLE
  5
13B
102
{ACAD_REACTORS
330
12D
102
}
330
12D
100
AcDbMLeaderStyle
170
     2
171
     1
172
     0
 90
        2
 40
0.0
 41
0.0
173
     1
 91
-1056964608
340
14
 92
       -2
290
     1
 42
2.0
291
     1
 43
8.0
  3
Standard
 44
4.0
300

342
11
174
     1
178
     1
175
     1
176
     0
 93
-1056964608
 45
4.0
292
     0
297
     0
 46
4.0
 94
-1056964608
 47
1.0
 49
1.0
140
1.0
293
     1
141
0.0
294
     1
177
     0
142
1.0
295
     0
296
     1
143
3.75
1001
ACAD_MLEADERVER
1070
     2
  0
MLEADERSTYLE
  5
12E
102
{ACAD_REACTORS
330
12D
102
}
330
12D
100
AcDbMLeaderStyle
170
     2
171
     1
172
     0
 90
        2
 40
0.0
 41
0.0
173
     1
 91
-1056964608
340
14
 92
       -2
290
     1
 42
2.0
291
     1
 43
8.0
  3
Standard
 44
4.0
300

342
11
174
     1
178
     1
175
     1
176
     0
 93
-1056964608
 45
4.0
292
     0
297
     0
 46
4.0
 94
-1056964608
 47
1.0
 49
1.0
140
1.0
293
     1
141
0.0
294
     1
177
     0
142
1.0
295
     0
296
     0
143
3.75
1001
ACAD_MLEADERVER
1070
     2
  0
MLINESTYLE
  5
18
102
{ACAD_REACTORS
330
17
102
}
330
17
100
AcDbMlineStyle
  2
STANDARD
 70
     0
  3

 62
   256
 51
90.0
 52
90.0
 71
     2
 49
0.5
 62
   256
  6
BYLAYER
 49
-0.5
 62
   256
  6
BYLAYER
  0
ACDBPLACEHOLDER
  5
F
102
{ACAD_REACTORS
330
E
102
}
330
E
  0
SCALE
  5
10D
102
{ACAD_REACTORS
330
10C
102
}
330
10C
100
AcDbScale
 70
     0
300
1:1
140
1.0
141
1.0
290
     1
  0
SCALE
  5
188
102
{ACAD_REACTORS
330
10C
102
}
330
10C
100
AcDbScale
 70
     0
300
1:2
140
1.0
141
2.0
290
     0
  0
SCALE
  5
189
102
{ACAD_REACTORS
330
10C
102
}
330
10C
100
AcDbScale
 70
     0
300
1:4
140
1.0
141
4.0
290
     0
  0
SCALE
  5
18A
102
{ACAD_REACTORS
330
10C
102
}
330
10C
100
AcDbScale
 70
     0
300
1:5
140
1.0
141
5.0
290
     0
  0
SCALE
  5
18B
102
{ACAD_REACTORS
330
10C
102
}
330
10C
100
AcDbScale
 70
     0
300
1:8
140
1.0
141
8.0
290
     0
  0
SCALE
  5
18C
102
{ACAD_REACTORS
330
10C
102
}
330
10C
100
AcDbScale
 70
     0
300
1:10
140
1.0
141
10.0
290
     0
  0
SCALE
  5
18D
102
{ACAD_REACTORS
330
10C
102
}
330
10C
100
AcDbScale
 70
     0
300
1:16
140
1.0
141
16.0
290
     0
  0
SCALE
  5
18E
102
{ACAD_REACTORS
330
10C
102
}
330
10C
100
AcDbScale
 70
     0
300
1:20
140
1.0
141
20.0
290
     0
  0
SCALE
  5
18F
102
{ACAD_REACTORS
330
10C
102
}
330
10C
100
AcDbScale
 70
     0
300
1:30
140
1.0
141
30.0
290
     0
  0
SCALE
  5
190
102
{ACAD_REACTORS
330
10C
102
}
330
10C
100
AcDbScale
 70
     0
300
1:40
140
1.0
141
40.0
290
     0
  0
SCALE
  5
191
102
{ACAD_REACTORS
330
10C
102
}
330
10C
100
AcDbScale
 70
     0
300
1:50
140
1.0
141
50.0
290
     0
  0
SCALE
  5
192
102
{ACAD_REACTORS
330
10C
102
}
330
10C
100
AcDbScale
 70
     0
300
1:100
140
1.0
141
100.0
290
     0
  0
SCALE
  5
193
102
{ACAD_REACTORS
330
10C
102
}
330
10C
100
AcDbScale
 70
     0
300
2:1
140
2.0
141
1.0
290
     0
  0
SCALE
  5
194
102
{ACAD_REACTORS
330
10C
102
}
330
10C
100
AcDbScale
 70
     0
300
4:1
140
4.0
141
1.0
290
     0
  0
SCALE
  5
195
102
{ACAD_REACTORS
330
10C
102
}
330
10C
100
AcDbScale
 70
     0
300
8:1
140
8.0
141
1.0
290
     0
  0
SCALE
  5
196
102
{ACAD_REACTORS
330
10C
102
}
330
10C
100
AcDbScale
 70
     0
300
10:1
140
10.0
141
1.0
290
     0
  0
SCALE
  5
197
102
{ACAD_REACTORS
330
10C
102
}
330
10C
100
AcDbScale
 70
     0
300
100:1
140
100.0
141
1.0
290
     0
  0
SCALE
  5
198
102
{ACAD_REACTORS
330
10C
102
}
330
10C
100
AcDbScale
 70
     0
300
1/128" = 1'-0"
140
0.0078125
141
12.0
290
     0
  0
SCALE
  5
199
102
{ACAD_REACTORS
330
10C
102
}
330
10C
100
AcDbScale
 70
     0
300
1/64" = 1'-0"
140
0.015625
141
12.0
290
     0
  0
SCALE
  5
19A
102
{ACAD_REACTORS
330
10C
102
}
330
10C
100
AcDbScale
 70
     0
300
1/32" = 1'-0"
140
0.03125
141
12.0
290
     0
  0
SCALE
  5
19B
102
{ACAD_REACTORS
330
10C
102
}
330
10C
100
AcDbScale
 70
     0
300
1/16" = 1'-0"
140
0.0625
141
12.0
290
     0
  0
SCALE
  5
19C
102
{ACAD_REACTORS
330
10C
102
}
330
10C
100
AcDbScale
 70
     0
300
3/32" = 1'-0"
140
0.09375
141
12.0
290
     0
  0
SCALE
  5
19D
102
{ACAD_REACTORS
330
10C
102
}
330
10C
100
AcDbScale
 70
     0
300
1/8" = 1'-0"
140
0.125
141
12.0
290
     0
  0
SCALE
  5
19E
102
{ACAD_REACTORS
330
10C
102
}
330
10C
100
AcDbScale
 70
     0
300
3/16" = 1'-0"
140
0.1875
141
12.0
290
     0
  0
SCALE
  5
19F
102
{ACAD_REACTORS
330
10C
102
}
330
10C
100
AcDbScale
 70
     0
300
1/4" = 1'-0"
140
0.25
141
12.0
290
     0
  0
SCALE
  5
1A0
102
{ACAD_REACTORS
330
10C
102
}
330
10C
100
AcDbScale
 70
     0
300
3/8" = 1'-0"
140
0.375
141
12.0
290
     0
  0
SCALE
  5
1A1
102
{ACAD_REACTORS
330
10C
102
}
330
10C
100
AcDbScale
 70
     0
300
1/2" = 1'-0"
140
0.5
141
12.0
290
     0
  0
SCALE
  5
1A2
102
{ACAD_REACTORS
330
10C
102
}
330
10C
100
AcDbScale
 70
     0
300
3/4" = 1'-0"
140
0.75
141
12.0
290
     0
  0
SCALE
  5
1A3
102
{ACAD_REACTORS
330
10C
102
}
330
10C
100
AcDbScale
 70
     0
300
1" = 1'-0"
140
1.0
141
12.0
290
     0
  0
SCALE
  5
1A4
102
{ACAD_REACTORS
330
10C
102
}
330
10C
100
AcDbScale
 70
     0
300
1-1/2" = 1'-0"
140
1.5
141
12.0
290
     0
  0
SCALE
  5
1A5
102
{ACAD_REACTORS
330
10C
102
}
330
10C
100
AcDbScale
 70
     0
300
3" = 1'-0"
140
3.0
141
12.0
290
     0
  0
SCALE
  5
1A6
102
{ACAD_REACTORS
330
10C
102
}
330
10C
100
AcDbScale
 70
     0
300
6" = 1'-0"
140
6.0
141
12.0
290
     0
  0
SCALE
  5
1A7
102
{ACAD_REACTORS
330
10C
102
}
330
10C
100
AcDbScale
 70
     0
300
1'-0" = 1'-0"
140
12.0
141
12.0
290
     0
  0
TABLESTYLE
  5
7F
102
{ACAD_XDICTIONARY
360
162
102
}
102
{ACAD_REACTORS
330
7E
102
}
330
7E
100
AcDbTableStyle
  3
Standard
 70
     0
 71
     0
 40
1.5
 41
1.5
280
     0
281
     0
  7
Standard
140
4.5
170
     2
 62
     0
 63
     7
283
     0
274
    -2
284
     1
 64
     0
275
    -2
285
     1
 65
     0
276
    -2
286
     1
 66
     0
277
    -2
287
     1
 67
     0
278
    -2
288
     1
 68
     0
279
    -2
289
     1
 69
     0
  7
Standard
140
6.0
170
     5
 62
     0
 63
     7
283
     0
274
    -2
284
     1
 64
     0
275
    -2
285
     1
 65
     0
276
    -2
286
     1
 66
     0
277
    -2
287
     1
 67
     0
278
    -2
288
     1
 68
     0
279
    -2
289
     1
 69
     0
  7
Standard
140
4.5
170
     5
 62
     0
 63
     7
283
     0
274
    -2
284
     1
 64
     0
275
    -2
285
     1
 65
     0
276
    -2
286
     1
 66
     0
277
    -2
287
     1
 67
     0
278
    -2
288
     1
 68
     0
279
    -2
289
     1
 69
     0
  0
VISUALSTYLE
  5
F5
102
{ACAD_REACTORS
330
EF
102
}
330
EF
100
AcDbVisualStyle
  2
2dWireframe
 70
     4
 71
     0
 72
     2
 73
     1
 90
        0
 40
-0.6
 41
-30.0
 62
     5
 63
     7
421
 16777215
 74
     1
 91
        4
 64
     7
 65
   257
 75
     1
175
     1
 42
1.0
 92
        0
 66
   257
 43
1.0
 76
     1
 77
     6
 78
     2
 67
     7
 79
     5
170
     0
171
     0
290
     0
174
     0
 93
        1
 44
0.0
173
     0
291
     0
 45
0.0
1001
ACAD
1000
AcDbSavedByObjectVersion
1070
     0
  0
VISUALSTYLE
  5
F7
102
{ACAD_REACTORS
330
EF
102
}
330
EF
100
AcDbVisualStyle
  2
3D Hidden
 70
     6
 71
     1
 72
     2
 73
     2
 90
        0
 40
-0.6
 41
-30.0
 62
     5
 63
     7
421
 16777215
 74
     2
 91
        2
 64
     7
 65
   257
 75
     2
175
     1
 42
40.0
 92
        0
 66
   257
 43
1.0
 76
     1
 77
     6
 78
     2
 67
     7
 79
     3
170
     0
171
     0
290
     0
174
     0
 93
        1
 44
0.0
173
     0
291
     0
 45
0.0
1001
ACAD
1000
AcDbSavedByObjectVersion
1070
     0
  0
VISUALSTYLE
  5
F6
102
{ACAD_REACTORS
330
EF
102
}
330
EF
100
AcDbVisualStyle
  2
3dWireframe
 70
     5
 71
     0
 72
     2
 73
     1
 90
        0
 40
-0.6
 41
-30.0
 62
     5
 63
     7
421
 16777215
 74
     1
 91
        4
 64
     7
 65
   257
 75
     1
175
     1
 42
1.0
 92
        0
 66
   257
 43
1.0
 76
     1
 77
     6
 78
     2
 67
     7
 79
     5
170
     0
171
     0
290
     0
174
     0
 93
        1
 44
0.0
173
     0
291
     0
 45
0.0
1001
ACAD
1000
AcDbSavedByObjectVersion
1070
     0
  0
VISUALSTYLE
  5
F4
102
{ACAD_REACTORS
330
EF
102
}
330
EF
100
AcDbVisualStyle
  2
Basic
 70
     7
 71
     1
 72
     0
 73
     1
 90
        0
 40
-0.6
 41
-30.0
 62
     5
 63
     7
421
 16777215
 74
     0
 91
        4
 64
     7
 65
   257
 75
     1
175
     1
 42
1.0
 92
        8
 66
     7
 43
1.0
 76
     1
 77
     6
 78
     2
 67
     7
 79
     5
170
     0
171
     0
290
     0
174
     0
 93
        1
 44
0.0
173
     0
291
     1
 45
0.0
1001
ACAD
1000
AcDbSavedByObjectVersion
1070
     0
  0
VISUALSTYLE
  5
FB
102
{ACAD_REACTORS
330
EF
102
}
330
EF
100
AcDbVisualStyle
  2
Brighten
 70
    12
 71
     2
 72
     2
 73
     1
 90
        0
 40
-0.6
 41
-30.0
 62
     5
 63
     7
421
 16777215
 74
     1
 91
        4
 64
     7
 65
   257
 75
     1
175
     1
 42
1.0
 92
        8
 66
     7
 43
1.0
 76
     1
 77
     6
 78
     2
 67
     7
 79
     5
170
     0
171
     0
290
     0
174
     0
 93
        1
 44
50.0
173
     0
291
     1
 45
0.0
1001
ACAD
1000
AcDbSavedByObjectVersion
1070
     0
  0
VISUALSTYLE
  5
FF
102
{ACAD_REACTORS
330
EF
102
}
330
EF
100
AcDbVisualStyle
  2
ColorChange
 70
    16
 71
     2
 72
     2
 73
     3
 90
        0
 40
-0.6
 41
-30.0
 62
     5
 63
     8
421
  8421504
 74
     1
 91
        4
 64
     7
 65
   257
 75
     1
175
     1
 42
1.0
 92
        8
 66
     8
424
  8421504
 43
1.0
 76
     1
 77
     6
 78
     2
 67
     7
 79
     5
170
     0
171
     0
290
     0
174
     0
 93
        1
 44
0.0
173
     0
291
     1
 45
0.0
1001
ACAD
1000
AcDbSavedByObjectVersion
1070
     0
  0
VISUALSTYLE
  5
F8
102
{ACAD_REACTORS
330
EF
102
}
330
EF
100
AcDbVisualStyle
  2
Conceptual
 70
     9
 71
     3
 72
     2
 73
     1
 90
        0
 40
-0.6
 41
-30.0
 62
     5
 63
     7
421
 16777215
 74
     2
 91
        2
 64
     7
 65
   257
 75
     1
175
     1
 42
40.0
 92
        8
 66
     7
 43
1.0
 76
     1
 77
     6
 78
     2
 67
     7
 79
     3
170
     0
171
     0
290
     0
174
     0
 93
        1
 44
0.0
173
     0
291
     0
 45
0.0
1001
ACAD
1000
AcDbSavedByObjectVersion
1070
     0
  0
VISUALSTYLE
  5
FA
102
{ACAD_REACTORS
330
EF
102
}
330
EF
100
AcDbVisualStyle
  2
Dim
 70
    11
 71
     2
 72
     2
 73
     1
 90
        0
 40
-0.6
 41
-30.0
 62
     5
 63
     7
421
 16777215
 74
     1
 91
        4
 64
     7
 65
   257
 75
     1
175
     1
 42
1.0
 92
        8
 66
     7
 43
1.0
 76
     1
 77
     6
 78
     2
 67
     7
 79
     5
170
     0
171
     0
290
     0
174
     0
 93
        1
 44
-50.0
173
     0
291
     1
 45
0.0
1001
ACAD
1000
AcDbSavedByObjectVersion
1070
     0
  0
VISUALSTYLE
  5
FE
102
{ACAD_REACTORS
330
EF
102
}
330
EF
100
AcDbVisualStyle
  2
Facepattern
 70
    15
 71
     2
 72
     2
 73
     1
 90
        0
 40
-0.6
 41
-30.0
 62
     5
 63
     7
421
 16777215
 74
     1
 91
        4
 64
     7
 65
   257
 75
     1
175
     1
 42
1.0
 92
        8
 66
     7
 43
1.0
 76
     1
 77
     6
 78
     2
 67
     7
 79
     5
170
     0
171
     0
290
     0
174
     0
 93
        1
 44
0.0
173
     0
291
     1
 45
0.0
1001
ACAD
1000
AcDbSavedByObjectVersion
1070
     0
  0
VISUALSTYLE
  5
F0
102
{ACAD_REACTORS
330
EF
102
}
330
EF
100
AcDbVisualStyle
  2
Flat
 70
     0
 71
     2
 72
     1
 73
     1
 90
        2
 40
-0.6
 41
30.0
 62
     5
 63
     7
421
 16777215
 74
     0
 91
        4
 64
     7
 65
   257
 75
     1
175
     1
 42
1.0
 92
        8
 66
     7
 43
1.0
 76
     1
 77
     6
 78
     2
 67
     7
 79
     5
170
     0
171
     0
290
     0
174
     0
 93
        1
 44
0.0
173
     0
291
     1
 45
0.0
1001
ACAD
1000
AcDbSavedByObjectVersion
1070
     0
  0
VISUALSTYLE
  5
F1
102
{ACAD_REACTORS
330
EF
102
}
330
EF
100
AcDbVisualStyle
  2
FlatWithEdges
 70
     1
 71
     2
 72
     1
 73
     1
 90
        2
 40
-0.6
 41
30.0
 62
     5
 63
     7
421
 16777215
 74
     1
 91
        4
 64
     7
 65
   257
 75
     1
175
     1
 42
1.0
 92
        0
 66
   257
 43
1.0
 76
     1
 77
     6
 78
     2
 67
     7
 79
     5
170
     0
171
     0
290
     0
174
     0
 93
        1
 44
0.0
173
     0
291
     1
 45
0.0
1001
ACAD
1000
AcDbSavedByObjectVersion
1070
     0
  0
VISUALSTYLE
  5
F2
102
{ACAD_REACTORS
330
EF
102
}
330
EF
100
AcDbVisualStyle
  2
Gouraud
 70
     2
 71
     2
 72
     2
 73
     1
 90
        2
 40
-0.6
 41
30.0
 62
     5
 63
     7
421
 16777215
 74
     0
 91
        4
 64
     7
 65
   257
 75
     1
175
     1
 42
1.0
 92
        0
 66
     7
 43
1.0
 76
     1
 77
     6
 78
     2
 67
     7
 79
     5
170
     0
171
     0
290
     0
174
     0
 93
        1
 44
0.0
173
     0
291
     1
 45
0.0
1001
ACAD
1000
AcDbSavedByObjectVersion
1070
     0
  0
VISUALSTYLE
  5
F3
102
{ACAD_REACTORS
330
EF
102
}
330
EF
100
AcDbVisualStyle
  2
GouraudWithEdges
 70
     3
 71
     2
 72
     2
 73
     1
 90
        2
 40
-0.6
 41
30.0
 62
     5
 63
     7
421
 16777215
 74
     1
 91
        4
 64
     7
 65
   257
 75
     1
175
     1
 42
1.0
 92
        0
 66
   257
 43
1.0
 76
     1
 77
     6
 78
     2
 67
     7
 79
     5
170
     0
171
     0
290
     0
174
     0
 93
        1
 44
0.0
173
     0
291
     1
 45
0.0
1001
ACAD
1000
AcDbSavedByObjectVersion
1070
     0
  0
VISUALSTYLE
  5
FD
102
{ACAD_REACTORS
330
EF
102
}
330
EF
100
AcDbVisualStyle
  2
Linepattern
 70
    14
 71
     2
 72
     2
 73
     1
 90
        0
 40
-0.6
 41
-30.0
 62
     5
 63
     7
421
 16777215
 74
     1
 91
        4
 64
     7
 65
   257
 75
     7
175
     7
 42
1.0
 92
        8
 66
     7
 43
1.0
 76
     1
 77
     6
 78
     2
 67
     7
 79
     5
170
     0
171
     0
290
     0
174
     0
 93
        1
 44
0.0
173
     0
291
     1
 45
0.0
1001
ACAD
1000
AcDbSavedByObjectVersion
1070
     0
  0
VISUALSTYLE
  5
F9
102
{ACAD_REACTORS
330
EF
102
}
330
EF
100
AcDbVisualStyle
  2
Realistic
 70
     8
 71
     2
 72
     2
 73
     1
 90
        0
 40
-0.6
 41
-30.0
 62
     5
 63
     7
421
 16777215
 74
     1
 91
        0
 64
     7
 65
   257
 75
     1
175
     1
 42
1.0
 92
        8
 66
     8
424
  7895160
 43
1.0
 76
     1
 77
     6
 78
     2
 67
     7
 79
     5
170
     0
171
     0
290
     0
174
     0
 93
       13
 44
0.0
173
     0
291
     0
 45
0.0
1001
ACAD
1000
AcDbSavedByObjectVersion
1070
     0
  0
VISUALSTYLE
  5
FC
102
{ACAD_REACTORS
330
EF
102
}
330
EF
100
AcDbVisualStyle
  2
Thicken
 70
    13
 71
     2
 72
     2
 73
     1
 90
        0
 40
-0.6
 41
-30.0
 62
     5
 63
     7
421
 16777215
 74
     1
 91
        4
 64
     7
 65
   257
 75
     1
175
     1
 42
1.0
 92
       12
 66
     7
 43
1.0
 76
     1
 77
     6
 78
     2
 67
     7
 79
     5
170
     0
171
     0
290
     0
174
     0
 93
        1
 44
0.0
173
     0
291
     1
 45
0.0
1001
ACAD
1000
AcDbSavedByObjectVersion
1070
     0
  0
DICTIONARYVAR
  5
146
102
{ACAD_REACTORS
330
5E
102
}
330
5E
100
DictionaryVariables
280
     0
  1
1:1
  0
DICTIONARYVAR
  5
145
102
{ACAD_REACTORS
330
5E
102
}
330
5E
100
DictionaryVariables
280
     0
  1
STANDARD
  0
DICTIONARYVAR
  5
84
102
{ACAD_REACTORS
330
5E
102
}
330
5E
100
DictionaryVariables
280
     0
  1
STANDARD
  0
DICTIONARYVAR
  5
5F
102
{ACAD_REACTORS
330
5E
102
}
330
5E
100
DictionaryVariables
280
     0
  1
2
  0
DICTIONARYVAR
  5
63
102
{ACAD_REACTORS
330
5E
102
}
330
5E
100
DictionaryVariables
280
     0
  1
1
  0
DICTIONARYVAR
  5
43B
102
{ACAD_REACTORS
330
5E
102
}
330
5E
100
DictionaryVariables
280
     0
  1
2
  0
DICTIONARYVAR
  5
43A
102
{ACAD_REACTORS
330
5E
102
}
330
5E
100
DictionaryVariables
280
     0
  1
1
  0
DICTIONARYVAR
  5
43D
102
{ACAD_REACTORS
330
5E
102
}
330
5E
100
DictionaryVariables
280
     0
  1
80.000000
  0
DICTIONARYVAR
  5
43C
102
{ACAD_REACTORS
330
5E
102
}
330
5E
100
DictionaryVariables
280
     0
  1
5.000000
  0
DICTIONARY
  5
162
330
7F
100
AcDbDictionary
280
     1
281
     1
  3
ACAD_ROUNDTRIP_2008_TABLESTYLE_CELLSTYLEMAP
360
43E
  3
ACAD_XREC_ROUNDTRIP
360
43F
  0
CELLSTYLEMAP
  5
43E
102
{ACAD_REACTORS
330
162
102
}
330
162
100
AcDbCellStyleMap
 90
        3
300
CELLSTYLE
  1
TABLEFORMAT_BEGIN
 90
        5
170
     1
 91
        0
 92
    32768
 62
   257
 93
        1
300
CONTENTFORMAT
  1
CONTENTFORMAT_BEGIN
 90
        0
 91
        0
 92
      512
 93
        0
300

 40
0.0
140
1.0
 94
        5
 62
     0
340
11
144
6.0
309
CONTENTFORMAT_END
171
     1
301
MARGIN
  1
CELLMARGIN_BEGIN
 40
1.5
 40
1.5
 40
1.5
 40
1.5
 40
4.5
 40
4.5
309
CELLMARGIN_END
 94
        6
 95
        1
302
GRIDFORMAT
  1
GRIDFORMAT_BEGIN
 90
        0
 91
        1
 62
     0
 92
       -2
340
14
 93
        0
 40
1.125
309
GRIDFORMAT_END
 95
        2
302
GRIDFORMAT
  1
GRIDFORMAT_BEGIN
 90
        0
 91
        1
 62
     0
 92
       -2
340
14
 93
        0
 40
1.125
309
GRIDFORMAT_END
 95
        4
302
GRIDFORMAT
  1
GRIDFORMAT_BEGIN
 90
        0
 91
        1
 62
     0
 92
       -2
340
14
 93
        0
 40
1.125
309
GRIDFORMAT_END
 95
        8
302
GRIDFORMAT
  1
GRIDFORMAT_BEGIN
 90
        0
 91
        1
 62
     0
 92
       -2
340
14
 93
        0
 40
1.125
309
GRIDFORMAT_END
 95
       16
302
GRIDFORMAT
  1
GRIDFORMAT_BEGIN
 90
        0
 91
        1
 62
     0
 92
       -2
340
14
 93
        0
 40
1.125
309
GRIDFORMAT_END
 95
       32
302
GRIDFORMAT
  1
GRIDFORMAT_BEGIN
 90
        0
 91
        1
 62
     0
 92
       -2
340
14
 93
        0
 40
1.125
309
GRIDFORMAT_END
309
TABLEFORMAT_END
  1
CELLSTYLE_BEGIN
 90
        1
 91
        1
300
_TITLE
309
CELLSTYLE_END
300
CELLSTYLE
  1
TABLEFORMAT_BEGIN
 90
        5
170
     1
 91
        0
 92
        0
 62
   257
 93
        1
300
CONTENTFORMAT
  1
CONTENTFORMAT_BEGIN
 90
        0
 91
        0
 92
      512
 93
        0
300

 40
0.0
140
1.0
 94
        5
 62
     0
340
11
144
4.5
309
CONTENTFORMAT_END
171
     1
301
MARGIN
  1
CELLMARGIN_BEGIN
 40
1.5
 40
1.5
 40
1.5
 40
1.5
 40
4.5
 40
4.5
309
CELLMARGIN_END
 94
        6
 95
        1
302
GRIDFORMAT
  1
GRIDFORMAT_BEGIN
 90
        0
 91
        1
 62
     0
 92
       -2
340
14
 93
        0
 40
1.125
309
GRIDFORMAT_END
 95
        2
302
GRIDFORMAT
  1
GRIDFORMAT_BEGIN
 90
        0
 91
        1
 62
     0
 92
       -2
340
14
 93
        0
 40
1.125
309
GRIDFORMAT_END
 95
        4
302
GRIDFORMAT
  1
GRIDFORMAT_BEGIN
 90
        0
 91
        1
 62
     0
 92
       -2
340
14
 93
        0
 40
1.125
309
GRIDFORMAT_END
 95
        8
302
GRIDFORMAT
  1
GRIDFORMAT_BEGIN
 90
        0
 91
        1
 62
     0
 92
       -2
340
14
 93
        0
 40
1.125
309
GRIDFORMAT_END
 95
       16
302
GRIDFORMAT
  1
GRIDFORMAT_BEGIN
 90
        0
 91
        1
 62
     0
 92
       -2
340
14
 93
        0
 40
1.125
309
GRIDFORMAT_END
 95
       32
302
GRIDFORMAT
  1
GRIDFORMAT_BEGIN
 90
        0
 91
        1
 62
     0
 92
       -2
340
14
 93
        0
 40
1.125
309
GRIDFORMAT_END
309
TABLEFORMAT_END
  1
CELLSTYLE_BEGIN
 90
        2
 91
        1
300
_HEADER
309
CELLSTYLE_END
300
CELLSTYLE
  1
TABLEFORMAT_BEGIN
 90
        5
170
     1
 91
        0
 92
        0
 62
   257
 93
        1
300
CONTENTFORMAT
  1
CONTENTFORMAT_BEGIN
 90
        0
 91
        0
 92
      512
 93
        0
300

 40
0.0
140
1.0
 94
        2
 62
     0
340
11
144
4.5
309
CONTENTFORMAT_END
171
     1
301
MARGIN
  1
CELLMARGIN_BEGIN
 40
1.5
 40
1.5
 40
1.5
 40
1.5
 40
4.5
 40
4.5
309
CELLMARGIN_END
 94
        6
 95
        1
302
GRIDFORMAT
  1
GRIDFORMAT_BEGIN
 90
        0
 91
        1
 62
     0
 92
       -2
340
14
 93
        0
 40
1.125
309
GRIDFORMAT_END
 95
        2
302
GRIDFORMAT
  1
GRIDFORMAT_BEGIN
 90
        0
 91
        1
 62
     0
 92
       -2
340
14
 93
        0
 40
1.125
309
GRIDFORMAT_END
 95
        4
302
GRIDFORMAT
  1
GRIDFORMAT_BEGIN
 90
        0
 91
        1
 62
     0
 92
       -2
340
14
 93
        0
 40
1.125
309
GRIDFORMAT_END
 95
        8
302
GRIDFORMAT
  1
GRIDFORMAT_BEGIN
 90
        0
 91
        1
 62
     0
 92
       -2
340
14
 93
        0
 40
1.125
309
GRIDFORMAT_END
 95
       16
302
GRIDFORMAT
  1
GRIDFORMAT_BEGIN
 90
        0
 91
        1
 62
     0
 92
       -2
340
14
 93
        0
 40
1.125
309
GRIDFORMAT_END
 95
       32
302
GRIDFORMAT
  1
GRIDFORMAT_BEGIN
 90
        0
 91
        1
 62
     0
 92
       -2
340
14
 93
        0
 40
1.125
309
GRIDFORMAT_END
309
TABLEFORMAT_END
  1
CELLSTYLE_BEGIN
 90
        3
 91
        2
300
_DATA
309
CELLSTYLE_END
  0
XRECORD
  5
43F
102
{ACAD_REACTORS
330
162
102
}
330
162
100
AcDbXrecord
280
     1
102
ACAD_ROUNDTRIP_PRE2007_TABLESTYLE
 90
      512
 91
        0
  1

 92
      512
 93
        0
  2

 94
      512
 95
        0
  3

  0
ENDSEC
  0
EOF
