  0
SECTION
  2
HEADER
  9
$ACADVER
  1
AC1018
  9
$ACADMAINTVER
 70
    77
  9
$DWGCODEPAGE
  3
ANSI_936
  9
$INSBASE
 10
0.0
 20
0.0
 30
0.0
  9
$EXTMIN
 10
1019.26482834089
 20
2531.77234780272
 30
0.0
  9
$EXTMAX
 10
1199.26482834089
 20
2711.77234896745
 30
0.0
  9
$LIMMIN
 10
0.0
 20
0.0
  9
$LIMMAX
 10
420.0
 20
297.0
  9
$ORTHOMODE
 70
     0
  9
$REGENMODE
 70
     1
  9
$FILLMODE
 70
     1
  9
$QTEXTMODE
 70
     0
  9
$MIRRTEXT
 70
     0
  9
$LTSCALE
 40
1.0
  9
$ATTMODE
 70
     1
  9
$TEXTSIZE
 40
2.5
  9
$TRACEWID
 40
1.0
  9
$TEXTSTYLE
  7
STANDARD
  9
$CLAYER
  8
0
  9
$CELTYPE
  6
ByLayer
  9
$CECOLOR
 62
   256
  9
$CELTSCALE
 40
1.0
  9
$DISPSILH
 70
     0
  9
$DIMSCALE
 40
1.0
  9
$DIMASZ
 40
2.5
  9
$DIMEXO
 40
0.625
  9
$DIMDLI
 40
3.75
  9
$DIMRND
 40
0.0
  9
$DIMDLE
 40
0.0
  9
$DIMEXE
 40
1.25
  9
$DIMTP
 40
0.0
  9
$DIMTM
 40
0.0
  9
$DIMTXT
 40
2.5
  9
$DIMCEN
 40
2.5
  9
$DIMTSZ
 40
0.0
  9
$DIMTOL
 70
     0
  9
$DIMLIM
 70
     0
  9
$DIMTIH
 70
     0
  9
$DIMTOH
 70
     0
  9
$DIMSE1
 70
     0
  9
$DIMSE2
 70
     0
  9
$DIMTAD
 70
     1
  9
$DIMZIN
 70
     8
  9
$DIMBLK
  1

  9
$DIMASO
 70
     1
  9
$DIMSHO
 70
     1
  9
$DIMPOST
  1

  9
$DIMAPOST
  1

  9
$DIMALT
 70
     0
  9
$DIMALTD
 70
     3
  9
$DIMALTF
 40
0.03937007874016
  9
$DIMLFAC
 40
1.0
  9
$DIMTOFL
 70
     1
  9
$DIMTVP
 40
0.0
  9
$DIMTIX
 70
     0
  9
$DIMSOXD
 70
     0
  9
$DIMSAH
 70
     0
  9
$DIMBLK1
  1

  9
$DIMBLK2
  1

  9
$DIMSTYLE
  2
ISO-25
  9
$DIMCLRD
 70
     0
  9
$DIMCLRE
 70
     0
  9
$DIMCLRT
 70
     0
  9
$DIMTFAC
 40
1.0
  9
$DIMGAP
 40
0.625
  9
$DIMJUST
 70
     0
  9
$DIMSD1
 70
     0
  9
$DIMSD2
 70
     0
  9
$DIMTOLJ
 70
     1
  9
$DIMTZIN
 70
     0
  9
$DIMALTZ
 70
     0
  9
$DIMALTTZ
 70
     0
  9
$DIMUPT
 70
     0
  9
$DIMDEC
 70
     4
  9
$DIMTDEC
 70
     4
  9
$DIMALTU
 70
     2
  9
$DIMALTTD
 70
     2
  9
$DIMTXSTY
  7
STANDARD
  9
$DIMAUNIT
 70
     0
  9
$DIMADEC
 70
     0
  9
$DIMALTRND
 40
0.0
  9
$DIMAZIN
 70
     0
  9
$DIMDSEP
 70
    46
  9
$DIMATFIT
 70
     3
  9
$DIMFRAC
 70
     0
  9
$DIMLDRBLK
  1

  9
$DIMLUNIT
 70
     2
  9
$DIMLWD
 70
    -2
  9
$DIMLWE
 70
    -2
  9
$DIMTMOVE
 70
     0
  9
$LUNITS
 70
     2
  9
$LUPREC
 70
     4
  9
$SKETCHINC
 40
1.0
  9
$FILLETRAD
 40
0.0
  9
$AUNITS
 70
     0
  9
$AUPREC
 70
     0
  9
$MENU
  1
.
  9
$ELEVATION
 40
0.0
  9
$PELEVATION
 40
0.0
  9
$THICKNESS
 40
0.0
  9
$LIMCHECK
 70
     0
  9
$CHAMFERA
 40
0.0
  9
$CHAMFERB
 40
0.0
  9
$CHAMFERC
 40
0.0
  9
$CHAMFERD
 40
0.0
  9
$SKPOLY
 70
     0
  9
$TDCREATE
 40
2456997.676706910
  9
$TDUCREATE
 40
2456997.343373576
  9
$TDUPDATE
 40
2456997.680113438
  9
$TDUUPDATE
 40
2456997.346780104
  9
$TDINDWG
 40
0.0010312963
  9
$TDUSRTIMER
 40
0.0010311806
  9
$USRTIMER
 70
     1
  9
$ANGBASE
 50
0.0
  9
$ANGDIR
 70
     0
  9
$PDMODE
 70
     0
  9
$PDSIZE
 40
0.0
  9
$PLINEWID
 40
0.0
  9
$SPLFRAME
 70
     0
  9
$SPLINETYPE
 70
     6
  9
$SPLINESEGS
 70
     8
  9
$HANDSEED
  5
061E
  9
$SURFTAB1
 70
     6
  9
$SURFTAB2
 70
     6
  9
$SURFTYPE
 70
     6
  9
$SURFU
 70
     6
  9
$SURFV
 70
     6
  9
$UCSBASE
  2

  9
$UCSNAME
  2

  9
$UCSORG
 10
0.0
 20
0.0
 30
0.0
  9
$UCSXDIR
 10
1.0
 20
0.0
 30
0.0
  9
$UCSYDIR
 10
0.0
 20
1.0
 30
0.0
  9
$UCSORTHOREF
  2

  9
$UCSORTHOVIEW
 70
     0
  9
$UCSORGTOP
 10
0.0
 20
0.0
 30
0.0
  9
$UCSORGBOTTOM
 10
0.0
 20
0.0
 30
0.0
  9
$UCSORGLEFT
 10
0.0
 20
0.0
 30
0.0
  9
$UCSORGRIGHT
 10
0.0
 20
0.0
 30
0.0
  9
$UCSORGFRONT
 10
0.0
 20
0.0
 30
0.0
  9
$UCSORGBACK
 10
0.0
 20
0.0
 30
0.0
  9
$PUCSBASE
  2

  9
$PUCSNAME
  2

  9
$PUCSORG
 10
0.0
 20
0.0
 30
0.0
  9
$PUCSXDIR
 10
1.0
 20
0.0
 30
0.0
  9
$PUCSYDIR
 10
0.0
 20
1.0
 30
0.0
  9
$PUCSORTHOREF
  2

  9
$PUCSORTHOVIEW
 70
     0
  9
$PUCSORGTOP
 10
0.0
 20
0.0
 30
0.0
  9
$PUCSORGBOTTOM
 10
0.0
 20
0.0
 30
0.0
  9
$PUCSORGLEFT
 10
0.0
 20
0.0
 30
0.0
  9
$PUCSORGRIGHT
 10
0.0
 20
0.0
 30
0.0
  9
$PUCSORGFRONT
 10
0.0
 20
0.0
 30
0.0
  9
$PUCSORGBACK
 10
0.0
 20
0.0
 30
0.0
  9
$USERI1
 70
     0
  9
$USERI2
 70
     0
  9
$USERI3
 70
     0
  9
$USERI4
 70
     0
  9
$USERI5
 70
     0
  9
$USERR1
 40
0.0
  9
$USERR2
 40
0.0
  9
$USERR3
 40
0.0
  9
$USERR4
 40
0.0
  9
$USERR5
 40
0.0
  9
$WORLDVIEW
 70
     1
  9
$SHADEDGE
 70
     3
  9
$SHADEDIF
 70
    70
  9
$TILEMODE
 70
     1
  9
$MAXACTVP
 70
    64
  9
$PINSBASE
 10
0.0
 20
0.0
 30
0.0
  9
$PLIMCHECK
 70
     0
  9
$PEXTMIN
 10
0.0
 20
0.0
 30
0.0
  9
$PEXTMAX
 10
0.0
 20
0.0
 30
0.0
  9
$PLIMMIN
 10
0.0
 20
0.0
  9
$PLIMMAX
 10
12.0
 20
9.0
  9
$UNITMODE
 70
     0
  9
$VISRETAIN
 70
     1
  9
$PLINEGEN
 70
     0
  9
$PSLTSCALE
 70
     1
  9
$TREEDEPTH
 70
  3020
  9
$CMLSTYLE
  2
Standard
  9
$CMLJUST
 70
     0
  9
$CMLSCALE
 40
1.0
  9
$PROXYGRAPHICS
 70
     1
  9
$MEASUREMENT
 70
     1
  9
$CELWEIGHT
370
    -1
  9
$ENDCAPS
280
     0
  9
$JOINSTYLE
280
     0
  9
$LWDISPLAY
290
     0
  9
$INSUNITS
 70
     0
  9
$HYPERLINKBASE
  1

  9
$STYLESHEET
  1

  9
$XEDIT
290
     1
  9
$CEPSNTYPE
380
     0
  9
$PSTYLEMODE
290
     1
  9
$FINGERPRINTGUID
  2
{1F2D6530-6BF2-4D5E-922F-A9C54F637010}
  9
$VERSIONGUID
  2
{15AD9CB5-51D1-451C-B472-5DB36EFAD6AD}
  9
$EXTNAMES
290
     1
  9
$PSVPSCALE
 40
0.0
  9
$OLESTARTUP
290
     0
  9
$SORTENTS
280
   127
  9
$INDEXCTL
280
     0
  9
$HIDETEXT
280
     0
  9
$XCLIPFRAME
290
     0
  9
$HALOGAP
280
     0
  9
$OBSCOLOR
 70
   257
  9
$OBSLTYPE
280
     0
  9
$INTERSECTIONDISPLAY
280
     0
  9
$INTERSECTIONCOLOR
 70
   257
  9
$DIMASSOC
280
     1
  9
$PROJECTNAME
  1

  0
ENDSEC
  0
SECTION
  2
CLASSES
  0
CLASS
  1
ACDBDICTIONARYWDFLT
  2
AcDbDictionaryWithDefault
  3
ObjectDBX Classes
 90
        0
 91
        1
280
     0
281
     0
  0
CLASS
  1
TABLESTYLE
  2
AcDbTableStyle
  3
ObjectDBX Classes
 90
     2047
 91
        1
280
     0
281
     0
  0
CLASS
  1
DICTIONARYVAR
  2
AcDbDictionaryVar
  3
ObjectDBX Classes
 90
        0
 91
        1
280
     0
281
     0
  0
ENDSEC
  0
SECTION
  2
TABLES
  0
TABLE
  2
VPORT
  5
10D
330
0
100
AcDbSymbolTable
 70
     2
  0
VPORT
  5
137
330
10D
100
AcDbSymbolTableRecord
100
AcDbViewportTableRecord
  2
*Active
 70
     0
 10
0.0
 20
0.0
 11
1.0
 21
1.0
 12
1109.26482834089
 22
2621.77234838508
 13
0.0
 23
0.0
 14
10.0
 24
10.0
 15
10.0
 25
10.0
 16
0.0
 26
0.0
 36
1.0
 17
0.0
 27
0.0
 37
0.0
 40
551.708552688342
 41
2.435135135135135
 42
50.0
 43
0.0
 44
0.0
 50
0.0
 51
0.0
 71
     0
 72
  1000
 73
     1
 74
     3
 75
     0
 76
     0
 77
     0
 78
     0
281
     0
 65
     1
110
0.0
120
0.0
130
0.0
111
1.0
121
0.0
131
0.0
112
0.0
122
1.0
132
0.0
 79
     0
146
0.0
  0
ENDTAB
  0
TABLE
  2
LTYPE
  5
10A
330
0
100
AcDbSymbolTable
 70
     1
  0
LTYPE
  5
118
330
10A
100
AcDbSymbolTableRecord
100
AcDbLinetypeTableRecord
  2
ByBlock
 70
     0
  3

 72
    65
 73
     0
 40
0.0
  0
LTYPE
  5
119
330
10A
100
AcDbSymbolTableRecord
100
AcDbLinetypeTableRecord
  2
ByLayer
 70
     0
  3

 72
    65
 73
     0
 40
0.0
  0
LTYPE
  5
11A
330
10A
100
AcDbSymbolTableRecord
100
AcDbLinetypeTableRecord
  2
CONTINUOUS
 70
     0
  3
Solid line
 72
    65
 73
     0
 40
0.0
  0
ENDTAB
  0
TABLE
  2
LAYER
  5
107
330
0
100
AcDbSymbolTable
 70
     1
  0
LAYER
  5
115
330
107
100
AcDbSymbolTableRecord
100
AcDbLayerTableRecord
  2
0
 70
     0
 62
     7
  6
CONTINUOUS
370
    -3
390
114
  0
ENDTAB
  0
TABLE
  2
STYLE
  5
108
330
0
100
AcDbSymbolTable
 70
     1
  0
STYLE
  5
116
330
108
100
AcDbSymbolTableRecord
100
AcDbTextStyleTableRecord
  2
STANDARD
 70
     0
 40
0.0
 41
1.0
 50
0.0
 71
     0
 42
2.5
  3
txt
  4
gbcbig.shx
  0
ENDTAB
  0
TABLE
  2
VIEW
  5
10B
330
0
100
AcDbSymbolTable
 70
     0
  0
ENDTAB
  0
TABLE
  2
UCS
  5
10C
330
0
100
AcDbSymbolTable
 70
     0
  0
ENDTAB
  0
TABLE
  2
APPID
  5
10E
330
0
100
AcDbSymbolTable
 70
     2
  0
APPID
  5
117
330
10E
100
AcDbSymbolTableRecord
100
AcDbRegAppTableRecord
  2
ACAD
 70
     0
  0
APPID
  5
12C
330
10E
100
AcDbSymbolTableRecord
100
AcDbRegAppTableRecord
  2
ACAD_PSEXT
 70
     0
  0
APPID
  5
112C
330
10E
100
AcDbSymbolTableRecord
100
AcDbRegAppTableRecord
  2
FS_CYPCUT
 70
     0
  0
ENDTAB
  0
TABLE
  2
DIMSTYLE
  5
10F
330
0
100
AcDbSymbolTable
 70
     1
100
AcDbDimStyleTable
 71
     0
  0
DIMSTYLE
105
12D
330
10F
100
AcDbSymbolTableRecord
100
AcDbDimStyleTableRecord
  2
ISO-25
 70
     0
 41
2.5
 42
0.625
 43
3.75
 44
1.25
 73
     0
 74
     0
 77
     1
 78
     8
140
2.5
141
2.5
143
0.03937007874016
147
0.625
171
     3
172
     1
274
     3
279
     2
284
     8
285
     8
286
     8
340
116
  0
ENDTAB
  0
TABLE
  2
BLOCK_RECORD
  5
106
330
0
100
AcDbSymbolTable
 70
     2
  0
BLOCK_RECORD
  5
127
330
106
100
AcDbSymbolTableRecord
100
AcDbBlockTableRecord
  2
*Model_Space
340
12A
  0
BLOCK_RECORD
  5
123
330
106
100
AcDbSymbolTableRecord
100
AcDbBlockTableRecord
  2
*Paper_Space
340
126
  0
BLOCK_RECORD
  5
130
330
106
100
AcDbSymbolTableRecord
100
AcDbBlockTableRecord
  2
$MODEL_SPACE
340
0
  0
BLOCK_RECORD
  5
132
330
106
100
AcDbSymbolTableRecord
100
AcDbBlockTableRecord
  2
$PAPER_SPACE
340
0
  0
ENDTAB
  0
ENDSEC
  0
SECTION
  2
BLOCKS
  0
BLOCK
  5
128
330
127
100
AcDbEntity
  8
0
100
AcDbBlockBegin
  2
*Model_Space
 70
     0
 10
0.0
 20
0.0
 30
0.0
  3
*Model_Space
  1

  0
ENDBLK
  5
129
330
127
100
AcDbEntity
  8
0
100
AcDbBlockEnd
  0
BLOCK
  5
124
330
123
100
AcDbEntity
 67
     1
  8
0
100
AcDbBlockBegin
  2
*Paper_Space
 70
     0
 10
0.0
 20
0.0
 30
0.0
  3
*Paper_Space
  1

  0
ENDBLK
  5
125
330
123
100
AcDbEntity
 67
     1
  8
0
100
AcDbBlockEnd
  0
BLOCK
  5
131
330
130
100
AcDbEntity
  8
0
100
AcDbBlockBegin
  2
$MODEL_SPACE
 70
     0
 10
0.0
 20
0.0
 30
0.0
  3
$MODEL_SPACE
  1

  0
ENDBLK
  5
21
330
130
100
AcDbEntity
  8
0
100
AcDbBlockEnd
  0
BLOCK
  5
133
330
132
100
AcDbEntity
  8
0
100
AcDbBlockBegin
  2
$PAPER_SPACE
 70
     0
 10
0.0
 20
0.0
 30
0.0
  3
$PAPER_SPACE
  1

  0
ENDBLK
  5
D5
330
132
100
AcDbEntity
  8
0
100
AcDbBlockEnd
       0
ENDSEC
       0
SECTION
       2
ENTITIES
       0
CIRCLE
       5
2000
     100
AcDbEntity
       8
0
     100
AcDbCircle
      10
1029.6014223895
      20
2541.99471998215
      30
0
      40
4.55405620686929
    1001
FS_CYPCUT
    1000
Channel
    1070
0
    1000
LeadIn
    1002
{
    1070
0
    1040
0
    1040
1.570796
    1040
0
    1040
0
    1070
0
    1040
0
    1070
0
    1002
}
    1000
LeadOut
    1002
{
    1070
0
    1040
0
    1040
0
    1040
0
    1070
0
    1002
}
    1000
IsFill
    1070
0
    1000
PathStart
    1040
0
    1000
ToolCompensation
    1002
{
    1070
0
    1040
0
    1070
0
    1002
}
       0
CIRCLE
       5
2001
     100
AcDbEntity
       8
0
     100
AcDbCircle
      10
1109.26309230638
      20
2541.99471998215
      30
0
      40
4.55405620686929
    1001
FS_CYPCUT
    1000
Channel
    1070
0
    1000
LeadIn
    1002
{
    1070
0
    1040
0
    1040
1.570796
    1040
0
    1040
0
    1070
0
    1040
0
    1070
0
    1002
}
    1000
LeadOut
    1002
{
    1070
0
    1040
0
    1040
0
    1040
0
    1070
0
    1002
}
    1000
IsFill
    1070
0
    1000
PathStart
    1040
0
    1000
ToolCompensation
    1002
{
    1070
0
    1040
0
    1070
0
    1002
}
       0
CIRCLE
       5
2002
     100
AcDbEntity
       8
0
     100
AcDbCircle
      10
1188.98804798975
      20
2541.99471998215
      30
0
      40
4.55405620686929
    1001
FS_CYPCUT
    1000
Channel
    1070
0
    1000
LeadIn
    1002
{
    1070
0
    1040
0
    1040
1.570796
    1040
0
    1040
0
    1070
0
    1040
0
    1070
0
    1002
}
    1000
LeadOut
    1002
{
    1070
0
    1040
0
    1040
0
    1040
0
    1070
0
    1002
}
    1000
IsFill
    1070
0
    1000
PathStart
    1040
0
    1000
ToolCompensation
    1002
{
    1070
0
    1040
0
    1070
0
    1002
}
       0
SPLINE
       5
2003
     100
AcDbEntity
       8
0
     100
AcDbSpline
      70
0
      71
3
      72
92
      73
88
      74
0
      40
0
      40
0
      40
0
      40
0
      40
0.0454545454545455
      40
0.0454545454545455
      40
0.0454545454545455
      40
0.0454545454545455
      40
0.0909090909090909
      40
0.0909090909090909
      40
0.0909090909090909
      40
0.0909090909090909
      40
0.136363636363636
      40
0.136363636363636
      40
0.136363636363636
      40
0.136363636363636
      40
0.181818181818182
      40
0.181818181818182
      40
0.181818181818182
      40
0.181818181818182
      40
0.227272727272727
      40
0.227272727272727
      40
0.227272727272727
      40
0.227272727272727
      40
0.272727272727273
      40
0.272727272727273
      40
0.272727272727273
      40
0.272727272727273
      40
0.318181818181818
      40
0.318181818181818
      40
0.318181818181818
      40
0.318181818181818
      40
0.363636363636364
      40
0.363636363636364
      40
0.363636363636364
      40
0.363636363636364
      40
0.409090909090909
      40
0.409090909090909
      40
0.409090909090909
      40
0.409090909090909
      40
0.454545454545455
      40
0.454545454545455
      40
0.454545454545455
      40
0.454545454545455
      40
0.5
      40
0.5
      40
0.5
      40
0.5
      40
0.545454545454545
      40
0.545454545454545
      40
0.545454545454545
      40
0.545454545454545
      40
0.590909090909091
      40
0.590909090909091
      40
0.590909090909091
      40
0.590909090909091
      40
0.636363636363636
      40
0.636363636363636
      40
0.636363636363636
      40
0.636363636363636
      40
0.681818181818182
      40
0.681818181818182
      40
0.681818181818182
      40
0.681818181818182
      40
0.727272727272727
      40
0.727272727272727
      40
0.727272727272727
      40
0.727272727272727
      40
0.772727272727273
      40
0.772727272727273
      40
0.772727272727273
      40
0.772727272727273
      40
0.818181818181818
      40
0.818181818181818
      40
0.818181818181818
      40
0.818181818181818
      40
0.863636363636364
      40
0.863636363636364
      40
0.863636363636364
      40
0.863636363636364
      40
0.909090909090909
      40
0.909090909090909
      40
0.909090909090909
      40
0.909090909090909
      40
0.954545454545455
      40
0.954545454545455
      40
0.954545454545455
      40
0.954545454545455
      40
1
      40
1
      40
1
      40
1
      10
1181.89170498536
      20
2542.06338099134
      30
0
      10
1160.02652333254
      20
2542.06338099134
      30
0
      10
1138.16134167971
      20
2542.06338099134
      30
0
      10
1116.29616119162
      20
2542.06338099134
      30
0
      10
1116.29616119162
      20
2542.06338099134
      30
0
      10
1116.25889439519
      20
2545.91757560148
      30
0
      10
1113.12609346259
      20
2549.03123298282
      30
0
      10
1109.26309813005
      20
2549.03123298282
      30
0
      10
1109.26309813005
      20
2549.03123298282
      30
0
      10
1105.40010163277
      20
2549.03123298282
      30
0
      10
1102.26730186491
      20
2545.91757560148
      30
0
      10
1102.23003506847
      20
2542.06338099134
      30
0
      10
1102.23003506847
      20
2542.06338099134
      30
0
      10
1080.36485341565
      20
2542.06338099134
      30
0
      10
1058.49967292756
      20
2542.06338099134
      30
0
      10
1036.63449127474
      20
2542.06338099134
      30
0
      10
1036.63449127474
      20
2542.06338099134
      30
0
      10
1036.5972244783
      20
2545.91757560148
      30
0
      10
1033.46442471044
      20
2549.03123298282
      30
0
      10
1029.60142821316
      20
2549.03123298282
      30
0
      10
1029.60142821316
      20
2549.03123298282
      30
0
      10
1029.58605490256
      20
2549.03123298282
      30
0
      10
1029.57123367538
      20
2549.02903163748
      30
0
      10
1029.55586036478
      20
2549.02892681151
      30
0
      10
1029.55586036478
      20
2549.02892681151
      30
0
      10
1029.55586036478
      20
2597.49185878647
      30
0
      10
1029.55586036478
      20
2645.95477911409
      30
0
      10
1029.55586036478
      20
2694.41771108905
      30
0
      10
1029.55586036478
      20
2694.41771108905
      30
0
      10
1029.57123367538
      20
2694.41760626308
      30
0
      10
1029.58605490256
      20
2694.41540491775
      30
0
      10
1029.60142821316
      20
2694.41540491775
      30
0
      10
1029.60142821316
      20
2694.41540491775
      30
0
      10
1033.48759707308
      20
2694.41540491775
      30
0
      10
1036.63795286115
      20
2697.56575138796
      30
0
      10
1036.63795286115
      20
2701.45192956574
      30
0
      10
1036.63795286115
      20
2701.45192956574
      30
0
      10
1036.63795286115
      20
2701.46185309073
      30
0
      10
1036.63652256905
      20
2701.4714155485
      30
0
      10
1036.63647248554
      20
2701.48131577883
      30
0
      10
1036.63647248554
      20
2701.48131577883
      30
0
      10
1058.50033333116
      20
2701.48131577883
      30
0
      10
1080.36419301205
      20
2701.48131577883
      30
0
      10
1102.22805385767
      20
2701.48131577883
      30
0
      10
1102.22805385767
      20
2701.48131577883
      30
0
      10
1102.22800377416
      20
2701.4714155485
      30
0
      10
1102.22657348206
      20
2701.46185309073
      30
0
      10
1102.22657348206
      20
2701.45192956574
      30
0
      10
1102.22657348206
      20
2701.45192956574
      30
0
      10
1102.22657348206
      20
2697.56575138796
      30
0
      10
1105.37692927013
      20
2694.41540491775
      30
0
      10
1109.26309813005
      20
2694.41540491775
      30
0
      10
1109.26309813005
      20
2694.41540491775
      30
0
      10
1113.14926698997
      20
2694.41540491775
      30
0
      10
1116.29962161331
      20
2697.56575138796
      30
0
      10
1116.29962161331
      20
2701.45192956574
      30
0
      10
1116.29962161331
      20
2701.45192956574
      30
0
      10
1116.29962161331
      20
2701.46185309073
      30
0
      10
1116.29819248594
      20
2701.4714155485
      30
0
      10
1116.29814240242
      20
2701.48131577883
      30
0
      10
1116.29814240242
      20
2701.48131577883
      30
0
      10
1138.16200208331
      20
2701.48131577883
      30
0
      10
1160.02586292894
      20
2701.48131577883
      30
0
      10
1181.88972377456
      20
2701.48131577883
      30
0
      10
1181.88972377456
      20
2701.48131577883
      30
0
      10
1181.88967252631
      20
2701.4714155485
      30
0
      10
1181.88824339894
      20
2701.46185309073
      30
0
      10
1181.88824339894
      20
2701.45192956574
      30
0
      10
1181.88824339894
      20
2701.45192956574
      30
0
      10
1181.88824339894
      20
2697.56575138796
      30
0
      10
1185.03859918701
      20
2694.41540491775
      30
0
      10
1188.92476804693
      20
2694.41540491775
      30
0
      10
1188.92476804693
      20
2694.41540491775
      30
0
      10
1188.94132006732
      20
2694.41540491775
      30
0
      10
1188.95726992075
      20
2694.41775767837
      30
0
      10
1188.973796317
      20
2694.417885799
      30
0
      10
1188.973796317
      20
2694.417885799
      30
0
      10
1188.973796317
      20
2645.95483735074
      30
0
      10
1188.973796317
      20
2597.49180054982
      30
0
      10
1188.973796317
      20
2549.02875210157
      30
0
      10
1188.973796317
      20
2549.02875210157
      30
0
      10
1188.95726992075
      20
2549.0288802222
      30
0
      10
1188.94132006732
      20
2549.03123298282
      30
0
      10
1188.92476804693
      20
2549.03123298282
      30
0
      10
1188.92476804693
      20
2549.03123298282
      30
0
      10
1185.06177154966
      20
2549.03123298282
      30
0
      10
1181.92897178179
      20
2545.91757560148
      30
0
      10
1181.89170498536
      20
2542.06338099134
      30
0
    1001
FS_CYPCUT
    1000
Channel
    1070
0
    1000
LeadIn
    1002
{
    1070
0
    1040
0
    1040
0
    1040
0
    1040
0
    1070
0
    1040
0
    1070
0
    1002
}
    1000
LeadOut
    1002
{
    1070
0
    1040
0
    1040
0
    1040
0
    1070
0
    1002
}
    1000
IsFill
    1070
0
    1000
PathStart
    1040
0
    1000
ToolCompensation
    1002
{
    1070
0
    1040
0
    1070
0
    1002
}
       0
CIRCLE
       5
2004
     100
AcDbEntity
       8
0
     100
AcDbCircle
      10
1188.98804798975
      20
2701.45192956574
      30
0
      40
4.55404367434267
    1001
FS_CYPCUT
    1000
Channel
    1070
0
    1000
LeadIn
    1002
{
    1070
0
    1040
0
    1040
1.570796
    1040
0
    1040
0
    1070
0
    1040
0
    1070
0
    1002
}
    1000
LeadOut
    1002
{
    1070
0
    1040
0
    1040
0
    1040
0
    1070
0
    1002
}
    1000
IsFill
    1070
0
    1000
PathStart
    1040
0
    1000
ToolCompensation
    1002
{
    1070
0
    1040
0
    1070
0
    1002
}
       0
CIRCLE
       5
2005
     100
AcDbEntity
       8
0
     100
AcDbCircle
      10
1109.26309230638
      20
2701.45192956574
      30
0
      40
4.55404367434267
    1001
FS_CYPCUT
    1000
Channel
    1070
0
    1000
LeadIn
    1002
{
    1070
0
    1040
0
    1040
1.570796
    1040
0
    1040
0
    1070
0
    1040
0
    1070
0
    1002
}
    1000
LeadOut
    1002
{
    1070
0
    1040
0
    1040
0
    1040
0
    1070
0
    1002
}
    1000
IsFill
    1070
0
    1000
PathStart
    1040
0
    1000
ToolCompensation
    1002
{
    1070
0
    1040
0
    1070
0
    1002
}
       0
CIRCLE
       5
2006
     100
AcDbEntity
       8
0
     100
AcDbCircle
      10
1029.6014223895
      20
2701.45192956574
      30
0
      40
4.55404367434267
    1001
FS_CYPCUT
    1000
Channel
    1070
0
    1000
LeadIn
    1002
{
    1070
0
    1040
0
    1040
1.570796
    1040
0
    1040
0
    1070
0
    1040
0
    1070
0
    1002
}
    1000
LeadOut
    1002
{
    1070
0
    1040
0
    1040
0
    1040
0
    1070
0
    1002
}
    1000
IsFill
    1070
0
    1000
PathStart
    1040
0
    1000
ToolCompensation
    1002
{
    1070
0
    1040
0
    1070
0
    1002
}
       0
LWPOLYLINE
       5
2007
     100
AcDbEntity
       8
0
     100
AcDbPolyline
      90
4
      70
1
      10
1019.26482834089
      20
2711.77234896745
      42
0
      10
1019.26482834089
      20
2531.77234780272
      42
0
      10
1199.26482834089
      20
2531.77234780272
      42
0
      10
1199.26482834089
      20
2711.77234896745
      42
0
    1001
FS_CYPCUT
    1000
Channel
    1070
0
    1000
LeadIn
    1002
{
    1070
0
    1040
0
    1040
0
    1040
0
    1040
0
    1070
0
    1040
0
    1070
0
    1002
}
    1000
LeadOut
    1002
{
    1070
0
    1040
0
    1040
0
    1040
0
    1070
0
    1002
}
    1000
IsFill
    1070
1
    1000
PathStart
    1040
0
    1000
ToolCompensation
    1002
{
    1070
0
    1040
0
    1070
0
    1002
}
       0
LWPOLYLINE
       5
2008
     100
AcDbEntity
       8
0
     100
AcDbPolyline
      90
6
      70
1
      10
1067.44870823242
      20
2561.62425884862
      42
0
      10
1061.74754923242
      20
2564.92730884862
      42
0
      10
1061.65707223242
      20
2572.57410884862
      42
0
      10
1066.93590623242
      20
2576.16372884862
      42
0
      10
1072.60689923242
      20
2572.70984884862
      42
0
      10
1072.81052623242
      20
2565.49290884862
      42
0
    1001
FS_CYPCUT
    1000
Channel
    1070
0
    1000
LeadIn
    1002
{
    1070
0
    1040
0
    1040
0
    1040
0
    1040
0
    1070
0
    1040
0
    1070
0
    1002
}
    1000
LeadOut
    1002
{
    1070
0
    1040
0
    1040
0
    1040
0
    1070
0
    1002
}
    1000
IsFill
    1070
0
    1000
PathStart
    1040
0
    1000
ToolCompensation
    1002
{
    1070
0
    1040
0
    1070
0
    1002
}
       0
SPLINE
       5
2009
     100
AcDbEntity
       8
0
     100
AcDbSpline
      70
0
      71
3
      72
252
      73
248
      74
0
      40
0
      40
0
      40
0
      40
0
      40
0.0161290322580645
      40
0.0161290322580645
      40
0.0161290322580645
      40
0.0161290322580645
      40
0.032258064516129
      40
0.032258064516129
      40
0.032258064516129
      40
0.032258064516129
      40
0.0483870967741935
      40
0.0483870967741935
      40
0.0483870967741935
      40
0.0483870967741935
      40
0.0645161290322581
      40
0.0645161290322581
      40
0.0645161290322581
      40
0.0645161290322581
      40
0.0806451612903226
      40
0.0806451612903226
      40
0.0806451612903226
      40
0.0806451612903226
      40
0.0967741935483871
      40
0.0967741935483871
      40
0.0967741935483871
      40
0.0967741935483871
      40
0.112903225806452
      40
0.112903225806452
      40
0.112903225806452
      40
0.112903225806452
      40
0.129032258064516
      40
0.129032258064516
      40
0.129032258064516
      40
0.129032258064516
      40
0.145161290322581
      40
0.145161290322581
      40
0.145161290322581
      40
0.145161290322581
      40
0.161290322580645
      40
0.161290322580645
      40
0.161290322580645
      40
0.161290322580645
      40
0.17741935483871
      40
0.17741935483871
      40
0.17741935483871
      40
0.17741935483871
      40
0.193548387096774
      40
0.193548387096774
      40
0.193548387096774
      40
0.193548387096774
      40
0.209677419354839
      40
0.209677419354839
      40
0.209677419354839
      40
0.209677419354839
      40
0.225806451612903
      40
0.225806451612903
      40
0.225806451612903
      40
0.225806451612903
      40
0.241935483870968
      40
0.241935483870968
      40
0.241935483870968
      40
0.241935483870968
      40
0.258064516129032
      40
0.258064516129032
      40
0.258064516129032
      40
0.258064516129032
      40
0.274193548387097
      40
0.274193548387097
      40
0.274193548387097
      40
0.274193548387097
      40
0.290322580645161
      40
0.290322580645161
      40
0.290322580645161
      40
0.290322580645161
      40
0.306451612903226
      40
0.306451612903226
      40
0.306451612903226
      40
0.306451612903226
      40
0.32258064516129
      40
0.32258064516129
      40
0.32258064516129
      40
0.32258064516129
      40
0.338709677419355
      40
0.338709677419355
      40
0.338709677419355
      40
0.338709677419355
      40
0.354838709677419
      40
0.354838709677419
      40
0.354838709677419
      40
0.354838709677419
      40
0.370967741935484
      40
0.370967741935484
      40
0.370967741935484
      40
0.370967741935484
      40
0.387096774193548
      40
0.387096774193548
      40
0.387096774193548
      40
0.387096774193548
      40
0.403225806451613
      40
0.403225806451613
      40
0.403225806451613
      40
0.403225806451613
      40
0.419354838709677
      40
0.419354838709677
      40
0.419354838709677
      40
0.419354838709677
      40
0.435483870967742
      40
0.435483870967742
      40
0.435483870967742
      40
0.435483870967742
      40
0.451612903225806
      40
0.451612903225806
      40
0.451612903225806
      40
0.451612903225806
      40
0.467741935483871
      40
0.467741935483871
      40
0.467741935483871
      40
0.467741935483871
      40
0.483870967741935
      40
0.483870967741935
      40
0.483870967741935
      40
0.483870967741935
      40
0.5
      40
0.5
      40
0.5
      40
0.5
      40
0.516129032258065
      40
0.516129032258065
      40
0.516129032258065
      40
0.516129032258065
      40
0.532258064516129
      40
0.532258064516129
      40
0.532258064516129
      40
0.532258064516129
      40
0.548387096774194
      40
0.548387096774194
      40
0.548387096774194
      40
0.548387096774194
      40
0.564516129032258
      40
0.564516129032258
      40
0.564516129032258
      40
0.564516129032258
      40
0.580645161290323
      40
0.580645161290323
      40
0.580645161290323
      40
0.580645161290323
      40
0.596774193548387
      40
0.596774193548387
      40
0.596774193548387
      40
0.596774193548387
      40
0.612903225806452
      40
0.612903225806452
      40
0.612903225806452
      40
0.612903225806452
      40
0.629032258064516
      40
0.629032258064516
      40
0.629032258064516
      40
0.629032258064516
      40
0.645161290322581
      40
0.645161290322581
      40
0.645161290322581
      40
0.645161290322581
      40
0.661290322580645
      40
0.661290322580645
      40
0.661290322580645
      40
0.661290322580645
      40
0.67741935483871
      40
0.67741935483871
      40
0.67741935483871
      40
0.67741935483871
      40
0.693548387096774
      40
0.693548387096774
      40
0.693548387096774
      40
0.693548387096774
      40
0.709677419354839
      40
0.709677419354839
      40
0.709677419354839
      40
0.709677419354839
      40
0.725806451612903
      40
0.725806451612903
      40
0.725806451612903
      40
0.725806451612903
      40
0.741935483870968
      40
0.741935483870968
      40
0.741935483870968
      40
0.741935483870968
      40
0.758064516129032
      40
0.758064516129032
      40
0.758064516129032
      40
0.758064516129032
      40
0.774193548387097
      40
0.774193548387097
      40
0.774193548387097
      40
0.774193548387097
      40
0.790322580645161
      40
0.790322580645161
      40
0.790322580645161
      40
0.790322580645161
      40
0.806451612903226
      40
0.806451612903226
      40
0.806451612903226
      40
0.806451612903226
      40
0.82258064516129
      40
0.82258064516129
      40
0.82258064516129
      40
0.82258064516129
      40
0.838709677419355
      40
0.838709677419355
      40
0.838709677419355
      40
0.838709677419355
      40
0.854838709677419
      40
0.854838709677419
      40
0.854838709677419
      40
0.854838709677419
      40
0.870967741935484
      40
0.870967741935484
      40
0.870967741935484
      40
0.870967741935484
      40
0.887096774193548
      40
0.887096774193548
      40
0.887096774193548
      40
0.887096774193548
      40
0.903225806451613
      40
0.903225806451613
      40
0.903225806451613
      40
0.903225806451613
      40
0.919354838709677
      40
0.919354838709677
      40
0.919354838709677
      40
0.919354838709677
      40
0.935483870967742
      40
0.935483870967742
      40
0.935483870967742
      40
0.935483870967742
      40
0.951612903225806
      40
0.951612903225806
      40
0.951612903225806
      40
0.951612903225806
      40
0.967741935483871
      40
0.967741935483871
      40
0.967741935483871
      40
0.967741935483871
      40
0.983870967741935
      40
0.983870967741935
      40
0.983870967741935
      40
0.983870967741935
      40
1
      40
1
      40
1
      40
1
      10
1093.14171423242
      20
2568.27612709152
      30
0
      10
1093.12410123242
      20
2568.47130709152
      30
0
      10
1093.06419923242
      20
2568.65831709152
      30
0
      10
1092.96571323242
      20
2568.82774709152
      30
0
      10
1092.96571323242
      20
2568.82774709152
      30
0
      10
1090.46591523242
      20
2573.12846709152
      30
0
      10
1087.96611823242
      20
2577.42918709152
      30
0
      10
1085.46632123242
      20
2581.72990709152
      30
0
      10
1085.46632123242
      20
2581.72990709152
      30
0
      10
1085.15337723242
      20
2582.26831709152
      30
0
      10
1084.50815423242
      20
2582.52208709152
      30
0
      10
1083.91428423242
      20
2582.33465709152
      30
0
      10
1083.91428423242
      20
2582.33465709152
      30
0
      10
1078.96187323242
      20
2580.77169709152
      30
0
      10
1076.04792523242
      20
2583.55826709152
      30
0
      10
1074.99404923242
      20
2584.87971709152
      30
0
      10
1074.99404923242
      20
2584.87971709152
      30
0
      10
1074.67854323242
      20
2585.27529709152
      30
0
      10
1074.16897023242
      20
2585.45347709152
      30
0
      10
1073.67287623242
      20
2585.35393709152
      30
0
      10
1073.67287623242
      20
2585.35393709152
      30
0
      10
1058.79794523242
      20
2582.36949709152
      30
0
      10
1051.83801223242
      20
2571.79631709152
      30
0
      10
1050.57230523242
      20
2569.66949709152
      30
0
      10
1050.57230523242
      20
2569.66949709152
      30
0
      10
1049.97992123242
      20
2568.65813709152
      30
0
      10
1049.22141923242
      20
2568.00036709152
      30
0
      10
1048.10210723242
      20
2568.00036709152
      30
0
      10
1048.10210723242
      20
2568.00036709152
      30
0
      10
1046.63070723242
      20
2568.00036709152
      30
0
      10
1045.43790723242
      20
2569.19316709152
      30
0
      10
1045.43790723242
      20
2570.66456709152
      30
0
      10
1045.43790723242
      20
2570.66456709152
      30
0
      10
1045.43790723242
      20
2571.29331709152
      30
0
      10
1046.01117123242
      20
2572.33291709152
      30
0
      10
1046.01117123242
      20
2572.33291709152
      30
0
      10
1046.01117123242
      20
2572.33291709152
      30
0
      10
1054.27113223242
      20
2586.84365709152
      30
0
      10
1067.74240323242
      20
2589.91672709152
      30
0
      10
1071.75051323242
      20
2590.52278709152
      30
0
      10
1071.75051323242
      20
2590.52278709152
      30
0
      10
1072.41505023242
      20
2590.62327709152
      30
0
      10
1072.89992623242
      20
2591.20476709152
      30
0
      10
1072.88683523242
      20
2591.87670709152
      30
0
      10
1072.88683523242
      20
2591.87670709152
      30
0
      10
1072.88683523242
      20
2591.87670709152
      30
0
      10
1072.88108623242
      20
2593.71983709152
      30
0
      10
1072.88108623242
      20
2594.98418709152
      30
0
      10
1072.88108623242
      20
2594.98418709152
      30
0
      10
1072.88108623242
      20
2596.21268709152
      30
0
      10
1072.47198123242
      20
2597.57872709152
      30
0
      10
1072.19609323242
      20
2598.08842709152
      30
0
      10
1072.19609323242
      20
2598.08842709152
      30
0
      10
1072.13016323242
      20
2598.21021709152
      30
0
      10
1072.00362023242
      20
2598.27713709152
      30
0
      10
1071.86685023242
      20
2598.29147709152
      30
0
      10
1071.86685023242
      20
2598.29147709152
      30
0
      10
1070.57854223242
      20
2598.35333709152
      30
0
      10
1069.29023423242
      20
2598.41519709152
      30
0
      10
1068.00192623242
      20
2598.47705709152
      30
0
      10
1068.00192623242
      20
2598.47705709152
      30
0
      10
1067.86896723242
      20
2598.48200709152
      30
0
      10
1067.74195123242
      20
2598.42367709152
      30
0
      10
1067.66193823242
      20
2598.31737709152
      30
0
      10
1067.66193823242
      20
2598.31737709152
      30
0
      10
1067.27102823242
      20
2597.79809709152
      30
0
      10
1066.79922223242
      20
2596.25113709152
      30
0
      10
1066.64867123242
      20
2595.92492709152
      30
0
      10
1066.64867123242
      20
2595.92492709152
      30
0
      10
1066.48892623242
      20
2595.57880709152
      30
0
      10
1066.17447523242
      20
2593.14996709152
      30
0
      10
1066.11847123242
      20
2592.71015709152
      30
0
      10
1066.11847123242
      20
2592.71015709152
      30
0
      10
1066.11668423242
      20
2592.69616709152
      30
0
      10
1066.12368223242
      20
2592.68509709152
      30
0
      10
1066.12988323242
      20
2592.67402709152
      30
0
      10
1066.12988323242
      20
2592.67402709152
      30
0
      10
1064.79144223242
      20
2592.54821709152
      30
0
      10
1062.68483023242
      20
2592.20773709152
      30
0
      10
1061.16791223242
      20
2591.88047709152
      30
0
      10
1061.16791223242
      20
2591.88047709152
      30
0
      10
1060.54288523242
      20
2591.74564709152
      30
0
      10
1059.91012923242
      20
2592.07068709152
      30
0
      10
1059.65906823242
      20
2592.65874709152
      30
0
      10
1059.65906823242
      20
2592.65874709152
      30
0
      10
1059.46506623242
      20
2593.11310709152
      30
0
      10
1059.22968023242
      20
2593.62194709152
      30
0
      10
1059.03085523242
      20
2594.00545709152
      30
0
      10
1059.03085523242
      20
2594.00545709152
      30
0
      10
1058.61759423242
      20
2594.80245709152
      30
0
      10
1056.96285023242
      20
2596.61976709152
      30
0
      10
1056.58819623242
      20
2596.59568709152
      30
0
      10
1056.58819623242
      20
2596.59568709152
      30
0
      10
1056.23401823242
      20
2596.57290709152
      30
0
      10
1053.14193723242
      20
2595.12715709152
      30
0
      10
1052.93529623242
      20
2594.97955709152
      30
0
      10
1052.93529623242
      20
2594.97955709152
      30
0
      10
1052.72867723242
      20
2594.83195709152
      30
0
      10
1052.68923023242
      20
2592.67435709152
      30
0
      10
1052.74342623242
      20
2592.14578709152
      30
0
      10
1052.74342623242
      20
2592.14578709152
      30
0
      10
1052.80246623242
      20
2591.57017709152
      30
0
      10
1053.43421123242
      20
2588.51659709152
      30
0
      10
1053.43421123242
      20
2588.51659709152
      30
0
      10
1053.43421123242
      20
2588.51659709152
      30
0
      10
1053.43421123242
      20
2588.51659709152
      30
0
      10
1053.46704723242
      20
2588.53054709152
      30
0
      10
1053.52391223242
      20
2588.55479709152
      30
0
      10
1053.52391223242
      20
2588.55479709152
      30
0
      10
1053.51906823242
      20
2588.55214709152
      30
0
      10
1053.51245823242
      20
2588.54859709152
      30
0
      10
1053.50769923242
      20
2588.54598709152
      30
0
      10
1053.50769923242
      20
2588.54598709152
      30
0
      10
1052.33175923242
      20
2587.89923709152
      30
0
      10
1049.98767323242
      20
2585.88559709152
      30
0
      10
1048.95100023242
      20
2585.04762709152
      30
0
      10
1048.95100023242
      20
2585.04762709152
      30
0
      10
1048.87934223242
      20
2584.98970709152
      30
0
      10
1048.79205223242
      20
2584.91048709152
      30
0
      10
1048.69726923242
      20
2584.82097709152
      30
0
      10
1048.69726923242
      20
2584.82097709152
      30
0
      10
1046.54970423242
      20
2587.26525709152
      30
0
      10
1044.71835623242
      20
2587.67515709152
      30
0
      10
1043.89999523242
      20
2587.72090709152
      30
0
      10
1043.89999523242
      20
2587.72090709152
      30
0
      10
1043.59508323242
      20
2587.73793709152
      30
0
      10
1043.29811523242
      20
2587.64251709152
      30
0
      10
1043.06570123242
      20
2587.44949709152
      30
0
      10
1043.06570123242
      20
2587.44949709152
      30
0
      10
1042.53933323242
      20
2587.01238709152
      30
0
      10
1041.98036623242
      20
2586.40429709152
      30
0
      10
1041.53045823242
      20
2585.84173709152
      30
0
      10
1041.53045823242
      20
2585.84173709152
      30
0
      10
1040.89862823242
      20
2585.05169709152
      30
0
      10
1040.75914523242
      20
2583.97369709152
      30
0
      10
1041.18330123242
      20
2583.05530709152
      30
0
      10
1041.18330123242
      20
2583.05530709152
      30
0
      10
1041.87210423242
      20
2581.56385709152
      30
0
      10
1042.70588223242
      20
2580.48170709152
      30
0
      10
1043.26482723242
      20
2579.85274709152
      30
0
      10
1043.26482723242
      20
2579.85274709152
      30
0
      10
1043.61616223242
      20
2579.45739709152
      30
0
      10
1043.69710123242
      20
2578.89381709152
      30
0
      10
1043.47562423242
      20
2578.41353709152
      30
0
      10
1043.47562423242
      20
2578.41353709152
      30
0
      10
1043.08305523242
      20
2577.56220709152
      30
0
      10
1042.52512223242
      20
2576.19226709152
      30
0
      10
1041.92795823242
      20
2574.66871709152
      30
0
      10
1041.92795823242
      20
2574.66871709152
      30
0
      10
1041.70531923242
      20
2574.10065709152
      30
0
      10
1041.12587523242
      20
2573.75623709152
      30
0
      10
1040.52020623242
      20
2573.82974709152
      30
0
      10
1040.52020623242
      20
2573.82974709152
      30
0
      10
1040.10533023242
      20
2573.88010709152
      30
0
      10
1039.66623123242
      20
2573.93105709152
      30
0
      10
1039.41312423242
      20
2573.95348709152
      30
0
      10
1039.41312423242
      20
2573.95348709152
      30
0
      10
1039.07268423242
      20
2573.98365709152
      30
0
      10
1035.66643223242
      20
2574.03733709152
      30
0
      10
1035.38832723242
      20
2574.00081709152
      30
0
      10
1035.38832723242
      20
2574.00081709152
      30
0
      10
1035.28568523242
      20
2573.98733709152
      30
0
      10
1035.17664723242
      20
2573.93316709152
      30
0
      10
1035.15184323242
      20
2573.82294709152
      30
0
      10
1035.15184323242
      20
2573.82294709152
      30
0
      10
1034.95075723242
      20
2572.92900709152
      30
0
      10
1034.10675123242
      20
2569.16646709152
      30
0
      10
1034.10675123242
      20
2568.98520709152
      30
0
      10
1034.10675123242
      20
2568.98520709152
      30
0
      10
1034.10675123242
      20
2568.77940709152
      30
0
      10
1035.07689023242
      20
2567.98565709152
      30
0
      10
1035.51786323242
      20
2567.60348709152
      30
0
      10
1035.51786323242
      20
2567.60348709152
      30
0
      10
1035.85505123242
      20
2567.31125709152
      30
0
      10
1037.53199523242
      20
2566.55533709152
      30
0
      10
1038.30261923242
      20
2566.21573709152
      30
0
      10
1038.30261923242
      20
2566.21573709152
      30
0
      10
1038.55706123242
      20
2566.10360709152
      30
0
      10
1038.76880523242
      20
2565.91571709152
      30
0
      10
1038.91119523242
      20
2565.67690709152
      30
0
      10
1038.91119523242
      20
2565.67690709152
      30
0
      10
1041.67612123242
      20
2561.03964709152
      30
0
      10
1044.44104723242
      20
2556.40239709152
      30
0
      10
1047.20597323242
      20
2551.76513709152
      30
0
      10
1047.20597323242
      20
2551.76513709152
      30
0
      10
1047.39984623242
      20
2551.43998709152
      30
0
      10
1047.72230723242
      20
2551.21211709152
      30
0
      10
1048.09353823242
      20
2551.13791709152
      30
0
      10
1048.09353823242
      20
2551.13791709152
      30
0
      10
1055.82764823242
      20
2549.59201709152
      30
0
      10
1063.56175823242
      20
2548.04612709152
      30
0
      10
1071.29586823242
      20
2546.50023709152
      30
0
      10
1071.29586823242
      20
2546.50023709152
      30
0
      10
1071.65142423242
      20
2546.42915709152
      30
0
      10
1072.02058723242
      20
2546.50533709152
      30
0
      10
1072.31897523242
      20
2546.71133709152
      30
0
      10
1072.31897523242
      20
2546.71133709152
      30
0
      10
1077.33554423242
      20
2550.17473709152
      30
0
      10
1082.35211323242
      20
2553.63814709152
      30
0
      10
1087.36868123242
      20
2557.10154709152
      30
0
      10
1087.36868123242
      20
2557.10154709152
      30
0
      10
1087.93813423242
      20
2557.49469709152
      30
0
      10
1088.11417823242
      20
2558.25700709152
      30
0
      10
1087.77477223242
      20
2558.86002709152
      30
0
      10
1087.77477223242
      20
2558.86002709152
      30
0
      10
1087.06444323242
      20
2560.12208709152
      30
0
      10
1086.35411523242
      20
2561.38413709152
      30
0
      10
1085.64378723242
      20
2562.64618709152
      30
0
      10
1085.64378723242
      20
2562.64618709152
      30
0
      10
1085.41733623242
      20
2563.04853709152
      30
0
      10
1084.99953223242
      20
2563.30581709152
      30
0
      10
1084.53832023242
      20
2563.32696709152
      30
0
      10
1084.53832023242
      20
2563.32696709152
      30
0
      10
1084.46965523242
      20
2563.33372709152
      30
0
      10
1084.39754523242
      20
2563.33774709152
      30
0
      10
1084.33150723242
      20
2563.34655709152
      30
0
      10
1084.33150723242
      20
2563.34655709152
      30
0
      10
1082.53590123242
      20
2563.58609709152
      30
0
      10
1080.97708223242
      20
2565.03041709152
      30
0
      10
1080.70097923242
      20
2566.82076709152
      30
0
      10
1080.70097923242
      20
2566.82076709152
      30
0
      10
1080.47319323242
      20
2568.29793709152
      30
0
      10
1080.71534123242
      20
2570.43117709152
      30
0
      10
1082.74415723242
      20
2571.09819709152
      30
0
      10
1082.74415723242
      20
2571.09819709152
      30
0
      10
1085.96325523242
      20
2572.15652709152
      30
0
      10
1087.47725923242
      20
2569.70178709152
      30
0
      10
1087.77124123242
      20
2568.49645709152
      30
0
      10
1087.77124123242
      20
2568.49645709152
      30
0
      10
1087.93983023242
      20
2567.80523709152
      30
0
      10
1087.73022223242
      20
2566.55088709152
      30
0
      10
1087.52973923242
      20
2565.85727709152
      30
0
      10
1087.52973923242
      20
2565.85727709152
      30
0
      10
1087.42162823242
      20
2565.48326709152
      30
0
      10
1087.46746923242
      20
2565.07263709152
      30
0
      10
1087.69183123242
      20
2564.75445709152
      30
0
      10
1087.69183123242
      20
2564.75445709152
      30
0
      10
1088.50868523242
      20
2563.59602709152
      30
0
      10
1090.06016223242
      20
2563.48115709152
      30
0
      10
1090.42639723242
      20
2563.47036709152
      30
0
      10
1090.42639723242
      20
2563.47036709152
      30
0
      10
1090.47359523242
      20
2563.46896709152
      30
0
      10
1090.51965223242
      20
2563.46963709152
      30
0
      10
1090.56678523242
      20
2563.47236709152
      30
0
      10
1090.56678523242
      20
2563.47236709152
      30
0
      10
1093.34766623242
      20
2563.63387709152
      30
0
      10
1093.23927523242
      20
2567.19492709152
      30
0
      10
1093.14171423242
      20
2568.27612709152
      30
0
    1001
FS_CYPCUT
    1000
Channel
    1070
0
    1000
LeadIn
    1002
{
    1070
0
    1040
0
    1040
1.570796
    1040
0
    1040
0
    1070
0
    1040
0
    1070
0
    1002
}
    1000
LeadOut
    1002
{
    1070
0
    1040
0
    1040
0
    1040
0
    1070
0
    1002
}
    1000
IsFill
    1070
1
    1000
PathStart
    1040
0
    1000
ToolCompensation
    1002
{
    1070
0
    1040
0
    1070
0
    1002
}
       0
SPLINE
       5
200A
     100
AcDbEntity
       8
0
     100
AcDbSpline
      70
0
      71
3
      72
68
      73
64
      74
0
      40
0
      40
0
      40
0
      40
0
      40
0.0625
      40
0.0625
      40
0.0625
      40
0.0625
      40
0.125
      40
0.125
      40
0.125
      40
0.125
      40
0.1875
      40
0.1875
      40
0.1875
      40
0.1875
      40
0.25
      40
0.25
      40
0.25
      40
0.25
      40
0.3125
      40
0.3125
      40
0.3125
      40
0.3125
      40
0.375
      40
0.375
      40
0.375
      40
0.375
      40
0.4375
      40
0.4375
      40
0.4375
      40
0.4375
      40
0.5
      40
0.5
      40
0.5
      40
0.5
      40
0.5625
      40
0.5625
      40
0.5625
      40
0.5625
      40
0.625
      40
0.625
      40
0.625
      40
0.625
      40
0.6875
      40
0.6875
      40
0.6875
      40
0.6875
      40
0.75
      40
0.75
      40
0.75
      40
0.75
      40
0.8125
      40
0.8125
      40
0.8125
      40
0.8125
      40
0.875
      40
0.875
      40
0.875
      40
0.875
      40
0.9375
      40
0.9375
      40
0.9375
      40
0.9375
      40
1
      40
1
      40
1
      40
1
      10
1153.22143034975
      20
2660.24040053828
      30
0
      10
1153.22143034975
      20
2657.46741946154
      30
0
      10
1153.22143034975
      20
2654.69443838481
      30
0
      10
1153.22143034975
      20
2651.92145730807
      30
0
      10
1153.22143034975
      20
2651.92145730807
      30
0
      10
1147.29270658729
      20
2651.92145730807
      30
0
      10
1141.36398282482
      20
2651.92145730807
      30
0
      10
1135.43525906236
      20
2651.92145730807
      30
0
      10
1135.43525906236
      20
2651.92145730807
      30
0
      10
1135.43525906236
      20
2654.68886803724
      30
0
      10
1135.43525906236
      20
2657.45628633483
      30
0
      10
1135.43525906236
      20
2660.223697064
      30
0
      10
1135.43525906236
      20
2660.223697064
      30
0
      10
1135.42924600135
      20
2660.22362894834
      30
0
      10
1135.423428204
      20
2660.22279642357
      30
0
      10
1135.4173984926
      20
2660.22279642357
      30
0
      10
1135.4173984926
      20
2660.22279642357
      30
0
      10
1134.60637544158
      20
2660.22279642357
      30
0
      10
1133.9489272554
      20
2660.88024880389
      30
0
      10
1133.9489272554
      20
2661.6912792993
      30
0
      10
1133.9489272554
      20
2661.6912792993
      30
0
      10
1133.9489272554
      20
2662.5022946579
      30
0
      10
1134.60637544158
      20
2663.15976217504
      30
0
      10
1135.4173984926
      20
2663.15976217504
      30
0
      10
1135.4173984926
      20
2663.15976217504
      30
0
      10
1135.88190196865
      20
2663.15976217504
      30
0
      10
1136.29531675276
      20
2662.94349494467
      30
0
      10
1136.56441428843
      20
2662.60681435874
      30
0
      10
1136.56441428843
      20
2662.60681435874
      30
0
      10
1138.78783460681
      20
2664.0116469315
      30
0
      10
1141.01125416835
      20
2665.41647193585
      30
0
      10
1143.23467448673
      20
2666.82129694021
      30
0
      10
1143.23467448673
      20
2666.82129694021
      30
0
      10
1143.00234101043
      20
2667.08105980568
      30
0
      10
1142.85988103722
      20
2667.42288690838
      30
0
      10
1142.85988103722
      20
2667.79882482148
      30
0
      10
1142.85988103722
      20
2667.79882482148
      30
0
      10
1142.85988103722
      20
2668.60984018007
      30
0
      10
1143.51732998023
      20
2669.26730769721
      30
0
      10
1144.32835303125
      20
2669.26730769721
      30
0
      10
1144.32835303125
      20
2669.26730769721
      30
0
      10
1145.13935943188
      20
2669.26730769721
      30
0
      10
1145.79682426844
      20
2668.60984018007
      30
0
      10
1145.79682426844
      20
2667.79882482148
      30
0
      10
1145.79682426844
      20
2667.79882482148
      30
0
      10
1145.79682426844
      20
2667.44798374603
      30
0
      10
1145.67341461099
      20
2667.12618264828
      30
0
      10
1145.4681327193
      20
2666.87360976948
      30
0
      10
1145.4681327193
      20
2666.87360976948
      30
0
      10
1147.62865013776
      20
2665.48582881771
      30
0
      10
1149.78916755623
      20
2664.09804786595
      30
0
      10
1151.94968421786
      20
2662.71026691418
      30
0
      10
1151.94968421786
      20
2662.71026691418
      30
0
      10
1152.21674435136
      20
2662.98697544295
      30
0
      10
1152.59073933903
      20
2663.15976217504
      30
0
      10
1153.00568595895
      20
2663.15976217504
      30
0
      10
1153.00568595895
      20
2663.15976217504
      30
0
      10
1153.81669311641
      20
2663.15976217504
      30
0
      10
1154.47415795298
      20
2662.5022946579
      30
0
      10
1154.47415795298
      20
2661.6912792993
      30
0
      10
1154.47415795298
      20
2661.6912792993
      30
0
      10
1154.47415795298
      20
2660.95374560439
      30
0
      10
1153.92986959603
      20
2660.34498835478
      30
0
      10
1153.22143034975
      20
2660.24040053828
      30
0
    1001
FS_CYPCUT
    1000
Channel
    1070
0
    1000
LeadIn
    1002
{
    1070
0
    1040
0
    1040
0
    1040
0
    1040
0
    1070
0
    1040
0
    1070
0
    1002
}
    1000
LeadOut
    1002
{
    1070
0
    1040
0
    1040
0
    1040
0
    1070
0
    1002
}
    1000
IsFill
    1070
0
    1000
PathStart
    1040
0
    1000
ToolCompensation
    1002
{
    1070
0
    1040
0
    1070
0
    1002
}
       0
SPLINE
       5
200B
     100
AcDbEntity
       8
0
     100
AcDbSpline
      70
0
      71
3
      72
644
      73
640
      74
0
      40
0
      40
0
      40
0
      40
0
      40
0.00625
      40
0.00625
      40
0.00625
      40
0.00625
      40
0.0125
      40
0.0125
      40
0.0125
      40
0.0125
      40
0.01875
      40
0.01875
      40
0.01875
      40
0.01875
      40
0.025
      40
0.025
      40
0.025
      40
0.025
      40
0.03125
      40
0.03125
      40
0.03125
      40
0.03125
      40
0.0375
      40
0.0375
      40
0.0375
      40
0.0375
      40
0.04375
      40
0.04375
      40
0.04375
      40
0.04375
      40
0.05
      40
0.05
      40
0.05
      40
0.05
      40
0.05625
      40
0.05625
      40
0.05625
      40
0.05625
      40
0.0625
      40
0.0625
      40
0.0625
      40
0.0625
      40
0.06875
      40
0.06875
      40
0.06875
      40
0.06875
      40
0.075
      40
0.075
      40
0.075
      40
0.075
      40
0.08125
      40
0.08125
      40
0.08125
      40
0.08125
      40
0.0875
      40
0.0875
      40
0.0875
      40
0.0875
      40
0.09375
      40
0.09375
      40
0.09375
      40
0.09375
      40
0.1
      40
0.1
      40
0.1
      40
0.1
      40
0.10625
      40
0.10625
      40
0.10625
      40
0.10625
      40
0.1125
      40
0.1125
      40
0.1125
      40
0.1125
      40
0.11875
      40
0.11875
      40
0.11875
      40
0.11875
      40
0.125
      40
0.125
      40
0.125
      40
0.125
      40
0.13125
      40
0.13125
      40
0.13125
      40
0.13125
      40
0.1375
      40
0.1375
      40
0.1375
      40
0.1375
      40
0.14375
      40
0.14375
      40
0.14375
      40
0.14375
      40
0.15
      40
0.15
      40
0.15
      40
0.15
      40
0.15625
      40
0.15625
      40
0.15625
      40
0.15625
      40
0.1625
      40
0.1625
      40
0.1625
      40
0.1625
      40
0.16875
      40
0.16875
      40
0.16875
      40
0.16875
      40
0.175
      40
0.175
      40
0.175
      40
0.175
      40
0.18125
      40
0.18125
      40
0.18125
      40
0.18125
      40
0.1875
      40
0.1875
      40
0.1875
      40
0.1875
      40
0.19375
      40
0.19375
      40
0.19375
      40
0.19375
      40
0.2
      40
0.2
      40
0.2
      40
0.2
      40
0.20625
      40
0.20625
      40
0.20625
      40
0.20625
      40
0.2125
      40
0.2125
      40
0.2125
      40
0.2125
      40
0.21875
      40
0.21875
      40
0.21875
      40
0.21875
      40
0.225
      40
0.225
      40
0.225
      40
0.225
      40
0.23125
      40
0.23125
      40
0.23125
      40
0.23125
      40
0.2375
      40
0.2375
      40
0.2375
      40
0.2375
      40
0.24375
      40
0.24375
      40
0.24375
      40
0.24375
      40
0.25
      40
0.25
      40
0.25
      40
0.25
      40
0.25625
      40
0.25625
      40
0.25625
      40
0.25625
      40
0.2625
      40
0.2625
      40
0.2625
      40
0.2625
      40
0.26875
      40
0.26875
      40
0.26875
      40
0.26875
      40
0.275
      40
0.275
      40
0.275
      40
0.275
      40
0.28125
      40
0.28125
      40
0.28125
      40
0.28125
      40
0.2875
      40
0.2875
      40
0.2875
      40
0.2875
      40
0.29375
      40
0.29375
      40
0.29375
      40
0.29375
      40
0.3
      40
0.3
      40
0.3
      40
0.3
      40
0.30625
      40
0.30625
      40
0.30625
      40
0.30625
      40
0.3125
      40
0.3125
      40
0.3125
      40
0.3125
      40
0.31875
      40
0.31875
      40
0.31875
      40
0.31875
      40
0.325
      40
0.325
      40
0.325
      40
0.325
      40
0.33125
      40
0.33125
      40
0.33125
      40
0.33125
      40
0.3375
      40
0.3375
      40
0.3375
      40
0.3375
      40
0.34375
      40
0.34375
      40
0.34375
      40
0.34375
      40
0.35
      40
0.35
      40
0.35
      40
0.35
      40
0.35625
      40
0.35625
      40
0.35625
      40
0.35625
      40
0.3625
      40
0.3625
      40
0.3625
      40
0.3625
      40
0.36875
      40
0.36875
      40
0.36875
      40
0.36875
      40
0.375
      40
0.375
      40
0.375
      40
0.375
      40
0.38125
      40
0.38125
      40
0.38125
      40
0.38125
      40
0.3875
      40
0.3875
      40
0.3875
      40
0.3875
      40
0.39375
      40
0.39375
      40
0.39375
      40
0.39375
      40
0.4
      40
0.4
      40
0.4
      40
0.4
      40
0.40625
      40
0.40625
      40
0.40625
      40
0.40625
      40
0.4125
      40
0.4125
      40
0.4125
      40
0.4125
      40
0.41875
      40
0.41875
      40
0.41875
      40
0.41875
      40
0.425
      40
0.425
      40
0.425
      40
0.425
      40
0.43125
      40
0.43125
      40
0.43125
      40
0.43125
      40
0.4375
      40
0.4375
      40
0.4375
      40
0.4375
      40
0.44375
      40
0.44375
      40
0.44375
      40
0.44375
      40
0.45
      40
0.45
      40
0.45
      40
0.45
      40
0.45625
      40
0.45625
      40
0.45625
      40
0.45625
      40
0.4625
      40
0.4625
      40
0.4625
      40
0.4625
      40
0.46875
      40
0.46875
      40
0.46875
      40
0.46875
      40
0.475
      40
0.475
      40
0.475
      40
0.475
      40
0.48125
      40
0.48125
      40
0.48125
      40
0.48125
      40
0.4875
      40
0.4875
      40
0.4875
      40
0.4875
      40
0.49375
      40
0.49375
      40
0.49375
      40
0.49375
      40
0.5
      40
0.5
      40
0.5
      40
0.5
      40
0.50625
      40
0.50625
      40
0.50625
      40
0.50625
      40
0.5125
      40
0.5125
      40
0.5125
      40
0.5125
      40
0.51875
      40
0.51875
      40
0.51875
      40
0.51875
      40
0.525
      40
0.525
      40
0.525
      40
0.525
      40
0.53125
      40
0.53125
      40
0.53125
      40
0.53125
      40
0.5375
      40
0.5375
      40
0.5375
      40
0.5375
      40
0.54375
      40
0.54375
      40
0.54375
      40
0.54375
      40
0.55
      40
0.55
      40
0.55
      40
0.55
      40
0.55625
      40
0.55625
      40
0.55625
      40
0.55625
      40
0.5625
      40
0.5625
      40
0.5625
      40
0.5625
      40
0.56875
      40
0.56875
      40
0.56875
      40
0.56875
      40
0.575
      40
0.575
      40
0.575
      40
0.575
      40
0.58125
      40
0.58125
      40
0.58125
      40
0.58125
      40
0.5875
      40
0.5875
      40
0.5875
      40
0.5875
      40
0.59375
      40
0.59375
      40
0.59375
      40
0.59375
      40
0.6
      40
0.6
      40
0.6
      40
0.6
      40
0.60625
      40
0.60625
      40
0.60625
      40
0.60625
      40
0.6125
      40
0.6125
      40
0.6125
      40
0.6125
      40
0.61875
      40
0.61875
      40
0.61875
      40
0.61875
      40
0.625
      40
0.625
      40
0.625
      40
0.625
      40
0.63125
      40
0.63125
      40
0.63125
      40
0.63125
      40
0.6375
      40
0.6375
      40
0.6375
      40
0.6375
      40
0.64375
      40
0.64375
      40
0.64375
      40
0.64375
      40
0.65
      40
0.65
      40
0.65
      40
0.65
      40
0.65625
      40
0.65625
      40
0.65625
      40
0.65625
      40
0.6625
      40
0.6625
      40
0.6625
      40
0.6625
      40
0.66875
      40
0.66875
      40
0.66875
      40
0.66875
      40
0.675
      40
0.675
      40
0.675
      40
0.675
      40
0.68125
      40
0.68125
      40
0.68125
      40
0.68125
      40
0.6875
      40
0.6875
      40
0.6875
      40
0.6875
      40
0.69375
      40
0.69375
      40
0.69375
      40
0.69375
      40
0.7
      40
0.7
      40
0.7
      40
0.7
      40
0.70625
      40
0.70625
      40
0.70625
      40
0.70625
      40
0.7125
      40
0.7125
      40
0.7125
      40
0.7125
      40
0.71875
      40
0.71875
      40
0.71875
      40
0.71875
      40
0.725
      40
0.725
      40
0.725
      40
0.725
      40
0.73125
      40
0.73125
      40
0.73125
      40
0.73125
      40
0.7375
      40
0.7375
      40
0.7375
      40
0.7375
      40
0.74375
      40
0.74375
      40
0.74375
      40
0.74375
      40
0.75
      40
0.75
      40
0.75
      40
0.75
      40
0.75625
      40
0.75625
      40
0.75625
      40
0.75625
      40
0.7625
      40
0.7625
      40
0.7625
      40
0.7625
      40
0.76875
      40
0.76875
      40
0.76875
      40
0.76875
      40
0.775
      40
0.775
      40
0.775
      40
0.775
      40
0.78125
      40
0.78125
      40
0.78125
      40
0.78125
      40
0.7875
      40
0.7875
      40
0.7875
      40
0.7875
      40
0.79375
      40
0.79375
      40
0.79375
      40
0.79375
      40
0.8
      40
0.8
      40
0.8
      40
0.8
      40
0.80625
      40
0.80625
      40
0.80625
      40
0.80625
      40
0.8125
      40
0.8125
      40
0.8125
      40
0.8125
      40
0.81875
      40
0.81875
      40
0.81875
      40
0.81875
      40
0.825
      40
0.825
      40
0.825
      40
0.825
      40
0.83125
      40
0.83125
      40
0.83125
      40
0.83125
      40
0.8375
      40
0.8375
      40
0.8375
      40
0.8375
      40
0.84375
      40
0.84375
      40
0.84375
      40
0.84375
      40
0.85
      40
0.85
      40
0.85
      40
0.85
      40
0.85625
      40
0.85625
      40
0.85625
      40
0.85625
      40
0.8625
      40
0.8625
      40
0.8625
      40
0.8625
      40
0.86875
      40
0.86875
      40
0.86875
      40
0.86875
      40
0.875
      40
0.875
      40
0.875
      40
0.875
      40
0.88125
      40
0.88125
      40
0.88125
      40
0.88125
      40
0.8875
      40
0.8875
      40
0.8875
      40
0.8875
      40
0.89375
      40
0.89375
      40
0.89375
      40
0.89375
      40
0.9
      40
0.9
      40
0.9
      40
0.9
      40
0.90625
      40
0.90625
      40
0.90625
      40
0.90625
      40
0.9125
      40
0.9125
      40
0.9125
      40
0.9125
      40
0.91875
      40
0.91875
      40
0.91875
      40
0.91875
      40
0.925
      40
0.925
      40
0.925
      40
0.925
      40
0.93125
      40
0.93125
      40
0.93125
      40
0.93125
      40
0.9375
      40
0.9375
      40
0.9375
      40
0.9375
      40
0.94375
      40
0.94375
      40
0.94375
      40
0.94375
      40
0.95
      40
0.95
      40
0.95
      40
0.95
      40
0.95625
      40
0.95625
      40
0.95625
      40
0.95625
      40
0.9625
      40
0.9625
      40
0.9625
      40
0.9625
      40
0.96875
      40
0.96875
      40
0.96875
      40
0.96875
      40
0.975
      40
0.975
      40
0.975
      40
0.975
      40
0.98125
      40
0.98125
      40
0.98125
      40
0.98125
      40
0.9875
      40
0.9875
      40
0.9875
      40
0.9875
      40
0.99375
      40
0.99375
      40
0.99375
      40
0.99375
      40
1
      40
1
      40
1
      40
1
      10
1172.36425869928
      20
2658.21992346553
      30
0
      10
1171.44644534974
      20
2658.6074864518
      30
0
      10
1170.52863124336
      20
2658.99504186967
      30
0
      10
1169.61081789383
      20
2659.38259728753
      30
0
      10
1169.61081789383
      20
2659.38259728753
      30
0
      10
1169.44005150213
      20
2659.45470150114
      30
0
      10
1169.26176140501
      20
2659.49139313833
      30
0
      10
1169.08240568299
      20
2659.49139313833
      30
0
      10
1169.08240568299
      20
2659.49139313833
      30
0
      10
1168.35605667261
      20
2659.49139313833
      30
0
      10
1167.62970766222
      20
2659.49139313833
      30
0
      10
1166.90335940868
      20
2659.49139313833
      30
0
      10
1166.90335940868
      20
2659.49139313833
      30
0
      10
1166.76309728684
      20
2660.64859500207
      30
0
      10
1166.53806651988
      20
2661.77899713657
      30
0
      10
1166.23357782512
      20
2662.87707460473
      30
0
      10
1166.23357782512
      20
2662.87707460473
      30
0
      10
1166.88156783339
      20
2663.14533679127
      30
0
      10
1167.52955784165
      20
2663.41359897781
      30
0
      10
1168.17754784992
      20
2663.68185359595
      30
0
      10
1168.17754784992
      20
2663.68185359595
      30
0
      10
1168.40190200561
      20
2663.77476336043
      30
0
      10
1168.60171727179
      20
2663.92143908832
      30
0
      10
1168.76684599308
      20
2664.11449401438
      30
0
      10
1168.76684599308
      20
2664.11449401438
      30
0
      10
1169.44346861609
      20
2664.80467975503
      30
0
      10
1170.12009048227
      20
2665.49487306409
      30
0
      10
1170.79671234845
      20
2666.18506637315
      30
0
      10
1170.79671234845
      20
2666.18506637315
      30
0
      10
1170.96930347145
      20
2666.38682496727
      30
0
      10
1171.00085293165
      20
2666.72157560942
      30
0
      10
1170.87639657018
      20
2667.03084342515
      30
0
      10
1170.87639657018
      20
2667.03084342515
      30
0
      10
1170.69051465242
      20
2667.49081336131
      30
0
      10
1170.50463273467
      20
2667.95078329747
      30
0
      10
1170.31875081691
      20
2668.41076080203
      30
0
      10
1170.31875081691
      20
2668.41076080203
      30
0
      10
1170.18308041831
      20
2668.74798631327
      30
0
      10
1169.89521713717
      20
2668.97953415739
      30
0
      10
1169.6092603256
      20
2668.9814868064
      30
0
      10
1169.6092603256
      20
2668.9814868064
      30
0
      10
1168.61299942415
      20
2668.98831350953
      30
0
      10
1167.6167385227
      20
2668.99514021265
      30
0
      10
1166.62047762125
      20
2669.00196691578
      30
0
      10
1166.62047762125
      20
2669.00196691578
      30
0
      10
1166.43511489291
      20
2669.00321570293
      30
0
      10
1166.25635328704
      20
2668.96890054554
      30
0
      10
1166.09065012733
      20
2668.90026266235
      30
0
      10
1166.09065012733
      20
2668.90026266235
      30
0
      10
1165.42108726934
      20
2668.62291838739
      30
0
      10
1164.75152365451
      20
2668.34558168084
      30
0
      10
1164.08196079652
      20
2668.06823740589
      30
0
      10
1164.08196079652
      20
2668.06823740589
      30
0
      10
1163.51133833537
      20
2669.07586484184
      30
0
      10
1162.8675298453
      20
2670.03566751389
      30
0
      10
1162.15744448099
      20
2670.94205236924
      30
0
      10
1162.15744448099
      20
2670.94205236924
      30
0
      10
1162.65473787124
      20
2671.4391529102
      30
0
      10
1163.15203126149
      20
2671.93626101957
      30
0
      10
1163.64932465174
      20
2672.43336156053
      30
0
      10
1163.64932465174
      20
2672.43336156053
      30
0
      10
1163.82103406093
      20
2672.60502816837
      30
0
      10
1163.94950922089
      20
2672.81702681719
      30
0
      10
1164.02818836457
      20
2673.05858009538
      30
0
      10
1164.02818836457
      20
2673.05858009538
      30
0
      10
1164.38918318245
      20
2673.95515629525
      30
0
      10
1164.75017800033
      20
2674.85174006353
      30
0
      10
1165.11117206137
      20
2675.7483162634
      30
0
      10
1165.11117206137
      20
2675.7483162634
      30
0
      10
1165.19341892936
      20
2676.0007831845
      30
0
      10
1165.09444371807
      20
2676.32212260942
      30
0
      10
1164.86113165298
      20
2676.56023226243
      30
0
      10
1164.86113165298
      20
2676.56023226243
      30
0
      10
1164.51337313769
      20
2676.91405529024
      30
0
      10
1164.16561537923
      20
2677.26787074965
      30
0
      10
1163.81785686394
      20
2677.62169377746
      30
0
      10
1163.81785686394
      20
2677.62169377746
      30
0
      10
1163.56344951257
      20
2677.88132798001
      30
0
      10
1163.20889915215
      20
2677.98510597696
      30
0
      10
1162.94397480949
      20
2677.87746052402
      30
0
      10
1162.94397480949
      20
2677.87746052402
      30
0
      10
1162.02093399457
      20
2677.50250650383
      30
0
      10
1161.09789317966
      20
2677.12756005205
      30
0
      10
1160.17485160791
      20
2676.75260603186
      30
0
      10
1160.17485160791
      20
2676.75260603186
      30
0
      10
1160.00312176414
      20
2676.68284802443
      30
0
      10
1159.85111279272
      20
2676.58271799966
      30
0
      10
1159.72427845294
      20
2676.45590934017
      30
0
      10
1159.72427845294
      20
2676.45590934017
      30
0
      10
1159.21065330139
      20
2675.9422793983
      30
0
      10
1158.69702814984
      20
2675.42864945643
      30
0
      10
1158.18340299828
      20
2674.91502708296
      30
0
      10
1158.18340299828
      20
2674.91502708296
      30
0
      10
1157.27684379818
      20
2675.6248452714
      30
0
      10
1156.3168618243
      20
2676.26838691963
      30
0
      10
1155.30907279884
      20
2676.83872693525
      30
0
      10
1155.30907279884
      20
2676.83872693525
      30
0
      10
1155.57764584724
      20
2677.48677178566
      30
0
      10
1155.84621813881
      20
2678.13480906765
      30
0
      10
1156.11479118722
      20
2678.78285391806
      30
0
      10
1156.11479118722
      20
2678.78285391806
      30
0
      10
1156.20773895762
      20
2679.00718907031
      30
0
      10
1156.24531585872
      20
2679.25218597369
      30
0
      10
1156.22557455181
      20
2679.50546271435
      30
0
      10
1156.22557455181
      20
2679.50546271435
      30
0
      10
1156.21598014344
      20
2680.47194828979
      30
0
      10
1156.20638573508
      20
2681.43842629682
      30
0
      10
1156.19679208355
      20
2682.40490430385
      30
0
      10
1156.19679208355
      20
2682.40490430385
      30
0
      10
1156.17616906285
      20
2682.66962447591
      30
0
      10
1155.96175746002
      20
2682.92862293227
      30
0
      10
1155.65509513264
      20
2683.05931418456
      30
0
      10
1155.65509513264
      20
2683.05931418456
      30
0
      10
1155.19840598697
      20
2683.25312595132
      30
0
      10
1154.74171684131
      20
2683.44694528649
      30
0
      10
1154.28502693882
      20
2683.64076462166
      30
0
      10
1154.28502693882
      20
2683.64076462166
      30
0
      10
1153.95062809035
      20
2683.78325502048
      30
0
      10
1153.58334699372
      20
2683.7434451996
      30
0
      10
1153.37978009211
      20
2683.54262508794
      30
0
      10
1153.37978009211
      20
2683.54262508794
      30
0
      10
1152.67049470333
      20
2682.84298640693
      30
0
      10
1151.9612085577
      20
2682.14334772592
      30
0
      10
1151.25192316891
      20
2681.44370904492
      30
0
      10
1151.25192316891
      20
2681.44370904492
      30
0
      10
1151.11994310203
      20
2681.31353244431
      30
0
      10
1151.01781112831
      20
2681.16285302911
      30
0
      10
1150.94917671033
      20
2680.99715032598
      30
0
      10
1150.94917671033
      20
2680.99715032598
      30
0
      10
1150.67189096735
      20
2680.32771715736
      30
0
      10
1150.39460598121
      20
2679.65829155715
      30
0
      10
1150.11732023823
      20
2678.98885838852
      30
0
      10
1150.11732023823
      20
2678.98885838852
      30
0
      10
1149.0191665232
      20
2679.29304023474
      30
0
      10
1147.88870499842
      20
2679.51778408097
      30
0
      10
1146.7314696478
      20
2679.6577012214
      30
0
      10
1146.7314696478
      20
2679.6577012214
      30
0
      10
1146.73159906673
      20
2680.35180739688
      30
0
      10
1146.7317292425
      20
2681.04591357236
      30
0
      10
1146.73185941827
      20
2681.74001974784
      30
0
      10
1146.73185941827
      20
2681.74001974784
      30
0
      10
1146.73192072198
      20
2681.98458525203
      30
0
      10
1146.67285952095
      20
2682.22702403385
      30
0
      10
1146.55768953565
      20
2682.45509041075
      30
0
      10
1146.55768953565
      20
2682.45509041075
      30
0
      10
1146.17896962163
      20
2683.35065244408
      30
0
      10
1145.80024895077
      20
2684.24622204581
      30
0
      10
1145.42152827991
      20
2685.14179164755
      30
0
      10
1145.42152827991
      20
2685.14179164755
      30
0
      10
1145.30119288977
      20
2685.38012835277
      30
0
      10
1145.00396073736
      20
2685.53848970109
      30
0
      10
1144.67062751381
      20
2685.54189548424
      30
0
      10
1144.67062751381
      20
2685.54189548424
      30
0
      10
1144.17453673576
      20
2685.54622461305
      30
0
      10
1143.67844595771
      20
2685.55054617346
      30
0
      10
1143.18235517967
      20
2685.55487530227
      30
0
      10
1143.18235517967
      20
2685.55487530227
      30
0
      10
1142.81886658759
      20
2685.5585838217
      30
0
      10
1142.49480006246
      20
2685.37998455303
      30
0
      10
1142.3835656237
      20
2685.11466647682
      30
0
      10
1142.3835656237
      20
2685.11466647682
      30
0
      10
1141.99601721922
      20
2684.19032179162
      30
0
      10
1141.6084680579
      20
2683.26596953802
      30
0
      10
1141.22091889658
      20
2682.34161728442
      30
0
      10
1141.22091889658
      20
2682.34161728442
      30
0
      10
1141.14881968398
      20
2682.16964037188
      30
0
      10
1141.11208362754
      20
2681.99010262074
      30
0
      10
1141.11208362754
      20
2681.80945231377
      30
0
      10
1141.11208362754
      20
2681.80945231377
      30
0
      10
1141.11208362754
      20
2681.09192191859
      30
0
      10
1141.11208362754
      20
2680.3743915234
      30
0
      10
1141.11208362754
      20
2679.65686112822
      30
0
      10
1141.11208362754
      20
2679.65686112822
      30
0
      10
1139.95222432694
      20
2679.51627039956
      30
0
      10
1138.81930232874
      20
2679.29048211317
      30
0
      10
1137.71885237366
      20
2678.98492281688
      30
0
      10
1137.71885237366
      20
2678.98492281688
      30
0
      10
1137.45364194704
      20
2679.62552792319
      30
0
      10
1137.18843076358
      20
2680.2661330295
      30
0
      10
1136.92322033696
      20
2680.90673813582
      30
0
      10
1136.92322033696
      20
2680.90673813582
      30
0
      10
1136.82967769356
      20
2681.13271563238
      30
0
      10
1136.68236337506
      20
2681.33411094297
      30
0
      10
1136.48867772261
      20
2681.50073699175
      30
0
      10
1136.48867772261
      20
2681.50073699175
      30
0
      10
1135.79606542811
      20
2682.18320295725
      30
0
      10
1135.1034531336
      20
2682.86567649115
      30
0
      10
1134.4108408391
      20
2683.54814245665
      30
0
      10
1134.4108408391
      20
2683.54814245665
      30
0
      10
1134.20844324892
      20
2683.72226879678
      30
0
      10
1133.87326485951
      20
2683.75484322056
      30
0
      10
1133.56397858215
      20
2683.63042617769
      30
0
      10
1133.56397858215
      20
2683.63042617769
      30
0
      10
1133.10399568676
      20
2683.4445763751
      30
0
      10
1132.64401279138
      20
2683.2587190041
      30
0
      10
1132.184029896
      20
2683.07286163311
      30
0
      10
1132.184029896
      20
2683.07286163311
      30
0
      10
1131.84680199505
      20
2682.93719036901
      30
0
      10
1131.61574378719
      20
2682.64817561044
      30
0
      10
1131.61449349433
      20
2682.36050045991
      30
0
      10
1131.61449349433
      20
2682.36050045991
      30
0
      10
1131.61018180036
      20
2681.35820118249
      30
0
      10
1131.60587010639
      20
2680.35590190507
      30
0
      10
1131.60155765559
      20
2679.35360262765
      30
0
      10
1131.60155765559
      20
2679.35360262765
      30
0
      10
1131.60075843691
      20
2679.16713221569
      30
0
      10
1131.63552672008
      20
2678.98720090739
      30
0
      10
1131.70465308138
      20
2678.82028725914
      30
0
      10
1131.70465308138
      20
2678.82028725914
      30
0
      10
1131.97924675915
      20
2678.15735535214
      30
0
      10
1132.2538396801
      20
2677.49442344515
      30
0
      10
1132.52843260104
      20
2676.83149153815
      30
0
      10
1132.52843260104
      20
2676.83149153815
      30
0
      10
1131.52332958608
      20
2676.26184781598
      30
0
      10
1130.56578613739
      20
2675.61941115517
      30
0
      10
1129.66150274275
      20
2674.9109628484
      30
0
      10
1129.66150274275
      20
2674.9109628484
      30
0
      10
1129.17033215472
      20
2675.40231896843
      30
0
      10
1128.67916156668
      20
2675.89368265688
      30
0
      10
1128.18799097865
      20
2676.38503877691
      30
0
      10
1128.18799097865
      20
2676.38503877691
      30
0
      10
1128.01509258029
      20
2676.55799958236
      30
0
      10
1127.8019115926
      20
2676.68768423651
      30
0
      10
1127.55920946484
      20
2676.76750822527
      30
0
      10
1127.55920946484
      20
2676.76750822527
      30
0
      10
1126.65815170469
      20
2677.13297903147
      30
0
      10
1125.75709318771
      20
2677.49844226927
      30
0
      10
1124.85603542756
      20
2677.86390550707
      30
0
      10
1124.85603542756
      20
2677.86390550707
      30
0
      10
1124.60242805171
      20
2677.94733962597
      30
0
      10
1124.28026723931
      20
2677.84914711339
      30
0
      10
1124.04215759163
      20
2677.61585096725
      30
0
      10
1124.04215759163
      20
2677.61585096725
      30
0
      10
1123.68831108857
      20
2677.26812050708
      30
0
      10
1123.33446458552
      20
2676.92039004691
      30
0
      10
1122.98061732563
      20
2676.57265201833
      30
0
      10
1122.98061732563
      20
2676.57265201833
      30
0
      10
1122.72098250888
      20
2676.31824758503
      30
0
      10
1122.61811262018
      20
2675.96281248652
      30
0
      10
1122.72705081891
      20
2675.69655592784
      30
0
      10
1122.72705081891
      20
2675.69655592784
      30
0
      10
1123.10662520063
      20
2674.76889628037
      30
0
      10
1123.48619958236
      20
2673.84123663291
      30
0
      10
1123.86577396408
      20
2672.91358455385
      30
0
      10
1123.86577396408
      20
2672.91358455385
      30
0
      10
1123.93639734674
      20
2672.74098703194
      30
0
      10
1124.03738120044
      20
2672.58807493667
      30
0
      10
1124.16511768858
      20
2672.46034293152
      30
0
      10
1124.16511768858
      20
2672.46034293152
      30
0
      10
1124.67293488164
      20
2671.95251795783
      30
0
      10
1125.18075131787
      20
2671.44470055254
      30
0
      10
1125.68856851093
      20
2670.93688314725
      30
0
      10
1125.68856851093
      20
2670.93688314725
      30
0
      10
1124.98038961619
      20
2670.03239039365
      30
0
      10
1124.33815988575
      20
2669.07467660194
      30
0
      10
1123.76878771746
      20
2668.06938780375
      30
0
      10
1123.76878771746
      20
2668.06938780375
      30
0
      10
1123.12756987658
      20
2668.33512971076
      30
0
      10
1122.48635127887
      20
2668.60087918617
      30
0
      10
1121.84513268116
      20
2668.86662109318
      30
0
      10
1121.84513268116
      20
2668.86662109318
      30
0
      10
1121.61920052267
      20
2668.96024985632
      30
0
      10
1121.37262415208
      20
2668.99847788014
      30
0
      10
1121.11784822164
      20
2668.97935251562
      30
0
      10
1121.11784822164
      20
2668.97935251562
      30
0
      10
1120.14552452518
      20
2668.97217009737
      30
0
      10
1119.17320082872
      20
2668.96498767911
      30
0
      10
1118.2008778891
      20
2668.95780526086
      30
0
      10
1118.2008778891
      20
2668.95780526086
      30
0
      10
1117.9346215153
      20
2668.93783980316
      30
0
      10
1117.67457649351
      20
2668.72385823171
      30
0
      10
1117.54386715406
      20
2668.41717124277
      30
0
      10
1117.54386715406
      20
2668.41717124277
      30
0
      10
1117.35002483659
      20
2667.96050113207
      30
0
      10
1117.15618176229
      20
2667.50383102137
      30
0
      10
1116.96233868798
      20
2667.04716091067
      30
0
      10
1116.96233868798
      20
2667.04716091067
      30
0
      10
1116.81982119524
      20
2666.71275841525
      30
0
      10
1116.86080158726
      20
2666.34502465535
      30
0
      10
1117.06334297625
      20
2666.14070037124
      30
0
      10
1117.06334297625
      20
2666.14070037124
      30
0
      10
1117.76902052844
      20
2665.42891439698
      30
0
      10
1118.47469883745
      20
2664.71713599113
      30
0
      10
1119.18037638964
      20
2664.00535001686
      30
0
      10
1119.18037638964
      20
2664.00535001686
      30
0
      10
1119.31165941068
      20
2663.87294073619
      30
0
      10
1119.46348371415
      20
2663.77029043188
      30
0
      10
1119.63037586302
      20
2663.70116817064
      30
0
      10
1119.63037586302
      20
2663.70116817064
      30
0
      10
1120.29253837984
      20
2663.42688910053
      30
0
      10
1120.95470089667
      20
2663.15261003041
      30
0
      10
1121.6168634135
      20
2662.87832339189
      30
0
      10
1121.6168634135
      20
2662.87832339189
      30
0
      10
1121.31161561235
      20
2661.77779375986
      30
0
      10
1121.08613452805
      20
2660.64481836697
      30
0
      10
1120.94589284078
      20
2659.48489944512
      30
0
      10
1120.94589284078
      20
2659.48489944512
      30
0
      10
1120.25178428175
      20
2659.48502810803
      30
0
      10
1119.55767496589
      20
2659.48515677095
      30
0
      10
1118.86356640686
      20
2659.48528543387
      30
0
      10
1118.86356640686
      20
2659.48528543387
      30
0
      10
1118.61899943551
      20
2659.48532327591
      30
0
      10
1118.37656447081
      20
2659.42628213281
      30
0
      10
1118.14849954884
      20
2659.31111368331
      30
0
      10
1118.14849954884
      20
2659.31111368331
      30
0
      10
1117.2529356603
      20
2658.93238302802
      30
0
      10
1116.35737177175
      20
2658.55365994113
      30
0
      10
1115.46180788321
      20
2658.17492928584
      30
0
      10
1115.46180788321
      20
2658.17492928584
      30
0
      10
1115.22347269844
      20
2658.05459161435
      30
0
      10
1115.06510857619
      20
2657.75738027099
      30
0
      10
1115.0617058421
      20
2657.42402221574
      30
0
      10
1115.0617058421
      20
2657.42402221574
      30
0
      10
1115.05737976825
      20
2656.92792827291
      30
0
      10
1115.05305445124
      20
2656.43183433008
      30
0
      10
1115.04872913422
      20
2655.93574795567
      30
0
      10
1115.04872913422
      20
2655.93574795567
      30
0
      10
1115.04501836794
      20
2655.57227520891
      30
0
      10
1115.22361574042
      20
2655.24820358906
      30
0
      10
1115.48892909672
      20
2655.13694800599
      30
0
      10
1115.48892909672
      20
2655.13694800599
      30
0
      10
1116.41327545351
      20
2654.74940015653
      30
0
      10
1117.33762181031
      20
2654.36185230707
      30
0
      10
1118.2619681671
      20
2653.9742968892
      30
0
      10
1118.2619681671
      20
2653.9742968892
      30
0
      10
1118.43394398253
      20
2653.902200244
      30
0
      10
1118.6134843725
      20
2653.86546319637
      30
0
      10
1118.79413201336
      20
2653.86546319637
      30
0
      10
1118.79413201336
      20
2653.86546319637
      30
0
      10
1119.51165934481
      20
2653.86546319637
      30
0
      10
1120.22918591942
      20
2653.86546319637
      30
0
      10
1120.94671249403
      20
2653.86546319637
      30
0
      10
1120.94671249403
      20
2653.86546319637
      30
0
      10
1121.08730308264
      20
2652.70559725337
      30
0
      10
1121.31309219914
      20
2651.57266727092
      30
0
      10
1121.61864727565
      20
2650.47221332296
      30
0
      10
1121.61864727565
      20
2650.47221332296
      30
0
      10
1120.9780439855
      20
2650.20700877285
      30
0
      10
1120.33744069535
      20
2649.94180422274
      30
0
      10
1119.6968374052
      20
2649.67659967263
      30
0
      10
1119.6968374052
      20
2649.67659967263
      30
0
      10
1119.47086362075
      20
2649.58305416196
      30
0
      10
1119.26949078634
      20
2649.43571998266
      30
0
      10
1119.10284460913
      20
2649.24205201563
      30
0
      10
1119.10284460913
      20
2649.24205201563
      30
0
      10
1118.42038678153
      20
2648.54943681633
      30
0
      10
1117.73792895394
      20
2647.85681404862
      30
0
      10
1117.05547112634
      20
2647.16419128091
      30
0
      10
1117.05547112634
      20
2647.16419128091
      30
0
      10
1116.88132243512
      20
2646.96181207741
      30
0
      10
1116.84876789688
      20
2646.62660733085
      30
0
      10
1116.97318338921
      20
2646.31733951511
      30
0
      10
1116.97318338921
      20
2646.31733951511
      30
0
      10
1117.15903124935
      20
2645.85735444214
      30
0
      10
1117.34487910949
      20
2645.39736180076
      30
0
      10
1117.53072696964
      20
2644.93736915939
      30
0
      10
1117.53072696964
      20
2644.93736915939
      30
0
      10
1117.6663966114
      20
2644.60013607974
      30
0
      10
1117.95540876939
      20
2644.36909531889
      30
0
      10
1118.24310781715
      20
2644.36784653173
      30
0
      10
1118.24310781715
      20
2644.36784653173
      30
0
      10
1119.24540297101
      20
2644.36353253973
      30
0
      10
1120.24769736804
      20
2644.35921097933
      30
0
      10
1121.2499925219
      20
2644.35488941892
      30
0
      10
1121.2499925219
      20
2644.35488941892
      30
0
      10
1121.4364617443
      20
2644.35409473619
      30
0
      10
1121.61639190475
      20
2644.38887913482
      30
0
      10
1121.78328405361
      20
2644.45800896446
      30
0
      10
1121.78328405361
      20
2644.45800896446
      30
0
      10
1122.44620491999
      20
2644.73260590767
      30
0
      10
1123.10912654319
      20
2645.00719528248
      30
0
      10
1123.77204740957
      20
2645.28179222569
      30
0
      10
1123.77204740957
      20
2645.28179222569
      30
0
      10
1124.34168598408
      20
2644.27668506927
      30
0
      10
1124.98416168618
      20
2643.31913778251
      30
0
      10
1125.69258655258
      20
2642.4148493759
      30
0
      10
1125.69258655258
      20
2642.4148493759
      30
0
      10
1125.20123129659
      20
2641.92367489763
      30
0
      10
1124.7098760406
      20
2641.43250041936
      30
0
      10
1124.21852078461
      20
2640.9413335095
      30
0
      10
1124.21852078461
      20
2640.9413335095
      30
0
      10
1124.04556108255
      20
2640.76843325131
      30
0
      10
1123.91587649887
      20
2640.5552463626
      30
0
      10
1123.83604923517
      20
2640.31254268653
      30
0
      10
1123.83604923517
      20
2640.31254268653
      30
0
      10
1123.47059211298
      20
2639.41148598972
      30
0
      10
1123.10513574764
      20
2638.51042172449
      30
0
      10
1122.73967862545
      20
2637.60935745926
      30
0
      10
1122.73967862545
      20
2637.60935745926
      30
0
      10
1122.65624352514
      20
2637.35573257188
      30
0
      10
1122.75441876091
      20
2637.03359089582
      30
0
      10
1122.987730826
      20
2636.79547367441
      30
0
      10
1122.987730826
      20
2636.79547367441
      30
0
      10
1123.3354620952
      20
2636.44162037297
      30
0
      10
1123.68319260757
      20
2636.08776707152
      30
0
      10
1124.03092387677
      20
2635.73391377008
      30
0
      10
1124.03092387677
      20
2635.73391377008
      30
0
      10
1124.28531079357
      20
2635.47427199913
      30
0
      10
1124.64074286778
      20
2635.37140221102
      30
0
      10
1124.90701967615
      20
2635.48036456677
      30
0
      10
1124.90701967615
      20
2635.48036456677
      30
0
      10
1125.83466583735
      20
2635.85993531524
      30
0
      10
1126.76231275539
      20
2636.23950606371
      30
0
      10
1127.68995967342
      20
2636.61906924377
      30
0
      10
1127.68995967342
      20
2636.61906924377
      30
0
      10
1127.86255079641
      20
2636.68969761801
      30
0
      10
1128.01548235077
      20
2636.79068287277
      30
0
      10
1128.14321883891
      20
2636.91841487791
      30
0
      10
1128.14321883891
      20
2636.91841487791
      30
0
      10
1128.65102846361
      20
2637.4262322832
      30
0
      10
1129.15883884515
      20
2637.93404212008
      30
0
      10
1129.66664846986
      20
2638.44185195696
      30
0
      10
1129.66664846986
      20
2638.44185195696
      30
0
      10
1130.57113696701
      20
2637.73365340762
      30
0
      10
1131.52886432682
      20
2637.09143623061
      30
0
      10
1132.53415200973
      20
2636.5220649711
      30
0
      10
1132.53415200973
      20
2636.5220649711
      30
0
      10
1132.26840801381
      20
2635.88084682382
      30
0
      10
1132.00266477474
      20
2635.23963624494
      30
0
      10
1131.73692077882
      20
2634.59841809766
      30
0
      10
1131.73692077882
      20
2634.59841809766
      30
0
      10
1131.64327596258
      20
2634.37248601154
      30
0
      10
1131.60506331935
      20
2634.12590731108
      30
0
      10
1131.62419007554
      20
2633.87113202584
      30
0
      10
1131.62419007554
      20
2633.87113202584
      30
0
      10
1131.63136563645
      20
2632.89880364019
      30
0
      10
1131.63854044053
      20
2631.92647525453
      30
0
      10
1131.6457152446
      20
2630.95414686888
      30
0
      10
1131.6457152446
      20
2630.95414686888
      30
0
      10
1131.66568284544
      20
2630.68791301542
      30
0
      10
1131.87968424322
      20
2630.42784741367
      30
0
      10
1132.18634581378
      20
2630.29713345617
      30
0
      10
1132.18634581378
      20
2630.29713345617
      30
0
      10
1132.64302209323
      20
2630.10329141577
      30
0
      10
1133.09969761584
      20
2629.90944937538
      30
0
      10
1133.55637313846
      20
2629.71560733499
      30
0
      10
1133.55637313846
      20
2629.71560733499
      30
0
      10
1133.89075155235
      20
2629.57308666254
      30
0
      10
1134.25850415774
      20
2629.61408472333
      30
0
      10
1134.46280897432
      20
2629.81663043179
      30
0
      10
1134.46280897432
      20
2629.81663043179
      30
0
      10
1135.17458889414
      20
2630.52230113318
      30
0
      10
1135.88636881397
      20
2631.22797940299
      30
0
      10
1136.5981487338
      20
2631.93365010438
      30
0
      10
1136.5981487338
      20
2631.93365010438
      30
0
      10
1136.73057987486
      20
2632.06495439763
      30
0
      10
1136.83322422646
      20
2632.2167842107
      30
0
      10
1136.9023513446
      20
2632.38367515372
      30
0
      10
1136.9023513446
      20
2632.38367515372
      30
0
      10
1137.17662261029
      20
2633.04583508321
      30
0
      10
1137.45089463282
      20
2633.70799501269
      30
0
      10
1137.72516665535
      20
2634.37014737377
      30
0
      10
1137.72516665535
      20
2634.37014737377
      30
0
      10
1138.8256983487
      20
2634.06489838216
      30
0
      10
1139.95872251975
      20
2633.83939769524
      30
0
      10
1141.11862268948
      20
2633.6991551133
      30
0
      10
1141.11862268948
      20
2633.6991551133
      30
0
      10
1141.11848645902
      20
2632.9960652387
      30
0
      10
1141.11834947173
      20
2632.29297536409
      30
0
      10
1141.11821324127
      20
2631.58988548949
      30
0
      10
1141.11821324127
      20
2631.58988548949
      30
0
      10
1141.11819204987
      20
2631.3470531505
      30
0
      10
1141.17723281632
      20
2631.10632482867
      30
0
      10
1141.29240280163
      20
2630.87987809087
      30
0
      10
1141.29240280163
      20
2630.87987809087
      30
0
      10
1141.67111666096
      20
2629.9906356774
      30
0
      10
1142.04982976346
      20
2629.10139326393
      30
0
      10
1142.4285436228
      20
2628.21215085045
      30
0
      10
1142.4285436228
      20
2628.21215085045
      30
0
      10
1142.54892063891
      20
2627.97547919478
      30
0
      10
1142.84611192218
      20
2627.8182455391
      30
0
      10
1143.1794443889
      20
2627.81486246117
      30
0
      10
1143.1794443889
      20
2627.81486246117
      30
0
      10
1143.67553516695
      20
2627.81057117439
      30
0
      10
1144.17162594499
      20
2627.80627988762
      30
0
      10
1144.66771672304
      20
2627.80198860084
      30
0
      10
1144.66771672304
      20
2627.80198860084
      30
0
      10
1145.03120531512
      20
2627.79829521822
      30
0
      10
1145.35529227481
      20
2627.97562299451
      30
0
      10
1145.46650627901
      20
2628.23907167419
      30
0
      10
1145.46650627901
      20
2628.23907167419
      30
0
      10
1145.85406225185
      20
2629.15689239255
      30
0
      10
1146.24161746785
      20
2630.07470554249
      30
0
      10
1146.62917344069
      20
2630.99252626084
      30
0
      10
1146.62917344069
      20
2630.99252626084
      30
0
      10
1146.70129308787
      20
2631.16329222825
      30
0
      10
1146.73798827517
      20
2631.34158119224
      30
0
      10
1146.73798827517
      20
2631.52093730161
      30
0
      10
1146.73798827517
      20
2631.52093730161
      30
0
      10
1146.73798827517
      20
2632.24729245937
      30
0
      10
1146.73798827517
      20
2632.97364761713
      30
0
      10
1146.73798827517
      20
2633.69999520648
      30
0
      10
1146.73798827517
      20
2633.69999520648
      30
0
      10
1147.89518275666
      20
2633.84026049363
      30
0
      10
1149.02558297773
      20
2634.06529193932
      30
0
      10
1150.12365495449
      20
2634.36978409023
      30
0
      10
1150.12365495449
      20
2634.36978409023
      30
0
      10
1150.39191315918
      20
2633.72178465027
      30
0
      10
1150.6601721207
      20
2633.07379277871
      30
0
      10
1150.92843032538
      20
2632.42580090715
      30
0
      10
1150.92843032538
      20
2632.42580090715
      30
0
      10
1151.02133722664
      20
2632.2014506181
      30
0
      10
1151.16799536844
      20
2632.00162953616
      30
0
      10
1151.36106647016
      20
2631.83650203197
      30
0
      10
1151.36106647016
      20
2631.83650203197
      30
0
      10
1152.05124553733
      20
2631.15987887669
      30
0
      10
1152.74142536134
      20
2630.48326328981
      30
0
      10
1153.43160442852
      20
2629.80664770294
      30
0
      10
1153.43160442852
      20
2629.80664770294
      30
0
      10
1153.6333882248
      20
2629.63403504421
      30
0
      10
1153.96813521777
      20
2629.6025050606
      30
0
      10
1154.27740106056
      20
2629.72693724029
      30
0
      10
1154.27740106056
      20
2629.72693724029
      30
0
      10
1154.73737033289
      20
2629.91282488491
      30
0
      10
1155.19733960523
      20
2630.09870496112
      30
0
      10
1155.6573096344
      20
2630.28459260575
      30
0
      10
1155.6573096344
      20
2630.28459260575
      30
0
      10
1155.99453753536
      20
2630.42027900666
      30
0
      10
1156.22608692969
      20
2630.70812823055
      30
0
      10
1156.22803426839
      20
2630.99408535268
      30
0
      10
1156.22803426839
      20
2630.99408535268
      30
0
      10
1156.23485411644
      20
2631.99034504131
      30
0
      10
1156.2416739645
      20
2632.98661229834
      30
0
      10
1156.24849381255
      20
2633.98287955537
      30
0
      10
1156.24849381255
      20
2633.98287955537
      30
0
      10
1156.24976453998
      20
2634.16824497991
      30
0
      10
1156.21544733099
      20
2634.34700318513
      30
0
      10
1156.14681291301
      20
2634.51270588825
      30
0
      10
1156.14681291301
      20
2634.51270588825
      30
0
      10
1155.86947267785
      20
2635.1822752882
      30
0
      10
1155.59213244269
      20
2635.85184468815
      30
0
      10
1155.31479220753
      20
2636.52140651969
      30
0
      10
1155.31479220753
      20
2636.52140651969
      30
0
      10
1156.32241699961
      20
2637.09201142955
      30
0
      10
1157.28221506237
      20
2637.73584824565
      30
0
      10
1158.18858959452
      20
2638.44593132834
      30
0
      10
1158.18858959452
      20
2638.44593132834
      30
0
      10
1158.68568469377
      20
2637.94864157721
      30
0
      10
1159.18277979302
      20
2637.45135939448
      30
0
      10
1159.67987489227
      20
2636.95406964335
      30
0
      10
1159.67987489227
      20
2636.95406964335
      30
0
      10
1159.8515638669
      20
2636.78233491984
      30
0
      10
1160.06353618771
      20
2636.65386121081
      30
0
      10
1160.30508943861
      20
2636.57518005151
      30
0
      10
1160.30508943861
      20
2636.57518005151
      30
0
      10
1161.20167202824
      20
2636.21418974225
      30
0
      10
1162.09825386103
      20
2635.853199433
      30
0
      10
1162.99483645066
      20
2635.49220912375
      30
0
      10
1162.99483645066
      20
2635.49220912375
      30
0
      10
1163.2472957065
      20
2635.40996324475
      30
0
      10
1163.56861567424
      20
2635.50892016643
      30
0
      10
1163.80672532192
      20
2635.74225415461
      30
0
      10
1163.80672532192
      20
2635.74225415461
      30
0
      10
1164.16055139041
      20
2636.09000732
      30
0
      10
1164.51437745889
      20
2636.43776048539
      30
0
      10
1164.86820428422
      20
2636.78551365078
      30
0
      10
1164.86820428422
      20
2636.78551365078
      30
0
      10
1165.12781790956
      20
2637.03992565249
      30
0
      10
1165.23161038119
      20
2637.39447524738
      30
0
      10
1165.12396410129
      20
2637.65942247165
      30
0
      10
1165.12396410129
      20
2637.65942247165
      30
0
      10
1164.74901625726
      20
2638.58245782243
      30
0
      10
1164.3740676564
      20
2639.50550074162
      30
0
      10
1163.99911905553
      20
2640.4285360924
      30
0
      10
1163.99911905553
      20
2640.4285360924
      30
0
      10
1163.9293569521
      20
2640.6002632475
      30
0
      10
1163.82923437762
      20
2640.75229740756
      30
0
      10
1163.70242047241
      20
2640.87911363546
      30
0
      10
1163.70242047241
      20
2640.87911363546
      30
0
      10
1163.18879532085
      20
2641.39273600892
      30
0
      10
1162.6751701693
      20
2641.90636595079
      30
0
      10
1162.16154501775
      20
2642.41999589267
      30
0
      10
1162.16154501775
      20
2642.41999589267
      30
0
      10
1162.87134278443
      20
2643.32653968457
      30
0
      10
1163.51490530284
      20
2644.28654670361
      30
0
      10
1164.08524092319
      20
2645.29434064452
      30
0
      10
1164.08524092319
      20
2645.29434064452
      30
0
      10
1164.7332718006
      20
2645.02576058488
      30
0
      10
1165.381302678
      20
2644.75718809365
      30
0
      10
1166.02933431224
      20
2644.48861560242
      30
0
      10
1166.02933431224
      20
2644.48861560242
      30
0
      10
1166.25366727653
      20
2644.39566799591
      30
0
      10
1166.49866564433
      20
2644.35809085509
      30
0
      10
1166.75196574482
      20
2644.3778519658
      30
0
      10
1166.75196574482
      20
2644.3778519658
      30
0
      10
1167.71843985681
      20
2644.38744113748
      30
0
      10
1168.68491396881
      20
2644.39703030917
      30
0
      10
1169.6513880808
      20
2644.40661191245
      30
0
      10
1169.6513880808
      20
2644.40661191245
      30
0
      10
1169.91610656411
      20
2644.42725852677
      30
0
      10
1170.17510563872
      20
2644.6416487922
      30
0
      10
1170.3057945436
      20
2644.94833578115
      30
0
      10
1170.3057945436
      20
2644.94833578115
      30
0
      10
1170.49960356029
      20
2645.40502102866
      30
0
      10
1170.69341182015
      20
2645.86170627617
      30
0
      10
1170.88722083684
      20
2646.31839152369
      30
0
      10
1170.88722083684
      20
2646.31839152369
      30
0
      10
1171.02973832958
      20
2646.6527864507
      30
0
      10
1170.98992649215
      20
2647.02007367459
      30
0
      10
1170.7890864702
      20
2647.22365625481
      30
0
      10
1170.7890864702
      20
2647.22365625481
      30
0
      10
1170.08944922512
      20
2647.93295222316
      30
0
      10
1169.38981273687
      20
2648.64224062311
      30
0
      10
1168.6901754918
      20
2649.35152902306
      30
0
      10
1168.6901754918
      20
2649.35152902306
      30
0
      10
1168.55999972164
      20
2649.48348419931
      30
0
      10
1168.40934321592
      20
2649.58561985194
      30
0
      10
1168.24364081304
      20
2649.65425773513
      30
0
      10
1168.24364081304
      20
2649.65425773513
      30
0
      10
1167.57421418551
      20
2649.93154146283
      30
0
      10
1166.90478755797
      20
2650.20882519053
      30
0
      10
1166.23536093043
      20
2650.48611648664
      30
0
      10
1166.23536093043
      20
2650.48611648664
      30
0
      10
1166.53954234983
      20
2651.58427720727
      30
0
      10
1166.76428627599
      20
2652.71476259426
      30
0
      10
1166.9041994965
      20
2653.87200230003
      30
0
      10
1166.9041994965
      20
2653.87200230003
      30
0
      10
1167.60728791316
      20
2653.8718660687
      30
0
      10
1168.31037557298
      20
2653.87172983737
      30
0
      10
1169.01346323281
      20
2653.87159360605
      30
0
      10
1169.01346323281
      20
2653.87159360605
      30
0
      10
1169.25628796798
      20
2653.87157090083
      30
0
      10
1169.49702156563
      20
2653.93061204393
      30
0
      10
1169.72346685884
      20
2654.04578049343
      30
0
      10
1169.72346685884
      20
2654.04578049343
      30
0
      10
1170.61270284265
      20
2654.42450358031
      30
0
      10
1171.50193882646
      20
2654.8032266672
      30
0
      10
1172.3911755671
      20
2655.18194975408
      30
0
      10
1172.3911755671
      20
2655.18194975408
      30
0
      10
1172.62785025397
      20
2655.30231013079
      30
0
      10
1172.78508669077
      20
2655.59949876893
      30
0
      10
1172.78846899028
      20
2655.93285682419
      30
0
      10
1172.78846899028
      20
2655.93285682419
      30
0
      10
1172.79276024968
      20
2656.42895076701
      30
0
      10
1172.79705150908
      20
2656.92503714143
      30
0
      10
1172.80134276848
      20
2657.42113108426
      30
0
      10
1172.80134276848
      20
2657.42113108426
      30
0
      10
1172.8050331002
      20
2657.78460383101
      30
0
      10
1172.62770645515
      20
2658.10869058767
      30
0
      10
1172.36425869928
      20
2658.21992346553
      30
0
    1001
FS_CYPCUT
    1000
Channel
    1070
0
    1000
LeadIn
    1002
{
    1070
1
    1040
1.79817849E-241
    1040
0.0521560318
    1040
3.77223398
    1040
0
    1070
0
    1040
0
    1070
0
    1002
}
    1000
LeadOut
    1002
{
    1070
0
    1040
0
    1040
0
    1040
0
    1070
0
    1002
}
    1000
IsFill
    1070
1
    1000
PathStart
    1040
1.79817849E-241
    1000
ToolCompensation
    1002
{
    1070
0
    1040
0
    1070
0
    1002
}
       0
SPLINE
       5
200C
     100
AcDbEntity
       8
0
     100
AcDbSpline
      70
0
      71
3
      72
48
      73
44
      74
0
      40
0
      40
0
      40
0
      40
0
      40
0.0909090909090909
      40
0.0909090909090909
      40
0.0909090909090909
      40
0.0909090909090909
      40
0.181818181818182
      40
0.181818181818182
      40
0.181818181818182
      40
0.181818181818182
      40
0.272727272727273
      40
0.272727272727273
      40
0.272727272727273
      40
0.272727272727273
      40
0.363636363636364
      40
0.363636363636364
      40
0.363636363636364
      40
0.363636363636364
      40
0.454545454545455
      40
0.454545454545455
      40
0.454545454545455
      40
0.454545454545455
      40
0.545454545454545
      40
0.545454545454545
      40
0.545454545454545
      40
0.545454545454545
      40
0.636363636363636
      40
0.636363636363636
      40
0.636363636363636
      40
0.636363636363636
      40
0.727272727272727
      40
0.727272727272727
      40
0.727272727272727
      40
0.727272727272727
      40
0.818181818181818
      40
0.818181818181818
      40
0.818181818181818
      40
0.818181818181818
      40
0.909090909090909
      40
0.909090909090909
      40
0.909090909090909
      40
0.909090909090909
      40
1
      40
1
      40
1
      40
1
      10
1084.48036589395
      20
2670.31502003719
      30
0
      10
1084.40136589395
      20
2670.17482003719
      30
0
      10
1079.31748089395
      20
2662.44937003719
      30
0
      10
1076.64893189395
      20
2655.77801003719
      30
0
      10
1076.64893189395
      20
2655.77801003719
      30
0
      10
1076.61583689395
      20
2655.69526003719
      30
0
      10
1076.44948189395
      20
2655.30840003719
      30
0
      10
1076.30147189395
      20
2654.96763003719
      30
0
      10
1076.30147189395
      20
2654.96763003719
      30
0
      10
1076.23290789395
      20
2654.78780003719
      30
0
      10
1076.16434289395
      20
2654.60796003719
      30
0
      10
1076.09577889395
      20
2654.42813003719
      30
0
      10
1076.09577889395
      20
2654.42813003719
      30
0
      10
1075.61542489395
      20
2653.34118003719
      30
0
      10
1074.32689389395
      20
2652.84761003719
      30
0
      10
1073.23236589395
      20
2653.33130003719
      30
0
      10
1073.23236589395
      20
2653.33130003719
      30
0
      10
1072.13783789395
      20
2653.81501003719
      30
0
      10
1071.63532689395
      20
2655.10010003719
      30
0
      10
1072.11568089395
      20
2656.18702003719
      30
0
      10
1072.11568089395
      20
2656.18702003719
      30
0
      10
1072.11568089395
      20
2656.18702003719
      30
0
      10
1072.02640989395
      20
2655.95784003719
      30
0
      10
1072.10760689395
      20
2656.18735003719
      30
0
      10
1072.10760689395
      20
2656.18735003719
      30
0
      10
1072.18880389395
      20
2656.41686003719
      30
0
      10
1072.39359289395
      20
2656.94380003719
      30
0
      10
1072.47560789395
      20
2657.23087003719
      30
0
      10
1072.47560789395
      20
2657.23087003719
      30
0
      10
1072.67574589395
      20
2657.93136003719
      30
0
      10
1076.77291189395
      20
2667.69696003719
      30
0
      10
1080.29993589395
      20
2672.78319003719
      30
0
      10
1080.29993589395
      20
2672.78319003719
      30
0
      10
1080.89794089395
      20
2673.92300003719
      30
0
      10
1082.37123189395
      20
2674.53140003719
      30
0
      10
1083.82923689395
      20
2673.70512003719
      30
0
      10
1083.82923689395
      20
2673.70512003719
      30
0
      10
1084.09769789395
      20
2673.55298003719
      30
0
      10
1084.32641989395
      20
2673.33046003719
      30
0
      10
1084.48202589395
      20
2673.06399003719
      30
0
      10
1084.48202589395
      20
2673.06399003719
      30
0
      10
1085.06831989395
      20
2672.05999003719
      30
0
      10
1084.96669689395
      20
2671.04886003719
      30
0
      10
1084.48036589395
      20
2670.31502003719
      30
0
    1001
FS_CYPCUT
    1000
Channel
    1070
0
    1000
LeadIn
    1002
{
    1070
0
    1040
0
    1040
1.570796
    1040
0
    1040
0
    1070
0
    1040
0
    1070
0
    1002
}
    1000
LeadOut
    1002
{
    1070
0
    1040
0
    1040
0
    1040
0
    1070
0
    1002
}
    1000
IsFill
    1070
0
    1000
PathStart
    1040
0
    1000
ToolCompensation
    1002
{
    1070
0
    1040
0
    1070
0
    1002
}
       0
SPLINE
       5
200D
     100
AcDbEntity
       8
0
     100
AcDbSpline
      70
0
      71
3
      72
20
      73
16
      74
0
      40
0
      40
0
      40
0
      40
0
      40
0.25
      40
0.25
      40
0.25
      40
0.25
      40
0.5
      40
0.5
      40
0.5
      40
0.5
      40
0.75
      40
0.75
      40
0.75
      40
0.75
      40
1
      40
1
      40
1
      40
1
      10
1055.30572989395
      20
2638.13718003719
      30
0
      10
1056.42199789395
      20
2635.95596003719
      30
0
      10
1054.14310889395
      20
2633.67707003719
      30
0
      10
1051.96189589395
      20
2634.79334003719
      30
0
      10
1051.96189589395
      20
2634.79334003719
      30
0
      10
1051.49695089395
      20
2635.03129003719
      30
0
      10
1051.11210889395
      20
2635.41622003719
      30
0
      10
1050.87433489395
      20
2635.88125003719
      30
0
      10
1050.87433489395
      20
2635.88125003719
      30
0
      10
1049.75929489395
      20
2638.06201003719
      30
0
      10
1052.03706489395
      20
2640.33978003719
      30
0
      10
1054.21781789395
      20
2639.22474003719
      30
0
      10
1054.21781789395
      20
2639.22474003719
      30
0
      10
1054.68284889395
      20
2638.98696003719
      30
0
      10
1055.06778689395
      20
2638.60212003719
      30
0
      10
1055.30572989395
      20
2638.13718003719
      30
0
    1001
FS_CYPCUT
    1000
Channel
    1070
0
    1000
LeadIn
    1002
{
    1070
0
    1040
0
    1040
1.570796
    1040
0
    1040
0
    1070
0
    1040
0
    1070
0
    1002
}
    1000
LeadOut
    1002
{
    1070
0
    1040
0
    1040
0
    1040
0
    1070
0
    1002
}
    1000
IsFill
    1070
0
    1000
PathStart
    1040
0
    1000
ToolCompensation
    1002
{
    1070
0
    1040
0
    1070
0
    1002
}
       0
SPLINE
       5
200E
     100
AcDbEntity
       8
0
     100
AcDbSpline
      70
0
      71
3
      72
216
      73
212
      74
0
      40
0
      40
0
      40
0
      40
0
      40
0.0188679245283019
      40
0.0188679245283019
      40
0.0188679245283019
      40
0.0188679245283019
      40
0.0377358490566038
      40
0.0377358490566038
      40
0.0377358490566038
      40
0.0377358490566038
      40
0.0566037735849057
      40
0.0566037735849057
      40
0.0566037735849057
      40
0.0566037735849057
      40
0.0754716981132075
      40
0.0754716981132075
      40
0.0754716981132075
      40
0.0754716981132075
      40
0.0943396226415094
      40
0.0943396226415094
      40
0.0943396226415094
      40
0.0943396226415094
      40
0.113207547169811
      40
0.113207547169811
      40
0.113207547169811
      40
0.113207547169811
      40
0.132075471698113
      40
0.132075471698113
      40
0.132075471698113
      40
0.132075471698113
      40
0.150943396226415
      40
0.150943396226415
      40
0.150943396226415
      40
0.150943396226415
      40
0.169811320754717
      40
0.169811320754717
      40
0.169811320754717
      40
0.169811320754717
      40
0.188679245283019
      40
0.188679245283019
      40
0.188679245283019
      40
0.188679245283019
      40
0.207547169811321
      40
0.207547169811321
      40
0.207547169811321
      40
0.207547169811321
      40
0.226415094339623
      40
0.226415094339623
      40
0.226415094339623
      40
0.226415094339623
      40
0.245283018867925
      40
0.245283018867925
      40
0.245283018867925
      40
0.245283018867925
      40
0.264150943396226
      40
0.264150943396226
      40
0.264150943396226
      40
0.264150943396226
      40
0.283018867924528
      40
0.283018867924528
      40
0.283018867924528
      40
0.283018867924528
      40
0.30188679245283
      40
0.30188679245283
      40
0.30188679245283
      40
0.30188679245283
      40
0.320754716981132
      40
0.320754716981132
      40
0.320754716981132
      40
0.320754716981132
      40
0.339622641509434
      40
0.339622641509434
      40
0.339622641509434
      40
0.339622641509434
      40
0.358490566037736
      40
0.358490566037736
      40
0.358490566037736
      40
0.358490566037736
      40
0.377358490566038
      40
0.377358490566038
      40
0.377358490566038
      40
0.377358490566038
      40
0.39622641509434
      40
0.39622641509434
      40
0.39622641509434
      40
0.39622641509434
      40
0.415094339622642
      40
0.415094339622642
      40
0.415094339622642
      40
0.415094339622642
      40
0.433962264150943
      40
0.433962264150943
      40
0.433962264150943
      40
0.433962264150943
      40
0.452830188679245
      40
0.452830188679245
      40
0.452830188679245
      40
0.452830188679245
      40
0.471698113207547
      40
0.471698113207547
      40
0.471698113207547
      40
0.471698113207547
      40
0.490566037735849
      40
0.490566037735849
      40
0.490566037735849
      40
0.490566037735849
      40
0.509433962264151
      40
0.509433962264151
      40
0.509433962264151
      40
0.509433962264151
      40
0.528301886792453
      40
0.528301886792453
      40
0.528301886792453
      40
0.528301886792453
      40
0.547169811320755
      40
0.547169811320755
      40
0.547169811320755
      40
0.547169811320755
      40
0.566037735849057
      40
0.566037735849057
      40
0.566037735849057
      40
0.566037735849057
      40
0.584905660377358
      40
0.584905660377358
      40
0.584905660377358
      40
0.584905660377358
      40
0.60377358490566
      40
0.60377358490566
      40
0.60377358490566
      40
0.60377358490566
      40
0.622641509433962
      40
0.622641509433962
      40
0.622641509433962
      40
0.622641509433962
      40
0.641509433962264
      40
0.641509433962264
      40
0.641509433962264
      40
0.641509433962264
      40
0.660377358490566
      40
0.660377358490566
      40
0.660377358490566
      40
0.660377358490566
      40
0.679245283018868
      40
0.679245283018868
      40
0.679245283018868
      40
0.679245283018868
      40
0.69811320754717
      40
0.69811320754717
      40
0.69811320754717
      40
0.69811320754717
      40
0.716981132075472
      40
0.716981132075472
      40
0.716981132075472
      40
0.716981132075472
      40
0.735849056603774
      40
0.735849056603774
      40
0.735849056603774
      40
0.735849056603774
      40
0.754716981132076
      40
0.754716981132076
      40
0.754716981132076
      40
0.754716981132076
      40
0.773584905660377
      40
0.773584905660377
      40
0.773584905660377
      40
0.773584905660377
      40
0.792452830188679
      40
0.792452830188679
      40
0.792452830188679
      40
0.792452830188679
      40
0.811320754716981
      40
0.811320754716981
      40
0.811320754716981
      40
0.811320754716981
      40
0.830188679245283
      40
0.830188679245283
      40
0.830188679245283
      40
0.830188679245283
      40
0.849056603773585
      40
0.849056603773585
      40
0.849056603773585
      40
0.849056603773585
      40
0.867924528301887
      40
0.867924528301887
      40
0.867924528301887
      40
0.867924528301887
      40
0.886792452830189
      40
0.886792452830189
      40
0.886792452830189
      40
0.886792452830189
      40
0.905660377358491
      40
0.905660377358491
      40
0.905660377358491
      40
0.905660377358491
      40
0.924528301886792
      40
0.924528301886792
      40
0.924528301886792
      40
0.924528301886792
      40
0.943396226415094
      40
0.943396226415094
      40
0.943396226415094
      40
0.943396226415094
      40
0.962264150943396
      40
0.962264150943396
      40
0.962264150943396
      40
0.962264150943396
      40
0.981132075471698
      40
0.981132075471698
      40
0.981132075471698
      40
0.981132075471698
      40
1
      40
1
      40
1
      40
1
      10
1100.21785789395
      20
2686.28141003719
      30
0
      10
1097.39262789395
      20
2685.56972003719
      30
0
      10
1094.99932089395
      20
2684.96024003719
      30
0
      10
1091.58051189395
      20
2684.05743003719
      30
0
      10
1091.58051189395
      20
2684.05743003719
      30
0
      10
1090.56090389395
      20
2683.78239003719
      30
0
      10
1089.54129489395
      20
2683.50734003719
      30
0
      10
1088.52168589395
      20
2683.23230003719
      30
0
      10
1088.52168589395
      20
2683.23230003719
      30
0
      10
1088.06588989395
      20
2683.10474003719
      30
0
      10
1087.61009289395
      20
2682.97718003719
      30
0
      10
1087.15429689395
      20
2682.84962003719
      30
0
      10
1087.15429689395
      20
2682.84962003719
      30
0
      10
1086.75850089395
      20
2682.73439003719
      30
0
      10
1086.36270589395
      20
2682.61915003719
      30
0
      10
1085.96691089395
      20
2682.50391003719
      30
0
      10
1085.96691089395
      20
2682.50391003719
      30
0
      10
1085.64911289395
      20
2682.40525003719
      30
0
      10
1085.33131489395
      20
2682.30659003719
      30
0
      10
1085.01351789395
      20
2682.20794003719
      30
0
      10
1085.01351789395
      20
2682.20794003719
      30
0
      10
1084.88949189395
      20
2682.16616003719
      30
0
      10
1084.76546689395
      20
2682.12438003719
      30
0
      10
1084.64144089395
      20
2682.08259003719
      30
0
      10
1084.64144089395
      20
2682.08259003719
      30
0
      10
1084.30761189395
      20
2681.96560003719
      30
0
      10
1084.09189989395
      20
2681.87444003719
      30
0
      10
1084.02467489395
      20
2681.81631003719
      30
0
      10
1084.02467489395
      20
2681.81631003719
      30
0
      10
1083.96987489395
      20
2681.74982003719
      30
0
      10
1083.91507589395
      20
2681.68333003719
      30
0
      10
1083.86027689395
      20
2681.61685003719
      30
0
      10
1083.86027689395
      20
2681.61685003719
      30
0
      10
1083.75194989395
      20
2681.47154003719
      30
0
      10
1083.64362289395
      20
2681.32624003719
      30
0
      10
1083.53529589395
      20
2681.18093003719
      30
0
      10
1083.53529589395
      20
2681.18093003719
      30
0
      10
1083.38004189395
      20
2680.96615003719
      30
0
      10
1083.22478689395
      20
2680.75137003719
      30
0
      10
1083.06953289395
      20
2680.53659003719
      30
0
      10
1083.06953289395
      20
2680.53659003719
      30
0
      10
1082.29200389395
      20
2679.47951003719
      30
0
      10
1079.54513689395
      20
2675.46394003719
      30
0
      10
1079.41395889395
      20
2675.24725003719
      30
0
      10
1079.41395889395
      20
2675.24725003719
      30
0
      10
1078.01378489395
      20
2673.16191003719
      30
0
      10
1076.58770589395
      20
2670.96443003719
      30
0
      10
1075.60295989395
      20
2669.28508003719
      30
0
      10
1075.60295989395
      20
2669.28508003719
      30
0
      10
1075.20906089395
      20
2668.61334003719
      30
0
      10
1074.88577589395
      20
2668.02450003719
      30
0
      10
1074.66300689395
      20
2667.55890003719
      30
0
      10
1074.66300689395
      20
2667.55890003719
      30
0
      10
1074.44756589395
      20
2667.09904003719
      30
0
      10
1074.23212589395
      20
2666.63917003719
      30
0
      10
1074.01668489395
      20
2666.17931003719
      30
0
      10
1074.01668489395
      20
2666.17931003719
      30
0
      10
1073.12772289395
      20
2664.28838003719
      30
0
      10
1072.23876089395
      20
2662.39744003719
      30
0
      10
1071.34979889395
      20
2660.50651003719
      30
0
      10
1071.34979889395
      20
2660.50651003719
      30
0
      10
1070.16162589395
      20
2658.00512003719
      30
0
      10
1068.72296989395
      20
2654.87128003719
      30
0
      10
1068.65789289395
      20
2654.76518003719
      30
0
      10
1068.65789289395
      20
2654.76518003719
      30
0
      10
1067.89074989395
      20
2653.17790003719
      30
0
      10
1067.10830689395
      20
2651.79282003719
      30
0
      10
1065.76851489395
      20
2650.21539003719
      30
0
      10
1065.76851489395
      20
2650.21539003719
      30
0
      10
1065.49701289395
      20
2649.90175003719
      30
0
      10
1065.22551189395
      20
2649.58810003719
      30
0
      10
1064.95400989395
      20
2649.27446003719
      30
0
      10
1064.95400989395
      20
2649.27446003719
      30
0
      10
1064.68403189395
      20
2648.97176003719
      30
0
      10
1064.41405289395
      20
2648.66906003719
      30
0
      10
1064.14407489395
      20
2648.36636003719
      30
0
      10
1064.14407489395
      20
2648.36636003719
      30
0
      10
1062.93339289395
      20
2647.03955003719
      30
0
      10
1061.74239989395
      20
2645.89585003719
      30
0
      10
1060.58050989395
      20
2645.26003003719
      30
0
      10
1060.58050989395
      20
2645.26003003719
      30
0
      10
1060.32231189395
      20
2645.11874003719
      30
0
      10
1060.06555189395
      20
2645.00253003719
      30
0
      10
1059.81033189395
      20
2644.91496003719
      30
0
      10
1059.81033189395
      20
2644.91496003719
      30
0
      10
1059.65936889395
      20
2644.85698003719
      30
0
      10
1059.28651789395
      20
2644.76471003719
      30
0
      10
1058.96275289395
      20
2644.72491003719
      30
0
      10
1058.96275289395
      20
2644.72491003719
      30
0
      10
1058.39016689395
      20
2644.65100003719
      30
0
      10
1058.04499989395
      20
2644.64058003719
      30
0
      10
1057.58556089395
      20
2644.64796003719
      30
0
      10
1057.58556089395
      20
2644.64796003719
      30
0
      10
1057.00716689395
      20
2644.66235003719
      30
0
      10
1056.43076889395
      20
2644.73572003719
      30
0
      10
1055.86701689395
      20
2644.86912003719
      30
0
      10
1055.86701689395
      20
2644.86912003719
      30
0
      10
1055.65368389395
      20
2644.92336003719
      30
0
      10
1055.44035089395
      20
2644.97759003719
      30
0
      10
1055.22701789395
      20
2645.03182003719
      30
0
      10
1055.22701789395
      20
2645.03182003719
      30
0
      10
1054.69278489395
      20
2645.15366003719
      30
0
      10
1054.13820589395
      20
2645.22044003719
      30
0
      10
1053.56899289395
      20
2645.22531003719
      30
0
      10
1053.56899289395
      20
2645.22531003719
      30
0
      10
1053.53812089395
      20
2645.22539003719
      30
0
      10
1053.50724989395
      20
2645.22547003719
      30
0
      10
1053.47637789395
      20
2645.22555003719
      30
0
      10
1053.47637789395
      20
2645.22555003719
      30
0
      10
1048.98413689395
      20
2645.21322003719
      30
0
      10
1045.37376989395
      20
2641.37432003719
      30
0
      10
1045.60414489395
      20
2636.74811003719
      30
0
      10
1045.60414489395
      20
2636.74811003719
      30
0
      10
1045.82330189395
      20
2632.33006003719
      30
0
      10
1049.51057089395
      20
2628.32410003719
      30
0
      10
1053.85717589395
      20
2629.15643003719
      30
0
      10
1053.85717589395
      20
2629.15643003719
      30
0
      10
1056.10057289395
      20
2629.52181003719
      30
0
      10
1057.24974789395
      20
2630.33429003719
      30
0
      10
1058.12892889395
      20
2631.31794003719
      30
0
      10
1058.12892889395
      20
2631.31794003719
      30
0
      10
1058.78831489395
      20
2632.05568003719
      30
0
      10
1059.29582889395
      20
2632.88971003719
      30
0
      10
1059.99919289395
      20
2633.70362003719
      30
0
      10
1059.99919289395
      20
2633.70362003719
      30
0
      10
1060.24834089395
      20
2633.99680003719
      30
0
      10
1060.43029389395
      20
2634.17984003719
      30
0
      10
1060.80831389395
      20
2634.44968003719
      30
0
      10
1060.80831389395
      20
2634.44968003719
      30
0
      10
1060.90487789395
      20
2634.51675003719
      30
0
      10
1061.00144189395
      20
2634.58382003719
      30
0
      10
1061.09800589395
      20
2634.65089003719
      30
0
      10
1061.09800589395
      20
2634.65089003719
      30
0
      10
1061.20737389395
      20
2634.72253003719
      30
0
      10
1061.31674289395
      20
2634.79417003719
      30
0
      10
1061.42611089395
      20
2634.86581003719
      30
0
      10
1061.42611089395
      20
2634.86581003719
      30
0
      10
1062.35035989395
      20
2635.45807003719
      30
0
      10
1063.66133089395
      20
2636.20717003719
      30
0
      10
1065.17481789395
      20
2637.19828003719
      30
0
      10
1065.17481789395
      20
2637.19828003719
      30
0
      10
1068.01260589395
      20
2639.05660003719
      30
0
      10
1071.56236289395
      20
2641.76574003719
      30
0
      10
1074.60983389395
      20
2645.88714003719
      30
0
      10
1074.60983389395
      20
2645.88714003719
      30
0
      10
1074.71084289395
      20
2646.02609003719
      30
0
      10
1074.81185189395
      20
2646.16505003719
      30
0
      10
1074.91286089395
      20
2646.30400003719
      30
0
      10
1074.91286089395
      20
2646.30400003719
      30
0
      10
1075.21412489395
      20
2646.72562003719
      30
0
      10
1075.50996089395
      20
2647.16155003719
      30
0
      10
1075.79915489395
      20
2647.61235003719
      30
0
      10
1075.79915489395
      20
2647.61235003719
      30
0
      10
1075.87803289395
      20
2647.73722003719
      30
0
      10
1075.95691089395
      20
2647.86209003719
      30
0
      10
1076.03578889395
      20
2647.98697003719
      30
0
      10
1076.03578889395
      20
2647.98697003719
      30
0
      10
1076.03579289395
      20
2647.98697003719
      30
0
      10
1076.03579289395
      20
2647.98697003719
      30
0
      10
1076.03580589395
      20
2647.98700003719
      30
0
      10
1076.03580589395
      20
2647.98700003719
      30
0
      10
1076.45465289395
      20
2648.76098003719
      30
0
      10
1076.75300589395
      20
2649.32748003719
      30
0
      10
1077.26483289395
      20
2650.35931003719
      30
0
      10
1077.26483289395
      20
2650.35931003719
      30
0
      10
1077.42388289395
      20
2650.69071003719
      30
0
      10
1077.58293189395
      20
2651.02211003719
      30
0
      10
1077.74198089395
      20
2651.35351003719
      30
0
      10
1077.74198089395
      20
2651.35351003719
      30
0
      10
1078.13853689395
      20
2652.20344003719
      30
0
      10
1078.50974289395
      20
2653.07120003719
      30
0
      10
1078.75383589395
      20
2653.80023003719
      30
0
      10
1078.75383589395
      20
2653.80023003719
      30
0
      10
1078.82712489395
      20
2653.98846003719
      30
0
      10
1078.90041489395
      20
2654.17669003719
      30
0
      10
1078.97370389395
      20
2654.36492003719
      30
0
      10
1078.97370389395
      20
2654.36492003719
      30
0
      10
1079.07825589395
      20
2654.60827003719
      30
0
      10
1079.18280789395
      20
2654.85162003719
      30
0
      10
1079.28735889395
      20
2655.09498003719
      30
0
      10
1079.28735889395
      20
2655.09498003719
      30
0
      10
1079.64341689395
      20
2655.89911003719
      30
0
      10
1080.11994289395
      20
2656.91257003719
      30
0
      10
1080.65630389395
      20
2658.01912003719
      30
0
      10
1080.65630389395
      20
2658.01912003719
      30
0
      10
1081.03448189395
      20
2658.78672003719
      30
0
      10
1081.41266089395
      20
2659.55432003719
      30
0
      10
1081.79083889395
      20
2660.32192003719
      30
0
      10
1081.79083889395
      20
2660.32192003719
      30
0
      10
1082.96922189395
      20
2662.67998003719
      30
0
      10
1084.22524989395
      20
2665.10051003719
      30
0
      10
1085.07384589395
      20
2666.65374003719
      30
0
      10
1085.07384589395
      20
2666.65374003719
      30
0
      10
1085.48822289395
      20
2667.41429003719
      30
0
      10
1085.83008189395
      20
2668.00501003719
      30
0
      10
1086.04261289395
      20
2668.32035003719
      30
0
      10
1086.04261289395
      20
2668.32035003719
      30
0
      10
1086.32220489395
      20
2668.75200003719
      30
0
      10
1086.67787389395
      20
2669.26649003719
      30
0
      10
1087.09081889395
      20
2669.84197003719
      30
0
      10
1087.09081889395
      20
2669.84197003719
      30
0
      10
1088.74260189395
      20
2672.14393003719
      30
0
      10
1091.31081589395
      20
2675.42188003719
      30
0
      10
1093.59225189395
      20
2678.27807003719
      30
0
      10
1093.59225189395
      20
2678.27807003719
      30
0
      10
1095.87368889395
      20
2681.13426003719
      30
0
      10
1097.86834789395
      20
2683.56868003719
      30
0
      10
1098.37302089395
      20
2684.18357003719
      30
0
      10
1098.37302089395
      20
2684.18357003719
      30
0
      10
1098.55454089395
      20
2684.40847003719
      30
0
      10
1099.08465189395
      20
2684.99579003719
      30
0
      10
1100.21785789395
      20
2686.28141003719
      30
0
    1001
FS_CYPCUT
    1000
Channel
    1070
0
    1000
LeadIn
    1002
{
    1070
0
    1040
0
    1040
0
    1040
0
    1040
0
    1070
0
    1040
0
    1070
0
    1002
}
    1000
LeadOut
    1002
{
    1070
0
    1040
0
    1040
0
    1040
0
    1070
0
    1002
}
    1000
IsFill
    1070
1
    1000
PathStart
    1040
0
    1000
ToolCompensation
    1002
{
    1070
0
    1040
0
    1070
0
    1002
}
       0
SPLINE
       5
200F
     100
AcDbEntity
       8
0
     100
AcDbSpline
      70
0
      71
3
      72
164
      73
160
      74
0
      40
0
      40
0
      40
0
      40
0
      40
0.025
      40
0.025
      40
0.025
      40
0.025
      40
0.05
      40
0.05
      40
0.05
      40
0.05
      40
0.075
      40
0.075
      40
0.075
      40
0.075
      40
0.1
      40
0.1
      40
0.1
      40
0.1
      40
0.125
      40
0.125
      40
0.125
      40
0.125
      40
0.15
      40
0.15
      40
0.15
      40
0.15
      40
0.175
      40
0.175
      40
0.175
      40
0.175
      40
0.2
      40
0.2
      40
0.2
      40
0.2
      40
0.225
      40
0.225
      40
0.225
      40
0.225
      40
0.25
      40
0.25
      40
0.25
      40
0.25
      40
0.275
      40
0.275
      40
0.275
      40
0.275
      40
0.3
      40
0.3
      40
0.3
      40
0.3
      40
0.325
      40
0.325
      40
0.325
      40
0.325
      40
0.35
      40
0.35
      40
0.35
      40
0.35
      40
0.375
      40
0.375
      40
0.375
      40
0.375
      40
0.4
      40
0.4
      40
0.4
      40
0.4
      40
0.425
      40
0.425
      40
0.425
      40
0.425
      40
0.45
      40
0.45
      40
0.45
      40
0.45
      40
0.475
      40
0.475
      40
0.475
      40
0.475
      40
0.5
      40
0.5
      40
0.5
      40
0.5
      40
0.525
      40
0.525
      40
0.525
      40
0.525
      40
0.55
      40
0.55
      40
0.55
      40
0.55
      40
0.575
      40
0.575
      40
0.575
      40
0.575
      40
0.6
      40
0.6
      40
0.6
      40
0.6
      40
0.625
      40
0.625
      40
0.625
      40
0.625
      40
0.65
      40
0.65
      40
0.65
      40
0.65
      40
0.675
      40
0.675
      40
0.675
      40
0.675
      40
0.7
      40
0.7
      40
0.7
      40
0.7
      40
0.725
      40
0.725
      40
0.725
      40
0.725
      40
0.75
      40
0.75
      40
0.75
      40
0.75
      40
0.775
      40
0.775
      40
0.775
      40
0.775
      40
0.8
      40
0.8
      40
0.8
      40
0.8
      40
0.825
      40
0.825
      40
0.825
      40
0.825
      40
0.85
      40
0.85
      40
0.85
      40
0.85
      40
0.875
      40
0.875
      40
0.875
      40
0.875
      40
0.9
      40
0.9
      40
0.9
      40
0.9
      40
0.925
      40
0.925
      40
0.925
      40
0.925
      40
0.95
      40
0.95
      40
0.95
      40
0.95
      40
0.975
      40
0.975
      40
0.975
      40
0.975
      40
1
      40
1
      40
1
      40
1
      10
1125.21800025567
      20
2595.69296139638
      30
0
      10
1124.74145325567
      20
2593.70367139638
      30
0
      10
1124.26490725567
      20
2591.71439139638
      30
0
      10
1123.78836025567
      20
2589.72511139638
      30
0
      10
1123.78836025567
      20
2589.72511139638
      30
0
      10
1123.71242225567
      20
2589.51184139638
      30
0
      10
1123.47869825567
      20
2589.39333139638
      30
0
      10
1123.25871825567
      20
2589.46444139638
      30
0
      10
1123.25871825567
      20
2589.46444139638
      30
0
      10
1122.80299925567
      20
2589.61853139638
      30
0
      10
1122.34727925567
      20
2589.77262139638
      30
0
      10
1121.89155925567
      20
2589.92671139638
      30
0
      10
1121.89155925567
      20
2589.92671139638
      30
0
      10
1114.66893225567
      20
2592.36908139638
      30
0
      10
1107.44630525567
      20
2594.81145139638
      30
0
      10
1100.22367825567
      20
2597.25382139638
      30
0
      10
1100.22367825567
      20
2597.25382139638
      30
0
      10
1097.52067325567
      20
2598.16786139638
      30
0
      10
1094.81766825567
      20
2599.08189139638
      30
0
      10
1092.11466325567
      20
2599.99593139638
      30
0
      10
1092.11466325567
      20
2599.99593139638
      30
0
      10
1091.91775225567
      20
2600.06279139638
      30
0
      10
1091.72084225567
      20
2600.12965139638
      30
0
      10
1091.52393125567
      20
2600.19651139638
      30
0
      10
1091.52393125567
      20
2600.19651139638
      30
0
      10
1091.29502325567
      20
2600.28318139638
      30
0
      10
1091.09766325567
      20
2600.43765139638
      30
0
      10
1090.95849725567
      20
2600.63960139638
      30
0
      10
1090.95849725567
      20
2600.63960139638
      30
0
      10
1090.65831825567
      20
2601.08486139638
      30
0
      10
1090.35814025567
      20
2601.53011139638
      30
0
      10
1090.05796125567
      20
2601.97536139638
      30
0
      10
1090.05796125567
      20
2601.97536139638
      30
0
      10
1088.68328625567
      20
2604.01457139638
      30
0
      10
1087.30861025567
      20
2606.05378139638
      30
0
      10
1085.93393425567
      20
2608.09299139638
      30
0
      10
1085.93393425567
      20
2608.09299139638
      30
0
      10
1085.69280525567
      20
2608.45119139638
      30
0
      10
1085.45167525567
      20
2608.80938139638
      30
0
      10
1085.21054625567
      20
2609.16758139638
      30
0
      10
1085.21054625567
      20
2609.16758139638
      30
0
      10
1085.06911925567
      20
2609.39716139638
      30
0
      10
1085.02681325567
      20
2609.67472139638
      30
0
      10
1085.09397225567
      20
2609.93647139638
      30
0
      10
1085.09397225567
      20
2609.93647139638
      30
0
      10
1085.16440025567
      20
2610.18958139638
      30
0
      10
1085.23482925567
      20
2610.44268139638
      30
0
      10
1085.30525725567
      20
2610.69579139638
      30
0
      10
1085.30525725567
      20
2610.69579139638
      30
0
      10
1085.88958625567
      20
2612.79358139638
      30
0
      10
1086.47391425567
      20
2614.89138139638
      30
0
      10
1087.05824325567
      20
2616.98918139638
      30
0
      10
1087.05824325567
      20
2616.98918139638
      30
0
      10
1088.41801825567
      20
2621.87090139638
      30
0
      10
1089.77779325567
      20
2626.75262139638
      30
0
      10
1091.13756825567
      20
2631.63435139638
      30
0
      10
1091.13756825567
      20
2631.63435139638
      30
0
      10
1091.19354025567
      20
2631.83326139638
      30
0
      10
1091.24951225567
      20
2632.03217139638
      30
0
      10
1091.30548425567
      20
2632.23107139638
      30
0
      10
1091.30548425567
      20
2632.23107139638
      30
0
      10
1091.43491225567
      20
2632.59929139638
      30
0
      10
1091.83277825567
      20
2632.80249139638
      30
0
      10
1092.20770325567
      20
2632.68997139638
      30
0
      10
1092.20770325567
      20
2632.68997139638
      30
0
      10
1092.95996625567
      20
2632.42030139638
      30
0
      10
1093.71223025567
      20
2632.15062139638
      30
0
      10
1094.46449425567
      20
2631.88095139638
      30
0
      10
1094.46449425567
      20
2631.88095139638
      30
0
      10
1095.21515225567
      20
2631.61133139638
      30
0
      10
1095.96581125567
      20
2631.34171139638
      30
0
      10
1096.71647025567
      20
2631.07209139638
      30
0
      10
1096.71647025567
      20
2631.07209139638
      30
0
      10
1097.04084625567
      20
2630.94646139638
      30
0
      10
1097.30727925567
      20
2630.70531139638
      30
0
      10
1097.46457325567
      20
2630.39529139638
      30
0
      10
1097.46457325567
      20
2630.39529139638
      30
0
      10
1097.48921425567
      20
2630.34327139638
      30
0
      10
1097.51385525567
      20
2630.29125139638
      30
0
      10
1097.53849525567
      20
2630.23923139638
      30
0
      10
1097.53849525567
      20
2630.23923139638
      30
0
      10
1098.02428925567
      20
2629.20304139638
      30
0
      10
1098.51008225567
      20
2628.16685139638
      30
0
      10
1098.99587525567
      20
2627.13066139638
      30
0
      10
1098.99587525567
      20
2627.13066139638
      30
0
      10
1099.20463325567
      20
2626.68539139638
      30
0
      10
1099.41339025567
      20
2626.24011139638
      30
0
      10
1099.62214725567
      20
2625.79483139638
      30
0
      10
1099.62214725567
      20
2625.79483139638
      30
0
      10
1099.64953625567
      20
2625.73628139638
      30
0
      10
1099.67692425567
      20
2625.67773139638
      30
0
      10
1099.70431325567
      20
2625.61917139638
      30
0
      10
1099.70431325567
      20
2625.61917139638
      30
0
      10
1099.81547825567
      20
2625.37132139638
      30
0
      10
1099.84096225567
      20
2625.09370139638
      30
0
      10
1099.77711525567
      20
2624.83008139638
      30
0
      10
1099.77711525567
      20
2624.83008139638
      30
0
      10
1099.64827925567
      20
2624.36422139638
      30
0
      10
1099.51944325567
      20
2623.89835139638
      30
0
      10
1099.39060825567
      20
2623.43249139638
      30
0
      10
1099.39060825567
      20
2623.43249139638
      30
0
      10
1099.02669625567
      20
2622.11313139638
      30
0
      10
1098.66278425567
      20
2620.79376139638
      30
0
      10
1098.29887325567
      20
2619.47440139638
      30
0
      10
1098.29887325567
      20
2619.47440139638
      30
0
      10
1097.91593725567
      20
2618.07024139638
      30
0
      10
1097.53300125567
      20
2616.66607139638
      30
0
      10
1097.15006625567
      20
2615.26191139638
      30
0
      10
1097.15006625567
      20
2615.26191139638
      30
0
      10
1097.02222325567
      20
2614.78019139638
      30
0
      10
1096.89438125567
      20
2614.29847139638
      30
0
      10
1096.76653925567
      20
2613.81674139638
      30
0
      10
1096.76653925567
      20
2613.81674139638
      30
0
      10
1096.73090725567
      20
2613.67510139638
      30
0
      10
1096.69527625567
      20
2613.53346139638
      30
0
      10
1096.65964425567
      20
2613.39182139638
      30
0
      10
1096.65964425567
      20
2613.39182139638
      30
0
      10
1096.64681625567
      20
2613.33029139638
      30
0
      10
1096.63398825567
      20
2613.26877139638
      30
0
      10
1096.62116025567
      20
2613.20724139638
      30
0
      10
1096.62116025567
      20
2613.20724139638
      30
0
      10
1096.59041325567
      20
2612.99786139638
      30
0
      10
1096.55966625567
      20
2612.78848139638
      30
0
      10
1096.52891925567
      20
2612.57911139638
      30
0
      10
1096.52891925567
      20
2612.57911139638
      30
0
      10
1096.43879725567
      20
2611.93349139638
      30
0
      10
1096.33232425567
      20
2611.05367139638
      30
0
      10
1096.33537825567
      20
2610.47392139638
      30
0
      10
1096.33537825567
      20
2610.47392139638
      30
0
      10
1096.33552925567
      20
2610.27921139638
      30
0
      10
1096.36202325567
      20
2609.89036139638
      30
0
      10
1096.40081225567
      20
2609.62094139638
      30
0
      10
1096.40081225567
      20
2609.62094139638
      30
0
      10
1096.74593025567
      20
2607.08372139638
      30
0
      10
1098.36325825567
      20
2605.63114139638
      30
0
      10
1101.17367025567
      20
2604.36105139638
      30
0
      10
1101.17367025567
      20
2604.36105139638
      30
0
      10
1101.37131725567
      20
2604.27511139638
      30
0
      10
1101.56896425567
      20
2604.18918139638
      30
0
      10
1101.76661125567
      20
2604.10324139638
      30
0
      10
1101.76661125567
      20
2604.10324139638
      30
0
      10
1102.18049025567
      20
2603.96220139638
      30
0
      10
1102.59436925567
      20
2603.82116139638
      30
0
      10
1103.00824825567
      20
2603.68012139638
      30
0
      10
1103.00824825567
      20
2603.68012139638
      30
0
      10
1105.38157225567
      20
2602.87135139638
      30
0
      10
1107.75489725567
      20
2602.06258139638
      30
0
      10
1110.12822125567
      20
2601.25381139638
      30
0
      10
1110.12822125567
      20
2601.25381139638
      30
0
      10
1114.97705525567
      20
2599.60145139638
      30
0
      10
1119.82589025567
      20
2597.94909139638
      30
0
      10
1124.67472525567
      20
2596.29673139638
      30
0
      10
1124.67472525567
      20
2596.29673139638
      30
0
      10
1124.77598425567
      20
2596.26130139638
      30
0
      10
1124.87724425567
      20
2596.22587139638
      30
0
      10
1124.97850325567
      20
2596.19043139638
      30
0
      10
1124.97850325567
      20
2596.19043139638
      30
0
      10
1125.16423225567
      20
2596.10351139638
      30
0
      10
1125.26668325567
      20
2595.89652139638
      30
0
      10
1125.21800025567
      20
2595.69296139638
      30
0
    1001
FS_CYPCUT
    1000
Channel
    1070
0
    1000
LeadIn
    1002
{
    1070
0
    1040
0
    1040
1.570796
    1040
0
    1040
0
    1070
0
    1040
0
    1070
0
    1002
}
    1000
LeadOut
    1002
{
    1070
0
    1040
0
    1040
0
    1040
0
    1070
0
    1002
}
    1000
IsFill
    1070
0
    1000
PathStart
    1040
0
    1000
ToolCompensation
    1002
{
    1070
0
    1040
0
    1070
0
    1002
}
       0
SPLINE
       5
2010
     100
AcDbEntity
       8
0
     100
AcDbSpline
      70
0
      71
3
      72
76
      73
72
      74
0
      40
0
      40
0
      40
0
      40
0
      40
0.0555555555555556
      40
0.0555555555555556
      40
0.0555555555555556
      40
0.0555555555555556
      40
0.111111111111111
      40
0.111111111111111
      40
0.111111111111111
      40
0.111111111111111
      40
0.166666666666667
      40
0.166666666666667
      40
0.166666666666667
      40
0.166666666666667
      40
0.222222222222222
      40
0.222222222222222
      40
0.222222222222222
      40
0.222222222222222
      40
0.277777777777778
      40
0.277777777777778
      40
0.277777777777778
      40
0.277777777777778
      40
0.333333333333333
      40
0.333333333333333
      40
0.333333333333333
      40
0.333333333333333
      40
0.388888888888889
      40
0.388888888888889
      40
0.388888888888889
      40
0.388888888888889
      40
0.444444444444444
      40
0.444444444444444
      40
0.444444444444444
      40
0.444444444444444
      40
0.5
      40
0.5
      40
0.5
      40
0.5
      40
0.555555555555556
      40
0.555555555555556
      40
0.555555555555556
      40
0.555555555555556
      40
0.611111111111111
      40
0.611111111111111
      40
0.611111111111111
      40
0.611111111111111
      40
0.666666666666667
      40
0.666666666666667
      40
0.666666666666667
      40
0.666666666666667
      40
0.722222222222222
      40
0.722222222222222
      40
0.722222222222222
      40
0.722222222222222
      40
0.777777777777778
      40
0.777777777777778
      40
0.777777777777778
      40
0.777777777777778
      40
0.833333333333333
      40
0.833333333333333
      40
0.833333333333333
      40
0.833333333333333
      40
0.888888888888889
      40
0.888888888888889
      40
0.888888888888889
      40
0.888888888888889
      40
0.944444444444444
      40
0.944444444444444
      40
0.944444444444444
      40
0.944444444444444
      40
1
      40
1
      40
1
      40
1
      10
1128.16220025567
      20
2597.95068139638
      30
0
      10
1128.16220025567
      20
2597.95068139638
      30
0
      10
1103.91400325567
      20
2606.25069139638
      30
0
      10
1103.62737125567
      20
2606.34252139638
      30
0
      10
1103.62737125567
      20
2606.34252139638
      30
0
      10
1101.23753025567
      20
2607.10820139638
      30
0
      10
1099.43813525567
      20
2608.63719139638
      30
0
      10
1099.43813525567
      20
2611.40178139638
      30
0
      10
1099.43813525567
      20
2611.40178139638
      30
0
      10
1099.43813525567
      20
2612.03862139638
      30
0
      10
1099.54878725567
      20
2612.64617139638
      30
0
      10
1099.74173425567
      20
2613.21073139638
      30
0
      10
1099.74173425567
      20
2613.21073139638
      30
0
      10
1099.74098025567
      20
2613.21189139638
      30
0
      10
1099.74022725567
      20
2613.21306139638
      30
0
      10
1099.73947325567
      20
2613.21422139638
      30
0
      10
1099.73947325567
      20
2613.21422139638
      30
0
      10
1100.73599625567
      20
2616.73105139638
      30
0
      10
1101.73251825567
      20
2620.24788139638
      30
0
      10
1102.72904125567
      20
2623.76472139638
      30
0
      10
1102.72904125567
      20
2623.76472139638
      30
0
      10
1103.05901625567
      20
2624.40354139638
      30
0
      10
1103.07505825567
      20
2625.16097139638
      30
0
      10
1102.77247025567
      20
2625.81343139638
      30
0
      10
1102.77247025567
      20
2625.81343139638
      30
0
      10
1101.71652025567
      20
2628.09044139638
      30
0
      10
1100.66057025567
      20
2630.36746139638
      30
0
      10
1099.60461925567
      20
2632.64447139638
      30
0
      10
1099.60461925567
      20
2632.64447139638
      30
0
      10
1099.48404125567
      20
2632.90445139638
      30
0
      10
1099.26471725567
      20
2633.10446139638
      30
0
      10
1098.99612925567
      20
2633.19935139638
      30
0
      10
1098.99612925567
      20
2633.19935139638
      30
0
      10
1096.09927025567
      20
2634.22265139638
      30
0
      10
1093.20241225567
      20
2635.24595139638
      30
0
      10
1090.30555325567
      20
2636.26925139638
      30
0
      10
1090.30555325567
      20
2636.26925139638
      30
0
      10
1090.05597725567
      20
2636.35742139638
      30
0
      10
1089.78403025567
      20
2636.21712139638
      30
0
      10
1089.70886225567
      20
2635.96141139638
      30
0
      10
1089.70886225567
      20
2635.96141139638
      30
0
      10
1087.18141825567
      20
2627.36491139638
      30
0
      10
1084.65397425567
      20
2618.76840139638
      30
0
      10
1082.12653025567
      20
2610.17190139638
      30
0
      10
1082.12653025567
      20
2610.17190139638
      30
0
      10
1081.98881225567
      20
2609.70352139638
      30
0
      10
1082.06169825567
      20
2609.19778139638
      30
0
      10
1082.32591525567
      20
2608.78833139638
      30
0
      10
1082.32591525567
      20
2608.78833139638
      30
0
      10
1084.55266725567
      20
2605.33748139638
      30
0
      10
1086.77941925567
      20
2601.88664139638
      30
0
      10
1089.00617025567
      20
2598.43579139638
      30
0
      10
1089.00617025567
      20
2598.43579139638
      30
0
      10
1089.23660425567
      20
2598.07867139638
      30
0
      10
1089.57956325567
      20
2597.81023139638
      30
0
      10
1089.97975425567
      20
2597.67372139638
      30
0
      10
1089.97975425567
      20
2597.67372139638
      30
0
      10
1101.56668725567
      20
2593.72134139638
      30
0
      10
1113.15362025567
      20
2589.76896139638
      30
0
      10
1124.74055225567
      20
2585.81658139638
      30
0
      10
1124.74055225567
      20
2585.81658139638
      30
0
      10
1125.23610825567
      20
2585.64756139638
      30
0
      10
1125.77050725567
      20
2585.93408139638
      30
0
      10
1125.90878425567
      20
2586.44294139638
      30
0
      10
1125.90878425567
      20
2586.44294139638
      30
0
      10
1126.85191525567
      20
2589.91398139638
      30
0
      10
1127.79504625567
      20
2593.38501139638
      30
0
      10
1128.73817725567
      20
2596.85604139638
      30
0
      10
1128.73817725567
      20
2596.85604139638
      30
0
      10
1128.86347125567
      20
2597.31715139638
      30
0
      10
1128.61103125567
      20
2597.79690139638
      30
0
      10
1128.16220025567
      20
2597.95068139638
      30
0
    1001
FS_CYPCUT
    1000
Channel
    1070
0
    1000
LeadIn
    1002
{
    1070
0
    1040
0
    1040
1.570796
    1040
0
    1040
0
    1070
0
    1040
0
    1070
0
    1002
}
    1000
LeadOut
    1002
{
    1070
0
    1040
0
    1040
0
    1040
0
    1070
0
    1002
}
    1000
IsFill
    1070
1
    1000
PathStart
    1040
0
    1000
ToolCompensation
    1002
{
    1070
0
    1040
0
    1070
0
    1002
}
       0
LWPOLYLINE
       5
2011
     100
AcDbEntity
       8
0
     100
AcDbPolyline
      90
12
      70
1
      10
1141.54178740299
      20
2597.82524276593
      42
0
      10
1169.75735640299
      20
2597.82524276593
      42
0
      10
1169.75735640299
      20
2581.42842276593
      42
0
      10
1165.52387240299
      20
2577.52174276593
      42
0
      10
1161.48658640299
      20
2581.66361276593
      42
0
      10
1161.48658640299
      20
2594.58410276593
      42
0
      10
1161.25324640299
      20
2594.58410276593
      42
0
      10
1161.25324640299
      20
2594.63986276593
      42
0
      10
1149.03934940299
      20
2594.63986276593
      42
0
      10
1149.03900440299
      20
2594.61349276593
      42
0
      10
1149.03900440299
      20
2566.03849276593
      42
0
      10
1141.54178740299
      20
2566.03849276593
      42
0
    1001
FS_CYPCUT
    1000
Channel
    1070
0
    1000
LeadIn
    1002
{
    1070
0
    1040
0
    1040
0
    1040
0
    1040
0
    1070
0
    1040
0
    1070
0
    1002
}
    1000
LeadOut
    1002
{
    1070
0
    1040
0
    1040
0
    1040
0
    1070
0
    1002
}
    1000
IsFill
    1070
0
    1000
PathStart
    1040
0
    1000
ToolCompensation
    1002
{
    1070
0
    1040
0
    1070
0
    1002
}
       0
LWPOLYLINE
       5
2012
     100
AcDbEntity
       8
0
     100
AcDbPolyline
      90
11
      70
1
      10
1152.74248240299
      20
2566.03849276593
      42
0
      10
1152.74248240299
      20
2592.40863276593
      42
0
      10
1157.95880940299
      20
2592.40863276593
      42
0
      10
1157.95880940299
      20
2580.53913276593
      42
0
      10
1165.52351140299
      20
2572.05610276593
      42
0
      10
1173.66082240299
      20
2580.12755276593
      42
0
      10
1173.71071140299
      20
2600.50479276593
      42
0
      10
1137.83831040299
      20
2600.50245276593
      42
0
      10
1137.83762140299
      20
2553.69127276593
      42
0
      10
1173.73276040299
      20
2553.69127276593
      42
0
      10
1173.73276040299
      20
2566.03849276593
      42
0
    1001
FS_CYPCUT
    1000
Channel
    1070
0
    1000
LeadIn
    1002
{
    1070
0
    1040
0
    1040
0
    1040
0
    1040
0
    1070
0
    1040
0
    1070
0
    1002
}
    1000
LeadOut
    1002
{
    1070
0
    1040
0
    1040
0
    1040
0
    1070
0
    1002
}
    1000
IsFill
    1070
1
    1000
PathStart
    1040
0
    1000
ToolCompensation
    1002
{
    1070
0
    1040
0
    1070
0
    1002
}
       0
ENDSEC
  0
SECTION
  2
OBJECTS
  0
DICTIONARY
  5
111
330
0
100
AcDbDictionary
281
     1
  3
ACAD_COLOR
350
120
  3
ACAD_GROUP
350
112
  3
ACAD_LAYOUT
350
11E
  3
ACAD_MATERIAL
350
11F
  3
ACAD_MLINESTYLE
350
11B
  3
ACAD_PLOTSETTINGS
350
11D
  3
ACAD_PLOTSTYLENAME
350
113
  3
ACAD_TABLESTYLE
350
121
  3
AcDbVariableDictionary
350
135
  0
DICTIONARY
  5
120
102
{ACAD_REACTORS
330
111
102
}
330
111
100
AcDbDictionary
281
     1
  0
DICTIONARY
  5
112
102
{ACAD_REACTORS
330
111
102
}
330
111
100
AcDbDictionary
281
     1
  0
DICTIONARY
  5
11E
102
{ACAD_REACTORS
330
111
102
}
330
111
100
AcDbDictionary
281
     1
  3
Model
350
12A
  3
1
350
126
  0
DICTIONARY
  5
11F
102
{ACAD_REACTORS
330
111
102
}
330
111
100
AcDbDictionary
281
     1
  0
DICTIONARY
  5
11B
102
{ACAD_REACTORS
330
111
102
}
330
111
100
AcDbDictionary
281
     1
  3
Standard
350
11C
  0
DICTIONARY
  5
11D
102
{ACAD_REACTORS
330
111
102
}
330
111
100
AcDbDictionary
281
     1
  0
ACDBDICTIONARYWDFLT
  5
113
102
{ACAD_REACTORS
330
111
102
}
330
111
100
AcDbDictionary
281
     1
  3
Normal
350
114
100
AcDbDictionaryWithDefault
340
114
  0
DICTIONARY
  5
121
102
{ACAD_REACTORS
330
111
102
}
330
111
100
AcDbDictionary
281
     1
  3
Standard
350
122
  0
DICTIONARY
  5
135
102
{ACAD_REACTORS
330
111
102
}
330
111
100
AcDbDictionary
281
     1
  3
CTABLESTYLE
350
136
  0
LAYOUT
  5
12A
102
{ACAD_REACTORS
330
11E
102
}
330
11E
100
AcDbPlotSettings
  1

  2
 OneNote 2010
  4

  6

 40
0.0
 41
0.0
 42
0.0
 43
0.0
 44
0.0
 45
0.0
 46
0.0
 47
0.0
 48
0.0
 49
0.0
140
0.0
141
0.0
142
1.0
143
1.0
 70
  1712
 72
     0
 73
     0
 74
     0
  7

 75
     0
147
1.0
 76
     0
 77
     2
 78
   300
148
0.0
149
0.0
100
AcDbLayout
  1
Model
 70
     1
 71
     0
 10
0.0
 20
0.0
 11
12.0
 21
9.0
 12
0.0
 22
0.0
 32
0.0
 14
0.0
 24
0.0
 34
0.0
 15
0.0
 25
0.0
 35
0.0
146
0.0
 13
0.0
 23
0.0
 33
0.0
 16
1.0
 26
0.0
 36
0.0
 17
0.0
 27
1.0
 37
0.0
 76
     0
330
127
  0
LAYOUT
  5
126
102
{ACAD_REACTORS
330
11E
102
}
330
11E
100
AcDbPlotSettings
  1

  2
 OneNote 2010
  4

  6

 40
0.0
 41
0.0
 42
0.0
 43
0.0
 44
0.0
 45
0.0
 46
0.0
 47
0.0
 48
0.0
 49
0.0
140
0.0
141
0.0
142
1.0
143
1.0
 70
   688
 72
     0
 73
     0
 74
     5
  7

 75
    16
147
1.0
 76
     0
 77
     2
 78
   300
148
0.0
149
0.0
100
AcDbLayout
  1
1
 70
     1
 71
     1
 10
0.0
 20
0.0
 11
12.0
 21
9.0
 12
0.0
 22
0.0
 32
0.0
 14
0.0
 24
0.0
 34
0.0
 15
0.0
 25
0.0
 35
0.0
146
0.0
 13
0.0
 23
0.0
 33
0.0
 16
1.0
 26
0.0
 36
0.0
 17
0.0
 27
1.0
 37
0.0
 76
     0
330
123
  0
MLINESTYLE
  5
11C
102
{ACAD_REACTORS
330
11B
102
}
330
11B
100
AcDbMlineStyle
  2
STANDARD
 70
     0
  3

 62
   256
 51
90.0
 52
90.0
 71
     2
 49
0.5
 62
   256
  6
BYLAYER
 49
-0.5
 62
   256
  6
BYLAYER
  0
ACDBPLACEHOLDER
  5
114
102
{ACAD_REACTORS
330
113
102
}
330
113
  0
TABLESTYLE
  5
122
102
{ACAD_REACTORS
330
121
102
}
330
121
100
AcDbTableStyle
  3
Standard
 70
     0
 71
     0
 40
0.06
 41
0.06
280
     0
281
     0
  7
STANDARD
140
0.18
170
     2
 62
     0
 63
     7
283
     0
274
    -2
284
     1
 64
     0
275
    -2
285
     1
 65
     0
276
    -2
286
     1
 66
     0
277
    -2
287
     1
 67
     0
278
    -2
288
     1
 68
     0
279
    -2
289
     1
 69
     0
  7
STANDARD
140
0.25
170
     5
 62
     0
 63
     7
283
     0
274
    -2
284
     1
 64
     0
275
    -2
285
     1
 65
     0
276
    -2
286
     1
 66
     0
277
    -2
287
     1
 67
     0
278
    -2
288
     1
 68
     0
279
    -2
289
     1
 69
     0
  7
STANDARD
140
0.18
170
     5
 62
     0
 63
     7
283
     0
274
    -2
284
     1
 64
     0
275
    -2
285
     1
 65
     0
276
    -2
286
     1
 66
     0
277
    -2
287
     1
 67
     0
278
    -2
288
     1
 68
     0
279
    -2
289
     1
 69
     0
  0
DICTIONARYVAR
  5
136
102
{ACAD_REACTORS
330
135
102
}
330
135
100
DictionaryVariables
280
     0
  1
STANDARD
  0
ENDSEC
  0
EOF
