  0
SECTION
  2
HEADER
  9
$ACADVER
  1
AC1018
  9
$ACADMAINTVER
 70
     0
  9
$DWGCODEPAGE
  3
ANSI_936
  9
$INSBASE
 10
0.0
 20
0.0
 30
0.0
  9
$EXTMIN
 10
32.61026198753109
 20
146.6896507557744
 30
0.0
  9
$EXTMAX
 10
132.6102619875311
 20
186.2218482747618
 30
0.0
  9
$LIMMIN
 10
0.0
 20
0.0
  9
$LIMMAX
 10
420.0
 20
297.0
  9
$ORTHOMODE
 70
     1
  9
$REGENMODE
 70
     1
  9
$FILLMODE
 70
     1
  9
$QTEXTMODE
 70
     0
  9
$MIRRTEXT
 70
     0
  9
$LTSCALE
 40
1.0
  9
$ATTMODE
 70
     1
  9
$TEXTSIZE
 40
2.5
  9
$TRACEWID
 40
1.0
  9
$TEXTSTYLE
  7
Standard
  9
$CLAYER
  8
0
  9
$CELTYPE
  6
ByLayer
  9
$CECOLOR
 62
   256
  9
$CELTSCALE
 40
1.0
  9
$DISPSILH
 70
     0
  9
$DIMSCALE
 40
1.0
  9
$DIMASZ
 40
2.5
  9
$DIMEXO
 40
0.625
  9
$DIMDLI
 40
3.75
  9
$DIMRND
 40
0.0
  9
$DIMDLE
 40
0.0
  9
$DIMEXE
 40
1.25
  9
$DIMTP
 40
0.0
  9
$DIMTM
 40
0.0
  9
$DIMTXT
 40
2.5
  9
$DIMCEN
 40
2.5
  9
$DIMTSZ
 40
0.0
  9
$DIMTOL
 70
     0
  9
$DIMLIM
 70
     0
  9
$DIMTIH
 70
     0
  9
$DIMTOH
 70
     0
  9
$DIMSE1
 70
     0
  9
$DIMSE2
 70
     0
  9
$DIMTAD
 70
     1
  9
$DIMZIN
 70
     8
  9
$DIMBLK
  1

  9
$DIMASO
 70
     1
  9
$DIMSHO
 70
     1
  9
$DIMPOST
  1

  9
$DIMAPOST
  1

  9
$DIMALT
 70
     0
  9
$DIMALTD
 70
     3
  9
$DIMALTF
 40
0.03937007874016
  9
$DIMLFAC
 40
1.0
  9
$DIMTOFL
 70
     1
  9
$DIMTVP
 40
0.0
  9
$DIMTIX
 70
     0
  9
$DIMSOXD
 70
     0
  9
$DIMSAH
 70
     0
  9
$DIMBLK1
  1

  9
$DIMBLK2
  1

  9
$DIMSTYLE
  2
ISO-25
  9
$DIMCLRD
 70
     0
  9
$DIMCLRE
 70
     0
  9
$DIMCLRT
 70
     0
  9
$DIMTFAC
 40
1.0
  9
$DIMGAP
 40
0.625
  9
$DIMJUST
 70
     0
  9
$DIMSD1
 70
     0
  9
$DIMSD2
 70
     0
  9
$DIMTOLJ
 70
     0
  9
$DIMTZIN
 70
     8
  9
$DIMALTZ
 70
     0
  9
$DIMALTTZ
 70
     0
  9
$DIMUPT
 70
     0
  9
$DIMDEC
 70
     2
  9
$DIMTDEC
 70
     2
  9
$DIMALTU
 70
     2
  9
$DIMALTTD
 70
     3
  9
$DIMTXSTY
  7
Standard
  9
$DIMAUNIT
 70
     0
  9
$DIMADEC
 70
     0
  9
$DIMALTRND
 40
0.0
  9
$DIMAZIN
 70
     0
  9
$DIMDSEP
 70
    46
  9
$DIMATFIT
 70
     3
  9
$DIMFRAC
 70
     0
  9
$DIMLDRBLK
  1

  9
$DIMLUNIT
 70
     2
  9
$DIMLWD
 70
    -2
  9
$DIMLWE
 70
    -2
  9
$DIMTMOVE
 70
     0
  9
$LUNITS
 70
     2
  9
$LUPREC
 70
     4
  9
$SKETCHINC
 40
1.0
  9
$FILLETRAD
 40
0.1
  9
$AUNITS
 70
     0
  9
$AUPREC
 70
     0
  9
$MENU
  1
.
  9
$ELEVATION
 40
0.0
  9
$PELEVATION
 40
0.0
  9
$THICKNESS
 40
0.0
  9
$LIMCHECK
 70
     0
  9
$CHAMFERA
 40
0.0
  9
$CHAMFERB
 40
0.0
  9
$CHAMFERC
 40
0.0
  9
$CHAMFERD
 40
0.0
  9
$SKPOLY
 70
     0
  9
$TDCREATE
 40
2456843.420084942
  9
$TDUCREATE
 40
2456843.086751609
  9
$TDUPDATE
 40
2456844.371608611
  9
$TDUUPDATE
 40
2456844.038275278
  9
$TDINDWG
 40
0.2633047685
  9
$TDUSRTIMER
 40
0.2633035069
  9
$USRTIMER
 70
     1
  9
$ANGBASE
 50
0.0
  9
$ANGDIR
 70
     0
  9
$PDMODE
 70
     0
  9
$PDSIZE
 40
0.0
  9
$PLINEWID
 40
0.0
  9
$SPLFRAME
 70
     0
  9
$SPLINETYPE
 70
     6
  9
$SPLINESEGS
 70
     8
  9
$HANDSEED
  5
754
  9
$SURFTAB1
 70
     6
  9
$SURFTAB2
 70
     6
  9
$SURFTYPE
 70
     6
  9
$SURFU
 70
     6
  9
$SURFV
 70
     6
  9
$UCSBASE
  2

  9
$UCSNAME
  2

  9
$UCSORG
 10
0.0
 20
0.0
 30
0.0
  9
$UCSXDIR
 10
1.0
 20
0.0
 30
0.0
  9
$UCSYDIR
 10
0.0
 20
1.0
 30
0.0
  9
$UCSORTHOREF
  2

  9
$UCSORTHOVIEW
 70
     0
  9
$UCSORGTOP
 10
0.0
 20
0.0
 30
0.0
  9
$UCSORGBOTTOM
 10
0.0
 20
0.0
 30
0.0
  9
$UCSORGLEFT
 10
0.0
 20
0.0
 30
0.0
  9
$UCSORGRIGHT
 10
0.0
 20
0.0
 30
0.0
  9
$UCSORGFRONT
 10
0.0
 20
0.0
 30
0.0
  9
$UCSORGBACK
 10
0.0
 20
0.0
 30
0.0
  9
$PUCSBASE
  2

  9
$PUCSNAME
  2

  9
$PUCSORG
 10
0.0
 20
0.0
 30
0.0
  9
$PUCSXDIR
 10
1.0
 20
0.0
 30
0.0
  9
$PUCSYDIR
 10
0.0
 20
1.0
 30
0.0
  9
$PUCSORTHOREF
  2

  9
$PUCSORTHOVIEW
 70
     0
  9
$PUCSORGTOP
 10
0.0
 20
0.0
 30
0.0
  9
$PUCSORGBOTTOM
 10
0.0
 20
0.0
 30
0.0
  9
$PUCSORGLEFT
 10
0.0
 20
0.0
 30
0.0
  9
$PUCSORGRIGHT
 10
0.0
 20
0.0
 30
0.0
  9
$PUCSORGFRONT
 10
0.0
 20
0.0
 30
0.0
  9
$PUCSORGBACK
 10
0.0
 20
0.0
 30
0.0
  9
$USERI1
 70
     0
  9
$USERI2
 70
     0
  9
$USERI3
 70
     0
  9
$USERI4
 70
     0
  9
$USERI5
 70
     0
  9
$USERR1
 40
0.0
  9
$USERR2
 40
0.0
  9
$USERR3
 40
0.0
  9
$USERR4
 40
0.0
  9
$USERR5
 40
0.0
  9
$WORLDVIEW
 70
     1
  9
$SHADEDGE
 70
     3
  9
$SHADEDIF
 70
    70
  9
$TILEMODE
 70
     1
  9
$MAXACTVP
 70
    64
  9
$PINSBASE
 10
0.0
 20
0.0
 30
0.0
  9
$PLIMCHECK
 70
     0
  9
$PEXTMIN
 10
1.000000000000000E+20
 20
1.000000000000000E+20
 30
1.000000000000000E+20
  9
$PEXTMAX
 10
-1.000000000000000E+20
 20
-1.000000000000000E+20
 30
-1.000000000000000E+20
  9
$PLIMMIN
 10
0.0
 20
0.0
  9
$PLIMMAX
 10
420.0
 20
297.0
  9
$UNITMODE
 70
     0
  9
$VISRETAIN
 70
     1
  9
$PLINEGEN
 70
     0
  9
$PSLTSCALE
 70
     1
  9
$TREEDEPTH
 70
  3020
  9
$CMLSTYLE
  2
Standard
  9
$CMLJUST
 70
     0
  9
$CMLSCALE
 40
20.0
  9
$PROXYGRAPHICS
 70
     1
  9
$MEASUREMENT
 70
     1
  9
$CELWEIGHT
370
    -1
  9
$ENDCAPS
280
     0
  9
$JOINSTYLE
280
     0
  9
$LWDISPLAY
290
     0
  9
$INSUNITS
 70
     4
  9
$HYPERLINKBASE
  1

  9
$STYLESHEET
  1

  9
$XEDIT
290
     1
  9
$CEPSNTYPE
380
     0
  9
$PSTYLEMODE
290
     1
  9
$FINGERPRINTGUID
  2
{6CF76E36-90A3-45C1-8746-A3A6AF4F620A}
  9
$VERSIONGUID
  2
{E061C2EB-5CA1-43FD-808A-8F65AA6CC104}
  9
$EXTNAMES
290
     1
  9
$PSVPSCALE
 40
0.0
  9
$OLESTARTUP
290
     0
  9
$SORTENTS
280
   127
  9
$INDEXCTL
280
     0
  9
$HIDETEXT
280
     1
  9
$XCLIPFRAME
290
     0
  9
$HALOGAP
280
     0
  9
$OBSCOLOR
 70
   257
  9
$OBSLTYPE
280
     0
  9
$INTERSECTIONDISPLAY
280
     0
  9
$INTERSECTIONCOLOR
 70
   257
  9
$DIMASSOC
280
     2
  9
$PROJECTNAME
  1

  0
ENDSEC
  0
SECTION
  2
CLASSES
  0
CLASS
  1
ACDBDICTIONARYWDFLT
  2
AcDbDictionaryWithDefault
  3
ObjectDBX Classes
 90
        0
 91
        1
280
     0
281
     0
  0
CLASS
  1
DIMASSOC
  2
AcDbDimAssoc
  3
"AcDbDimAssoc|Product Desc:     AcDim ARX App For Dimension|Company:          Autodesk, Inc.|WEB Address:      www.autodesk.com"
 90
        0
 91
        1
280
     0
281
     0
  0
ENDSEC
  0
SECTION
  2
TABLES
  0
TABLE
  2
VPORT
  5
8
330
0
100
AcDbSymbolTable
 70
     6
  0
VPORT
  5
753
330
8
100
AcDbSymbolTableRecord
100
AcDbViewportTableRecord
  2
*Active
 70
     0
 10
0.0
 20
0.0
 11
1.0
 21
1.0
 12
119.8499612423398
 22
146.6888463210657
 13
0.0
 23
0.0
 14
10.0
 24
10.0
 15
10.0
 25
10.0
 16
0.0
 26
0.0
 36
1.0
 17
0.0
 27
0.0
 37
0.0
 40
99.26742084350756
 41
2.327927927927928
 42
50.0
 43
0.0
 44
0.0
 50
0.0
 51
0.0
 71
     0
 72
  1000
 73
     1
 74
     3
 75
     0
 76
     0
 77
     0
 78
     0
281
     0
 65
     1
110
0.0
120
0.0
130
0.0
111
1.0
121
0.0
131
0.0
112
0.0
122
1.0
132
0.0
 79
     0
146
0.0
  0
ENDTAB
  0
TABLE
  2
LTYPE
  5
5
330
0
100
AcDbSymbolTable
 70
     1
  0
LTYPE
  5
14
330
5
100
AcDbSymbolTableRecord
100
AcDbLinetypeTableRecord
  2
ByBlock
 70
     0
  3

 72
    65
 73
     0
 40
0.0
  0
LTYPE
  5
15
330
5
100
AcDbSymbolTableRecord
100
AcDbLinetypeTableRecord
  2
ByLayer
 70
     0
  3

 72
    65
 73
     0
 40
0.0
  0
LTYPE
  5
16
330
5
100
AcDbSymbolTableRecord
100
AcDbLinetypeTableRecord
  2
Continuous
 70
     0
  3
Solid line
 72
    65
 73
     0
 40
0.0
  0
ENDTAB
  0
TABLE
  2
LAYER
  5
2
330
0
100
AcDbSymbolTable
 70
     2
  0
LAYER
  5
10
330
2
100
AcDbSymbolTableRecord
100
AcDbLayerTableRecord
  2
0
 70
     0
 62
     7
  6
Continuous
370
    -3
390
F
  0
LAYER
  5
CE
330
2
100
AcDbSymbolTableRecord
100
AcDbLayerTableRecord
  2
Defpoints
 70
     0
 62
     7
  6
Continuous
290
     0
370
    -3
390
F
  0
ENDTAB
  0
TABLE
  2
STYLE
  5
3
330
0
100
AcDbSymbolTable
 70
     1
  0
STYLE
  5
11
330
3
100
AcDbSymbolTableRecord
100
AcDbTextStyleTableRecord
  2
Standard
 70
     0
 40
0.0
 41
1.0
 50
0.0
 71
     0
 42
2.5
  3
txt
  4

  0
ENDTAB
  0
TABLE
  2
VIEW
  5
6
330
0
100
AcDbSymbolTable
 70
     0
  0
ENDTAB
  0
TABLE
  2
UCS
  5
7
330
0
100
AcDbSymbolTable
 70
     0
  0
ENDTAB
  0
TABLE
  2
APPID
  5
9
330
0
100
AcDbSymbolTable
 70
     1
  0
APPID
  5
12
330
9
100
AcDbSymbolTableRecord
100
AcDbRegAppTableRecord
  2
ACAD
 70
     0
  0
ENDTAB
  0
TABLE
  2
DIMSTYLE
  5
A
330
0
100
AcDbSymbolTable
 70
     1
100
AcDbDimStyleTable
 71
     1
340
29
  0
DIMSTYLE
105
29
330
A
100
AcDbSymbolTableRecord
100
AcDbDimStyleTableRecord
  2
ISO-25
 70
     0
 41
2.5
 42
0.625
 43
3.75
 44
1.25
 73
     0
 74
     0
 77
     1
 78
     8
140
2.5
141
2.5
143
0.03937007874016
147
0.625
171
     3
172
     1
271
     2
272
     2
274
     3
283
     0
284
     8
340
11
  0
ENDTAB
  0
TABLE
  2
BLOCK_RECORD
  5
1
330
0
100
AcDbSymbolTable
 70
     5
  0
BLOCK_RECORD
  5
21
330
1
100
AcDbSymbolTableRecord
100
AcDbBlockTableRecord
  2
*Model_Space
340
24
  0
BLOCK_RECORD
  5
1D
330
1
100
AcDbSymbolTableRecord
100
AcDbBlockTableRecord
  2
*Paper_Space
340
20
  0
BLOCK_RECORD
  5
25
330
1
100
AcDbSymbolTableRecord
100
AcDbBlockTableRecord
  2
*Paper_Space0
340
28
  0
BLOCK_RECORD
  5
16F
330
1
100
AcDbSymbolTableRecord
100
AcDbBlockTableRecord
  2
*D3
340
0
  0
ENDTAB
  0
ENDSEC
  0
SECTION
  2
BLOCKS
  0
BLOCK
  5
22
330
21
100
AcDbEntity
  8
0
100
AcDbBlockBegin
  2
*Model_Space
 70
     0
 10
0.0
 20
0.0
 30
0.0
  3
*Model_Space
  1

  0
ENDBLK
  5
23
330
21
100
AcDbEntity
  8
0
100
AcDbBlockEnd
  0
BLOCK
  5
1E
330
1D
100
AcDbEntity
 67
     1
  8
0
100
AcDbBlockBegin
  2
*Paper_Space
 70
     0
 10
0.0
 20
0.0
 30
0.0
  3
*Paper_Space
  1

  0
ENDBLK
  5
1F
330
1D
100
AcDbEntity
 67
     1
  8
0
100
AcDbBlockEnd
  0
BLOCK
  5
26
330
25
100
AcDbEntity
  8
0
100
AcDbBlockBegin
  2
*Paper_Space0
 70
     0
 10
0.0
 20
0.0
 30
0.0
  3
*Paper_Space0
  1

  0
ENDBLK
  5
27
330
25
100
AcDbEntity
  8
0
100
AcDbBlockEnd
  0
BLOCK
  5
17B
330
16F
100
AcDbEntity
  8
0
100
AcDbBlockBegin
  2
*D3
 70
     1
 10
0.0
 20
0.0
 30
0.0
  3
*D3
  1

  0
LINE
  5
17E
330
16F
100
AcDbEntity
  8
0
 62
     0
370
    -2
100
AcDbLine
 10
82.15063207256205
 20
181.5646507557744
 30
0.0
 11
82.15063207256205
 21
184.3468482747617
 31
0.0
  0
LINE
  5
17F
330
16F
100
AcDbEntity
  8
0
 62
     0
370
    -2
100
AcDbLine
 10
83.06989190250014
 20
181.5646507557744
 30
0.0
 11
83.06989190250014
 21
184.3468482747617
 31
0.0
  0
LINE
  5
180
330
16F
100
AcDbEntity
  8
0
 62
     0
370
    -2
100
AcDbLine
 10
79.65063207256204
 20
183.0968482747618
 30
0.0
 11
77.15063207256204
 21
183.0968482747618
 31
0.0
  0
LINE
  5
181
330
16F
100
AcDbEntity
  8
0
 62
     0
370
    -2
100
AcDbLine
 10
85.56989190250014
 20
183.0968482747618
 30
0.0
 11
96.40322523583348
 21
183.0968482747618
 31
0.0
  0
LINE
  5
182
330
16F
100
AcDbEntity
  8
0
 62
     0
370
    -2
100
AcDbLine
 10
82.15063207256205
 20
183.0968482747618
 30
0.0
 11
83.06989190250014
 21
183.0968482747618
 31
0.0
  0
SOLID
  5
183
330
16F
100
AcDbEntity
  8
0
 62
     0
100
AcDbTrace
 10
79.65063207256204
 20
183.5135149414284
 30
0.0
 11
79.65063207256204
 21
182.6801816080951
 31
0.0
 12
82.15063207256205
 22
183.0968482747618
 32
0.0
 13
82.15063207256205
 23
183.0968482747618
 33
0.0
  0
SOLID
  5
184
330
16F
100
AcDbEntity
  8
0
 62
     0
100
AcDbTrace
 10
85.56989190250014
 20
183.5135149414284
 30
0.0
 11
85.56989190250014
 21
182.6801816080951
 31
0.0
 12
83.06989190250014
 22
183.0968482747618
 32
0.0
 13
83.06989190250014
 23
183.0968482747618
 33
0.0
  0
MTEXT
  5
185
330
16F
100
AcDbEntity
  8
0
 62
     0
100
AcDbMText
 10
92.23655856916682
 20
184.9718482747618
 30
0.0
 40
2.5
 41
0.0
 71
     5
 72
     1
  1
0.92
 73
     1
 44
1.0
  0
POINT
  5
186
330
16F
100
AcDbEntity
  8
Defpoints
 62
     0
100
AcDbPoint
 10
82.15063207256205
 20
180.9396507557744
 30
0.0
  0
POINT
  5
187
330
16F
100
AcDbEntity
  8
Defpoints
 62
     0
100
AcDbPoint
 10
83.06989190250014
 20
180.9396507557744
 30
0.0
  0
POINT
  5
188
330
16F
100
AcDbEntity
  8
Defpoints
 62
     0
100
AcDbPoint
 10
83.06989190250014
 20
183.0968482747618
 30
0.0
  0
ENDBLK
  5
17C
330
16F
100
AcDbEntity
  8
0
100
AcDbBlockEnd
  0
ENDSEC
  0
SECTION
  2
ENTITIES
  0
LINE
  5
2F
330
21
100
AcDbEntity
  8
0
100
AcDbLine
 10
132.6102619875311
 20
181.6896507557744
 30
0.0
 11
132.6102619875311
 21
146.6896507557744
 31
0.0
  0
LINE
  5
31
330
21
100
AcDbEntity
  8
0
100
AcDbLine
 10
32.61026198753109
 20
146.6896507557744
 30
0.0
 11
32.61026198753109
 21
181.6896507557744
 31
0.0
  0
LINE
  5
34
330
21
100
AcDbEntity
  8
0
100
AcDbLine
 10
32.61026198753109
 20
146.6896507557744
 30
0.0
 11
32.61026198753109
 21
181.6896507557744
 31
0.0
  0
LINE
  5
38
330
21
100
AcDbEntity
  8
0
100
AcDbLine
 10
44.13126198753108
 20
146.7616507557744
 30
0.0
 11
46.07726198753108
 21
153.4336507557744
 31
0.0
  0
LINE
  5
39
330
21
100
AcDbEntity
  8
0
100
AcDbLine
 10
45.64326198753109
 20
153.4336507557745
 30
0.0
 11
47.61026198753109
 21
146.6896507557744
 31
0.0
  0
LINE
  5
3A
330
21
100
AcDbEntity
  8
0
100
AcDbLine
 10
45.83526198753107
 20
153.6896507557745
 30
0.0
 11
45.88526198753111
 21
153.6896507557744
 31
0.0
  0
ARC
  5
3D
330
21
100
AcDbEntity
  8
0
100
AcDbCircle
 10
45.83526198753109
 20
153.4896507557745
 30
0.0
 40
0.2
100
AcDbArc
 50
90.00000000000557
 51
196.2602047083123
  0
ARC
  5
3E
330
21
100
AcDbEntity
  8
0
100
AcDbCircle
 10
45.88526198753109
 20
153.4896507557744
 30
0.0
 40
0.2
100
AcDbArc
 50
343.7397952916882
 51
89.99999999999486
  0
ARC
  5
3F
330
21
100
AcDbEntity
  8
0
100
AcDbCircle
 10
49.38526198753109
 20
153.4896507557744
 30
0.0
 40
0.2
100
AcDbArc
 50
343.7397952916882
 51
89.99999999999486
  0
ARC
  5
40
330
21
100
AcDbEntity
  8
0
100
AcDbCircle
 10
49.33526198753109
 20
153.4896507557745
 30
0.0
 40
0.2
100
AcDbArc
 50
90.00000000000557
 51
196.2602047083123
  0
LINE
  5
41
330
21
100
AcDbEntity
  8
0
100
AcDbLine
 10
49.33526198753106
 20
153.6896507557745
 30
0.0
 11
49.38526198753112
 21
153.6896507557744
 31
0.0
  0
LINE
  5
42
330
21
100
AcDbEntity
  8
0
100
AcDbLine
 10
49.14326198753109
 20
153.4336507557745
 30
0.0
 11
51.11026198753108
 21
146.6896507557744
 31
0.0
  0
LINE
  5
43
330
21
100
AcDbEntity
  8
0
100
AcDbLine
 10
47.61026198753109
 20
146.6896507557744
 30
0.0
 11
49.57726198753109
 21
153.4336507557744
 31
0.0
  0
ARC
  5
44
330
21
100
AcDbEntity
  8
0
100
AcDbCircle
 10
52.8852619875311
 20
153.4896507557744
 30
0.0
 40
0.2
100
AcDbArc
 50
343.7397952916882
 51
89.99999999999486
  0
ARC
  5
45
330
21
100
AcDbEntity
  8
0
100
AcDbCircle
 10
52.83526198753109
 20
153.4896507557745
 30
0.0
 40
0.2
100
AcDbArc
 50
90.00000000000557
 51
196.2602047083123
  0
LINE
  5
46
330
21
100
AcDbEntity
  8
0
100
AcDbLine
 10
52.83526198753107
 20
153.6896507557745
 30
0.0
 11
52.88526198753111
 21
153.6896507557744
 31
0.0
  0
LINE
  5
47
330
21
100
AcDbEntity
  8
0
100
AcDbLine
 10
52.64326198753109
 20
153.4336507557745
 30
0.0
 11
54.61026198753109
 21
146.6896507557744
 31
0.0
  0
LINE
  5
48
330
21
100
AcDbEntity
  8
0
100
AcDbLine
 10
51.11026198753108
 20
146.6896507557744
 30
0.0
 11
53.07726198753108
 21
153.4336507557744
 31
0.0
  0
ARC
  5
49
330
21
100
AcDbEntity
  8
0
100
AcDbCircle
 10
56.38526198753109
 20
153.4896507557744
 30
0.0
 40
0.2
100
AcDbArc
 50
343.7397952916882
 51
89.99999999999486
  0
ARC
  5
4A
330
21
100
AcDbEntity
  8
0
100
AcDbCircle
 10
56.33526198753109
 20
153.4896507557745
 30
0.0
 40
0.2
100
AcDbArc
 50
90.00000000000557
 51
196.2602047083123
  0
LINE
  5
4B
330
21
100
AcDbEntity
  8
0
100
AcDbLine
 10
56.33526198753107
 20
153.6896507557745
 30
0.0
 11
56.38526198753112
 21
153.6896507557744
 31
0.0
  0
LINE
  5
4C
330
21
100
AcDbEntity
  8
0
100
AcDbLine
 10
56.14326198753109
 20
153.4336507557745
 30
0.0
 11
58.11026198753109
 21
146.6896507557744
 31
0.0
  0
LINE
  5
4D
330
21
100
AcDbEntity
  8
0
100
AcDbLine
 10
54.61026198753109
 20
146.6896507557744
 30
0.0
 11
56.57726198753109
 21
153.4336507557744
 31
0.0
  0
ARC
  5
4E
330
21
100
AcDbEntity
  8
0
100
AcDbCircle
 10
59.8852619875311
 20
153.4896507557744
 30
0.0
 40
0.2
100
AcDbArc
 50
343.7397952916882
 51
89.99999999999486
  0
ARC
  5
4F
330
21
100
AcDbEntity
  8
0
100
AcDbCircle
 10
59.83526198753109
 20
153.4896507557745
 30
0.0
 40
0.2
100
AcDbArc
 50
90.00000000000557
 51
196.2602047083123
  0
LINE
  5
50
330
21
100
AcDbEntity
  8
0
100
AcDbLine
 10
59.83526198753107
 20
153.6896507557745
 30
0.0
 11
59.88526198753111
 21
153.6896507557744
 31
0.0
  0
LINE
  5
51
330
21
100
AcDbEntity
  8
0
100
AcDbLine
 10
59.64326198753109
 20
153.4336507557745
 30
0.0
 11
61.61026198753109
 21
146.6896507557744
 31
0.0
  0
LINE
  5
52
330
21
100
AcDbEntity
  8
0
100
AcDbLine
 10
58.11026198753109
 20
146.6896507557744
 30
0.0
 11
60.07726198753108
 21
153.4336507557744
 31
0.0
  0
ARC
  5
53
330
21
100
AcDbEntity
  8
0
100
AcDbCircle
 10
63.38526198753109
 20
153.4896507557744
 30
0.0
 40
0.2
100
AcDbArc
 50
343.7397952916882
 51
89.99999999999486
  0
ARC
  5
54
330
21
100
AcDbEntity
  8
0
100
AcDbCircle
 10
63.33526198753109
 20
153.4896507557745
 30
0.0
 40
0.2
100
AcDbArc
 50
90.00000000000557
 51
196.2602047083123
  0
LINE
  5
55
330
21
100
AcDbEntity
  8
0
100
AcDbLine
 10
63.33526198753107
 20
153.6896507557745
 30
0.0
 11
63.38526198753111
 21
153.6896507557744
 31
0.0
  0
LINE
  5
56
330
21
100
AcDbEntity
  8
0
100
AcDbLine
 10
63.14326198753109
 20
153.4336507557745
 30
0.0
 11
65.11026198753109
 21
146.6896507557744
 31
0.0
  0
LINE
  5
57
330
21
100
AcDbEntity
  8
0
100
AcDbLine
 10
61.61026198753109
 20
146.6896507557744
 30
0.0
 11
63.57726198753109
 21
153.4336507557744
 31
0.0
  0
ARC
  5
58
330
21
100
AcDbEntity
  8
0
100
AcDbCircle
 10
66.88526198753109
 20
153.4896507557744
 30
0.0
 40
0.2
100
AcDbArc
 50
343.7397952916882
 51
89.99999999999486
  0
ARC
  5
59
330
21
100
AcDbEntity
  8
0
100
AcDbCircle
 10
66.83526198753108
 20
153.4896507557745
 30
0.0
 40
0.2
100
AcDbArc
 50
90.00000000000557
 51
196.2602047083123
  0
LINE
  5
5A
330
21
100
AcDbEntity
  8
0
100
AcDbLine
 10
66.83526198753106
 20
153.6896507557745
 30
0.0
 11
66.88526198753113
 21
153.6896507557744
 31
0.0
  0
LINE
  5
5B
330
21
100
AcDbEntity
  8
0
100
AcDbLine
 10
66.64326198753109
 20
153.4336507557745
 30
0.0
 11
68.61026198753108
 21
146.6896507557744
 31
0.0
  0
LINE
  5
5C
330
21
100
AcDbEntity
  8
0
100
AcDbLine
 10
65.11026198753109
 20
146.6896507557744
 30
0.0
 11
67.07726198753109
 21
153.4336507557744
 31
0.0
  0
ARC
  5
5D
330
21
100
AcDbEntity
  8
0
100
AcDbCircle
 10
70.3852619875311
 20
153.4896507557744
 30
0.0
 40
0.2
100
AcDbArc
 50
343.7397952916882
 51
89.99999999999486
  0
ARC
  5
5E
330
21
100
AcDbEntity
  8
0
100
AcDbCircle
 10
70.33526198753108
 20
153.4896507557745
 30
0.0
 40
0.2
100
AcDbArc
 50
90.00000000000557
 51
196.2602047083123
  0
LINE
  5
5F
330
21
100
AcDbEntity
  8
0
100
AcDbLine
 10
70.33526198753107
 20
153.6896507557745
 30
0.0
 11
70.38526198753112
 21
153.6896507557744
 31
0.0
  0
LINE
  5
60
330
21
100
AcDbEntity
  8
0
100
AcDbLine
 10
70.14326198753109
 20
153.4336507557745
 30
0.0
 11
72.11026198753109
 21
146.6896507557744
 31
0.0
  0
LINE
  5
61
330
21
100
AcDbEntity
  8
0
100
AcDbLine
 10
68.61026198753108
 20
146.6896507557744
 30
0.0
 11
70.57726198753108
 21
153.4336507557744
 31
0.0
  0
ARC
  5
62
330
21
100
AcDbEntity
  8
0
100
AcDbCircle
 10
73.88526198753109
 20
153.4896507557744
 30
0.0
 40
0.2
100
AcDbArc
 50
343.7397952916882
 51
89.99999999999486
  0
ARC
  5
63
330
21
100
AcDbEntity
  8
0
100
AcDbCircle
 10
73.83526198753108
 20
153.4896507557745
 30
0.0
 40
0.2
100
AcDbArc
 50
90.00000000000557
 51
196.2602047083123
  0
LINE
  5
64
330
21
100
AcDbEntity
  8
0
100
AcDbLine
 10
73.83526198753107
 20
153.6896507557745
 30
0.0
 11
73.88526198753112
 21
153.6896507557744
 31
0.0
  0
LINE
  5
65
330
21
100
AcDbEntity
  8
0
100
AcDbLine
 10
73.64326198753109
 20
153.4336507557745
 30
0.0
 11
75.61026198753109
 21
146.6896507557744
 31
0.0
  0
LINE
  5
66
330
21
100
AcDbEntity
  8
0
100
AcDbLine
 10
72.11026198753109
 20
146.6896507557744
 30
0.0
 11
74.07726198753109
 21
153.4336507557744
 31
0.0
  0
ARC
  5
67
330
21
100
AcDbEntity
  8
0
100
AcDbCircle
 10
77.3852619875311
 20
153.4896507557744
 30
0.0
 40
0.2
100
AcDbArc
 50
343.7397952916882
 51
89.99999999999486
  0
ARC
  5
68
330
21
100
AcDbEntity
  8
0
100
AcDbCircle
 10
77.33526198753108
 20
153.4896507557745
 30
0.0
 40
0.2
100
AcDbArc
 50
90.00000000000557
 51
196.2602047083123
  0
LINE
  5
69
330
21
100
AcDbEntity
  8
0
100
AcDbLine
 10
77.33526198753107
 20
153.6896507557745
 30
0.0
 11
77.38526198753112
 21
153.6896507557744
 31
0.0
  0
LINE
  5
6A
330
21
100
AcDbEntity
  8
0
100
AcDbLine
 10
77.14326198753109
 20
153.4336507557745
 30
0.0
 11
79.11026198753109
 21
146.6896507557744
 31
0.0
  0
LINE
  5
6B
330
21
100
AcDbEntity
  8
0
100
AcDbLine
 10
75.61026198753109
 20
146.6896507557744
 30
0.0
 11
77.57726198753108
 21
153.4336507557744
 31
0.0
  0
ARC
  5
6C
330
21
100
AcDbEntity
  8
0
100
AcDbCircle
 10
80.88526198753109
 20
153.4896507557744
 30
0.0
 40
0.2
100
AcDbArc
 50
343.7397952916882
 51
89.99999999999486
  0
ARC
  5
6D
330
21
100
AcDbEntity
  8
0
100
AcDbCircle
 10
80.83526198753109
 20
153.4896507557745
 30
0.0
 40
0.2
100
AcDbArc
 50
90.00000000000557
 51
196.2602047083123
  0
LINE
  5
6E
330
21
100
AcDbEntity
  8
0
100
AcDbLine
 10
80.83526198753107
 20
153.6896507557745
 30
0.0
 11
80.88526198753113
 21
153.6896507557744
 31
0.0
  0
LINE
  5
6F
330
21
100
AcDbEntity
  8
0
100
AcDbLine
 10
80.64326198753109
 20
153.4336507557745
 30
0.0
 11
82.61026198753109
 21
146.6896507557744
 31
0.0
  0
LINE
  5
70
330
21
100
AcDbEntity
  8
0
100
AcDbLine
 10
79.11026198753109
 20
146.6896507557744
 30
0.0
 11
81.07726198753109
 21
153.4336507557744
 31
0.0
  0
ARC
  5
71
330
21
100
AcDbEntity
  8
0
100
AcDbCircle
 10
84.38526198753109
 20
153.4896507557744
 30
0.0
 40
0.2
100
AcDbArc
 50
343.7397952916882
 51
89.99999999999486
  0
ARC
  5
72
330
21
100
AcDbEntity
  8
0
100
AcDbCircle
 10
84.33526198753108
 20
153.4896507557745
 30
0.0
 40
0.2
100
AcDbArc
 50
90.00000000000557
 51
196.2602047083123
  0
LINE
  5
73
330
21
100
AcDbEntity
  8
0
100
AcDbLine
 10
84.33526198753106
 20
153.6896507557745
 30
0.0
 11
84.38526198753113
 21
153.6896507557744
 31
0.0
  0
LINE
  5
74
330
21
100
AcDbEntity
  8
0
100
AcDbLine
 10
84.14326198753109
 20
153.4336507557745
 30
0.0
 11
86.11026198753108
 21
146.6896507557744
 31
0.0
  0
LINE
  5
75
330
21
100
AcDbEntity
  8
0
100
AcDbLine
 10
82.61026198753109
 20
146.6896507557744
 30
0.0
 11
84.57726198753109
 21
153.4336507557744
 31
0.0
  0
ARC
  5
76
330
21
100
AcDbEntity
  8
0
100
AcDbCircle
 10
87.88526198753109
 20
153.4896507557744
 30
0.0
 40
0.2
100
AcDbArc
 50
343.7397952916882
 51
89.99999999999486
  0
ARC
  5
77
330
21
100
AcDbEntity
  8
0
100
AcDbCircle
 10
87.83526198753108
 20
153.4896507557745
 30
0.0
 40
0.2
100
AcDbArc
 50
90.00000000000557
 51
196.2602047083123
  0
LINE
  5
78
330
21
100
AcDbEntity
  8
0
100
AcDbLine
 10
87.83526198753106
 20
153.6896507557745
 30
0.0
 11
87.88526198753112
 21
153.6896507557744
 31
0.0
  0
LINE
  5
79
330
21
100
AcDbEntity
  8
0
100
AcDbLine
 10
87.64326198753108
 20
153.4336507557745
 30
0.0
 11
89.61026198753108
 21
146.6896507557744
 31
0.0
  0
LINE
  5
7A
330
21
100
AcDbEntity
  8
0
100
AcDbLine
 10
86.11026198753108
 20
146.6896507557744
 30
0.0
 11
88.07726198753108
 21
153.4336507557744
 31
0.0
  0
ARC
  5
7B
330
21
100
AcDbEntity
  8
0
100
AcDbCircle
 10
91.3852619875311
 20
153.4896507557744
 30
0.0
 40
0.2
100
AcDbArc
 50
343.7397952916882
 51
89.99999999999486
  0
ARC
  5
7C
330
21
100
AcDbEntity
  8
0
100
AcDbCircle
 10
91.33526198753108
 20
153.4896507557745
 30
0.0
 40
0.2
100
AcDbArc
 50
90.00000000000557
 51
196.2602047083123
  0
LINE
  5
7D
330
21
100
AcDbEntity
  8
0
100
AcDbLine
 10
91.33526198753108
 20
153.6896507557745
 30
0.0
 11
91.38526198753112
 21
153.6896507557744
 31
0.0
  0
LINE
  5
7E
330
21
100
AcDbEntity
  8
0
100
AcDbLine
 10
91.1432619875311
 20
153.4336507557745
 30
0.0
 11
93.11026198753109
 21
146.6896507557744
 31
0.0
  0
LINE
  5
7F
330
21
100
AcDbEntity
  8
0
100
AcDbLine
 10
89.61026198753108
 20
146.6896507557744
 30
0.0
 11
91.57726198753108
 21
153.4336507557744
 31
0.0
  0
ARC
  5
80
330
21
100
AcDbEntity
  8
0
100
AcDbCircle
 10
94.8852619875311
 20
153.4896507557744
 30
0.0
 40
0.2
100
AcDbArc
 50
343.7397952916882
 51
89.99999999999486
  0
ARC
  5
81
330
21
100
AcDbEntity
  8
0
100
AcDbCircle
 10
94.83526198753109
 20
153.4896507557745
 30
0.0
 40
0.2
100
AcDbArc
 50
90.00000000000557
 51
196.2602047083123
  0
LINE
  5
82
330
21
100
AcDbEntity
  8
0
100
AcDbLine
 10
94.83526198753107
 20
153.6896507557745
 30
0.0
 11
94.88526198753111
 21
153.6896507557744
 31
0.0
  0
LINE
  5
83
330
21
100
AcDbEntity
  8
0
100
AcDbLine
 10
94.64326198753109
 20
153.4336507557745
 30
0.0
 11
96.61026198753109
 21
146.6896507557744
 31
0.0
  0
LINE
  5
84
330
21
100
AcDbEntity
  8
0
100
AcDbLine
 10
93.11026198753109
 20
146.6896507557744
 30
0.0
 11
95.07726198753109
 21
153.4336507557744
 31
0.0
  0
ARC
  5
85
330
21
100
AcDbEntity
  8
0
100
AcDbCircle
 10
98.38526198753109
 20
153.4896507557744
 30
0.0
 40
0.2
100
AcDbArc
 50
343.7397952916882
 51
89.99999999999486
  0
ARC
  5
86
330
21
100
AcDbEntity
  8
0
100
AcDbCircle
 10
98.33526198753109
 20
153.4896507557745
 30
0.0
 40
0.2
100
AcDbArc
 50
90.00000000000557
 51
196.2602047083123
  0
LINE
  5
87
330
21
100
AcDbEntity
  8
0
100
AcDbLine
 10
98.33526198753107
 20
153.6896507557745
 30
0.0
 11
98.38526198753113
 21
153.6896507557744
 31
0.0
  0
LINE
  5
88
330
21
100
AcDbEntity
  8
0
100
AcDbLine
 10
98.14326198753109
 20
153.4336507557745
 30
0.0
 11
100.1102619875311
 21
146.6896507557744
 31
0.0
  0
LINE
  5
89
330
21
100
AcDbEntity
  8
0
100
AcDbLine
 10
96.61026198753109
 20
146.6896507557744
 30
0.0
 11
98.57726198753109
 21
153.4336507557744
 31
0.0
  0
ARC
  5
8A
330
21
100
AcDbEntity
  8
0
100
AcDbCircle
 10
101.8852619875311
 20
153.4896507557744
 30
0.0
 40
0.2
100
AcDbArc
 50
343.7397952916882
 51
89.99999999999486
  0
ARC
  5
8B
330
21
100
AcDbEntity
  8
0
100
AcDbCircle
 10
101.8352619875311
 20
153.4896507557745
 30
0.0
 40
0.2
100
AcDbArc
 50
90.00000000000557
 51
196.2602047083123
  0
LINE
  5
8C
330
21
100
AcDbEntity
  8
0
100
AcDbLine
 10
101.8352619875311
 20
153.6896507557745
 30
0.0
 11
101.8852619875311
 21
153.6896507557744
 31
0.0
  0
LINE
  5
8D
330
21
100
AcDbEntity
  8
0
100
AcDbLine
 10
101.6432619875311
 20
153.4336507557745
 30
0.0
 11
103.6102619875311
 21
146.6896507557744
 31
0.0
  0
LINE
  5
8E
330
21
100
AcDbEntity
  8
0
100
AcDbLine
 10
100.1102619875311
 20
146.6896507557744
 30
0.0
 11
102.0772619875311
 21
153.4336507557744
 31
0.0
  0
ARC
  5
8F
330
21
100
AcDbEntity
  8
0
100
AcDbCircle
 10
105.3852619875311
 20
153.4896507557744
 30
0.0
 40
0.2
100
AcDbArc
 50
343.7397952916882
 51
89.99999999999486
  0
ARC
  5
90
330
21
100
AcDbEntity
  8
0
100
AcDbCircle
 10
105.3352619875311
 20
153.4896507557745
 30
0.0
 40
0.2
100
AcDbArc
 50
90.00000000000557
 51
196.2602047083123
  0
LINE
  5
91
330
21
100
AcDbEntity
  8
0
100
AcDbLine
 10
105.335261987531
 20
153.6896507557745
 30
0.0
 11
105.3852619875311
 21
153.6896507557744
 31
0.0
  0
LINE
  5
92
330
21
100
AcDbEntity
  8
0
100
AcDbLine
 10
105.1432619875311
 20
153.4336507557745
 30
0.0
 11
107.1102619875311
 21
146.6896507557744
 31
0.0
  0
LINE
  5
93
330
21
100
AcDbEntity
  8
0
100
AcDbLine
 10
103.6102619875311
 20
146.6896507557744
 30
0.0
 11
105.5772619875311
 21
153.4336507557744
 31
0.0
  0
ARC
  5
94
330
21
100
AcDbEntity
  8
0
100
AcDbCircle
 10
108.8852619875311
 20
153.4896507557744
 30
0.0
 40
0.2
100
AcDbArc
 50
343.7397952916882
 51
89.99999999999486
  0
ARC
  5
95
330
21
100
AcDbEntity
  8
0
100
AcDbCircle
 10
108.8352619875311
 20
153.4896507557745
 30
0.0
 40
0.2
100
AcDbArc
 50
90.00000000000557
 51
196.2602047083123
  0
LINE
  5
96
330
21
100
AcDbEntity
  8
0
100
AcDbLine
 10
108.835261987531
 20
153.6896507557745
 30
0.0
 11
108.8852619875311
 21
153.6896507557744
 31
0.0
  0
LINE
  5
97
330
21
100
AcDbEntity
  8
0
100
AcDbLine
 10
108.6432619875311
 20
153.4336507557745
 30
0.0
 11
110.6102619875311
 21
146.6896507557744
 31
0.0
  0
LINE
  5
98
330
21
100
AcDbEntity
  8
0
100
AcDbLine
 10
107.1102619875311
 20
146.6896507557744
 30
0.0
 11
109.0772619875311
 21
153.4336507557744
 31
0.0
  0
ARC
  5
99
330
21
100
AcDbEntity
  8
0
100
AcDbCircle
 10
112.3852619875311
 20
153.4896507557744
 30
0.0
 40
0.2
100
AcDbArc
 50
343.7397952916882
 51
89.99999999999486
  0
ARC
  5
9A
330
21
100
AcDbEntity
  8
0
100
AcDbCircle
 10
112.335261987531
 20
153.4896507557745
 30
0.0
 40
0.2
100
AcDbArc
 50
90.00000000000557
 51
196.2602047083123
  0
LINE
  5
9B
330
21
100
AcDbEntity
  8
0
100
AcDbLine
 10
112.335261987531
 20
153.6896507557745
 30
0.0
 11
112.3852619875311
 21
153.6896507557744
 31
0.0
  0
LINE
  5
9C
330
21
100
AcDbEntity
  8
0
100
AcDbLine
 10
112.1432619875311
 20
153.4336507557745
 30
0.0
 11
114.1102619875311
 21
146.6896507557744
 31
0.0
  0
LINE
  5
9D
330
21
100
AcDbEntity
  8
0
100
AcDbLine
 10
110.6102619875311
 20
146.6896507557744
 30
0.0
 11
112.5772619875311
 21
153.4336507557744
 31
0.0
  0
ARC
  5
9E
330
21
100
AcDbEntity
  8
0
100
AcDbCircle
 10
115.8852619875311
 20
153.4896507557744
 30
0.0
 40
0.2
100
AcDbArc
 50
343.7397952916882
 51
89.99999999999486
  0
ARC
  5
9F
330
21
100
AcDbEntity
  8
0
100
AcDbCircle
 10
115.8352619875311
 20
153.4896507557745
 30
0.0
 40
0.2
100
AcDbArc
 50
90.00000000000557
 51
196.2602047083123
  0
LINE
  5
A0
330
21
100
AcDbEntity
  8
0
100
AcDbLine
 10
115.835261987531
 20
153.6896507557745
 30
0.0
 11
115.8852619875311
 21
153.6896507557744
 31
0.0
  0
LINE
  5
A1
330
21
100
AcDbEntity
  8
0
100
AcDbLine
 10
115.6432619875311
 20
153.4336507557745
 30
0.0
 11
117.6102619875311
 21
146.6896507557744
 31
0.0
  0
LINE
  5
A2
330
21
100
AcDbEntity
  8
0
100
AcDbLine
 10
114.1102619875311
 20
146.6896507557744
 30
0.0
 11
116.0772619875311
 21
153.4336507557744
 31
0.0
  0
ARC
  5
A3
330
21
100
AcDbEntity
  8
0
100
AcDbCircle
 10
119.3852619875311
 20
153.4896507557744
 30
0.0
 40
0.2
100
AcDbArc
 50
343.7397952916882
 51
89.99999999999486
  0
ARC
  5
A4
330
21
100
AcDbEntity
  8
0
100
AcDbCircle
 10
119.3352619875311
 20
153.4896507557745
 30
0.0
 40
0.2
100
AcDbArc
 50
90.00000000000557
 51
196.2602047083123
  0
LINE
  5
A5
330
21
100
AcDbEntity
  8
0
100
AcDbLine
 10
119.3352619875311
 20
153.6896507557745
 30
0.0
 11
119.3852619875311
 21
153.6896507557744
 31
0.0
  0
LINE
  5
A6
330
21
100
AcDbEntity
  8
0
100
AcDbLine
 10
119.1432619875311
 20
153.4336507557745
 30
0.0
 11
121.0892619875311
 21
146.7616507557744
 31
0.0
  0
LINE
  5
A7
330
21
100
AcDbEntity
  8
0
100
AcDbLine
 10
117.6102619875311
 20
146.6896507557744
 30
0.0
 11
119.5772619875311
 21
153.4336507557744
 31
0.0
  0
LINE
  5
AB
330
21
100
AcDbEntity
  8
0
100
AcDbLine
 10
37.6102619875311
 20
164.1896507557745
 30
0.0
 11
39.54255869138841
 21
164.1896507557744
 31
0.0
  0
LINE
  5
CC
330
21
100
AcDbEntity
  8
0
100
AcDbLine
 10
32.61026198753109
 20
146.6896507557744
 30
0.0
 11
44.03526198753108
 21
146.6896507557744
 31
0.0
  0
LINE
  5
FE
330
21
100
AcDbEntity
  8
0
100
AcDbLine
 10
121.1852619875311
 20
146.6896507557744
 30
0.0
 11
132.6102619875311
 21
146.6896507557744
 31
0.0
  0
LINE
  5
105
330
21
100
AcDbEntity
  8
0
100
AcDbLine
 10
82.61026198753109
 20
166.6896507557744
 30
0.0
 11
81.61026198753109
 21
164.1896507557744
 31
0.0
  0
LINE
  5
107
330
21
100
AcDbEntity
  8
0
100
AcDbLine
 10
82.61026198753109
 20
166.6896507557744
 30
0.0
 11
83.61026198753108
 21
164.1896507557744
 31
0.0
  0
LINE
  5
108
330
21
100
AcDbEntity
  8
0
100
AcDbLine
 10
84.61026198753108
 20
166.6896507557744
 30
0.0
 11
85.61026198753109
 21
164.1896507557744
 31
0.0
  0
LINE
  5
109
330
21
100
AcDbEntity
  8
0
100
AcDbLine
 10
84.61026198753108
 20
166.6896507557744
 30
0.0
 11
83.61026198753108
 21
164.1896507557744
 31
0.0
  0
LINE
  5
10A
330
21
100
AcDbEntity
  8
0
100
AcDbLine
 10
86.61026198753109
 20
166.6896507557744
 30
0.0
 11
87.61026198753109
 21
164.1896507557744
 31
0.0
  0
LINE
  5
10B
330
21
100
AcDbEntity
  8
0
100
AcDbLine
 10
86.61026198753109
 20
166.6896507557744
 30
0.0
 11
85.61026198753109
 21
164.1896507557744
 31
0.0
  0
LINE
  5
10C
330
21
100
AcDbEntity
  8
0
100
AcDbLine
 10
88.61026198753108
 20
166.6896507557744
 30
0.0
 11
89.61026198753108
 21
164.1896507557744
 31
0.0
  0
LINE
  5
10D
330
21
100
AcDbEntity
  8
0
100
AcDbLine
 10
88.61026198753108
 20
166.6896507557744
 30
0.0
 11
87.61026198753109
 21
164.1896507557744
 31
0.0
  0
LINE
  5
10E
330
21
100
AcDbEntity
  8
0
100
AcDbLine
 10
90.61026198753109
 20
166.6896507557744
 30
0.0
 11
91.61026198753109
 21
164.1896507557744
 31
0.0
  0
LINE
  5
10F
330
21
100
AcDbEntity
  8
0
100
AcDbLine
 10
90.61026198753109
 20
166.6896507557744
 30
0.0
 11
89.61026198753108
 21
164.1896507557744
 31
0.0
  0
LINE
  5
110
330
21
100
AcDbEntity
  8
0
100
AcDbLine
 10
92.61026198753109
 20
166.6896507557744
 30
0.0
 11
93.61026198753108
 21
164.1896507557744
 31
0.0
  0
LINE
  5
111
330
21
100
AcDbEntity
  8
0
100
AcDbLine
 10
92.61026198753109
 20
166.6896507557744
 30
0.0
 11
91.61026198753109
 21
164.1896507557744
 31
0.0
  0
LINE
  5
112
330
21
100
AcDbEntity
  8
0
100
AcDbLine
 10
94.61026198753108
 20
166.6896507557744
 30
0.0
 11
95.61026198753109
 21
164.1896507557744
 31
0.0
  0
LINE
  5
113
330
21
100
AcDbEntity
  8
0
100
AcDbLine
 10
94.61026198753108
 20
166.6896507557744
 30
0.0
 11
93.61026198753108
 21
164.1896507557744
 31
0.0
  0
LINE
  5
114
330
21
100
AcDbEntity
  8
0
100
AcDbLine
 10
96.61026198753109
 20
166.6896507557744
 30
0.0
 11
97.61026198753109
 21
164.1896507557744
 31
0.0
  0
LINE
  5
115
330
21
100
AcDbEntity
  8
0
100
AcDbLine
 10
96.61026198753109
 20
166.6896507557744
 30
0.0
 11
95.61026198753109
 21
164.1896507557744
 31
0.0
  0
LINE
  5
116
330
21
100
AcDbEntity
  8
0
100
AcDbLine
 10
98.61026198753108
 20
166.6896507557744
 30
0.0
 11
99.6102619875311
 21
164.1896507557744
 31
0.0
  0
LINE
  5
117
330
21
100
AcDbEntity
  8
0
100
AcDbLine
 10
98.61026198753108
 20
166.6896507557744
 30
0.0
 11
97.61026198753109
 21
164.1896507557744
 31
0.0
  0
LINE
  5
118
330
21
100
AcDbEntity
  8
0
100
AcDbLine
 10
100.6102619875311
 20
166.6896507557744
 30
0.0
 11
101.6102619875311
 21
164.1896507557744
 31
0.0
  0
LINE
  5
119
330
21
100
AcDbEntity
  8
0
100
AcDbLine
 10
100.6102619875311
 20
166.6896507557744
 30
0.0
 11
99.6102619875311
 21
164.1896507557744
 31
0.0
  0
LINE
  5
11A
330
21
100
AcDbEntity
  8
0
100
AcDbLine
 10
102.6102619875311
 20
166.6896507557744
 30
0.0
 11
103.6102619875311
 21
164.1896507557744
 31
0.0
  0
LINE
  5
11B
330
21
100
AcDbEntity
  8
0
100
AcDbLine
 10
102.6102619875311
 20
166.6896507557744
 30
0.0
 11
101.6102619875311
 21
164.1896507557744
 31
0.0
  0
LINE
  5
11C
330
21
100
AcDbEntity
  8
0
100
AcDbLine
 10
104.6102619875311
 20
166.6896507557744
 30
0.0
 11
105.6102619875311
 21
164.1896507557744
 31
0.0
  0
LINE
  5
11D
330
21
100
AcDbEntity
  8
0
100
AcDbLine
 10
104.6102619875311
 20
166.6896507557744
 30
0.0
 11
103.6102619875311
 21
164.1896507557744
 31
0.0
  0
LINE
  5
11E
330
21
100
AcDbEntity
  8
0
100
AcDbLine
 10
106.6102619875311
 20
166.6896507557744
 30
0.0
 11
107.6102619875311
 21
164.1896507557744
 31
0.0
  0
LINE
  5
11F
330
21
100
AcDbEntity
  8
0
100
AcDbLine
 10
106.6102619875311
 20
166.6896507557744
 30
0.0
 11
105.6102619875311
 21
164.1896507557744
 31
0.0
  0
LINE
  5
120
330
21
100
AcDbEntity
  8
0
100
AcDbLine
 10
108.6102619875311
 20
166.6896507557744
 30
0.0
 11
109.6102619875311
 21
164.1896507557744
 31
0.0
  0
LINE
  5
121
330
21
100
AcDbEntity
  8
0
100
AcDbLine
 10
108.6102619875311
 20
166.6896507557744
 30
0.0
 11
107.6102619875311
 21
164.1896507557744
 31
0.0
  0
LINE
  5
122
330
21
100
AcDbEntity
  8
0
100
AcDbLine
 10
110.6102619875311
 20
166.6896507557744
 30
0.0
 11
111.6102619875311
 21
164.1896507557744
 31
0.0
  0
LINE
  5
123
330
21
100
AcDbEntity
  8
0
100
AcDbLine
 10
110.6102619875311
 20
166.6896507557744
 30
0.0
 11
109.6102619875311
 21
164.1896507557744
 31
0.0
  0
LINE
  5
124
330
21
100
AcDbEntity
  8
0
100
AcDbLine
 10
112.6102619875311
 20
166.6896507557744
 30
0.0
 11
113.6102619875311
 21
164.1896507557744
 31
0.0
  0
LINE
  5
125
330
21
100
AcDbEntity
  8
0
100
AcDbLine
 10
112.6102619875311
 20
166.6896507557744
 30
0.0
 11
111.6102619875311
 21
164.1896507557744
 31
0.0
  0
LINE
  5
126
330
21
100
AcDbEntity
  8
0
100
AcDbLine
 10
114.6102619875311
 20
166.6896507557744
 30
0.0
 11
115.6102619875311
 21
164.1896507557744
 31
0.0
  0
LINE
  5
127
330
21
100
AcDbEntity
  8
0
100
AcDbLine
 10
114.6102619875311
 20
166.6896507557744
 30
0.0
 11
113.6102619875311
 21
164.1896507557744
 31
0.0
  0
LINE
  5
128
330
21
100
AcDbEntity
  8
0
100
AcDbLine
 10
116.6102619875311
 20
166.6896507557744
 30
0.0
 11
117.6102619875311
 21
164.1896507557744
 31
0.0
  0
LINE
  5
129
330
21
100
AcDbEntity
  8
0
100
AcDbLine
 10
116.6102619875311
 20
166.6896507557744
 30
0.0
 11
115.6102619875311
 21
164.1896507557744
 31
0.0
  0
LINE
  5
12A
330
21
100
AcDbEntity
  8
0
100
AcDbLine
 10
118.6102619875311
 20
166.6896507557744
 30
0.0
 11
119.6102619875311
 21
164.1896507557744
 31
0.0
  0
LINE
  5
12B
330
21
100
AcDbEntity
  8
0
100
AcDbLine
 10
118.6102619875311
 20
166.6896507557744
 30
0.0
 11
117.6102619875311
 21
164.1896507557744
 31
0.0
  0
LINE
  5
12C
330
21
100
AcDbEntity
  8
0
100
AcDbLine
 10
120.6102619875311
 20
166.6896507557744
 30
0.0
 11
121.6102619875311
 21
164.1896507557744
 31
0.0
  0
LINE
  5
12D
330
21
100
AcDbEntity
  8
0
100
AcDbLine
 10
120.6102619875311
 20
166.6896507557744
 30
0.0
 11
119.6102619875311
 21
164.1896507557744
 31
0.0
  0
LINE
  5
12E
330
21
100
AcDbEntity
  8
0
100
AcDbLine
 10
122.6102619875311
 20
166.6896507557744
 30
0.0
 11
123.6102619875311
 21
164.1896507557744
 31
0.0
  0
LINE
  5
12F
330
21
100
AcDbEntity
  8
0
100
AcDbLine
 10
122.6102619875311
 20
166.6896507557744
 30
0.0
 11
121.6102619875311
 21
164.1896507557744
 31
0.0
  0
LINE
  5
130
330
21
100
AcDbEntity
  8
0
100
AcDbLine
 10
124.6102619875311
 20
166.6896507557744
 30
0.0
 11
125.5851176145852
 21
164.2525116881389
 31
0.0
  0
LINE
  5
131
330
21
100
AcDbEntity
  8
0
100
AcDbLine
 10
124.6102619875311
 20
166.6896507557744
 30
0.0
 11
123.6102619875311
 21
164.1896507557744
 31
0.0
  0
LINE
  5
132
330
21
100
AcDbEntity
  8
0
100
AcDbLine
 10
80.61026198753109
 20
166.6896507557744
 30
0.0
 11
81.61026198753109
 21
164.1896507557744
 31
0.0
  0
LINE
  5
133
330
21
100
AcDbEntity
  8
0
100
AcDbLine
 10
80.61026198753109
 20
166.6896507557744
 30
0.0
 11
79.61026198753109
 21
164.1896507557744
 31
0.0
  0
LINE
  5
134
330
21
100
AcDbEntity
  8
0
100
AcDbLine
 10
78.61026198753108
 20
166.6896507557744
 30
0.0
 11
79.61026198753109
 21
164.1896507557744
 31
0.0
  0
LINE
  5
135
330
21
100
AcDbEntity
  8
0
100
AcDbLine
 10
78.61026198753108
 20
166.6896507557744
 30
0.0
 11
77.61026198753109
 21
164.1896507557744
 31
0.0
  0
LINE
  5
136
330
21
100
AcDbEntity
  8
0
100
AcDbLine
 10
76.61026198753109
 20
166.6896507557744
 30
0.0
 11
77.61026198753109
 21
164.1896507557744
 31
0.0
  0
LINE
  5
137
330
21
100
AcDbEntity
  8
0
100
AcDbLine
 10
76.61026198753109
 20
166.6896507557744
 30
0.0
 11
75.61026198753109
 21
164.1896507557744
 31
0.0
  0
LINE
  5
138
330
21
100
AcDbEntity
  8
0
100
AcDbLine
 10
74.61026198753109
 20
166.6896507557744
 30
0.0
 11
75.61026198753109
 21
164.1896507557744
 31
0.0
  0
LINE
  5
139
330
21
100
AcDbEntity
  8
0
100
AcDbLine
 10
74.61026198753109
 20
166.6896507557744
 30
0.0
 11
73.61026198753108
 21
164.1896507557744
 31
0.0
  0
LINE
  5
13A
330
21
100
AcDbEntity
  8
0
100
AcDbLine
 10
72.61026198753109
 20
166.6896507557744
 30
0.0
 11
73.61026198753108
 21
164.1896507557744
 31
0.0
  0
LINE
  5
13B
330
21
100
AcDbEntity
  8
0
100
AcDbLine
 10
72.61026198753109
 20
166.6896507557744
 30
0.0
 11
71.61026198753109
 21
164.1896507557744
 31
0.0
  0
LINE
  5
13C
330
21
100
AcDbEntity
  8
0
100
AcDbLine
 10
70.61026198753109
 20
166.6896507557744
 30
0.0
 11
71.61026198753109
 21
164.1896507557744
 31
0.0
  0
LINE
  5
13D
330
21
100
AcDbEntity
  8
0
100
AcDbLine
 10
70.61026198753109
 20
166.6896507557744
 30
0.0
 11
69.61026198753109
 21
164.1896507557744
 31
0.0
  0
LINE
  5
13E
330
21
100
AcDbEntity
  8
0
100
AcDbLine
 10
68.61026198753108
 20
166.6896507557744
 30
0.0
 11
69.61026198753109
 21
164.1896507557744
 31
0.0
  0
LINE
  5
13F
330
21
100
AcDbEntity
  8
0
100
AcDbLine
 10
68.61026198753108
 20
166.6896507557744
 30
0.0
 11
67.61026198753109
 21
164.1896507557744
 31
0.0
  0
LINE
  5
140
330
21
100
AcDbEntity
  8
0
100
AcDbLine
 10
66.61026198753109
 20
166.6896507557744
 30
0.0
 11
67.61026198753109
 21
164.1896507557744
 31
0.0
  0
LINE
  5
141
330
21
100
AcDbEntity
  8
0
100
AcDbLine
 10
66.61026198753109
 20
166.6896507557744
 30
0.0
 11
65.61026198753109
 21
164.1896507557744
 31
0.0
  0
LINE
  5
142
330
21
100
AcDbEntity
  8
0
100
AcDbLine
 10
64.61026198753109
 20
166.6896507557744
 30
0.0
 11
65.61026198753109
 21
164.1896507557744
 31
0.0
  0
LINE
  5
143
330
21
100
AcDbEntity
  8
0
100
AcDbLine
 10
64.61026198753109
 20
166.6896507557744
 30
0.0
 11
63.61026198753108
 21
164.1896507557744
 31
0.0
  0
LINE
  5
144
330
21
100
AcDbEntity
  8
0
100
AcDbLine
 10
62.61026198753109
 20
166.6896507557744
 30
0.0
 11
63.61026198753108
 21
164.1896507557744
 31
0.0
  0
LINE
  5
145
330
21
100
AcDbEntity
  8
0
100
AcDbLine
 10
62.61026198753109
 20
166.6896507557744
 30
0.0
 11
61.61026198753109
 21
164.1896507557744
 31
0.0
  0
LINE
  5
146
330
21
100
AcDbEntity
  8
0
100
AcDbLine
 10
60.61026198753109
 20
166.6896507557744
 30
0.0
 11
61.61026198753109
 21
164.1896507557744
 31
0.0
  0
LINE
  5
147
330
21
100
AcDbEntity
  8
0
100
AcDbLine
 10
60.61026198753109
 20
166.6896507557744
 30
0.0
 11
59.61026198753109
 21
164.1896507557744
 31
0.0
  0
LINE
  5
148
330
21
100
AcDbEntity
  8
0
100
AcDbLine
 10
58.61026198753108
 20
166.6896507557744
 30
0.0
 11
59.61026198753109
 21
164.1896507557744
 31
0.0
  0
LINE
  5
149
330
21
100
AcDbEntity
  8
0
100
AcDbLine
 10
58.61026198753108
 20
166.6896507557744
 30
0.0
 11
57.61026198753109
 21
164.1896507557744
 31
0.0
  0
LINE
  5
14A
330
21
100
AcDbEntity
  8
0
100
AcDbLine
 10
56.61026198753109
 20
166.6896507557744
 30
0.0
 11
57.61026198753109
 21
164.1896507557744
 31
0.0
  0
LINE
  5
14B
330
21
100
AcDbEntity
  8
0
100
AcDbLine
 10
56.61026198753109
 20
166.6896507557744
 30
0.0
 11
55.61026198753109
 21
164.1896507557744
 31
0.0
  0
LINE
  5
14C
330
21
100
AcDbEntity
  8
0
100
AcDbLine
 10
54.61026198753109
 20
166.6896507557744
 30
0.0
 11
55.61026198753109
 21
164.1896507557744
 31
0.0
  0
LINE
  5
14D
330
21
100
AcDbEntity
  8
0
100
AcDbLine
 10
54.61026198753109
 20
166.6896507557744
 30
0.0
 11
53.61026198753108
 21
164.1896507557744
 31
0.0
  0
LINE
  5
14E
330
21
100
AcDbEntity
  8
0
100
AcDbLine
 10
52.61026198753109
 20
166.6896507557744
 30
0.0
 11
53.61026198753108
 21
164.1896507557744
 31
0.0
  0
LINE
  5
14F
330
21
100
AcDbEntity
  8
0
100
AcDbLine
 10
52.61026198753109
 20
166.6896507557744
 30
0.0
 11
51.61026198753109
 21
164.1896507557744
 31
0.0
  0
LINE
  5
150
330
21
100
AcDbEntity
  8
0
100
AcDbLine
 10
50.61026198753109
 20
166.6896507557744
 30
0.0
 11
51.61026198753109
 21
164.1896507557744
 31
0.0
  0
LINE
  5
151
330
21
100
AcDbEntity
  8
0
100
AcDbLine
 10
50.61026198753109
 20
166.6896507557744
 30
0.0
 11
49.61026198753109
 21
164.1896507557744
 31
0.0
  0
LINE
  5
152
330
21
100
AcDbEntity
  8
0
100
AcDbLine
 10
48.61026198753108
 20
166.6896507557744
 30
0.0
 11
49.61026198753109
 21
164.1896507557744
 31
0.0
  0
LINE
  5
153
330
21
100
AcDbEntity
  8
0
100
AcDbLine
 10
48.61026198753108
 20
166.6896507557744
 30
0.0
 11
47.61026198753109
 21
164.1896507557744
 31
0.0
  0
LINE
  5
154
330
21
100
AcDbEntity
  8
0
100
AcDbLine
 10
46.61026198753108
 20
166.6896507557744
 30
0.0
 11
47.61026198753109
 21
164.1896507557744
 31
0.0
  0
LINE
  5
155
330
21
100
AcDbEntity
  8
0
100
AcDbLine
 10
46.61026198753108
 20
166.6896507557744
 30
0.0
 11
45.61026198753109
 21
164.1896507557744
 31
0.0
  0
LINE
  5
156
330
21
100
AcDbEntity
  8
0
100
AcDbLine
 10
44.61026198753109
 20
166.6896507557744
 30
0.0
 11
45.61026198753109
 21
164.1896507557744
 31
0.0
  0
LINE
  5
157
330
21
100
AcDbEntity
  8
0
100
AcDbLine
 10
44.61026198753109
 20
166.6896507557744
 30
0.0
 11
43.61026198753108
 21
164.1896507557744
 31
0.0
  0
LINE
  5
158
330
21
100
AcDbEntity
  8
0
100
AcDbLine
 10
42.61026198753109
 20
166.6896507557744
 30
0.0
 11
43.61026198753108
 21
164.1896507557744
 31
0.0
  0
LINE
  5
159
330
21
100
AcDbEntity
  8
0
100
AcDbLine
 10
42.61026198753109
 20
166.6896507557744
 30
0.0
 11
41.61026198753108
 21
164.1896507557744
 31
0.0
  0
LINE
  5
15A
330
21
100
AcDbEntity
  8
0
100
AcDbLine
 10
40.61026198753109
 20
166.6896507557744
 30
0.0
 11
41.61026198753108
 21
164.1896507557744
 31
0.0
  0
LINE
  5
15B
330
21
100
AcDbEntity
  8
0
100
AcDbLine
 10
40.61026198753109
 20
166.6896507557744
 30
0.0
 11
39.63540636047694
 21
164.252511688139
 31
0.0
  0
LINE
  5
15C
330
21
100
AcDbEntity
  8
0
100
AcDbLine
 10
125.6779652836738
 20
164.1896507557744
 30
0.0
 11
132.6102619875311
 21
164.1896507557744
 31
0.0
  0
LINE
  5
4D8
330
21
100
AcDbEntity
  8
0
100
AcDbLine
 10
32.61026198753109
 20
181.6896507557744
 30
0.0
 11
39.05880019800191
 21
181.6896507557744
 31
0.0
  0
LINE
  5
4DD
330
21
100
AcDbEntity
  8
0
100
AcDbLine
 10
82.61026198753109
 20
180.9896507557744
 30
0.0
 11
82.11026198753108
 21
181.6896507557744
 31
0.0
  0
LINE
  5
4DE
330
21
100
AcDbEntity
  8
0
100
AcDbLine
 10
82.61026198753109
 20
180.9896507557744
 30
0.0
 11
83.11026198753109
 21
181.6896507557744
 31
0.0
  0
LINE
  5
4E0
330
21
100
AcDbEntity
  8
0
100
AcDbLine
 10
82.61026198753109
 20
180.9896507557744
 30
0.0
 11
82.33615315806238
 21
180.6058983945183
 31
0.0
  0
LINE
  5
4E1
330
21
100
AcDbEntity
  8
0
100
AcDbLine
 10
82.61026198753109
 20
180.9896507557744
 30
0.0
 11
82.88437081699981
 21
180.6058983945182
 31
0.0
  0
LINE
  5
4E2
330
21
100
AcDbEntity
  8
0
100
AcDbLine
 10
82.49889985230373
 20
180.2896507557744
 30
0.0
 11
82.72162412275847
 21
180.2896507557744
 31
0.0
  0
ARC
  5
4E4
330
21
100
AcDbEntity
  8
0
100
AcDbCircle
 10
82.49889985230373
 20
180.4896507557744
 30
0.0
 40
0.2
100
AcDbArc
 50
144.4623222080252
 51
270.0
  0
ARC
  5
4E5
330
21
100
AcDbEntity
  8
0
100
AcDbCircle
 10
82.72162412275847
 20
180.4896507557744
 30
0.0
 40
0.2
100
AcDbArc
 50
270.0
 51
35.53767779197484
  0
ARC
  5
4ED
330
21
100
AcDbEntity
  8
0
100
AcDbCircle
 10
83.72162412275846
 20
180.4896507557744
 30
0.0
 40
0.2
100
AcDbArc
 50
270.0
 51
35.53767779197484
  0
ARC
  5
4EE
330
21
100
AcDbEntity
  8
0
100
AcDbCircle
 10
83.49889985230374
 20
180.4896507557744
 30
0.0
 40
0.2
100
AcDbArc
 50
144.4623222080252
 51
270.0
  0
LINE
  5
4EF
330
21
100
AcDbEntity
  8
0
100
AcDbLine
 10
83.49889985230374
 20
180.2896507557744
 30
0.0
 11
83.72162412275846
 21
180.2896507557744
 31
0.0
  0
LINE
  5
4F0
330
21
100
AcDbEntity
  8
0
100
AcDbLine
 10
83.61026198753108
 20
180.9896507557744
 30
0.0
 11
83.88437081699981
 21
180.6058983945182
 31
0.0
  0
LINE
  5
4F1
330
21
100
AcDbEntity
  8
0
100
AcDbLine
 10
83.61026198753108
 20
180.9896507557744
 30
0.0
 11
83.33615315806239
 21
180.6058983945183
 31
0.0
  0
LINE
  5
4F2
330
21
100
AcDbEntity
  8
0
100
AcDbLine
 10
83.61026198753108
 20
180.9896507557744
 30
0.0
 11
84.11026198753109
 21
181.6896507557744
 31
0.0
  0
LINE
  5
4F3
330
21
100
AcDbEntity
  8
0
100
AcDbLine
 10
83.61026198753108
 20
180.9896507557744
 30
0.0
 11
83.11026198753109
 21
181.6896507557744
 31
0.0
  0
ARC
  5
4F4
330
21
100
AcDbEntity
  8
0
100
AcDbCircle
 10
84.72162412275848
 20
180.4896507557744
 30
0.0
 40
0.2
100
AcDbArc
 50
270.0
 51
35.53767779197484
  0
ARC
  5
4F5
330
21
100
AcDbEntity
  8
0
100
AcDbCircle
 10
84.49889985230374
 20
180.4896507557744
 30
0.0
 40
0.2
100
AcDbArc
 50
144.4623222080252
 51
270.0
  0
LINE
  5
4F6
330
21
100
AcDbEntity
  8
0
100
AcDbLine
 10
84.49889985230374
 20
180.2896507557744
 30
0.0
 11
84.72162412275848
 21
180.2896507557744
 31
0.0
  0
LINE
  5
4F7
330
21
100
AcDbEntity
  8
0
100
AcDbLine
 10
84.61026198753108
 20
180.9896507557744
 30
0.0
 11
84.88437081699983
 21
180.6058983945182
 31
0.0
  0
LINE
  5
4F8
330
21
100
AcDbEntity
  8
0
100
AcDbLine
 10
84.61026198753108
 20
180.9896507557744
 30
0.0
 11
84.33615315806239
 21
180.6058983945183
 31
0.0
  0
LINE
  5
4F9
330
21
100
AcDbEntity
  8
0
100
AcDbLine
 10
84.61026198753108
 20
180.9896507557744
 30
0.0
 11
85.11026198753109
 21
181.6896507557744
 31
0.0
  0
LINE
  5
4FA
330
21
100
AcDbEntity
  8
0
100
AcDbLine
 10
84.61026198753108
 20
180.9896507557744
 30
0.0
 11
84.11026198753109
 21
181.6896507557744
 31
0.0
  0
ARC
  5
4FB
330
21
100
AcDbEntity
  8
0
100
AcDbCircle
 10
85.72162412275847
 20
180.4896507557744
 30
0.0
 40
0.2
100
AcDbArc
 50
270.0
 51
35.53767779197484
  0
ARC
  5
4FC
330
21
100
AcDbEntity
  8
0
100
AcDbCircle
 10
85.49889985230374
 20
180.4896507557744
 30
0.0
 40
0.2
100
AcDbArc
 50
144.4623222080252
 51
270.0
  0
LINE
  5
4FD
330
21
100
AcDbEntity
  8
0
100
AcDbLine
 10
85.49889985230374
 20
180.2896507557744
 30
0.0
 11
85.72162412275847
 21
180.2896507557744
 31
0.0
  0
LINE
  5
4FE
330
21
100
AcDbEntity
  8
0
100
AcDbLine
 10
85.61026198753109
 20
180.9896507557744
 30
0.0
 11
85.88437081699982
 21
180.6058983945182
 31
0.0
  0
LINE
  5
4FF
330
21
100
AcDbEntity
  8
0
100
AcDbLine
 10
85.61026198753109
 20
180.9896507557744
 30
0.0
 11
85.33615315806239
 21
180.6058983945183
 31
0.0
  0
LINE
  5
500
330
21
100
AcDbEntity
  8
0
100
AcDbLine
 10
85.61026198753109
 20
180.9896507557744
 30
0.0
 11
86.11026198753108
 21
181.6896507557744
 31
0.0
  0
LINE
  5
501
330
21
100
AcDbEntity
  8
0
100
AcDbLine
 10
85.61026198753109
 20
180.9896507557744
 30
0.0
 11
85.11026198753109
 21
181.6896507557744
 31
0.0
  0
ARC
  5
502
330
21
100
AcDbEntity
  8
0
100
AcDbCircle
 10
86.72162412275847
 20
180.4896507557744
 30
0.0
 40
0.2
100
AcDbArc
 50
270.0
 51
35.53767779197484
  0
ARC
  5
503
330
21
100
AcDbEntity
  8
0
100
AcDbCircle
 10
86.49889985230373
 20
180.4896507557744
 30
0.0
 40
0.2
100
AcDbArc
 50
144.4623222080252
 51
270.0
  0
LINE
  5
504
330
21
100
AcDbEntity
  8
0
100
AcDbLine
 10
86.49889985230373
 20
180.2896507557744
 30
0.0
 11
86.72162412275847
 21
180.2896507557744
 31
0.0
  0
LINE
  5
505
330
21
100
AcDbEntity
  8
0
100
AcDbLine
 10
86.61026198753109
 20
180.9896507557744
 30
0.0
 11
86.88437081699982
 21
180.6058983945182
 31
0.0
  0
LINE
  5
506
330
21
100
AcDbEntity
  8
0
100
AcDbLine
 10
86.61026198753109
 20
180.9896507557744
 30
0.0
 11
86.33615315806238
 21
180.6058983945183
 31
0.0
  0
LINE
  5
507
330
21
100
AcDbEntity
  8
0
100
AcDbLine
 10
86.61026198753109
 20
180.9896507557744
 30
0.0
 11
87.11026198753108
 21
181.6896507557744
 31
0.0
  0
LINE
  5
508
330
21
100
AcDbEntity
  8
0
100
AcDbLine
 10
86.61026198753109
 20
180.9896507557744
 30
0.0
 11
86.11026198753108
 21
181.6896507557744
 31
0.0
  0
ARC
  5
509
330
21
100
AcDbEntity
  8
0
100
AcDbCircle
 10
87.72162412275847
 20
180.4896507557744
 30
0.0
 40
0.2
100
AcDbArc
 50
270.0
 51
35.53767779197484
  0
ARC
  5
50A
330
21
100
AcDbEntity
  8
0
100
AcDbCircle
 10
87.49889985230373
 20
180.4896507557744
 30
0.0
 40
0.2
100
AcDbArc
 50
144.4623222080252
 51
270.0
  0
LINE
  5
50B
330
21
100
AcDbEntity
  8
0
100
AcDbLine
 10
87.49889985230373
 20
180.2896507557744
 30
0.0
 11
87.72162412275847
 21
180.2896507557744
 31
0.0
  0
LINE
  5
50C
330
21
100
AcDbEntity
  8
0
100
AcDbLine
 10
87.61026198753109
 20
180.9896507557744
 30
0.0
 11
87.88437081699981
 21
180.6058983945182
 31
0.0
  0
LINE
  5
50D
330
21
100
AcDbEntity
  8
0
100
AcDbLine
 10
87.61026198753109
 20
180.9896507557744
 30
0.0
 11
87.33615315806238
 21
180.6058983945183
 31
0.0
  0
LINE
  5
50E
330
21
100
AcDbEntity
  8
0
100
AcDbLine
 10
87.61026198753109
 20
180.9896507557744
 30
0.0
 11
88.11026198753109
 21
181.6896507557744
 31
0.0
  0
LINE
  5
50F
330
21
100
AcDbEntity
  8
0
100
AcDbLine
 10
87.61026198753109
 20
180.9896507557744
 30
0.0
 11
87.11026198753108
 21
181.6896507557744
 31
0.0
  0
ARC
  5
510
330
21
100
AcDbEntity
  8
0
100
AcDbCircle
 10
88.72162412275846
 20
180.4896507557744
 30
0.0
 40
0.2
100
AcDbArc
 50
270.0
 51
35.53767779197484
  0
ARC
  5
511
330
21
100
AcDbEntity
  8
0
100
AcDbCircle
 10
88.49889985230374
 20
180.4896507557744
 30
0.0
 40
0.2
100
AcDbArc
 50
144.4623222080252
 51
270.0
  0
LINE
  5
512
330
21
100
AcDbEntity
  8
0
100
AcDbLine
 10
88.49889985230374
 20
180.2896507557744
 30
0.0
 11
88.72162412275846
 21
180.2896507557744
 31
0.0
  0
LINE
  5
513
330
21
100
AcDbEntity
  8
0
100
AcDbLine
 10
88.61026198753108
 20
180.9896507557744
 30
0.0
 11
88.88437081699981
 21
180.6058983945182
 31
0.0
  0
LINE
  5
514
330
21
100
AcDbEntity
  8
0
100
AcDbLine
 10
88.61026198753108
 20
180.9896507557744
 30
0.0
 11
88.33615315806239
 21
180.6058983945183
 31
0.0
  0
LINE
  5
515
330
21
100
AcDbEntity
  8
0
100
AcDbLine
 10
88.61026198753108
 20
180.9896507557744
 30
0.0
 11
89.11026198753109
 21
181.6896507557744
 31
0.0
  0
LINE
  5
516
330
21
100
AcDbEntity
  8
0
100
AcDbLine
 10
88.61026198753108
 20
180.9896507557744
 30
0.0
 11
88.11026198753109
 21
181.6896507557744
 31
0.0
  0
ARC
  5
517
330
21
100
AcDbEntity
  8
0
100
AcDbCircle
 10
89.72162412275848
 20
180.4896507557744
 30
0.0
 40
0.2
100
AcDbArc
 50
270.0
 51
35.53767779197484
  0
ARC
  5
518
330
21
100
AcDbEntity
  8
0
100
AcDbCircle
 10
89.49889985230374
 20
180.4896507557744
 30
0.0
 40
0.2
100
AcDbArc
 50
144.4623222080252
 51
270.0
  0
LINE
  5
519
330
21
100
AcDbEntity
  8
0
100
AcDbLine
 10
89.49889985230374
 20
180.2896507557744
 30
0.0
 11
89.72162412275848
 21
180.2896507557744
 31
0.0
  0
LINE
  5
51A
330
21
100
AcDbEntity
  8
0
100
AcDbLine
 10
89.61026198753108
 20
180.9896507557744
 30
0.0
 11
89.88437081699983
 21
180.6058983945182
 31
0.0
  0
LINE
  5
51B
330
21
100
AcDbEntity
  8
0
100
AcDbLine
 10
89.61026198753108
 20
180.9896507557744
 30
0.0
 11
89.33615315806239
 21
180.6058983945183
 31
0.0
  0
LINE
  5
51C
330
21
100
AcDbEntity
  8
0
100
AcDbLine
 10
89.61026198753108
 20
180.9896507557744
 30
0.0
 11
90.11026198753109
 21
181.6896507557744
 31
0.0
  0
LINE
  5
51D
330
21
100
AcDbEntity
  8
0
100
AcDbLine
 10
89.61026198753108
 20
180.9896507557744
 30
0.0
 11
89.11026198753109
 21
181.6896507557744
 31
0.0
  0
ARC
  5
51E
330
21
100
AcDbEntity
  8
0
100
AcDbCircle
 10
90.72162412275847
 20
180.4896507557744
 30
0.0
 40
0.2
100
AcDbArc
 50
270.0
 51
35.53767779197484
  0
ARC
  5
51F
330
21
100
AcDbEntity
  8
0
100
AcDbCircle
 10
90.49889985230374
 20
180.4896507557744
 30
0.0
 40
0.2
100
AcDbArc
 50
144.4623222080252
 51
270.0
  0
LINE
  5
520
330
21
100
AcDbEntity
  8
0
100
AcDbLine
 10
90.49889985230374
 20
180.2896507557744
 30
0.0
 11
90.72162412275847
 21
180.2896507557744
 31
0.0
  0
LINE
  5
521
330
21
100
AcDbEntity
  8
0
100
AcDbLine
 10
90.61026198753109
 20
180.9896507557744
 30
0.0
 11
90.88437081699982
 21
180.6058983945182
 31
0.0
  0
LINE
  5
522
330
21
100
AcDbEntity
  8
0
100
AcDbLine
 10
90.61026198753109
 20
180.9896507557744
 30
0.0
 11
90.33615315806239
 21
180.6058983945183
 31
0.0
  0
LINE
  5
523
330
21
100
AcDbEntity
  8
0
100
AcDbLine
 10
90.61026198753109
 20
180.9896507557744
 30
0.0
 11
91.11026198753108
 21
181.6896507557744
 31
0.0
  0
LINE
  5
524
330
21
100
AcDbEntity
  8
0
100
AcDbLine
 10
90.61026198753109
 20
180.9896507557744
 30
0.0
 11
90.11026198753109
 21
181.6896507557744
 31
0.0
  0
ARC
  5
525
330
21
100
AcDbEntity
  8
0
100
AcDbCircle
 10
91.72162412275847
 20
180.4896507557744
 30
0.0
 40
0.2
100
AcDbArc
 50
270.0
 51
35.53767779197484
  0
ARC
  5
526
330
21
100
AcDbEntity
  8
0
100
AcDbCircle
 10
91.49889985230373
 20
180.4896507557744
 30
0.0
 40
0.2
100
AcDbArc
 50
144.4623222080252
 51
270.0
  0
LINE
  5
527
330
21
100
AcDbEntity
  8
0
100
AcDbLine
 10
91.49889985230373
 20
180.2896507557744
 30
0.0
 11
91.72162412275847
 21
180.2896507557744
 31
0.0
  0
LINE
  5
528
330
21
100
AcDbEntity
  8
0
100
AcDbLine
 10
91.61026198753109
 20
180.9896507557744
 30
0.0
 11
91.88437081699982
 21
180.6058983945182
 31
0.0
  0
LINE
  5
529
330
21
100
AcDbEntity
  8
0
100
AcDbLine
 10
91.61026198753109
 20
180.9896507557744
 30
0.0
 11
91.33615315806238
 21
180.6058983945183
 31
0.0
  0
LINE
  5
52A
330
21
100
AcDbEntity
  8
0
100
AcDbLine
 10
91.61026198753109
 20
180.9896507557744
 30
0.0
 11
92.11026198753108
 21
181.6896507557744
 31
0.0
  0
LINE
  5
52B
330
21
100
AcDbEntity
  8
0
100
AcDbLine
 10
91.61026198753109
 20
180.9896507557744
 30
0.0
 11
91.11026198753108
 21
181.6896507557744
 31
0.0
  0
ARC
  5
52C
330
21
100
AcDbEntity
  8
0
100
AcDbCircle
 10
92.72162412275847
 20
180.4896507557744
 30
0.0
 40
0.2
100
AcDbArc
 50
270.0
 51
35.53767779197484
  0
ARC
  5
52D
330
21
100
AcDbEntity
  8
0
100
AcDbCircle
 10
92.49889985230373
 20
180.4896507557744
 30
0.0
 40
0.2
100
AcDbArc
 50
144.4623222080252
 51
270.0
  0
LINE
  5
52E
330
21
100
AcDbEntity
  8
0
100
AcDbLine
 10
92.49889985230373
 20
180.2896507557744
 30
0.0
 11
92.72162412275847
 21
180.2896507557744
 31
0.0
  0
LINE
  5
52F
330
21
100
AcDbEntity
  8
0
100
AcDbLine
 10
92.61026198753109
 20
180.9896507557744
 30
0.0
 11
92.88437081699981
 21
180.6058983945182
 31
0.0
  0
LINE
  5
530
330
21
100
AcDbEntity
  8
0
100
AcDbLine
 10
92.61026198753109
 20
180.9896507557744
 30
0.0
 11
92.33615315806238
 21
180.6058983945183
 31
0.0
  0
LINE
  5
531
330
21
100
AcDbEntity
  8
0
100
AcDbLine
 10
92.61026198753109
 20
180.9896507557744
 30
0.0
 11
93.11026198753109
 21
181.6896507557744
 31
0.0
  0
LINE
  5
532
330
21
100
AcDbEntity
  8
0
100
AcDbLine
 10
92.61026198753109
 20
180.9896507557744
 30
0.0
 11
92.11026198753108
 21
181.6896507557744
 31
0.0
  0
ARC
  5
533
330
21
100
AcDbEntity
  8
0
100
AcDbCircle
 10
93.72162412275846
 20
180.4896507557744
 30
0.0
 40
0.2
100
AcDbArc
 50
270.0
 51
35.53767779197484
  0
ARC
  5
534
330
21
100
AcDbEntity
  8
0
100
AcDbCircle
 10
93.49889985230374
 20
180.4896507557744
 30
0.0
 40
0.2
100
AcDbArc
 50
144.4623222080252
 51
270.0
  0
LINE
  5
535
330
21
100
AcDbEntity
  8
0
100
AcDbLine
 10
93.49889985230374
 20
180.2896507557744
 30
0.0
 11
93.72162412275846
 21
180.2896507557744
 31
0.0
  0
LINE
  5
536
330
21
100
AcDbEntity
  8
0
100
AcDbLine
 10
93.61026198753108
 20
180.9896507557744
 30
0.0
 11
93.88437081699981
 21
180.6058983945182
 31
0.0
  0
LINE
  5
537
330
21
100
AcDbEntity
  8
0
100
AcDbLine
 10
93.61026198753108
 20
180.9896507557744
 30
0.0
 11
93.33615315806239
 21
180.6058983945183
 31
0.0
  0
LINE
  5
538
330
21
100
AcDbEntity
  8
0
100
AcDbLine
 10
93.61026198753108
 20
180.9896507557744
 30
0.0
 11
94.11026198753109
 21
181.6896507557744
 31
0.0
  0
LINE
  5
539
330
21
100
AcDbEntity
  8
0
100
AcDbLine
 10
93.61026198753108
 20
180.9896507557744
 30
0.0
 11
93.11026198753109
 21
181.6896507557744
 31
0.0
  0
ARC
  5
53A
330
21
100
AcDbEntity
  8
0
100
AcDbCircle
 10
94.72162412275848
 20
180.4896507557744
 30
0.0
 40
0.2
100
AcDbArc
 50
270.0
 51
35.53767779197484
  0
ARC
  5
53B
330
21
100
AcDbEntity
  8
0
100
AcDbCircle
 10
94.49889985230374
 20
180.4896507557744
 30
0.0
 40
0.2
100
AcDbArc
 50
144.4623222080252
 51
270.0
  0
LINE
  5
53C
330
21
100
AcDbEntity
  8
0
100
AcDbLine
 10
94.49889985230374
 20
180.2896507557744
 30
0.0
 11
94.72162412275848
 21
180.2896507557744
 31
0.0
  0
LINE
  5
53D
330
21
100
AcDbEntity
  8
0
100
AcDbLine
 10
94.61026198753108
 20
180.9896507557744
 30
0.0
 11
94.88437081699983
 21
180.6058983945182
 31
0.0
  0
LINE
  5
53E
330
21
100
AcDbEntity
  8
0
100
AcDbLine
 10
94.61026198753108
 20
180.9896507557744
 30
0.0
 11
94.33615315806239
 21
180.6058983945183
 31
0.0
  0
LINE
  5
53F
330
21
100
AcDbEntity
  8
0
100
AcDbLine
 10
94.61026198753108
 20
180.9896507557744
 30
0.0
 11
95.11026198753109
 21
181.6896507557744
 31
0.0
  0
LINE
  5
540
330
21
100
AcDbEntity
  8
0
100
AcDbLine
 10
94.61026198753108
 20
180.9896507557744
 30
0.0
 11
94.11026198753109
 21
181.6896507557744
 31
0.0
  0
ARC
  5
541
330
21
100
AcDbEntity
  8
0
100
AcDbCircle
 10
95.72162412275847
 20
180.4896507557744
 30
0.0
 40
0.2
100
AcDbArc
 50
270.0
 51
35.53767779197484
  0
ARC
  5
542
330
21
100
AcDbEntity
  8
0
100
AcDbCircle
 10
95.49889985230374
 20
180.4896507557744
 30
0.0
 40
0.2
100
AcDbArc
 50
144.4623222080252
 51
270.0
  0
LINE
  5
543
330
21
100
AcDbEntity
  8
0
100
AcDbLine
 10
95.49889985230374
 20
180.2896507557744
 30
0.0
 11
95.72162412275847
 21
180.2896507557744
 31
0.0
  0
LINE
  5
544
330
21
100
AcDbEntity
  8
0
100
AcDbLine
 10
95.61026198753109
 20
180.9896507557744
 30
0.0
 11
95.88437081699982
 21
180.6058983945182
 31
0.0
  0
LINE
  5
545
330
21
100
AcDbEntity
  8
0
100
AcDbLine
 10
95.61026198753109
 20
180.9896507557744
 30
0.0
 11
95.33615315806239
 21
180.6058983945183
 31
0.0
  0
LINE
  5
546
330
21
100
AcDbEntity
  8
0
100
AcDbLine
 10
95.61026198753109
 20
180.9896507557744
 30
0.0
 11
96.11026198753108
 21
181.6896507557744
 31
0.0
  0
LINE
  5
547
330
21
100
AcDbEntity
  8
0
100
AcDbLine
 10
95.61026198753109
 20
180.9896507557744
 30
0.0
 11
95.11026198753109
 21
181.6896507557744
 31
0.0
  0
ARC
  5
548
330
21
100
AcDbEntity
  8
0
100
AcDbCircle
 10
96.72162412275847
 20
180.4896507557744
 30
0.0
 40
0.2
100
AcDbArc
 50
270.0
 51
35.53767779197484
  0
ARC
  5
549
330
21
100
AcDbEntity
  8
0
100
AcDbCircle
 10
96.49889985230373
 20
180.4896507557744
 30
0.0
 40
0.2
100
AcDbArc
 50
144.4623222080252
 51
270.0
  0
LINE
  5
54A
330
21
100
AcDbEntity
  8
0
100
AcDbLine
 10
96.49889985230373
 20
180.2896507557744
 30
0.0
 11
96.72162412275847
 21
180.2896507557744
 31
0.0
  0
LINE
  5
54B
330
21
100
AcDbEntity
  8
0
100
AcDbLine
 10
96.61026198753109
 20
180.9896507557744
 30
0.0
 11
96.88437081699982
 21
180.6058983945182
 31
0.0
  0
LINE
  5
54C
330
21
100
AcDbEntity
  8
0
100
AcDbLine
 10
96.61026198753109
 20
180.9896507557744
 30
0.0
 11
96.33615315806238
 21
180.6058983945183
 31
0.0
  0
LINE
  5
54D
330
21
100
AcDbEntity
  8
0
100
AcDbLine
 10
96.61026198753109
 20
180.9896507557744
 30
0.0
 11
97.1102619875311
 21
181.6896507557744
 31
0.0
  0
LINE
  5
54E
330
21
100
AcDbEntity
  8
0
100
AcDbLine
 10
96.61026198753109
 20
180.9896507557744
 30
0.0
 11
96.11026198753108
 21
181.6896507557744
 31
0.0
  0
ARC
  5
54F
330
21
100
AcDbEntity
  8
0
100
AcDbCircle
 10
97.72162412275847
 20
180.4896507557744
 30
0.0
 40
0.2
100
AcDbArc
 50
270.0
 51
35.53767779197484
  0
ARC
  5
550
330
21
100
AcDbEntity
  8
0
100
AcDbCircle
 10
97.49889985230375
 20
180.4896507557744
 30
0.0
 40
0.2
100
AcDbArc
 50
144.4623222080252
 51
270.0
  0
LINE
  5
551
330
21
100
AcDbEntity
  8
0
100
AcDbLine
 10
97.49889985230375
 20
180.2896507557744
 30
0.0
 11
97.72162412275847
 21
180.2896507557744
 31
0.0
  0
LINE
  5
552
330
21
100
AcDbEntity
  8
0
100
AcDbLine
 10
97.61026198753109
 20
180.9896507557744
 30
0.0
 11
97.88437081699981
 21
180.6058983945182
 31
0.0
  0
LINE
  5
553
330
21
100
AcDbEntity
  8
0
100
AcDbLine
 10
97.61026198753109
 20
180.9896507557744
 30
0.0
 11
97.3361531580624
 21
180.6058983945183
 31
0.0
  0
LINE
  5
554
330
21
100
AcDbEntity
  8
0
100
AcDbLine
 10
97.61026198753109
 20
180.9896507557744
 30
0.0
 11
98.11026198753109
 21
181.6896507557744
 31
0.0
  0
LINE
  5
555
330
21
100
AcDbEntity
  8
0
100
AcDbLine
 10
97.61026198753109
 20
180.9896507557744
 30
0.0
 11
97.1102619875311
 21
181.6896507557744
 31
0.0
  0
ARC
  5
556
330
21
100
AcDbEntity
  8
0
100
AcDbCircle
 10
98.72162412275848
 20
180.4896507557744
 30
0.0
 40
0.2
100
AcDbArc
 50
270.0
 51
35.53767779197484
  0
ARC
  5
557
330
21
100
AcDbEntity
  8
0
100
AcDbCircle
 10
98.49889985230374
 20
180.4896507557744
 30
0.0
 40
0.2
100
AcDbArc
 50
144.4623222080252
 51
270.0
  0
LINE
  5
558
330
21
100
AcDbEntity
  8
0
100
AcDbLine
 10
98.49889985230374
 20
180.2896507557744
 30
0.0
 11
98.72162412275848
 21
180.2896507557744
 31
0.0
  0
LINE
  5
559
330
21
100
AcDbEntity
  8
0
100
AcDbLine
 10
98.61026198753108
 20
180.9896507557744
 30
0.0
 11
98.88437081699983
 21
180.6058983945182
 31
0.0
  0
LINE
  5
55A
330
21
100
AcDbEntity
  8
0
100
AcDbLine
 10
98.61026198753108
 20
180.9896507557744
 30
0.0
 11
98.33615315806239
 21
180.6058983945183
 31
0.0
  0
LINE
  5
55B
330
21
100
AcDbEntity
  8
0
100
AcDbLine
 10
98.61026198753108
 20
180.9896507557744
 30
0.0
 11
99.11026198753109
 21
181.6896507557744
 31
0.0
  0
LINE
  5
55C
330
21
100
AcDbEntity
  8
0
100
AcDbLine
 10
98.61026198753108
 20
180.9896507557744
 30
0.0
 11
98.11026198753109
 21
181.6896507557744
 31
0.0
  0
ARC
  5
55D
330
21
100
AcDbEntity
  8
0
100
AcDbCircle
 10
99.72162412275848
 20
180.4896507557744
 30
0.0
 40
0.2
100
AcDbArc
 50
270.0
 51
35.53767779197484
  0
ARC
  5
55E
330
21
100
AcDbEntity
  8
0
100
AcDbCircle
 10
99.49889985230374
 20
180.4896507557744
 30
0.0
 40
0.2
100
AcDbArc
 50
144.4623222080252
 51
270.0
  0
LINE
  5
55F
330
21
100
AcDbEntity
  8
0
100
AcDbLine
 10
99.49889985230374
 20
180.2896507557744
 30
0.0
 11
99.72162412275848
 21
180.2896507557744
 31
0.0
  0
LINE
  5
560
330
21
100
AcDbEntity
  8
0
100
AcDbLine
 10
99.6102619875311
 20
180.9896507557744
 30
0.0
 11
99.88437081699983
 21
180.6058983945182
 31
0.0
  0
LINE
  5
561
330
21
100
AcDbEntity
  8
0
100
AcDbLine
 10
99.6102619875311
 20
180.9896507557744
 30
0.0
 11
99.33615315806239
 21
180.6058983945183
 31
0.0
  0
LINE
  5
562
330
21
100
AcDbEntity
  8
0
100
AcDbLine
 10
99.6102619875311
 20
180.9896507557744
 30
0.0
 11
100.1102619875311
 21
181.6896507557744
 31
0.0
  0
LINE
  5
563
330
21
100
AcDbEntity
  8
0
100
AcDbLine
 10
99.6102619875311
 20
180.9896507557744
 30
0.0
 11
99.11026198753109
 21
181.6896507557744
 31
0.0
  0
ARC
  5
564
330
21
100
AcDbEntity
  8
0
100
AcDbCircle
 10
100.7216241227584
 20
180.4896507557744
 30
0.0
 40
0.2
100
AcDbArc
 50
270.0
 51
35.53767779197484
  0
ARC
  5
565
330
21
100
AcDbEntity
  8
0
100
AcDbCircle
 10
100.4988998523037
 20
180.4896507557744
 30
0.0
 40
0.2
100
AcDbArc
 50
144.4623222080252
 51
270.0
  0
LINE
  5
566
330
21
100
AcDbEntity
  8
0
100
AcDbLine
 10
100.4988998523037
 20
180.2896507557744
 30
0.0
 11
100.7216241227584
 21
180.2896507557744
 31
0.0
  0
LINE
  5
567
330
21
100
AcDbEntity
  8
0
100
AcDbLine
 10
100.6102619875311
 20
180.9896507557744
 30
0.0
 11
100.8843708169998
 21
180.6058983945182
 31
0.0
  0
LINE
  5
568
330
21
100
AcDbEntity
  8
0
100
AcDbLine
 10
100.6102619875311
 20
180.9896507557744
 30
0.0
 11
100.3361531580624
 21
180.6058983945183
 31
0.0
  0
LINE
  5
569
330
21
100
AcDbEntity
  8
0
100
AcDbLine
 10
100.6102619875311
 20
180.9896507557744
 30
0.0
 11
101.1102619875311
 21
181.6896507557744
 31
0.0
  0
LINE
  5
56A
330
21
100
AcDbEntity
  8
0
100
AcDbLine
 10
100.6102619875311
 20
180.9896507557744
 30
0.0
 11
100.1102619875311
 21
181.6896507557744
 31
0.0
  0
ARC
  5
56B
330
21
100
AcDbEntity
  8
0
100
AcDbCircle
 10
101.7216241227584
 20
180.4896507557744
 30
0.0
 40
0.2
100
AcDbArc
 50
270.0
 51
35.53767779197484
  0
ARC
  5
56C
330
21
100
AcDbEntity
  8
0
100
AcDbCircle
 10
101.4988998523037
 20
180.4896507557744
 30
0.0
 40
0.2
100
AcDbArc
 50
144.4623222080252
 51
270.0
  0
LINE
  5
56D
330
21
100
AcDbEntity
  8
0
100
AcDbLine
 10
101.4988998523037
 20
180.2896507557744
 30
0.0
 11
101.7216241227584
 21
180.2896507557744
 31
0.0
  0
LINE
  5
56E
330
21
100
AcDbEntity
  8
0
100
AcDbLine
 10
101.6102619875311
 20
180.9896507557744
 30
0.0
 11
101.8843708169998
 21
180.6058983945182
 31
0.0
  0
LINE
  5
56F
330
21
100
AcDbEntity
  8
0
100
AcDbLine
 10
101.6102619875311
 20
180.9896507557744
 30
0.0
 11
101.3361531580624
 21
180.6058983945183
 31
0.0
  0
LINE
  5
570
330
21
100
AcDbEntity
  8
0
100
AcDbLine
 10
101.6102619875311
 20
180.9896507557744
 30
0.0
 11
102.1102619875311
 21
181.6896507557744
 31
0.0
  0
LINE
  5
571
330
21
100
AcDbEntity
  8
0
100
AcDbLine
 10
101.6102619875311
 20
180.9896507557744
 30
0.0
 11
101.1102619875311
 21
181.6896507557744
 31
0.0
  0
ARC
  5
572
330
21
100
AcDbEntity
  8
0
100
AcDbCircle
 10
102.7216241227584
 20
180.4896507557744
 30
0.0
 40
0.2
100
AcDbArc
 50
270.0
 51
35.53767779197484
  0
ARC
  5
573
330
21
100
AcDbEntity
  8
0
100
AcDbCircle
 10
102.4988998523037
 20
180.4896507557744
 30
0.0
 40
0.2
100
AcDbArc
 50
144.4623222080252
 51
270.0
  0
LINE
  5
574
330
21
100
AcDbEntity
  8
0
100
AcDbLine
 10
102.4988998523037
 20
180.2896507557744
 30
0.0
 11
102.7216241227584
 21
180.2896507557744
 31
0.0
  0
LINE
  5
575
330
21
100
AcDbEntity
  8
0
100
AcDbLine
 10
102.6102619875311
 20
180.9896507557744
 30
0.0
 11
102.8843708169998
 21
180.6058983945182
 31
0.0
  0
LINE
  5
576
330
21
100
AcDbEntity
  8
0
100
AcDbLine
 10
102.6102619875311
 20
180.9896507557744
 30
0.0
 11
102.3361531580624
 21
180.6058983945183
 31
0.0
  0
LINE
  5
577
330
21
100
AcDbEntity
  8
0
100
AcDbLine
 10
102.6102619875311
 20
180.9896507557744
 30
0.0
 11
103.1102619875311
 21
181.6896507557744
 31
0.0
  0
LINE
  5
578
330
21
100
AcDbEntity
  8
0
100
AcDbLine
 10
102.6102619875311
 20
180.9896507557744
 30
0.0
 11
102.1102619875311
 21
181.6896507557744
 31
0.0
  0
ARC
  5
579
330
21
100
AcDbEntity
  8
0
100
AcDbCircle
 10
103.7216241227584
 20
180.4896507557744
 30
0.0
 40
0.2
100
AcDbArc
 50
270.0
 51
35.53767779197484
  0
ARC
  5
57A
330
21
100
AcDbEntity
  8
0
100
AcDbCircle
 10
103.4988998523037
 20
180.4896507557744
 30
0.0
 40
0.2
100
AcDbArc
 50
144.4623222080252
 51
270.0
  0
LINE
  5
57B
330
21
100
AcDbEntity
  8
0
100
AcDbLine
 10
103.4988998523037
 20
180.2896507557744
 30
0.0
 11
103.7216241227584
 21
180.2896507557744
 31
0.0
  0
LINE
  5
57C
330
21
100
AcDbEntity
  8
0
100
AcDbLine
 10
103.6102619875311
 20
180.9896507557744
 30
0.0
 11
103.8843708169998
 21
180.6058983945182
 31
0.0
  0
LINE
  5
57D
330
21
100
AcDbEntity
  8
0
100
AcDbLine
 10
103.6102619875311
 20
180.9896507557744
 30
0.0
 11
103.3361531580624
 21
180.6058983945183
 31
0.0
  0
LINE
  5
57E
330
21
100
AcDbEntity
  8
0
100
AcDbLine
 10
103.6102619875311
 20
180.9896507557744
 30
0.0
 11
104.1102619875311
 21
181.6896507557744
 31
0.0
  0
LINE
  5
57F
330
21
100
AcDbEntity
  8
0
100
AcDbLine
 10
103.6102619875311
 20
180.9896507557744
 30
0.0
 11
103.1102619875311
 21
181.6896507557744
 31
0.0
  0
ARC
  5
580
330
21
100
AcDbEntity
  8
0
100
AcDbCircle
 10
104.7216241227584
 20
180.4896507557744
 30
0.0
 40
0.2
100
AcDbArc
 50
270.0
 51
35.53767779197484
  0
ARC
  5
581
330
21
100
AcDbEntity
  8
0
100
AcDbCircle
 10
104.4988998523037
 20
180.4896507557744
 30
0.0
 40
0.2
100
AcDbArc
 50
144.4623222080252
 51
270.0
  0
LINE
  5
582
330
21
100
AcDbEntity
  8
0
100
AcDbLine
 10
104.4988998523037
 20
180.2896507557744
 30
0.0
 11
104.7216241227584
 21
180.2896507557744
 31
0.0
  0
LINE
  5
583
330
21
100
AcDbEntity
  8
0
100
AcDbLine
 10
104.6102619875311
 20
180.9896507557744
 30
0.0
 11
104.8843708169998
 21
180.6058983945182
 31
0.0
  0
LINE
  5
584
330
21
100
AcDbEntity
  8
0
100
AcDbLine
 10
104.6102619875311
 20
180.9896507557744
 30
0.0
 11
104.3361531580624
 21
180.6058983945183
 31
0.0
  0
LINE
  5
585
330
21
100
AcDbEntity
  8
0
100
AcDbLine
 10
104.6102619875311
 20
180.9896507557744
 30
0.0
 11
105.1102619875311
 21
181.6896507557744
 31
0.0
  0
LINE
  5
586
330
21
100
AcDbEntity
  8
0
100
AcDbLine
 10
104.6102619875311
 20
180.9896507557744
 30
0.0
 11
104.1102619875311
 21
181.6896507557744
 31
0.0
  0
ARC
  5
587
330
21
100
AcDbEntity
  8
0
100
AcDbCircle
 10
105.7216241227584
 20
180.4896507557744
 30
0.0
 40
0.2
100
AcDbArc
 50
270.0
 51
35.53767779197484
  0
ARC
  5
588
330
21
100
AcDbEntity
  8
0
100
AcDbCircle
 10
105.4988998523037
 20
180.4896507557744
 30
0.0
 40
0.2
100
AcDbArc
 50
144.4623222080252
 51
270.0
  0
LINE
  5
589
330
21
100
AcDbEntity
  8
0
100
AcDbLine
 10
105.4988998523037
 20
180.2896507557744
 30
0.0
 11
105.7216241227584
 21
180.2896507557744
 31
0.0
  0
LINE
  5
58A
330
21
100
AcDbEntity
  8
0
100
AcDbLine
 10
105.6102619875311
 20
180.9896507557744
 30
0.0
 11
105.8843708169998
 21
180.6058983945182
 31
0.0
  0
LINE
  5
58B
330
21
100
AcDbEntity
  8
0
100
AcDbLine
 10
105.6102619875311
 20
180.9896507557744
 30
0.0
 11
105.3361531580624
 21
180.6058983945183
 31
0.0
  0
LINE
  5
58C
330
21
100
AcDbEntity
  8
0
100
AcDbLine
 10
105.6102619875311
 20
180.9896507557744
 30
0.0
 11
106.1102619875311
 21
181.6896507557744
 31
0.0
  0
LINE
  5
58D
330
21
100
AcDbEntity
  8
0
100
AcDbLine
 10
105.6102619875311
 20
180.9896507557744
 30
0.0
 11
105.1102619875311
 21
181.6896507557744
 31
0.0
  0
ARC
  5
58E
330
21
100
AcDbEntity
  8
0
100
AcDbCircle
 10
106.7216241227584
 20
180.4896507557744
 30
0.0
 40
0.2
100
AcDbArc
 50
270.0
 51
35.53767779197484
  0
ARC
  5
58F
330
21
100
AcDbEntity
  8
0
100
AcDbCircle
 10
106.4988998523037
 20
180.4896507557744
 30
0.0
 40
0.2
100
AcDbArc
 50
144.4623222080252
 51
270.0
  0
LINE
  5
590
330
21
100
AcDbEntity
  8
0
100
AcDbLine
 10
106.4988998523037
 20
180.2896507557744
 30
0.0
 11
106.7216241227584
 21
180.2896507557744
 31
0.0
  0
LINE
  5
591
330
21
100
AcDbEntity
  8
0
100
AcDbLine
 10
106.6102619875311
 20
180.9896507557744
 30
0.0
 11
106.8843708169998
 21
180.6058983945182
 31
0.0
  0
LINE
  5
592
330
21
100
AcDbEntity
  8
0
100
AcDbLine
 10
106.6102619875311
 20
180.9896507557744
 30
0.0
 11
106.3361531580624
 21
180.6058983945183
 31
0.0
  0
LINE
  5
593
330
21
100
AcDbEntity
  8
0
100
AcDbLine
 10
106.6102619875311
 20
180.9896507557744
 30
0.0
 11
107.1102619875311
 21
181.6896507557744
 31
0.0
  0
LINE
  5
594
330
21
100
AcDbEntity
  8
0
100
AcDbLine
 10
106.6102619875311
 20
180.9896507557744
 30
0.0
 11
106.1102619875311
 21
181.6896507557744
 31
0.0
  0
ARC
  5
595
330
21
100
AcDbEntity
  8
0
100
AcDbCircle
 10
107.7216241227584
 20
180.4896507557744
 30
0.0
 40
0.2
100
AcDbArc
 50
270.0
 51
35.53767779197484
  0
ARC
  5
596
330
21
100
AcDbEntity
  8
0
100
AcDbCircle
 10
107.4988998523037
 20
180.4896507557744
 30
0.0
 40
0.2
100
AcDbArc
 50
144.4623222080252
 51
270.0
  0
LINE
  5
597
330
21
100
AcDbEntity
  8
0
100
AcDbLine
 10
107.4988998523037
 20
180.2896507557744
 30
0.0
 11
107.7216241227584
 21
180.2896507557744
 31
0.0
  0
LINE
  5
598
330
21
100
AcDbEntity
  8
0
100
AcDbLine
 10
107.6102619875311
 20
180.9896507557744
 30
0.0
 11
107.8843708169998
 21
180.6058983945182
 31
0.0
  0
LINE
  5
599
330
21
100
AcDbEntity
  8
0
100
AcDbLine
 10
107.6102619875311
 20
180.9896507557744
 30
0.0
 11
107.3361531580624
 21
180.6058983945183
 31
0.0
  0
LINE
  5
59A
330
21
100
AcDbEntity
  8
0
100
AcDbLine
 10
107.6102619875311
 20
180.9896507557744
 30
0.0
 11
108.1102619875311
 21
181.6896507557744
 31
0.0
  0
LINE
  5
59B
330
21
100
AcDbEntity
  8
0
100
AcDbLine
 10
107.6102619875311
 20
180.9896507557744
 30
0.0
 11
107.1102619875311
 21
181.6896507557744
 31
0.0
  0
ARC
  5
59C
330
21
100
AcDbEntity
  8
0
100
AcDbCircle
 10
108.7216241227584
 20
180.4896507557744
 30
0.0
 40
0.2
100
AcDbArc
 50
270.0
 51
35.53767779197484
  0
ARC
  5
59D
330
21
100
AcDbEntity
  8
0
100
AcDbCircle
 10
108.4988998523037
 20
180.4896507557744
 30
0.0
 40
0.2
100
AcDbArc
 50
144.4623222080252
 51
270.0
  0
LINE
  5
59E
330
21
100
AcDbEntity
  8
0
100
AcDbLine
 10
108.4988998523037
 20
180.2896507557744
 30
0.0
 11
108.7216241227584
 21
180.2896507557744
 31
0.0
  0
LINE
  5
59F
330
21
100
AcDbEntity
  8
0
100
AcDbLine
 10
108.6102619875311
 20
180.9896507557744
 30
0.0
 11
108.8843708169998
 21
180.6058983945182
 31
0.0
  0
LINE
  5
5A0
330
21
100
AcDbEntity
  8
0
100
AcDbLine
 10
108.6102619875311
 20
180.9896507557744
 30
0.0
 11
108.3361531580624
 21
180.6058983945183
 31
0.0
  0
LINE
  5
5A1
330
21
100
AcDbEntity
  8
0
100
AcDbLine
 10
108.6102619875311
 20
180.9896507557744
 30
0.0
 11
109.1102619875311
 21
181.6896507557744
 31
0.0
  0
LINE
  5
5A2
330
21
100
AcDbEntity
  8
0
100
AcDbLine
 10
108.6102619875311
 20
180.9896507557744
 30
0.0
 11
108.1102619875311
 21
181.6896507557744
 31
0.0
  0
ARC
  5
5A3
330
21
100
AcDbEntity
  8
0
100
AcDbCircle
 10
109.7216241227584
 20
180.4896507557744
 30
0.0
 40
0.2
100
AcDbArc
 50
270.0
 51
35.53767779197484
  0
ARC
  5
5A4
330
21
100
AcDbEntity
  8
0
100
AcDbCircle
 10
109.4988998523037
 20
180.4896507557744
 30
0.0
 40
0.2
100
AcDbArc
 50
144.4623222080252
 51
270.0
  0
LINE
  5
5A5
330
21
100
AcDbEntity
  8
0
100
AcDbLine
 10
109.4988998523037
 20
180.2896507557744
 30
0.0
 11
109.7216241227584
 21
180.2896507557744
 31
0.0
  0
LINE
  5
5A6
330
21
100
AcDbEntity
  8
0
100
AcDbLine
 10
109.6102619875311
 20
180.9896507557744
 30
0.0
 11
109.8843708169998
 21
180.6058983945182
 31
0.0
  0
LINE
  5
5A7
330
21
100
AcDbEntity
  8
0
100
AcDbLine
 10
109.6102619875311
 20
180.9896507557744
 30
0.0
 11
109.3361531580624
 21
180.6058983945183
 31
0.0
  0
LINE
  5
5A8
330
21
100
AcDbEntity
  8
0
100
AcDbLine
 10
109.6102619875311
 20
180.9896507557744
 30
0.0
 11
110.1102619875311
 21
181.6896507557744
 31
0.0
  0
LINE
  5
5A9
330
21
100
AcDbEntity
  8
0
100
AcDbLine
 10
109.6102619875311
 20
180.9896507557744
 30
0.0
 11
109.1102619875311
 21
181.6896507557744
 31
0.0
  0
ARC
  5
5AA
330
21
100
AcDbEntity
  8
0
100
AcDbCircle
 10
110.7216241227584
 20
180.4896507557744
 30
0.0
 40
0.2
100
AcDbArc
 50
270.0
 51
35.53767779197484
  0
ARC
  5
5AB
330
21
100
AcDbEntity
  8
0
100
AcDbCircle
 10
110.4988998523037
 20
180.4896507557744
 30
0.0
 40
0.2
100
AcDbArc
 50
144.4623222080252
 51
270.0
  0
LINE
  5
5AC
330
21
100
AcDbEntity
  8
0
100
AcDbLine
 10
110.4988998523037
 20
180.2896507557744
 30
0.0
 11
110.7216241227584
 21
180.2896507557744
 31
0.0
  0
LINE
  5
5AD
330
21
100
AcDbEntity
  8
0
100
AcDbLine
 10
110.6102619875311
 20
180.9896507557744
 30
0.0
 11
110.8843708169998
 21
180.6058983945182
 31
0.0
  0
LINE
  5
5AE
330
21
100
AcDbEntity
  8
0
100
AcDbLine
 10
110.6102619875311
 20
180.9896507557744
 30
0.0
 11
110.3361531580624
 21
180.6058983945183
 31
0.0
  0
LINE
  5
5AF
330
21
100
AcDbEntity
  8
0
100
AcDbLine
 10
110.6102619875311
 20
180.9896507557744
 30
0.0
 11
111.1102619875311
 21
181.6896507557744
 31
0.0
  0
LINE
  5
5B0
330
21
100
AcDbEntity
  8
0
100
AcDbLine
 10
110.6102619875311
 20
180.9896507557744
 30
0.0
 11
110.1102619875311
 21
181.6896507557744
 31
0.0
  0
ARC
  5
5B1
330
21
100
AcDbEntity
  8
0
100
AcDbCircle
 10
111.7216241227585
 20
180.4896507557744
 30
0.0
 40
0.2
100
AcDbArc
 50
270.0
 51
35.53767779197484
  0
ARC
  5
5B2
330
21
100
AcDbEntity
  8
0
100
AcDbCircle
 10
111.4988998523037
 20
180.4896507557744
 30
0.0
 40
0.2
100
AcDbArc
 50
144.4623222080252
 51
270.0
  0
LINE
  5
5B3
330
21
100
AcDbEntity
  8
0
100
AcDbLine
 10
111.4988998523037
 20
180.2896507557744
 30
0.0
 11
111.7216241227585
 21
180.2896507557744
 31
0.0
  0
LINE
  5
5B4
330
21
100
AcDbEntity
  8
0
100
AcDbLine
 10
111.6102619875311
 20
180.9896507557744
 30
0.0
 11
111.8843708169998
 21
180.6058983945182
 31
0.0
  0
LINE
  5
5B5
330
21
100
AcDbEntity
  8
0
100
AcDbLine
 10
111.6102619875311
 20
180.9896507557744
 30
0.0
 11
111.3361531580624
 21
180.6058983945183
 31
0.0
  0
LINE
  5
5B6
330
21
100
AcDbEntity
  8
0
100
AcDbLine
 10
111.6102619875311
 20
180.9896507557744
 30
0.0
 11
112.1102619875311
 21
181.6896507557744
 31
0.0
  0
LINE
  5
5B7
330
21
100
AcDbEntity
  8
0
100
AcDbLine
 10
111.6102619875311
 20
180.9896507557744
 30
0.0
 11
111.1102619875311
 21
181.6896507557744
 31
0.0
  0
ARC
  5
5B8
330
21
100
AcDbEntity
  8
0
100
AcDbCircle
 10
112.7216241227585
 20
180.4896507557744
 30
0.0
 40
0.2
100
AcDbArc
 50
270.0
 51
35.53767779197484
  0
ARC
  5
5B9
330
21
100
AcDbEntity
  8
0
100
AcDbCircle
 10
112.4988998523037
 20
180.4896507557744
 30
0.0
 40
0.2
100
AcDbArc
 50
144.4623222080252
 51
270.0
  0
LINE
  5
5BA
330
21
100
AcDbEntity
  8
0
100
AcDbLine
 10
112.4988998523037
 20
180.2896507557744
 30
0.0
 11
112.7216241227585
 21
180.2896507557744
 31
0.0
  0
LINE
  5
5BB
330
21
100
AcDbEntity
  8
0
100
AcDbLine
 10
112.6102619875311
 20
180.9896507557744
 30
0.0
 11
112.8843708169998
 21
180.6058983945182
 31
0.0
  0
LINE
  5
5BC
330
21
100
AcDbEntity
  8
0
100
AcDbLine
 10
112.6102619875311
 20
180.9896507557744
 30
0.0
 11
112.3361531580624
 21
180.6058983945183
 31
0.0
  0
LINE
  5
5BD
330
21
100
AcDbEntity
  8
0
100
AcDbLine
 10
112.6102619875311
 20
180.9896507557744
 30
0.0
 11
113.1102619875311
 21
181.6896507557744
 31
0.0
  0
LINE
  5
5BE
330
21
100
AcDbEntity
  8
0
100
AcDbLine
 10
112.6102619875311
 20
180.9896507557744
 30
0.0
 11
112.1102619875311
 21
181.6896507557744
 31
0.0
  0
ARC
  5
5BF
330
21
100
AcDbEntity
  8
0
100
AcDbCircle
 10
113.7216241227585
 20
180.4896507557744
 30
0.0
 40
0.2
100
AcDbArc
 50
270.0
 51
35.53767779197484
  0
ARC
  5
5C0
330
21
100
AcDbEntity
  8
0
100
AcDbCircle
 10
113.4988998523037
 20
180.4896507557744
 30
0.0
 40
0.2
100
AcDbArc
 50
144.4623222080252
 51
270.0
  0
LINE
  5
5C1
330
21
100
AcDbEntity
  8
0
100
AcDbLine
 10
113.4988998523037
 20
180.2896507557744
 30
0.0
 11
113.7216241227585
 21
180.2896507557744
 31
0.0
  0
LINE
  5
5C2
330
21
100
AcDbEntity
  8
0
100
AcDbLine
 10
113.6102619875311
 20
180.9896507557744
 30
0.0
 11
113.8843708169998
 21
180.6058983945182
 31
0.0
  0
LINE
  5
5C3
330
21
100
AcDbEntity
  8
0
100
AcDbLine
 10
113.6102619875311
 20
180.9896507557744
 30
0.0
 11
113.3361531580624
 21
180.6058983945183
 31
0.0
  0
LINE
  5
5C4
330
21
100
AcDbEntity
  8
0
100
AcDbLine
 10
113.6102619875311
 20
180.9896507557744
 30
0.0
 11
114.1102619875311
 21
181.6896507557744
 31
0.0
  0
LINE
  5
5C5
330
21
100
AcDbEntity
  8
0
100
AcDbLine
 10
113.6102619875311
 20
180.9896507557744
 30
0.0
 11
113.1102619875311
 21
181.6896507557744
 31
0.0
  0
ARC
  5
5C6
330
21
100
AcDbEntity
  8
0
100
AcDbCircle
 10
114.7216241227585
 20
180.4896507557744
 30
0.0
 40
0.2
100
AcDbArc
 50
270.0
 51
35.53767779197484
  0
ARC
  5
5C7
330
21
100
AcDbEntity
  8
0
100
AcDbCircle
 10
114.4988998523037
 20
180.4896507557744
 30
0.0
 40
0.2
100
AcDbArc
 50
144.4623222080252
 51
270.0
  0
LINE
  5
5C8
330
21
100
AcDbEntity
  8
0
100
AcDbLine
 10
114.4988998523037
 20
180.2896507557744
 30
0.0
 11
114.7216241227585
 21
180.2896507557744
 31
0.0
  0
LINE
  5
5C9
330
21
100
AcDbEntity
  8
0
100
AcDbLine
 10
114.6102619875311
 20
180.9896507557744
 30
0.0
 11
114.8843708169998
 21
180.6058983945182
 31
0.0
  0
LINE
  5
5CA
330
21
100
AcDbEntity
  8
0
100
AcDbLine
 10
114.6102619875311
 20
180.9896507557744
 30
0.0
 11
114.3361531580624
 21
180.6058983945183
 31
0.0
  0
LINE
  5
5CB
330
21
100
AcDbEntity
  8
0
100
AcDbLine
 10
114.6102619875311
 20
180.9896507557744
 30
0.0
 11
115.1102619875311
 21
181.6896507557744
 31
0.0
  0
LINE
  5
5CC
330
21
100
AcDbEntity
  8
0
100
AcDbLine
 10
114.6102619875311
 20
180.9896507557744
 30
0.0
 11
114.1102619875311
 21
181.6896507557744
 31
0.0
  0
ARC
  5
5CD
330
21
100
AcDbEntity
  8
0
100
AcDbCircle
 10
115.7216241227585
 20
180.4896507557744
 30
0.0
 40
0.2
100
AcDbArc
 50
270.0
 51
35.53767779197484
  0
ARC
  5
5CE
330
21
100
AcDbEntity
  8
0
100
AcDbCircle
 10
115.4988998523037
 20
180.4896507557744
 30
0.0
 40
0.2
100
AcDbArc
 50
144.4623222080252
 51
270.0
  0
LINE
  5
5CF
330
21
100
AcDbEntity
  8
0
100
AcDbLine
 10
115.4988998523037
 20
180.2896507557744
 30
0.0
 11
115.7216241227585
 21
180.2896507557744
 31
0.0
  0
LINE
  5
5D0
330
21
100
AcDbEntity
  8
0
100
AcDbLine
 10
115.6102619875311
 20
180.9896507557744
 30
0.0
 11
115.8843708169998
 21
180.6058983945182
 31
0.0
  0
LINE
  5
5D1
330
21
100
AcDbEntity
  8
0
100
AcDbLine
 10
115.6102619875311
 20
180.9896507557744
 30
0.0
 11
115.3361531580624
 21
180.6058983945183
 31
0.0
  0
LINE
  5
5D2
330
21
100
AcDbEntity
  8
0
100
AcDbLine
 10
115.6102619875311
 20
180.9896507557744
 30
0.0
 11
116.1102619875311
 21
181.6896507557744
 31
0.0
  0
LINE
  5
5D3
330
21
100
AcDbEntity
  8
0
100
AcDbLine
 10
115.6102619875311
 20
180.9896507557744
 30
0.0
 11
115.1102619875311
 21
181.6896507557744
 31
0.0
  0
ARC
  5
5D4
330
21
100
AcDbEntity
  8
0
100
AcDbCircle
 10
116.7216241227585
 20
180.4896507557744
 30
0.0
 40
0.2
100
AcDbArc
 50
270.0
 51
35.53767779197484
  0
ARC
  5
5D5
330
21
100
AcDbEntity
  8
0
100
AcDbCircle
 10
116.4988998523037
 20
180.4896507557744
 30
0.0
 40
0.2
100
AcDbArc
 50
144.4623222080252
 51
270.0
  0
LINE
  5
5D6
330
21
100
AcDbEntity
  8
0
100
AcDbLine
 10
116.4988998523037
 20
180.2896507557744
 30
0.0
 11
116.7216241227585
 21
180.2896507557744
 31
0.0
  0
LINE
  5
5D7
330
21
100
AcDbEntity
  8
0
100
AcDbLine
 10
116.6102619875311
 20
180.9896507557744
 30
0.0
 11
116.8843708169998
 21
180.6058983945182
 31
0.0
  0
LINE
  5
5D8
330
21
100
AcDbEntity
  8
0
100
AcDbLine
 10
116.6102619875311
 20
180.9896507557744
 30
0.0
 11
116.3361531580624
 21
180.6058983945183
 31
0.0
  0
LINE
  5
5D9
330
21
100
AcDbEntity
  8
0
100
AcDbLine
 10
116.6102619875311
 20
180.9896507557744
 30
0.0
 11
117.1102619875311
 21
181.6896507557744
 31
0.0
  0
LINE
  5
5DA
330
21
100
AcDbEntity
  8
0
100
AcDbLine
 10
116.6102619875311
 20
180.9896507557744
 30
0.0
 11
116.1102619875311
 21
181.6896507557744
 31
0.0
  0
ARC
  5
5DB
330
21
100
AcDbEntity
  8
0
100
AcDbCircle
 10
117.7216241227585
 20
180.4896507557744
 30
0.0
 40
0.2
100
AcDbArc
 50
270.0
 51
35.53767779197484
  0
ARC
  5
5DC
330
21
100
AcDbEntity
  8
0
100
AcDbCircle
 10
117.4988998523037
 20
180.4896507557744
 30
0.0
 40
0.2
100
AcDbArc
 50
144.4623222080252
 51
270.0
  0
LINE
  5
5DD
330
21
100
AcDbEntity
  8
0
100
AcDbLine
 10
117.4988998523037
 20
180.2896507557744
 30
0.0
 11
117.7216241227585
 21
180.2896507557744
 31
0.0
  0
LINE
  5
5DE
330
21
100
AcDbEntity
  8
0
100
AcDbLine
 10
117.6102619875311
 20
180.9896507557744
 30
0.0
 11
117.8843708169998
 21
180.6058983945182
 31
0.0
  0
LINE
  5
5DF
330
21
100
AcDbEntity
  8
0
100
AcDbLine
 10
117.6102619875311
 20
180.9896507557744
 30
0.0
 11
117.3361531580624
 21
180.6058983945183
 31
0.0
  0
LINE
  5
5E0
330
21
100
AcDbEntity
  8
0
100
AcDbLine
 10
117.6102619875311
 20
180.9896507557744
 30
0.0
 11
118.1102619875311
 21
181.6896507557744
 31
0.0
  0
LINE
  5
5E1
330
21
100
AcDbEntity
  8
0
100
AcDbLine
 10
117.6102619875311
 20
180.9896507557744
 30
0.0
 11
117.1102619875311
 21
181.6896507557744
 31
0.0
  0
ARC
  5
5E2
330
21
100
AcDbEntity
  8
0
100
AcDbCircle
 10
118.7216241227584
 20
180.4896507557744
 30
0.0
 40
0.2
100
AcDbArc
 50
270.0
 51
35.53767779197484
  0
ARC
  5
5E3
330
21
100
AcDbEntity
  8
0
100
AcDbCircle
 10
118.4988998523037
 20
180.4896507557744
 30
0.0
 40
0.2
100
AcDbArc
 50
144.4623222080252
 51
270.0
  0
LINE
  5
5E4
330
21
100
AcDbEntity
  8
0
100
AcDbLine
 10
118.4988998523037
 20
180.2896507557744
 30
0.0
 11
118.7216241227584
 21
180.2896507557744
 31
0.0
  0
LINE
  5
5E5
330
21
100
AcDbEntity
  8
0
100
AcDbLine
 10
118.6102619875311
 20
180.9896507557744
 30
0.0
 11
118.8843708169998
 21
180.6058983945182
 31
0.0
  0
LINE
  5
5E6
330
21
100
AcDbEntity
  8
0
100
AcDbLine
 10
118.6102619875311
 20
180.9896507557744
 30
0.0
 11
118.3361531580624
 21
180.6058983945183
 31
0.0
  0
LINE
  5
5E7
330
21
100
AcDbEntity
  8
0
100
AcDbLine
 10
118.6102619875311
 20
180.9896507557744
 30
0.0
 11
119.1102619875311
 21
181.6896507557744
 31
0.0
  0
LINE
  5
5E8
330
21
100
AcDbEntity
  8
0
100
AcDbLine
 10
118.6102619875311
 20
180.9896507557744
 30
0.0
 11
118.1102619875311
 21
181.6896507557744
 31
0.0
  0
ARC
  5
5E9
330
21
100
AcDbEntity
  8
0
100
AcDbCircle
 10
119.7216241227584
 20
180.4896507557744
 30
0.0
 40
0.2
100
AcDbArc
 50
270.0
 51
35.53767779197484
  0
ARC
  5
5EA
330
21
100
AcDbEntity
  8
0
100
AcDbCircle
 10
119.4988998523037
 20
180.4896507557744
 30
0.0
 40
0.2
100
AcDbArc
 50
144.4623222080252
 51
270.0
  0
LINE
  5
5EB
330
21
100
AcDbEntity
  8
0
100
AcDbLine
 10
119.4988998523037
 20
180.2896507557744
 30
0.0
 11
119.7216241227584
 21
180.2896507557744
 31
0.0
  0
LINE
  5
5EC
330
21
100
AcDbEntity
  8
0
100
AcDbLine
 10
119.6102619875311
 20
180.9896507557744
 30
0.0
 11
119.8843708169998
 21
180.6058983945182
 31
0.0
  0
LINE
  5
5ED
330
21
100
AcDbEntity
  8
0
100
AcDbLine
 10
119.6102619875311
 20
180.9896507557744
 30
0.0
 11
119.3361531580624
 21
180.6058983945183
 31
0.0
  0
LINE
  5
5EE
330
21
100
AcDbEntity
  8
0
100
AcDbLine
 10
119.6102619875311
 20
180.9896507557744
 30
0.0
 11
120.1102619875311
 21
181.6896507557744
 31
0.0
  0
LINE
  5
5EF
330
21
100
AcDbEntity
  8
0
100
AcDbLine
 10
119.6102619875311
 20
180.9896507557744
 30
0.0
 11
119.1102619875311
 21
181.6896507557744
 31
0.0
  0
ARC
  5
5F0
330
21
100
AcDbEntity
  8
0
100
AcDbCircle
 10
120.7216241227584
 20
180.4896507557744
 30
0.0
 40
0.2
100
AcDbArc
 50
270.0
 51
35.53767779197484
  0
ARC
  5
5F1
330
21
100
AcDbEntity
  8
0
100
AcDbCircle
 10
120.4988998523037
 20
180.4896507557744
 30
0.0
 40
0.2
100
AcDbArc
 50
144.4623222080252
 51
270.0
  0
LINE
  5
5F2
330
21
100
AcDbEntity
  8
0
100
AcDbLine
 10
120.4988998523037
 20
180.2896507557744
 30
0.0
 11
120.7216241227584
 21
180.2896507557744
 31
0.0
  0
LINE
  5
5F3
330
21
100
AcDbEntity
  8
0
100
AcDbLine
 10
120.6102619875311
 20
180.9896507557744
 30
0.0
 11
120.8843708169998
 21
180.6058983945182
 31
0.0
  0
LINE
  5
5F4
330
21
100
AcDbEntity
  8
0
100
AcDbLine
 10
120.6102619875311
 20
180.9896507557744
 30
0.0
 11
120.3361531580624
 21
180.6058983945183
 31
0.0
  0
LINE
  5
5F5
330
21
100
AcDbEntity
  8
0
100
AcDbLine
 10
120.6102619875311
 20
180.9896507557744
 30
0.0
 11
121.1102619875311
 21
181.6896507557744
 31
0.0
  0
LINE
  5
5F6
330
21
100
AcDbEntity
  8
0
100
AcDbLine
 10
120.6102619875311
 20
180.9896507557744
 30
0.0
 11
120.1102619875311
 21
181.6896507557744
 31
0.0
  0
ARC
  5
5F7
330
21
100
AcDbEntity
  8
0
100
AcDbCircle
 10
121.7216241227584
 20
180.4896507557744
 30
0.0
 40
0.2
100
AcDbArc
 50
270.0
 51
35.53767779197484
  0
ARC
  5
5F8
330
21
100
AcDbEntity
  8
0
100
AcDbCircle
 10
121.4988998523037
 20
180.4896507557744
 30
0.0
 40
0.2
100
AcDbArc
 50
144.4623222080252
 51
270.0
  0
LINE
  5
5F9
330
21
100
AcDbEntity
  8
0
100
AcDbLine
 10
121.4988998523037
 20
180.2896507557744
 30
0.0
 11
121.7216241227584
 21
180.2896507557744
 31
0.0
  0
LINE
  5
5FA
330
21
100
AcDbEntity
  8
0
100
AcDbLine
 10
121.6102619875311
 20
180.9896507557744
 30
0.0
 11
121.8843708169998
 21
180.6058983945182
 31
0.0
  0
LINE
  5
5FB
330
21
100
AcDbEntity
  8
0
100
AcDbLine
 10
121.6102619875311
 20
180.9896507557744
 30
0.0
 11
121.3361531580624
 21
180.6058983945183
 31
0.0
  0
LINE
  5
5FC
330
21
100
AcDbEntity
  8
0
100
AcDbLine
 10
121.6102619875311
 20
180.9896507557744
 30
0.0
 11
122.1102619875311
 21
181.6896507557744
 31
0.0
  0
LINE
  5
5FD
330
21
100
AcDbEntity
  8
0
100
AcDbLine
 10
121.6102619875311
 20
180.9896507557744
 30
0.0
 11
121.1102619875311
 21
181.6896507557744
 31
0.0
  0
ARC
  5
5FE
330
21
100
AcDbEntity
  8
0
100
AcDbCircle
 10
122.7216241227584
 20
180.4896507557744
 30
0.0
 40
0.2
100
AcDbArc
 50
270.0
 51
35.53767779197484
  0
ARC
  5
5FF
330
21
100
AcDbEntity
  8
0
100
AcDbCircle
 10
122.4988998523037
 20
180.4896507557744
 30
0.0
 40
0.2
100
AcDbArc
 50
144.4623222080252
 51
270.0
  0
LINE
  5
600
330
21
100
AcDbEntity
  8
0
100
AcDbLine
 10
122.4988998523037
 20
180.2896507557744
 30
0.0
 11
122.7216241227584
 21
180.2896507557744
 31
0.0
  0
LINE
  5
601
330
21
100
AcDbEntity
  8
0
100
AcDbLine
 10
122.6102619875311
 20
180.9896507557744
 30
0.0
 11
122.8843708169998
 21
180.6058983945182
 31
0.0
  0
LINE
  5
602
330
21
100
AcDbEntity
  8
0
100
AcDbLine
 10
122.6102619875311
 20
180.9896507557744
 30
0.0
 11
122.3361531580624
 21
180.6058983945183
 31
0.0
  0
LINE
  5
603
330
21
100
AcDbEntity
  8
0
100
AcDbLine
 10
122.6102619875311
 20
180.9896507557744
 30
0.0
 11
123.1102619875311
 21
181.6896507557744
 31
0.0
  0
LINE
  5
604
330
21
100
AcDbEntity
  8
0
100
AcDbLine
 10
122.6102619875311
 20
180.9896507557744
 30
0.0
 11
122.1102619875311
 21
181.6896507557744
 31
0.0
  0
ARC
  5
605
330
21
100
AcDbEntity
  8
0
100
AcDbCircle
 10
123.7216241227584
 20
180.4896507557744
 30
0.0
 40
0.2
100
AcDbArc
 50
270.0
 51
35.53767779197484
  0
ARC
  5
606
330
21
100
AcDbEntity
  8
0
100
AcDbCircle
 10
123.4988998523037
 20
180.4896507557744
 30
0.0
 40
0.2
100
AcDbArc
 50
144.4623222080252
 51
270.0
  0
LINE
  5
607
330
21
100
AcDbEntity
  8
0
100
AcDbLine
 10
123.4988998523037
 20
180.2896507557744
 30
0.0
 11
123.7216241227584
 21
180.2896507557744
 31
0.0
  0
LINE
  5
608
330
21
100
AcDbEntity
  8
0
100
AcDbLine
 10
123.6102619875311
 20
180.9896507557744
 30
0.0
 11
123.8843708169998
 21
180.6058983945182
 31
0.0
  0
LINE
  5
609
330
21
100
AcDbEntity
  8
0
100
AcDbLine
 10
123.6102619875311
 20
180.9896507557744
 30
0.0
 11
123.3361531580624
 21
180.6058983945183
 31
0.0
  0
LINE
  5
60A
330
21
100
AcDbEntity
  8
0
100
AcDbLine
 10
123.6102619875311
 20
180.9896507557744
 30
0.0
 11
124.1102619875311
 21
181.6896507557744
 31
0.0
  0
LINE
  5
60B
330
21
100
AcDbEntity
  8
0
100
AcDbLine
 10
123.6102619875311
 20
180.9896507557744
 30
0.0
 11
123.1102619875311
 21
181.6896507557744
 31
0.0
  0
ARC
  5
60C
330
21
100
AcDbEntity
  8
0
100
AcDbCircle
 10
124.7216241227584
 20
180.4896507557744
 30
0.0
 40
0.2
100
AcDbArc
 50
270.0
 51
35.53767779197484
  0
ARC
  5
60D
330
21
100
AcDbEntity
  8
0
100
AcDbCircle
 10
124.4988998523037
 20
180.4896507557744
 30
0.0
 40
0.2
100
AcDbArc
 50
144.4623222080252
 51
270.0
  0
LINE
  5
60E
330
21
100
AcDbEntity
  8
0
100
AcDbLine
 10
124.4988998523037
 20
180.2896507557744
 30
0.0
 11
124.7216241227584
 21
180.2896507557744
 31
0.0
  0
LINE
  5
60F
330
21
100
AcDbEntity
  8
0
100
AcDbLine
 10
124.6102619875311
 20
180.9896507557744
 30
0.0
 11
124.8843708169998
 21
180.6058983945182
 31
0.0
  0
LINE
  5
610
330
21
100
AcDbEntity
  8
0
100
AcDbLine
 10
124.6102619875311
 20
180.9896507557744
 30
0.0
 11
124.3361531580624
 21
180.6058983945183
 31
0.0
  0
LINE
  5
611
330
21
100
AcDbEntity
  8
0
100
AcDbLine
 10
124.6102619875311
 20
180.9896507557744
 30
0.0
 11
125.1102619875311
 21
181.6896507557744
 31
0.0
  0
LINE
  5
612
330
21
100
AcDbEntity
  8
0
100
AcDbLine
 10
124.6102619875311
 20
180.9896507557744
 30
0.0
 11
124.1102619875311
 21
181.6896507557744
 31
0.0
  0
ARC
  5
613
330
21
100
AcDbEntity
  8
0
100
AcDbCircle
 10
125.7216241227584
 20
180.4896507557744
 30
0.0
 40
0.2
100
AcDbArc
 50
270.0
 51
35.53767779197484
  0
ARC
  5
614
330
21
100
AcDbEntity
  8
0
100
AcDbCircle
 10
125.4988998523037
 20
180.4896507557744
 30
0.0
 40
0.2
100
AcDbArc
 50
144.4623222080252
 51
270.0
  0
LINE
  5
615
330
21
100
AcDbEntity
  8
0
100
AcDbLine
 10
125.4988998523037
 20
180.2896507557744
 30
0.0
 11
125.7216241227584
 21
180.2896507557744
 31
0.0
  0
LINE
  5
616
330
21
100
AcDbEntity
  8
0
100
AcDbLine
 10
125.6102619875311
 20
180.9896507557744
 30
0.0
 11
125.8843708169998
 21
180.6058983945182
 31
0.0
  0
LINE
  5
617
330
21
100
AcDbEntity
  8
0
100
AcDbLine
 10
125.6102619875311
 20
180.9896507557744
 30
0.0
 11
125.3361531580624
 21
180.6058983945183
 31
0.0
  0
LINE
  5
618
330
21
100
AcDbEntity
  8
0
100
AcDbLine
 10
125.6102619875311
 20
180.9896507557744
 30
0.0
 11
126.0803504299395
 21
181.6477745751463
 31
0.0
  0
LINE
  5
619
330
21
100
AcDbEntity
  8
0
100
AcDbLine
 10
125.6102619875311
 20
180.9896507557744
 30
0.0
 11
125.1102619875311
 21
181.6896507557744
 31
0.0
  0
ARC
  5
61A
330
21
100
AcDbEntity
  8
0
100
AcDbCircle
 10
81.72162412275847
 20
180.4896507557744
 30
0.0
 40
0.2
100
AcDbArc
 50
270.0
 51
35.53767779197484
  0
ARC
  5
61B
330
21
100
AcDbEntity
  8
0
100
AcDbCircle
 10
81.49889985230373
 20
180.4896507557744
 30
0.0
 40
0.2
100
AcDbArc
 50
144.4623222080252
 51
270.0
  0
LINE
  5
61C
330
21
100
AcDbEntity
  8
0
100
AcDbLine
 10
81.49889985230373
 20
180.2896507557744
 30
0.0
 11
81.72162412275847
 21
180.2896507557744
 31
0.0
  0
LINE
  5
61D
330
21
100
AcDbEntity
  8
0
100
AcDbLine
 10
81.61026198753109
 20
180.9896507557744
 30
0.0
 11
81.88437081699982
 21
180.6058983945182
 31
0.0
  0
LINE
  5
61E
330
21
100
AcDbEntity
  8
0
100
AcDbLine
 10
81.61026198753109
 20
180.9896507557744
 30
0.0
 11
81.33615315806238
 21
180.6058983945183
 31
0.0
  0
LINE
  5
61F
330
21
100
AcDbEntity
  8
0
100
AcDbLine
 10
81.61026198753109
 20
180.9896507557744
 30
0.0
 11
82.11026198753108
 21
181.6896507557744
 31
0.0
  0
LINE
  5
620
330
21
100
AcDbEntity
  8
0
100
AcDbLine
 10
81.61026198753109
 20
180.9896507557744
 30
0.0
 11
81.11026198753108
 21
181.6896507557744
 31
0.0
  0
ARC
  5
621
330
21
100
AcDbEntity
  8
0
100
AcDbCircle
 10
80.72162412275847
 20
180.4896507557744
 30
0.0
 40
0.2
100
AcDbArc
 50
270.0
 51
35.53767779197484
  0
ARC
  5
622
330
21
100
AcDbEntity
  8
0
100
AcDbCircle
 10
80.49889985230374
 20
180.4896507557744
 30
0.0
 40
0.2
100
AcDbArc
 50
144.4623222080252
 51
270.0
  0
LINE
  5
623
330
21
100
AcDbEntity
  8
0
100
AcDbLine
 10
80.49889985230374
 20
180.2896507557744
 30
0.0
 11
80.72162412275847
 21
180.2896507557744
 31
0.0
  0
LINE
  5
624
330
21
100
AcDbEntity
  8
0
100
AcDbLine
 10
80.61026198753109
 20
180.9896507557744
 30
0.0
 11
80.88437081699982
 21
180.6058983945182
 31
0.0
  0
LINE
  5
625
330
21
100
AcDbEntity
  8
0
100
AcDbLine
 10
80.61026198753109
 20
180.9896507557744
 30
0.0
 11
80.33615315806239
 21
180.6058983945183
 31
0.0
  0
LINE
  5
626
330
21
100
AcDbEntity
  8
0
100
AcDbLine
 10
80.61026198753109
 20
180.9896507557744
 30
0.0
 11
81.11026198753108
 21
181.6896507557744
 31
0.0
  0
LINE
  5
627
330
21
100
AcDbEntity
  8
0
100
AcDbLine
 10
80.61026198753109
 20
180.9896507557744
 30
0.0
 11
80.11026198753109
 21
181.6896507557744
 31
0.0
  0
ARC
  5
628
330
21
100
AcDbEntity
  8
0
100
AcDbCircle
 10
79.72162412275847
 20
180.4896507557744
 30
0.0
 40
0.2
100
AcDbArc
 50
270.0
 51
35.53767779197484
  0
ARC
  5
629
330
21
100
AcDbEntity
  8
0
100
AcDbCircle
 10
79.49889985230374
 20
180.4896507557744
 30
0.0
 40
0.2
100
AcDbArc
 50
144.4623222080252
 51
270.0
  0
LINE
  5
62A
330
21
100
AcDbEntity
  8
0
100
AcDbLine
 10
79.49889985230374
 20
180.2896507557744
 30
0.0
 11
79.72162412275847
 21
180.2896507557744
 31
0.0
  0
LINE
  5
62B
330
21
100
AcDbEntity
  8
0
100
AcDbLine
 10
79.61026198753109
 20
180.9896507557744
 30
0.0
 11
79.88437081699982
 21
180.6058983945182
 31
0.0
  0
LINE
  5
62C
330
21
100
AcDbEntity
  8
0
100
AcDbLine
 10
79.61026198753109
 20
180.9896507557744
 30
0.0
 11
79.33615315806239
 21
180.6058983945183
 31
0.0
  0
LINE
  5
62D
330
21
100
AcDbEntity
  8
0
100
AcDbLine
 10
79.61026198753109
 20
180.9896507557744
 30
0.0
 11
80.11026198753109
 21
181.6896507557744
 31
0.0
  0
LINE
  5
62E
330
21
100
AcDbEntity
  8
0
100
AcDbLine
 10
79.61026198753109
 20
180.9896507557744
 30
0.0
 11
79.11026198753109
 21
181.6896507557744
 31
0.0
  0
ARC
  5
62F
330
21
100
AcDbEntity
  8
0
100
AcDbCircle
 10
78.72162412275847
 20
180.4896507557744
 30
0.0
 40
0.2
100
AcDbArc
 50
270.0
 51
35.53767779197484
  0
ARC
  5
630
330
21
100
AcDbEntity
  8
0
100
AcDbCircle
 10
78.49889985230373
 20
180.4896507557744
 30
0.0
 40
0.2
100
AcDbArc
 50
144.4623222080252
 51
270.0
  0
LINE
  5
631
330
21
100
AcDbEntity
  8
0
100
AcDbLine
 10
78.49889985230373
 20
180.2896507557744
 30
0.0
 11
78.72162412275847
 21
180.2896507557744
 31
0.0
  0
LINE
  5
632
330
21
100
AcDbEntity
  8
0
100
AcDbLine
 10
78.61026198753108
 20
180.9896507557744
 30
0.0
 11
78.88437081699982
 21
180.6058983945182
 31
0.0
  0
LINE
  5
633
330
21
100
AcDbEntity
  8
0
100
AcDbLine
 10
78.61026198753108
 20
180.9896507557744
 30
0.0
 11
78.33615315806238
 21
180.6058983945183
 31
0.0
  0
LINE
  5
634
330
21
100
AcDbEntity
  8
0
100
AcDbLine
 10
78.61026198753108
 20
180.9896507557744
 30
0.0
 11
79.11026198753109
 21
181.6896507557744
 31
0.0
  0
LINE
  5
635
330
21
100
AcDbEntity
  8
0
100
AcDbLine
 10
78.61026198753108
 20
180.9896507557744
 30
0.0
 11
78.11026198753109
 21
181.6896507557744
 31
0.0
  0
ARC
  5
636
330
21
100
AcDbEntity
  8
0
100
AcDbCircle
 10
77.72162412275847
 20
180.4896507557744
 30
0.0
 40
0.2
100
AcDbArc
 50
270.0
 51
35.53767779197484
  0
ARC
  5
637
330
21
100
AcDbEntity
  8
0
100
AcDbCircle
 10
77.49889985230374
 20
180.4896507557744
 30
0.0
 40
0.2
100
AcDbArc
 50
144.4623222080252
 51
270.0
  0
LINE
  5
638
330
21
100
AcDbEntity
  8
0
100
AcDbLine
 10
77.49889985230374
 20
180.2896507557744
 30
0.0
 11
77.72162412275847
 21
180.2896507557744
 31
0.0
  0
LINE
  5
639
330
21
100
AcDbEntity
  8
0
100
AcDbLine
 10
77.61026198753109
 20
180.9896507557744
 30
0.0
 11
77.88437081699981
 21
180.6058983945182
 31
0.0
  0
LINE
  5
63A
330
21
100
AcDbEntity
  8
0
100
AcDbLine
 10
77.61026198753109
 20
180.9896507557744
 30
0.0
 11
77.33615315806239
 21
180.6058983945183
 31
0.0
  0
LINE
  5
63B
330
21
100
AcDbEntity
  8
0
100
AcDbLine
 10
77.61026198753109
 20
180.9896507557744
 30
0.0
 11
78.11026198753109
 21
181.6896507557744
 31
0.0
  0
LINE
  5
63C
330
21
100
AcDbEntity
  8
0
100
AcDbLine
 10
77.61026198753109
 20
180.9896507557744
 30
0.0
 11
77.11026198753109
 21
181.6896507557744
 31
0.0
  0
ARC
  5
63D
330
21
100
AcDbEntity
  8
0
100
AcDbCircle
 10
76.72162412275847
 20
180.4896507557744
 30
0.0
 40
0.2
100
AcDbArc
 50
270.0
 51
35.53767779197484
  0
ARC
  5
63E
330
21
100
AcDbEntity
  8
0
100
AcDbCircle
 10
76.49889985230373
 20
180.4896507557744
 30
0.0
 40
0.2
100
AcDbArc
 50
144.4623222080252
 51
270.0
  0
LINE
  5
63F
330
21
100
AcDbEntity
  8
0
100
AcDbLine
 10
76.49889985230373
 20
180.2896507557744
 30
0.0
 11
76.72162412275847
 21
180.2896507557744
 31
0.0
  0
LINE
  5
640
330
21
100
AcDbEntity
  8
0
100
AcDbLine
 10
76.61026198753109
 20
180.9896507557744
 30
0.0
 11
76.88437081699982
 21
180.6058983945182
 31
0.0
  0
LINE
  5
641
330
21
100
AcDbEntity
  8
0
100
AcDbLine
 10
76.61026198753109
 20
180.9896507557744
 30
0.0
 11
76.33615315806238
 21
180.6058983945183
 31
0.0
  0
LINE
  5
642
330
21
100
AcDbEntity
  8
0
100
AcDbLine
 10
76.61026198753109
 20
180.9896507557744
 30
0.0
 11
77.11026198753109
 21
181.6896507557744
 31
0.0
  0
LINE
  5
643
330
21
100
AcDbEntity
  8
0
100
AcDbLine
 10
76.61026198753109
 20
180.9896507557744
 30
0.0
 11
76.11026198753108
 21
181.6896507557744
 31
0.0
  0
ARC
  5
644
330
21
100
AcDbEntity
  8
0
100
AcDbCircle
 10
75.72162412275847
 20
180.4896507557744
 30
0.0
 40
0.2
100
AcDbArc
 50
270.0
 51
35.53767779197484
  0
ARC
  5
645
330
21
100
AcDbEntity
  8
0
100
AcDbCircle
 10
75.49889985230374
 20
180.4896507557744
 30
0.0
 40
0.2
100
AcDbArc
 50
144.4623222080252
 51
270.0
  0
LINE
  5
646
330
21
100
AcDbEntity
  8
0
100
AcDbLine
 10
75.49889985230374
 20
180.2896507557744
 30
0.0
 11
75.72162412275847
 21
180.2896507557744
 31
0.0
  0
LINE
  5
647
330
21
100
AcDbEntity
  8
0
100
AcDbLine
 10
75.61026198753109
 20
180.9896507557744
 30
0.0
 11
75.88437081699982
 21
180.6058983945182
 31
0.0
  0
LINE
  5
648
330
21
100
AcDbEntity
  8
0
100
AcDbLine
 10
75.61026198753109
 20
180.9896507557744
 30
0.0
 11
75.33615315806239
 21
180.6058983945183
 31
0.0
  0
LINE
  5
649
330
21
100
AcDbEntity
  8
0
100
AcDbLine
 10
75.61026198753109
 20
180.9896507557744
 30
0.0
 11
76.11026198753108
 21
181.6896507557744
 31
0.0
  0
LINE
  5
64A
330
21
100
AcDbEntity
  8
0
100
AcDbLine
 10
75.61026198753109
 20
180.9896507557744
 30
0.0
 11
75.11026198753109
 21
181.6896507557744
 31
0.0
  0
ARC
  5
64B
330
21
100
AcDbEntity
  8
0
100
AcDbCircle
 10
74.72162412275847
 20
180.4896507557744
 30
0.0
 40
0.2
100
AcDbArc
 50
270.0
 51
35.53767779197484
  0
ARC
  5
64C
330
21
100
AcDbEntity
  8
0
100
AcDbCircle
 10
74.49889985230374
 20
180.4896507557744
 30
0.0
 40
0.2
100
AcDbArc
 50
144.4623222080252
 51
270.0
  0
LINE
  5
64D
330
21
100
AcDbEntity
  8
0
100
AcDbLine
 10
74.49889985230374
 20
180.2896507557744
 30
0.0
 11
74.72162412275847
 21
180.2896507557744
 31
0.0
  0
LINE
  5
64E
330
21
100
AcDbEntity
  8
0
100
AcDbLine
 10
74.61026198753109
 20
180.9896507557744
 30
0.0
 11
74.88437081699982
 21
180.6058983945182
 31
0.0
  0
LINE
  5
64F
330
21
100
AcDbEntity
  8
0
100
AcDbLine
 10
74.61026198753109
 20
180.9896507557744
 30
0.0
 11
74.33615315806239
 21
180.6058983945183
 31
0.0
  0
LINE
  5
650
330
21
100
AcDbEntity
  8
0
100
AcDbLine
 10
74.61026198753109
 20
180.9896507557744
 30
0.0
 11
75.11026198753109
 21
181.6896507557744
 31
0.0
  0
LINE
  5
651
330
21
100
AcDbEntity
  8
0
100
AcDbLine
 10
74.61026198753109
 20
180.9896507557744
 30
0.0
 11
74.11026198753109
 21
181.6896507557744
 31
0.0
  0
ARC
  5
652
330
21
100
AcDbEntity
  8
0
100
AcDbCircle
 10
73.72162412275847
 20
180.4896507557744
 30
0.0
 40
0.2
100
AcDbArc
 50
270.0
 51
35.53767779197484
  0
ARC
  5
653
330
21
100
AcDbEntity
  8
0
100
AcDbCircle
 10
73.49889985230373
 20
180.4896507557744
 30
0.0
 40
0.2
100
AcDbArc
 50
144.4623222080252
 51
270.0
  0
LINE
  5
654
330
21
100
AcDbEntity
  8
0
100
AcDbLine
 10
73.49889985230373
 20
180.2896507557744
 30
0.0
 11
73.72162412275847
 21
180.2896507557744
 31
0.0
  0
LINE
  5
655
330
21
100
AcDbEntity
  8
0
100
AcDbLine
 10
73.61026198753108
 20
180.9896507557744
 30
0.0
 11
73.88437081699982
 21
180.6058983945182
 31
0.0
  0
LINE
  5
656
330
21
100
AcDbEntity
  8
0
100
AcDbLine
 10
73.61026198753108
 20
180.9896507557744
 30
0.0
 11
73.33615315806238
 21
180.6058983945183
 31
0.0
  0
LINE
  5
657
330
21
100
AcDbEntity
  8
0
100
AcDbLine
 10
73.61026198753108
 20
180.9896507557744
 30
0.0
 11
74.11026198753109
 21
181.6896507557744
 31
0.0
  0
LINE
  5
658
330
21
100
AcDbEntity
  8
0
100
AcDbLine
 10
73.61026198753108
 20
180.9896507557744
 30
0.0
 11
73.11026198753109
 21
181.6896507557744
 31
0.0
  0
ARC
  5
659
330
21
100
AcDbEntity
  8
0
100
AcDbCircle
 10
72.72162412275847
 20
180.4896507557744
 30
0.0
 40
0.2
100
AcDbArc
 50
270.0
 51
35.53767779197484
  0
ARC
  5
65A
330
21
100
AcDbEntity
  8
0
100
AcDbCircle
 10
72.49889985230374
 20
180.4896507557744
 30
0.0
 40
0.2
100
AcDbArc
 50
144.4623222080252
 51
270.0
  0
LINE
  5
65B
330
21
100
AcDbEntity
  8
0
100
AcDbLine
 10
72.49889985230374
 20
180.2896507557744
 30
0.0
 11
72.72162412275847
 21
180.2896507557744
 31
0.0
  0
LINE
  5
65C
330
21
100
AcDbEntity
  8
0
100
AcDbLine
 10
72.61026198753109
 20
180.9896507557744
 30
0.0
 11
72.88437081699981
 21
180.6058983945182
 31
0.0
  0
LINE
  5
65D
330
21
100
AcDbEntity
  8
0
100
AcDbLine
 10
72.61026198753109
 20
180.9896507557744
 30
0.0
 11
72.33615315806239
 21
180.6058983945183
 31
0.0
  0
LINE
  5
65E
330
21
100
AcDbEntity
  8
0
100
AcDbLine
 10
72.61026198753109
 20
180.9896507557744
 30
0.0
 11
73.11026198753109
 21
181.6896507557744
 31
0.0
  0
LINE
  5
65F
330
21
100
AcDbEntity
  8
0
100
AcDbLine
 10
72.61026198753109
 20
180.9896507557744
 30
0.0
 11
72.11026198753109
 21
181.6896507557744
 31
0.0
  0
ARC
  5
660
330
21
100
AcDbEntity
  8
0
100
AcDbCircle
 10
71.72162412275847
 20
180.4896507557744
 30
0.0
 40
0.2
100
AcDbArc
 50
270.0
 51
35.53767779197484
  0
ARC
  5
661
330
21
100
AcDbEntity
  8
0
100
AcDbCircle
 10
71.49889985230373
 20
180.4896507557744
 30
0.0
 40
0.2
100
AcDbArc
 50
144.4623222080252
 51
270.0
  0
LINE
  5
662
330
21
100
AcDbEntity
  8
0
100
AcDbLine
 10
71.49889985230373
 20
180.2896507557744
 30
0.0
 11
71.72162412275847
 21
180.2896507557744
 31
0.0
  0
LINE
  5
663
330
21
100
AcDbEntity
  8
0
100
AcDbLine
 10
71.61026198753109
 20
180.9896507557744
 30
0.0
 11
71.88437081699982
 21
180.6058983945182
 31
0.0
  0
LINE
  5
664
330
21
100
AcDbEntity
  8
0
100
AcDbLine
 10
71.61026198753109
 20
180.9896507557744
 30
0.0
 11
71.33615315806238
 21
180.6058983945183
 31
0.0
  0
LINE
  5
665
330
21
100
AcDbEntity
  8
0
100
AcDbLine
 10
71.61026198753109
 20
180.9896507557744
 30
0.0
 11
72.11026198753109
 21
181.6896507557744
 31
0.0
  0
LINE
  5
666
330
21
100
AcDbEntity
  8
0
100
AcDbLine
 10
71.61026198753109
 20
180.9896507557744
 30
0.0
 11
71.11026198753108
 21
181.6896507557744
 31
0.0
  0
ARC
  5
667
330
21
100
AcDbEntity
  8
0
100
AcDbCircle
 10
70.72162412275847
 20
180.4896507557744
 30
0.0
 40
0.2
100
AcDbArc
 50
270.0
 51
35.53767779197484
  0
ARC
  5
668
330
21
100
AcDbEntity
  8
0
100
AcDbCircle
 10
70.49889985230374
 20
180.4896507557744
 30
0.0
 40
0.2
100
AcDbArc
 50
144.4623222080252
 51
270.0
  0
LINE
  5
669
330
21
100
AcDbEntity
  8
0
100
AcDbLine
 10
70.49889985230374
 20
180.2896507557744
 30
0.0
 11
70.72162412275847
 21
180.2896507557744
 31
0.0
  0
LINE
  5
66A
330
21
100
AcDbEntity
  8
0
100
AcDbLine
 10
70.61026198753109
 20
180.9896507557744
 30
0.0
 11
70.88437081699982
 21
180.6058983945182
 31
0.0
  0
LINE
  5
66B
330
21
100
AcDbEntity
  8
0
100
AcDbLine
 10
70.61026198753109
 20
180.9896507557744
 30
0.0
 11
70.33615315806239
 21
180.6058983945183
 31
0.0
  0
LINE
  5
66C
330
21
100
AcDbEntity
  8
0
100
AcDbLine
 10
70.61026198753109
 20
180.9896507557744
 30
0.0
 11
71.11026198753108
 21
181.6896507557744
 31
0.0
  0
LINE
  5
66D
330
21
100
AcDbEntity
  8
0
100
AcDbLine
 10
70.61026198753109
 20
180.9896507557744
 30
0.0
 11
70.11026198753109
 21
181.6896507557744
 31
0.0
  0
ARC
  5
66E
330
21
100
AcDbEntity
  8
0
100
AcDbCircle
 10
69.72162412275847
 20
180.4896507557744
 30
0.0
 40
0.2
100
AcDbArc
 50
270.0
 51
35.53767779197484
  0
ARC
  5
66F
330
21
100
AcDbEntity
  8
0
100
AcDbCircle
 10
69.49889985230374
 20
180.4896507557744
 30
0.0
 40
0.2
100
AcDbArc
 50
144.4623222080252
 51
270.0
  0
LINE
  5
670
330
21
100
AcDbEntity
  8
0
100
AcDbLine
 10
69.49889985230374
 20
180.2896507557744
 30
0.0
 11
69.72162412275847
 21
180.2896507557744
 31
0.0
  0
LINE
  5
671
330
21
100
AcDbEntity
  8
0
100
AcDbLine
 10
69.61026198753109
 20
180.9896507557744
 30
0.0
 11
69.88437081699982
 21
180.6058983945182
 31
0.0
  0
LINE
  5
672
330
21
100
AcDbEntity
  8
0
100
AcDbLine
 10
69.61026198753109
 20
180.9896507557744
 30
0.0
 11
69.33615315806239
 21
180.6058983945183
 31
0.0
  0
LINE
  5
673
330
21
100
AcDbEntity
  8
0
100
AcDbLine
 10
69.61026198753109
 20
180.9896507557744
 30
0.0
 11
70.11026198753109
 21
181.6896507557744
 31
0.0
  0
LINE
  5
674
330
21
100
AcDbEntity
  8
0
100
AcDbLine
 10
69.61026198753109
 20
180.9896507557744
 30
0.0
 11
69.11026198753109
 21
181.6896507557744
 31
0.0
  0
ARC
  5
675
330
21
100
AcDbEntity
  8
0
100
AcDbCircle
 10
68.72162412275847
 20
180.4896507557744
 30
0.0
 40
0.2
100
AcDbArc
 50
270.0
 51
35.53767779197484
  0
ARC
  5
676
330
21
100
AcDbEntity
  8
0
100
AcDbCircle
 10
68.49889985230373
 20
180.4896507557744
 30
0.0
 40
0.2
100
AcDbArc
 50
144.4623222080252
 51
270.0
  0
LINE
  5
677
330
21
100
AcDbEntity
  8
0
100
AcDbLine
 10
68.49889985230373
 20
180.2896507557744
 30
0.0
 11
68.72162412275847
 21
180.2896507557744
 31
0.0
  0
LINE
  5
678
330
21
100
AcDbEntity
  8
0
100
AcDbLine
 10
68.61026198753108
 20
180.9896507557744
 30
0.0
 11
68.88437081699982
 21
180.6058983945182
 31
0.0
  0
LINE
  5
679
330
21
100
AcDbEntity
  8
0
100
AcDbLine
 10
68.61026198753108
 20
180.9896507557744
 30
0.0
 11
68.33615315806238
 21
180.6058983945183
 31
0.0
  0
LINE
  5
67A
330
21
100
AcDbEntity
  8
0
100
AcDbLine
 10
68.61026198753108
 20
180.9896507557744
 30
0.0
 11
69.11026198753109
 21
181.6896507557744
 31
0.0
  0
LINE
  5
67B
330
21
100
AcDbEntity
  8
0
100
AcDbLine
 10
68.61026198753108
 20
180.9896507557744
 30
0.0
 11
68.11026198753109
 21
181.6896507557744
 31
0.0
  0
ARC
  5
67C
330
21
100
AcDbEntity
  8
0
100
AcDbCircle
 10
67.72162412275847
 20
180.4896507557744
 30
0.0
 40
0.2
100
AcDbArc
 50
270.0
 51
35.53767779197484
  0
ARC
  5
67D
330
21
100
AcDbEntity
  8
0
100
AcDbCircle
 10
67.49889985230374
 20
180.4896507557744
 30
0.0
 40
0.2
100
AcDbArc
 50
144.4623222080252
 51
270.0
  0
LINE
  5
67E
330
21
100
AcDbEntity
  8
0
100
AcDbLine
 10
67.49889985230374
 20
180.2896507557744
 30
0.0
 11
67.72162412275847
 21
180.2896507557744
 31
0.0
  0
LINE
  5
67F
330
21
100
AcDbEntity
  8
0
100
AcDbLine
 10
67.61026198753109
 20
180.9896507557744
 30
0.0
 11
67.88437081699981
 21
180.6058983945182
 31
0.0
  0
LINE
  5
680
330
21
100
AcDbEntity
  8
0
100
AcDbLine
 10
67.61026198753109
 20
180.9896507557744
 30
0.0
 11
67.33615315806239
 21
180.6058983945183
 31
0.0
  0
LINE
  5
681
330
21
100
AcDbEntity
  8
0
100
AcDbLine
 10
67.61026198753109
 20
180.9896507557744
 30
0.0
 11
68.11026198753109
 21
181.6896507557744
 31
0.0
  0
LINE
  5
682
330
21
100
AcDbEntity
  8
0
100
AcDbLine
 10
67.61026198753109
 20
180.9896507557744
 30
0.0
 11
67.11026198753109
 21
181.6896507557744
 31
0.0
  0
ARC
  5
683
330
21
100
AcDbEntity
  8
0
100
AcDbCircle
 10
66.72162412275847
 20
180.4896507557744
 30
0.0
 40
0.2
100
AcDbArc
 50
270.0
 51
35.53767779197484
  0
ARC
  5
684
330
21
100
AcDbEntity
  8
0
100
AcDbCircle
 10
66.49889985230373
 20
180.4896507557744
 30
0.0
 40
0.2
100
AcDbArc
 50
144.4623222080252
 51
270.0
  0
LINE
  5
685
330
21
100
AcDbEntity
  8
0
100
AcDbLine
 10
66.49889985230373
 20
180.2896507557744
 30
0.0
 11
66.72162412275847
 21
180.2896507557744
 31
0.0
  0
LINE
  5
686
330
21
100
AcDbEntity
  8
0
100
AcDbLine
 10
66.61026198753109
 20
180.9896507557744
 30
0.0
 11
66.88437081699982
 21
180.6058983945182
 31
0.0
  0
LINE
  5
687
330
21
100
AcDbEntity
  8
0
100
AcDbLine
 10
66.61026198753109
 20
180.9896507557744
 30
0.0
 11
66.33615315806238
 21
180.6058983945183
 31
0.0
  0
LINE
  5
688
330
21
100
AcDbEntity
  8
0
100
AcDbLine
 10
66.61026198753109
 20
180.9896507557744
 30
0.0
 11
67.11026198753109
 21
181.6896507557744
 31
0.0
  0
LINE
  5
689
330
21
100
AcDbEntity
  8
0
100
AcDbLine
 10
66.61026198753109
 20
180.9896507557744
 30
0.0
 11
66.11026198753108
 21
181.6896507557744
 31
0.0
  0
ARC
  5
68A
330
21
100
AcDbEntity
  8
0
100
AcDbCircle
 10
65.72162412275847
 20
180.4896507557744
 30
0.0
 40
0.2
100
AcDbArc
 50
270.0
 51
35.53767779197484
  0
ARC
  5
68B
330
21
100
AcDbEntity
  8
0
100
AcDbCircle
 10
65.49889985230374
 20
180.4896507557744
 30
0.0
 40
0.2
100
AcDbArc
 50
144.4623222080252
 51
270.0
  0
LINE
  5
68C
330
21
100
AcDbEntity
  8
0
100
AcDbLine
 10
65.49889985230374
 20
180.2896507557744
 30
0.0
 11
65.72162412275847
 21
180.2896507557744
 31
0.0
  0
LINE
  5
68D
330
21
100
AcDbEntity
  8
0
100
AcDbLine
 10
65.61026198753109
 20
180.9896507557744
 30
0.0
 11
65.88437081699982
 21
180.6058983945182
 31
0.0
  0
LINE
  5
68E
330
21
100
AcDbEntity
  8
0
100
AcDbLine
 10
65.61026198753109
 20
180.9896507557744
 30
0.0
 11
65.33615315806239
 21
180.6058983945183
 31
0.0
  0
LINE
  5
68F
330
21
100
AcDbEntity
  8
0
100
AcDbLine
 10
65.61026198753109
 20
180.9896507557744
 30
0.0
 11
66.11026198753108
 21
181.6896507557744
 31
0.0
  0
LINE
  5
690
330
21
100
AcDbEntity
  8
0
100
AcDbLine
 10
65.61026198753109
 20
180.9896507557744
 30
0.0
 11
65.11026198753109
 21
181.6896507557744
 31
0.0
  0
ARC
  5
691
330
21
100
AcDbEntity
  8
0
100
AcDbCircle
 10
64.72162412275847
 20
180.4896507557744
 30
0.0
 40
0.2
100
AcDbArc
 50
270.0
 51
35.53767779197484
  0
ARC
  5
692
330
21
100
AcDbEntity
  8
0
100
AcDbCircle
 10
64.49889985230374
 20
180.4896507557744
 30
0.0
 40
0.2
100
AcDbArc
 50
144.4623222080252
 51
270.0
  0
LINE
  5
693
330
21
100
AcDbEntity
  8
0
100
AcDbLine
 10
64.49889985230374
 20
180.2896507557744
 30
0.0
 11
64.72162412275847
 21
180.2896507557744
 31
0.0
  0
LINE
  5
694
330
21
100
AcDbEntity
  8
0
100
AcDbLine
 10
64.61026198753109
 20
180.9896507557744
 30
0.0
 11
64.88437081699982
 21
180.6058983945182
 31
0.0
  0
LINE
  5
695
330
21
100
AcDbEntity
  8
0
100
AcDbLine
 10
64.61026198753109
 20
180.9896507557744
 30
0.0
 11
64.33615315806239
 21
180.6058983945183
 31
0.0
  0
LINE
  5
696
330
21
100
AcDbEntity
  8
0
100
AcDbLine
 10
64.61026198753109
 20
180.9896507557744
 30
0.0
 11
65.11026198753109
 21
181.6896507557744
 31
0.0
  0
LINE
  5
697
330
21
100
AcDbEntity
  8
0
100
AcDbLine
 10
64.61026198753109
 20
180.9896507557744
 30
0.0
 11
64.11026198753109
 21
181.6896507557744
 31
0.0
  0
ARC
  5
698
330
21
100
AcDbEntity
  8
0
100
AcDbCircle
 10
63.72162412275847
 20
180.4896507557744
 30
0.0
 40
0.2
100
AcDbArc
 50
270.0
 51
35.53767779197484
  0
ARC
  5
699
330
21
100
AcDbEntity
  8
0
100
AcDbCircle
 10
63.49889985230373
 20
180.4896507557744
 30
0.0
 40
0.2
100
AcDbArc
 50
144.4623222080252
 51
270.0
  0
LINE
  5
69A
330
21
100
AcDbEntity
  8
0
100
AcDbLine
 10
63.49889985230373
 20
180.2896507557744
 30
0.0
 11
63.72162412275847
 21
180.2896507557744
 31
0.0
  0
LINE
  5
69B
330
21
100
AcDbEntity
  8
0
100
AcDbLine
 10
63.61026198753108
 20
180.9896507557744
 30
0.0
 11
63.88437081699982
 21
180.6058983945182
 31
0.0
  0
LINE
  5
69C
330
21
100
AcDbEntity
  8
0
100
AcDbLine
 10
63.61026198753108
 20
180.9896507557744
 30
0.0
 11
63.33615315806238
 21
180.6058983945183
 31
0.0
  0
LINE
  5
69D
330
21
100
AcDbEntity
  8
0
100
AcDbLine
 10
63.61026198753108
 20
180.9896507557744
 30
0.0
 11
64.11026198753109
 21
181.6896507557744
 31
0.0
  0
LINE
  5
69E
330
21
100
AcDbEntity
  8
0
100
AcDbLine
 10
63.61026198753108
 20
180.9896507557744
 30
0.0
 11
63.11026198753109
 21
181.6896507557744
 31
0.0
  0
ARC
  5
69F
330
21
100
AcDbEntity
  8
0
100
AcDbCircle
 10
62.72162412275847
 20
180.4896507557744
 30
0.0
 40
0.2
100
AcDbArc
 50
270.0
 51
35.53767779197484
  0
ARC
  5
6A0
330
21
100
AcDbEntity
  8
0
100
AcDbCircle
 10
62.49889985230374
 20
180.4896507557744
 30
0.0
 40
0.2
100
AcDbArc
 50
144.4623222080252
 51
270.0
  0
LINE
  5
6A1
330
21
100
AcDbEntity
  8
0
100
AcDbLine
 10
62.49889985230374
 20
180.2896507557744
 30
0.0
 11
62.72162412275847
 21
180.2896507557744
 31
0.0
  0
LINE
  5
6A2
330
21
100
AcDbEntity
  8
0
100
AcDbLine
 10
62.61026198753109
 20
180.9896507557744
 30
0.0
 11
62.88437081699981
 21
180.6058983945182
 31
0.0
  0
LINE
  5
6A3
330
21
100
AcDbEntity
  8
0
100
AcDbLine
 10
62.61026198753109
 20
180.9896507557744
 30
0.0
 11
62.33615315806239
 21
180.6058983945183
 31
0.0
  0
LINE
  5
6A4
330
21
100
AcDbEntity
  8
0
100
AcDbLine
 10
62.61026198753109
 20
180.9896507557744
 30
0.0
 11
63.11026198753109
 21
181.6896507557744
 31
0.0
  0
LINE
  5
6A5
330
21
100
AcDbEntity
  8
0
100
AcDbLine
 10
62.61026198753109
 20
180.9896507557744
 30
0.0
 11
62.11026198753109
 21
181.6896507557744
 31
0.0
  0
ARC
  5
6A6
330
21
100
AcDbEntity
  8
0
100
AcDbCircle
 10
61.72162412275847
 20
180.4896507557744
 30
0.0
 40
0.2
100
AcDbArc
 50
270.0
 51
35.53767779197484
  0
ARC
  5
6A7
330
21
100
AcDbEntity
  8
0
100
AcDbCircle
 10
61.49889985230373
 20
180.4896507557744
 30
0.0
 40
0.2
100
AcDbArc
 50
144.4623222080252
 51
270.0
  0
LINE
  5
6A8
330
21
100
AcDbEntity
  8
0
100
AcDbLine
 10
61.49889985230373
 20
180.2896507557744
 30
0.0
 11
61.72162412275847
 21
180.2896507557744
 31
0.0
  0
LINE
  5
6A9
330
21
100
AcDbEntity
  8
0
100
AcDbLine
 10
61.61026198753109
 20
180.9896507557744
 30
0.0
 11
61.88437081699982
 21
180.6058983945182
 31
0.0
  0
LINE
  5
6AA
330
21
100
AcDbEntity
  8
0
100
AcDbLine
 10
61.61026198753109
 20
180.9896507557744
 30
0.0
 11
61.33615315806238
 21
180.6058983945183
 31
0.0
  0
LINE
  5
6AB
330
21
100
AcDbEntity
  8
0
100
AcDbLine
 10
61.61026198753109
 20
180.9896507557744
 30
0.0
 11
62.11026198753109
 21
181.6896507557744
 31
0.0
  0
LINE
  5
6AC
330
21
100
AcDbEntity
  8
0
100
AcDbLine
 10
61.61026198753109
 20
180.9896507557744
 30
0.0
 11
61.11026198753108
 21
181.6896507557744
 31
0.0
  0
ARC
  5
6AD
330
21
100
AcDbEntity
  8
0
100
AcDbCircle
 10
60.72162412275847
 20
180.4896507557744
 30
0.0
 40
0.2
100
AcDbArc
 50
270.0
 51
35.53767779197484
  0
ARC
  5
6AE
330
21
100
AcDbEntity
  8
0
100
AcDbCircle
 10
60.49889985230374
 20
180.4896507557744
 30
0.0
 40
0.2
100
AcDbArc
 50
144.4623222080252
 51
270.0
  0
LINE
  5
6AF
330
21
100
AcDbEntity
  8
0
100
AcDbLine
 10
60.49889985230374
 20
180.2896507557744
 30
0.0
 11
60.72162412275847
 21
180.2896507557744
 31
0.0
  0
LINE
  5
6B0
330
21
100
AcDbEntity
  8
0
100
AcDbLine
 10
60.61026198753109
 20
180.9896507557744
 30
0.0
 11
60.88437081699982
 21
180.6058983945182
 31
0.0
  0
LINE
  5
6B1
330
21
100
AcDbEntity
  8
0
100
AcDbLine
 10
60.61026198753109
 20
180.9896507557744
 30
0.0
 11
60.33615315806239
 21
180.6058983945183
 31
0.0
  0
LINE
  5
6B2
330
21
100
AcDbEntity
  8
0
100
AcDbLine
 10
60.61026198753109
 20
180.9896507557744
 30
0.0
 11
61.11026198753108
 21
181.6896507557744
 31
0.0
  0
LINE
  5
6B3
330
21
100
AcDbEntity
  8
0
100
AcDbLine
 10
60.61026198753109
 20
180.9896507557744
 30
0.0
 11
60.11026198753109
 21
181.6896507557744
 31
0.0
  0
ARC
  5
6B4
330
21
100
AcDbEntity
  8
0
100
AcDbCircle
 10
59.72162412275847
 20
180.4896507557744
 30
0.0
 40
0.2
100
AcDbArc
 50
270.0
 51
35.53767779197484
  0
ARC
  5
6B5
330
21
100
AcDbEntity
  8
0
100
AcDbCircle
 10
59.49889985230374
 20
180.4896507557744
 30
0.0
 40
0.2
100
AcDbArc
 50
144.4623222080252
 51
270.0
  0
LINE
  5
6B6
330
21
100
AcDbEntity
  8
0
100
AcDbLine
 10
59.49889985230374
 20
180.2896507557744
 30
0.0
 11
59.72162412275847
 21
180.2896507557744
 31
0.0
  0
LINE
  5
6B7
330
21
100
AcDbEntity
  8
0
100
AcDbLine
 10
59.61026198753109
 20
180.9896507557744
 30
0.0
 11
59.88437081699982
 21
180.6058983945182
 31
0.0
  0
LINE
  5
6B8
330
21
100
AcDbEntity
  8
0
100
AcDbLine
 10
59.61026198753109
 20
180.9896507557744
 30
0.0
 11
59.33615315806239
 21
180.6058983945183
 31
0.0
  0
LINE
  5
6B9
330
21
100
AcDbEntity
  8
0
100
AcDbLine
 10
59.61026198753109
 20
180.9896507557744
 30
0.0
 11
60.11026198753109
 21
181.6896507557744
 31
0.0
  0
LINE
  5
6BA
330
21
100
AcDbEntity
  8
0
100
AcDbLine
 10
59.61026198753109
 20
180.9896507557744
 30
0.0
 11
59.11026198753109
 21
181.6896507557744
 31
0.0
  0
ARC
  5
6BB
330
21
100
AcDbEntity
  8
0
100
AcDbCircle
 10
58.72162412275847
 20
180.4896507557744
 30
0.0
 40
0.2
100
AcDbArc
 50
270.0
 51
35.53767779197484
  0
ARC
  5
6BC
330
21
100
AcDbEntity
  8
0
100
AcDbCircle
 10
58.49889985230373
 20
180.4896507557744
 30
0.0
 40
0.2
100
AcDbArc
 50
144.4623222080252
 51
270.0
  0
LINE
  5
6BD
330
21
100
AcDbEntity
  8
0
100
AcDbLine
 10
58.49889985230373
 20
180.2896507557744
 30
0.0
 11
58.72162412275847
 21
180.2896507557744
 31
0.0
  0
LINE
  5
6BE
330
21
100
AcDbEntity
  8
0
100
AcDbLine
 10
58.61026198753108
 20
180.9896507557744
 30
0.0
 11
58.88437081699982
 21
180.6058983945182
 31
0.0
  0
LINE
  5
6BF
330
21
100
AcDbEntity
  8
0
100
AcDbLine
 10
58.61026198753108
 20
180.9896507557744
 30
0.0
 11
58.33615315806238
 21
180.6058983945183
 31
0.0
  0
LINE
  5
6C0
330
21
100
AcDbEntity
  8
0
100
AcDbLine
 10
58.61026198753108
 20
180.9896507557744
 30
0.0
 11
59.11026198753109
 21
181.6896507557744
 31
0.0
  0
LINE
  5
6C1
330
21
100
AcDbEntity
  8
0
100
AcDbLine
 10
58.61026198753108
 20
180.9896507557744
 30
0.0
 11
58.11026198753109
 21
181.6896507557744
 31
0.0
  0
ARC
  5
6C2
330
21
100
AcDbEntity
  8
0
100
AcDbCircle
 10
57.72162412275847
 20
180.4896507557744
 30
0.0
 40
0.2
100
AcDbArc
 50
270.0
 51
35.53767779197484
  0
ARC
  5
6C3
330
21
100
AcDbEntity
  8
0
100
AcDbCircle
 10
57.49889985230374
 20
180.4896507557744
 30
0.0
 40
0.2
100
AcDbArc
 50
144.4623222080252
 51
270.0
  0
LINE
  5
6C4
330
21
100
AcDbEntity
  8
0
100
AcDbLine
 10
57.49889985230374
 20
180.2896507557744
 30
0.0
 11
57.72162412275847
 21
180.2896507557744
 31
0.0
  0
LINE
  5
6C5
330
21
100
AcDbEntity
  8
0
100
AcDbLine
 10
57.61026198753109
 20
180.9896507557744
 30
0.0
 11
57.88437081699981
 21
180.6058983945182
 31
0.0
  0
LINE
  5
6C6
330
21
100
AcDbEntity
  8
0
100
AcDbLine
 10
57.61026198753109
 20
180.9896507557744
 30
0.0
 11
57.33615315806239
 21
180.6058983945183
 31
0.0
  0
LINE
  5
6C7
330
21
100
AcDbEntity
  8
0
100
AcDbLine
 10
57.61026198753109
 20
180.9896507557744
 30
0.0
 11
58.11026198753109
 21
181.6896507557744
 31
0.0
  0
LINE
  5
6C8
330
21
100
AcDbEntity
  8
0
100
AcDbLine
 10
57.61026198753109
 20
180.9896507557744
 30
0.0
 11
57.11026198753109
 21
181.6896507557744
 31
0.0
  0
ARC
  5
6C9
330
21
100
AcDbEntity
  8
0
100
AcDbCircle
 10
56.72162412275847
 20
180.4896507557744
 30
0.0
 40
0.2
100
AcDbArc
 50
270.0
 51
35.53767779197484
  0
ARC
  5
6CA
330
21
100
AcDbEntity
  8
0
100
AcDbCircle
 10
56.49889985230373
 20
180.4896507557744
 30
0.0
 40
0.2
100
AcDbArc
 50
144.4623222080252
 51
270.0
  0
LINE
  5
6CB
330
21
100
AcDbEntity
  8
0
100
AcDbLine
 10
56.49889985230373
 20
180.2896507557744
 30
0.0
 11
56.72162412275847
 21
180.2896507557744
 31
0.0
  0
LINE
  5
6CC
330
21
100
AcDbEntity
  8
0
100
AcDbLine
 10
56.61026198753109
 20
180.9896507557744
 30
0.0
 11
56.88437081699982
 21
180.6058983945182
 31
0.0
  0
LINE
  5
6CD
330
21
100
AcDbEntity
  8
0
100
AcDbLine
 10
56.61026198753109
 20
180.9896507557744
 30
0.0
 11
56.33615315806238
 21
180.6058983945183
 31
0.0
  0
LINE
  5
6CE
330
21
100
AcDbEntity
  8
0
100
AcDbLine
 10
56.61026198753109
 20
180.9896507557744
 30
0.0
 11
57.11026198753109
 21
181.6896507557744
 31
0.0
  0
LINE
  5
6CF
330
21
100
AcDbEntity
  8
0
100
AcDbLine
 10
56.61026198753109
 20
180.9896507557744
 30
0.0
 11
56.11026198753108
 21
181.6896507557744
 31
0.0
  0
ARC
  5
6D0
330
21
100
AcDbEntity
  8
0
100
AcDbCircle
 10
55.72162412275847
 20
180.4896507557744
 30
0.0
 40
0.2
100
AcDbArc
 50
270.0
 51
35.53767779197484
  0
ARC
  5
6D1
330
21
100
AcDbEntity
  8
0
100
AcDbCircle
 10
55.49889985230374
 20
180.4896507557744
 30
0.0
 40
0.2
100
AcDbArc
 50
144.4623222080252
 51
270.0
  0
LINE
  5
6D2
330
21
100
AcDbEntity
  8
0
100
AcDbLine
 10
55.49889985230374
 20
180.2896507557744
 30
0.0
 11
55.72162412275847
 21
180.2896507557744
 31
0.0
  0
LINE
  5
6D3
330
21
100
AcDbEntity
  8
0
100
AcDbLine
 10
55.61026198753109
 20
180.9896507557744
 30
0.0
 11
55.88437081699982
 21
180.6058983945182
 31
0.0
  0
LINE
  5
6D4
330
21
100
AcDbEntity
  8
0
100
AcDbLine
 10
55.61026198753109
 20
180.9896507557744
 30
0.0
 11
55.33615315806239
 21
180.6058983945183
 31
0.0
  0
LINE
  5
6D5
330
21
100
AcDbEntity
  8
0
100
AcDbLine
 10
55.61026198753109
 20
180.9896507557744
 30
0.0
 11
56.11026198753108
 21
181.6896507557744
 31
0.0
  0
LINE
  5
6D6
330
21
100
AcDbEntity
  8
0
100
AcDbLine
 10
55.61026198753109
 20
180.9896507557744
 30
0.0
 11
55.11026198753109
 21
181.6896507557744
 31
0.0
  0
ARC
  5
6D7
330
21
100
AcDbEntity
  8
0
100
AcDbCircle
 10
54.72162412275847
 20
180.4896507557744
 30
0.0
 40
0.2
100
AcDbArc
 50
270.0
 51
35.53767779197484
  0
ARC
  5
6D8
330
21
100
AcDbEntity
  8
0
100
AcDbCircle
 10
54.49889985230374
 20
180.4896507557744
 30
0.0
 40
0.2
100
AcDbArc
 50
144.4623222080252
 51
270.0
  0
LINE
  5
6D9
330
21
100
AcDbEntity
  8
0
100
AcDbLine
 10
54.49889985230374
 20
180.2896507557744
 30
0.0
 11
54.72162412275847
 21
180.2896507557744
 31
0.0
  0
LINE
  5
6DA
330
21
100
AcDbEntity
  8
0
100
AcDbLine
 10
54.61026198753109
 20
180.9896507557744
 30
0.0
 11
54.88437081699982
 21
180.6058983945182
 31
0.0
  0
LINE
  5
6DB
330
21
100
AcDbEntity
  8
0
100
AcDbLine
 10
54.61026198753109
 20
180.9896507557744
 30
0.0
 11
54.33615315806239
 21
180.6058983945183
 31
0.0
  0
LINE
  5
6DC
330
21
100
AcDbEntity
  8
0
100
AcDbLine
 10
54.61026198753109
 20
180.9896507557744
 30
0.0
 11
55.11026198753109
 21
181.6896507557744
 31
0.0
  0
LINE
  5
6DD
330
21
100
AcDbEntity
  8
0
100
AcDbLine
 10
54.61026198753109
 20
180.9896507557744
 30
0.0
 11
54.11026198753109
 21
181.6896507557744
 31
0.0
  0
ARC
  5
6DE
330
21
100
AcDbEntity
  8
0
100
AcDbCircle
 10
53.72162412275847
 20
180.4896507557744
 30
0.0
 40
0.2
100
AcDbArc
 50
270.0
 51
35.53767779197484
  0
ARC
  5
6DF
330
21
100
AcDbEntity
  8
0
100
AcDbCircle
 10
53.49889985230373
 20
180.4896507557744
 30
0.0
 40
0.2
100
AcDbArc
 50
144.4623222080252
 51
270.0
  0
LINE
  5
6E0
330
21
100
AcDbEntity
  8
0
100
AcDbLine
 10
53.49889985230373
 20
180.2896507557744
 30
0.0
 11
53.72162412275847
 21
180.2896507557744
 31
0.0
  0
LINE
  5
6E1
330
21
100
AcDbEntity
  8
0
100
AcDbLine
 10
53.61026198753108
 20
180.9896507557744
 30
0.0
 11
53.88437081699982
 21
180.6058983945182
 31
0.0
  0
LINE
  5
6E2
330
21
100
AcDbEntity
  8
0
100
AcDbLine
 10
53.61026198753108
 20
180.9896507557744
 30
0.0
 11
53.33615315806238
 21
180.6058983945183
 31
0.0
  0
LINE
  5
6E3
330
21
100
AcDbEntity
  8
0
100
AcDbLine
 10
53.61026198753108
 20
180.9896507557744
 30
0.0
 11
54.11026198753109
 21
181.6896507557744
 31
0.0
  0
LINE
  5
6E4
330
21
100
AcDbEntity
  8
0
100
AcDbLine
 10
53.61026198753108
 20
180.9896507557744
 30
0.0
 11
53.11026198753109
 21
181.6896507557744
 31
0.0
  0
ARC
  5
6E5
330
21
100
AcDbEntity
  8
0
100
AcDbCircle
 10
52.72162412275847
 20
180.4896507557744
 30
0.0
 40
0.2
100
AcDbArc
 50
270.0
 51
35.53767779197484
  0
ARC
  5
6E6
330
21
100
AcDbEntity
  8
0
100
AcDbCircle
 10
52.49889985230374
 20
180.4896507557744
 30
0.0
 40
0.2
100
AcDbArc
 50
144.4623222080252
 51
270.0
  0
LINE
  5
6E7
330
21
100
AcDbEntity
  8
0
100
AcDbLine
 10
52.49889985230374
 20
180.2896507557744
 30
0.0
 11
52.72162412275847
 21
180.2896507557744
 31
0.0
  0
LINE
  5
6E8
330
21
100
AcDbEntity
  8
0
100
AcDbLine
 10
52.61026198753109
 20
180.9896507557744
 30
0.0
 11
52.88437081699981
 21
180.6058983945182
 31
0.0
  0
LINE
  5
6E9
330
21
100
AcDbEntity
  8
0
100
AcDbLine
 10
52.61026198753109
 20
180.9896507557744
 30
0.0
 11
52.33615315806239
 21
180.6058983945183
 31
0.0
  0
LINE
  5
6EA
330
21
100
AcDbEntity
  8
0
100
AcDbLine
 10
52.61026198753109
 20
180.9896507557744
 30
0.0
 11
53.11026198753109
 21
181.6896507557744
 31
0.0
  0
LINE
  5
6EB
330
21
100
AcDbEntity
  8
0
100
AcDbLine
 10
52.61026198753109
 20
180.9896507557744
 30
0.0
 11
52.11026198753109
 21
181.6896507557744
 31
0.0
  0
ARC
  5
6EC
330
21
100
AcDbEntity
  8
0
100
AcDbCircle
 10
51.72162412275847
 20
180.4896507557744
 30
0.0
 40
0.2
100
AcDbArc
 50
270.0
 51
35.53767779197484
  0
ARC
  5
6ED
330
21
100
AcDbEntity
  8
0
100
AcDbCircle
 10
51.49889985230373
 20
180.4896507557744
 30
0.0
 40
0.2
100
AcDbArc
 50
144.4623222080252
 51
270.0
  0
LINE
  5
6EE
330
21
100
AcDbEntity
  8
0
100
AcDbLine
 10
51.49889985230373
 20
180.2896507557744
 30
0.0
 11
51.72162412275847
 21
180.2896507557744
 31
0.0
  0
LINE
  5
6EF
330
21
100
AcDbEntity
  8
0
100
AcDbLine
 10
51.61026198753109
 20
180.9896507557744
 30
0.0
 11
51.88437081699982
 21
180.6058983945182
 31
0.0
  0
LINE
  5
6F0
330
21
100
AcDbEntity
  8
0
100
AcDbLine
 10
51.61026198753109
 20
180.9896507557744
 30
0.0
 11
51.33615315806238
 21
180.6058983945183
 31
0.0
  0
LINE
  5
6F1
330
21
100
AcDbEntity
  8
0
100
AcDbLine
 10
51.61026198753109
 20
180.9896507557744
 30
0.0
 11
52.11026198753109
 21
181.6896507557744
 31
0.0
  0
LINE
  5
6F2
330
21
100
AcDbEntity
  8
0
100
AcDbLine
 10
51.61026198753109
 20
180.9896507557744
 30
0.0
 11
51.11026198753108
 21
181.6896507557744
 31
0.0
  0
ARC
  5
6F3
330
21
100
AcDbEntity
  8
0
100
AcDbCircle
 10
50.72162412275847
 20
180.4896507557744
 30
0.0
 40
0.2
100
AcDbArc
 50
270.0
 51
35.53767779197484
  0
ARC
  5
6F4
330
21
100
AcDbEntity
  8
0
100
AcDbCircle
 10
50.49889985230374
 20
180.4896507557744
 30
0.0
 40
0.2
100
AcDbArc
 50
144.4623222080252
 51
270.0
  0
LINE
  5
6F5
330
21
100
AcDbEntity
  8
0
100
AcDbLine
 10
50.49889985230374
 20
180.2896507557744
 30
0.0
 11
50.72162412275847
 21
180.2896507557744
 31
0.0
  0
LINE
  5
6F6
330
21
100
AcDbEntity
  8
0
100
AcDbLine
 10
50.61026198753109
 20
180.9896507557744
 30
0.0
 11
50.88437081699982
 21
180.6058983945182
 31
0.0
  0
LINE
  5
6F7
330
21
100
AcDbEntity
  8
0
100
AcDbLine
 10
50.61026198753109
 20
180.9896507557744
 30
0.0
 11
50.33615315806239
 21
180.6058983945183
 31
0.0
  0
LINE
  5
6F8
330
21
100
AcDbEntity
  8
0
100
AcDbLine
 10
50.61026198753109
 20
180.9896507557744
 30
0.0
 11
51.11026198753108
 21
181.6896507557744
 31
0.0
  0
LINE
  5
6F9
330
21
100
AcDbEntity
  8
0
100
AcDbLine
 10
50.61026198753109
 20
180.9896507557744
 30
0.0
 11
50.11026198753109
 21
181.6896507557744
 31
0.0
  0
ARC
  5
6FA
330
21
100
AcDbEntity
  8
0
100
AcDbCircle
 10
49.72162412275847
 20
180.4896507557744
 30
0.0
 40
0.2
100
AcDbArc
 50
270.0
 51
35.53767779197484
  0
ARC
  5
6FB
330
21
100
AcDbEntity
  8
0
100
AcDbCircle
 10
49.49889985230374
 20
180.4896507557744
 30
0.0
 40
0.2
100
AcDbArc
 50
144.4623222080252
 51
270.0
  0
LINE
  5
6FC
330
21
100
AcDbEntity
  8
0
100
AcDbLine
 10
49.49889985230374
 20
180.2896507557744
 30
0.0
 11
49.72162412275847
 21
180.2896507557744
 31
0.0
  0
LINE
  5
6FD
330
21
100
AcDbEntity
  8
0
100
AcDbLine
 10
49.61026198753109
 20
180.9896507557744
 30
0.0
 11
49.88437081699982
 21
180.6058983945182
 31
0.0
  0
LINE
  5
6FE
330
21
100
AcDbEntity
  8
0
100
AcDbLine
 10
49.61026198753109
 20
180.9896507557744
 30
0.0
 11
49.33615315806239
 21
180.6058983945183
 31
0.0
  0
LINE
  5
6FF
330
21
100
AcDbEntity
  8
0
100
AcDbLine
 10
49.61026198753109
 20
180.9896507557744
 30
0.0
 11
50.11026198753109
 21
181.6896507557744
 31
0.0
  0
LINE
  5
700
330
21
100
AcDbEntity
  8
0
100
AcDbLine
 10
49.61026198753109
 20
180.9896507557744
 30
0.0
 11
49.11026198753109
 21
181.6896507557744
 31
0.0
  0
ARC
  5
701
330
21
100
AcDbEntity
  8
0
100
AcDbCircle
 10
48.72162412275847
 20
180.4896507557744
 30
0.0
 40
0.2
100
AcDbArc
 50
270.0
 51
35.53767779197484
  0
ARC
  5
702
330
21
100
AcDbEntity
  8
0
100
AcDbCircle
 10
48.49889985230373
 20
180.4896507557744
 30
0.0
 40
0.2
100
AcDbArc
 50
144.4623222080252
 51
270.0
  0
LINE
  5
703
330
21
100
AcDbEntity
  8
0
100
AcDbLine
 10
48.49889985230373
 20
180.2896507557744
 30
0.0
 11
48.72162412275847
 21
180.2896507557744
 31
0.0
  0
LINE
  5
704
330
21
100
AcDbEntity
  8
0
100
AcDbLine
 10
48.61026198753108
 20
180.9896507557744
 30
0.0
 11
48.88437081699982
 21
180.6058983945182
 31
0.0
  0
LINE
  5
705
330
21
100
AcDbEntity
  8
0
100
AcDbLine
 10
48.61026198753108
 20
180.9896507557744
 30
0.0
 11
48.33615315806238
 21
180.6058983945183
 31
0.0
  0
LINE
  5
706
330
21
100
AcDbEntity
  8
0
100
AcDbLine
 10
48.61026198753108
 20
180.9896507557744
 30
0.0
 11
49.11026198753109
 21
181.6896507557744
 31
0.0
  0
LINE
  5
707
330
21
100
AcDbEntity
  8
0
100
AcDbLine
 10
48.61026198753108
 20
180.9896507557744
 30
0.0
 11
48.11026198753109
 21
181.6896507557744
 31
0.0
  0
ARC
  5
708
330
21
100
AcDbEntity
  8
0
100
AcDbCircle
 10
47.72162412275847
 20
180.4896507557744
 30
0.0
 40
0.2
100
AcDbArc
 50
270.0
 51
35.53767779197484
  0
ARC
  5
709
330
21
100
AcDbEntity
  8
0
100
AcDbCircle
 10
47.49889985230374
 20
180.4896507557744
 30
0.0
 40
0.2
100
AcDbArc
 50
144.4623222080252
 51
270.0
  0
LINE
  5
70A
330
21
100
AcDbEntity
  8
0
100
AcDbLine
 10
47.49889985230374
 20
180.2896507557744
 30
0.0
 11
47.72162412275847
 21
180.2896507557744
 31
0.0
  0
LINE
  5
70B
330
21
100
AcDbEntity
  8
0
100
AcDbLine
 10
47.61026198753109
 20
180.9896507557744
 30
0.0
 11
47.88437081699981
 21
180.6058983945182
 31
0.0
  0
LINE
  5
70C
330
21
100
AcDbEntity
  8
0
100
AcDbLine
 10
47.61026198753109
 20
180.9896507557744
 30
0.0
 11
47.33615315806239
 21
180.6058983945183
 31
0.0
  0
LINE
  5
70D
330
21
100
AcDbEntity
  8
0
100
AcDbLine
 10
47.61026198753109
 20
180.9896507557744
 30
0.0
 11
48.11026198753109
 21
181.6896507557744
 31
0.0
  0
LINE
  5
70E
330
21
100
AcDbEntity
  8
0
100
AcDbLine
 10
47.61026198753109
 20
180.9896507557744
 30
0.0
 11
47.11026198753109
 21
181.6896507557744
 31
0.0
  0
ARC
  5
70F
330
21
100
AcDbEntity
  8
0
100
AcDbCircle
 10
46.72162412275847
 20
180.4896507557744
 30
0.0
 40
0.2
100
AcDbArc
 50
270.0
 51
35.53767779197484
  0
ARC
  5
710
330
21
100
AcDbEntity
  8
0
100
AcDbCircle
 10
46.49889985230373
 20
180.4896507557744
 30
0.0
 40
0.2
100
AcDbArc
 50
144.4623222080252
 51
270.0
  0
LINE
  5
711
330
21
100
AcDbEntity
  8
0
100
AcDbLine
 10
46.49889985230373
 20
180.2896507557744
 30
0.0
 11
46.72162412275847
 21
180.2896507557744
 31
0.0
  0
LINE
  5
712
330
21
100
AcDbEntity
  8
0
100
AcDbLine
 10
46.61026198753108
 20
180.9896507557744
 30
0.0
 11
46.88437081699982
 21
180.6058983945182
 31
0.0
  0
LINE
  5
713
330
21
100
AcDbEntity
  8
0
100
AcDbLine
 10
46.61026198753108
 20
180.9896507557744
 30
0.0
 11
46.33615315806238
 21
180.6058983945183
 31
0.0
  0
LINE
  5
714
330
21
100
AcDbEntity
  8
0
100
AcDbLine
 10
46.61026198753108
 20
180.9896507557744
 30
0.0
 11
47.11026198753109
 21
181.6896507557744
 31
0.0
  0
LINE
  5
715
330
21
100
AcDbEntity
  8
0
100
AcDbLine
 10
46.61026198753108
 20
180.9896507557744
 30
0.0
 11
46.11026198753108
 21
181.6896507557744
 31
0.0
  0
ARC
  5
716
330
21
100
AcDbEntity
  8
0
100
AcDbCircle
 10
45.72162412275846
 20
180.4896507557744
 30
0.0
 40
0.2
100
AcDbArc
 50
270.0
 51
35.53767779197484
  0
ARC
  5
717
330
21
100
AcDbEntity
  8
0
100
AcDbCircle
 10
45.49889985230374
 20
180.4896507557744
 30
0.0
 40
0.2
100
AcDbArc
 50
144.4623222080252
 51
270.0
  0
LINE
  5
718
330
21
100
AcDbEntity
  8
0
100
AcDbLine
 10
45.49889985230374
 20
180.2896507557744
 30
0.0
 11
45.72162412275846
 21
180.2896507557744
 31
0.0
  0
LINE
  5
719
330
21
100
AcDbEntity
  8
0
100
AcDbLine
 10
45.61026198753109
 20
180.9896507557744
 30
0.0
 11
45.88437081699981
 21
180.6058983945182
 31
0.0
  0
LINE
  5
71A
330
21
100
AcDbEntity
  8
0
100
AcDbLine
 10
45.61026198753109
 20
180.9896507557744
 30
0.0
 11
45.33615315806239
 21
180.6058983945183
 31
0.0
  0
LINE
  5
71B
330
21
100
AcDbEntity
  8
0
100
AcDbLine
 10
45.61026198753109
 20
180.9896507557744
 30
0.0
 11
46.11026198753108
 21
181.6896507557744
 31
0.0
  0
LINE
  5
71C
330
21
100
AcDbEntity
  8
0
100
AcDbLine
 10
45.61026198753109
 20
180.9896507557744
 30
0.0
 11
45.11026198753109
 21
181.6896507557744
 31
0.0
  0
ARC
  5
71D
330
21
100
AcDbEntity
  8
0
100
AcDbCircle
 10
44.72162412275847
 20
180.4896507557744
 30
0.0
 40
0.2
100
AcDbArc
 50
270.0
 51
35.53767779197484
  0
ARC
  5
71E
330
21
100
AcDbEntity
  8
0
100
AcDbCircle
 10
44.49889985230373
 20
180.4896507557744
 30
0.0
 40
0.2
100
AcDbArc
 50
144.4623222080252
 51
270.0
  0
LINE
  5
71F
330
21
100
AcDbEntity
  8
0
100
AcDbLine
 10
44.49889985230373
 20
180.2896507557744
 30
0.0
 11
44.72162412275847
 21
180.2896507557744
 31
0.0
  0
LINE
  5
720
330
21
100
AcDbEntity
  8
0
100
AcDbLine
 10
44.61026198753109
 20
180.9896507557744
 30
0.0
 11
44.88437081699982
 21
180.6058983945182
 31
0.0
  0
LINE
  5
721
330
21
100
AcDbEntity
  8
0
100
AcDbLine
 10
44.61026198753109
 20
180.9896507557744
 30
0.0
 11
44.33615315806238
 21
180.6058983945183
 31
0.0
  0
LINE
  5
722
330
21
100
AcDbEntity
  8
0
100
AcDbLine
 10
44.61026198753109
 20
180.9896507557744
 30
0.0
 11
45.11026198753109
 21
181.6896507557744
 31
0.0
  0
LINE
  5
723
330
21
100
AcDbEntity
  8
0
100
AcDbLine
 10
44.61026198753109
 20
180.9896507557744
 30
0.0
 11
44.11026198753108
 21
181.6896507557744
 31
0.0
  0
ARC
  5
724
330
21
100
AcDbEntity
  8
0
100
AcDbCircle
 10
43.72162412275847
 20
180.4896507557744
 30
0.0
 40
0.2
100
AcDbArc
 50
270.0
 51
35.53767779197484
  0
ARC
  5
725
330
21
100
AcDbEntity
  8
0
100
AcDbCircle
 10
43.49889985230373
 20
180.4896507557744
 30
0.0
 40
0.2
100
AcDbArc
 50
144.4623222080252
 51
270.0
  0
LINE
  5
726
330
21
100
AcDbEntity
  8
0
100
AcDbLine
 10
43.49889985230373
 20
180.2896507557744
 30
0.0
 11
43.72162412275847
 21
180.2896507557744
 31
0.0
  0
LINE
  5
727
330
21
100
AcDbEntity
  8
0
100
AcDbLine
 10
43.61026198753108
 20
180.9896507557744
 30
0.0
 11
43.88437081699982
 21
180.6058983945182
 31
0.0
  0
LINE
  5
728
330
21
100
AcDbEntity
  8
0
100
AcDbLine
 10
43.61026198753108
 20
180.9896507557744
 30
0.0
 11
43.33615315806238
 21
180.6058983945183
 31
0.0
  0
LINE
  5
729
330
21
100
AcDbEntity
  8
0
100
AcDbLine
 10
43.61026198753108
 20
180.9896507557744
 30
0.0
 11
44.11026198753108
 21
181.6896507557744
 31
0.0
  0
LINE
  5
72A
330
21
100
AcDbEntity
  8
0
100
AcDbLine
 10
43.61026198753108
 20
180.9896507557744
 30
0.0
 11
43.11026198753109
 21
181.6896507557744
 31
0.0
  0
ARC
  5
72B
330
21
100
AcDbEntity
  8
0
100
AcDbCircle
 10
42.72162412275847
 20
180.4896507557744
 30
0.0
 40
0.2
100
AcDbArc
 50
270.0
 51
35.53767779197484
  0
ARC
  5
72C
330
21
100
AcDbEntity
  8
0
100
AcDbCircle
 10
42.49889985230374
 20
180.4896507557744
 30
0.0
 40
0.2
100
AcDbArc
 50
144.4623222080252
 51
270.0
  0
LINE
  5
72D
330
21
100
AcDbEntity
  8
0
100
AcDbLine
 10
42.49889985230374
 20
180.2896507557744
 30
0.0
 11
42.72162412275847
 21
180.2896507557744
 31
0.0
  0
LINE
  5
72E
330
21
100
AcDbEntity
  8
0
100
AcDbLine
 10
42.61026198753109
 20
180.9896507557744
 30
0.0
 11
42.88437081699981
 21
180.6058983945182
 31
0.0
  0
LINE
  5
72F
330
21
100
AcDbEntity
  8
0
100
AcDbLine
 10
42.61026198753109
 20
180.9896507557744
 30
0.0
 11
42.33615315806239
 21
180.6058983945183
 31
0.0
  0
LINE
  5
730
330
21
100
AcDbEntity
  8
0
100
AcDbLine
 10
42.61026198753109
 20
180.9896507557744
 30
0.0
 11
43.11026198753109
 21
181.6896507557744
 31
0.0
  0
LINE
  5
731
330
21
100
AcDbEntity
  8
0
100
AcDbLine
 10
42.61026198753109
 20
180.9896507557744
 30
0.0
 11
42.11026198753109
 21
181.6896507557744
 31
0.0
  0
ARC
  5
732
330
21
100
AcDbEntity
  8
0
100
AcDbCircle
 10
41.72162412275847
 20
180.4896507557744
 30
0.0
 40
0.2
100
AcDbArc
 50
270.0
 51
35.53767779197484
  0
ARC
  5
733
330
21
100
AcDbEntity
  8
0
100
AcDbCircle
 10
41.49889985230373
 20
180.4896507557744
 30
0.0
 40
0.2
100
AcDbArc
 50
144.4623222080252
 51
270.0
  0
LINE
  5
734
330
21
100
AcDbEntity
  8
0
100
AcDbLine
 10
41.49889985230373
 20
180.2896507557744
 30
0.0
 11
41.72162412275847
 21
180.2896507557744
 31
0.0
  0
LINE
  5
735
330
21
100
AcDbEntity
  8
0
100
AcDbLine
 10
41.61026198753108
 20
180.9896507557744
 30
0.0
 11
41.88437081699982
 21
180.6058983945182
 31
0.0
  0
LINE
  5
736
330
21
100
AcDbEntity
  8
0
100
AcDbLine
 10
41.61026198753108
 20
180.9896507557744
 30
0.0
 11
41.33615315806238
 21
180.6058983945183
 31
0.0
  0
LINE
  5
737
330
21
100
AcDbEntity
  8
0
100
AcDbLine
 10
41.61026198753108
 20
180.9896507557744
 30
0.0
 11
42.11026198753109
 21
181.6896507557744
 31
0.0
  0
LINE
  5
738
330
21
100
AcDbEntity
  8
0
100
AcDbLine
 10
41.61026198753108
 20
180.9896507557744
 30
0.0
 11
41.11026198753108
 21
181.6896507557744
 31
0.0
  0
ARC
  5
739
330
21
100
AcDbEntity
  8
0
100
AcDbCircle
 10
40.72162412275846
 20
180.4896507557744
 30
0.0
 40
0.2
100
AcDbArc
 50
270.0
 51
35.53767779197484
  0
ARC
  5
73A
330
21
100
AcDbEntity
  8
0
100
AcDbCircle
 10
40.49889985230374
 20
180.4896507557744
 30
0.0
 40
0.2
100
AcDbArc
 50
144.4623222080252
 51
270.0
  0
LINE
  5
73B
330
21
100
AcDbEntity
  8
0
100
AcDbLine
 10
40.49889985230374
 20
180.2896507557744
 30
0.0
 11
40.72162412275846
 21
180.2896507557744
 31
0.0
  0
LINE
  5
73C
330
21
100
AcDbEntity
  8
0
100
AcDbLine
 10
40.61026198753109
 20
180.9896507557744
 30
0.0
 11
40.88437081699981
 21
180.6058983945182
 31
0.0
  0
LINE
  5
73D
330
21
100
AcDbEntity
  8
0
100
AcDbLine
 10
40.61026198753109
 20
180.9896507557744
 30
0.0
 11
40.33615315806239
 21
180.6058983945183
 31
0.0
  0
LINE
  5
73E
330
21
100
AcDbEntity
  8
0
100
AcDbLine
 10
40.61026198753109
 20
180.9896507557744
 30
0.0
 11
41.11026198753108
 21
181.6896507557744
 31
0.0
  0
LINE
  5
73F
330
21
100
AcDbEntity
  8
0
100
AcDbLine
 10
40.61026198753109
 20
180.9896507557744
 30
0.0
 11
40.11026198753109
 21
181.6896507557744
 31
0.0
  0
ARC
  5
740
330
21
100
AcDbEntity
  8
0
100
AcDbCircle
 10
39.72162412275847
 20
180.4896507557744
 30
0.0
 40
0.2
100
AcDbArc
 50
270.0
 51
35.53767779197484
  0
ARC
  5
741
330
21
100
AcDbEntity
  8
0
100
AcDbCircle
 10
39.49889985230374
 20
180.4896507557744
 30
0.0
 40
0.2
100
AcDbArc
 50
144.4623222080252
 51
270.0
  0
LINE
  5
742
330
21
100
AcDbEntity
  8
0
100
AcDbLine
 10
39.49889985230374
 20
180.2896507557744
 30
0.0
 11
39.72162412275847
 21
180.2896507557744
 31
0.0
  0
LINE
  5
743
330
21
100
AcDbEntity
  8
0
100
AcDbLine
 10
39.61026198753109
 20
180.9896507557744
 30
0.0
 11
39.88437081699982
 21
180.6058983945182
 31
0.0
  0
LINE
  5
744
330
21
100
AcDbEntity
  8
0
100
AcDbLine
 10
39.61026198753109
 20
180.9896507557744
 30
0.0
 11
39.33615315806239
 21
180.6058983945183
 31
0.0
  0
LINE
  5
745
330
21
100
AcDbEntity
  8
0
100
AcDbLine
 10
39.61026198753109
 20
180.9896507557744
 30
0.0
 11
40.11026198753109
 21
181.6896507557744
 31
0.0
  0
LINE
  5
746
330
21
100
AcDbEntity
  8
0
100
AcDbLine
 10
39.61026198753109
 20
180.9896507557744
 30
0.0
 11
39.14017354512258
 21
181.6477745751463
 31
0.0
  0
LINE
  5
747
330
21
100
AcDbEntity
  8
0
100
AcDbLine
 10
126.1617237770602
 20
181.6896507557744
 30
0.0
 11
132.6102619875311
 21
181.6896507557744
 31
0.0
  0
ARC
  5
749
330
21
100
AcDbEntity
  8
0
100
AcDbCircle
 10
126.1617237770602
 20
181.5896507557744
 30
0.0
 40
0.1
100
AcDbArc
 50
90.00000000000026
 51
144.4623222080251
  0
ARC
  5
74A
330
21
100
AcDbEntity
  8
0
100
AcDbCircle
 10
39.05880019800191
 20
181.5896507557744
 30
0.0
 40
0.1
100
AcDbArc
 50
35.53767779197479
 51
90.0
  0
ARC
  5
74B
330
21
100
AcDbEntity
  8
0
100
AcDbCircle
 10
125.6779652836738
 20
164.2896507557743
 30
0.0
 40
0.1
100
AcDbArc
 50
201.8014094863518
 51
270.0000000000002
  0
ARC
  5
74C
330
21
100
AcDbEntity
  8
0
100
AcDbCircle
 10
39.54255869138841
 20
164.2896507557744
 30
0.0
 40
0.1
100
AcDbArc
 50
269.9999999999992
 51
338.1985905136482
  0
ARC
  5
74D
330
21
100
AcDbEntity
  8
0
100
AcDbCircle
 10
44.03526198753108
 20
146.7896507557744
 30
0.0
 40
0.1
100
AcDbArc
 50
270.0
 51
343.7397952916882
  0
ARC
  5
74E
330
21
100
AcDbEntity
  8
0
100
AcDbCircle
 10
121.1852619875311
 20
146.7896507557744
 30
0.0
 40
0.1
100
AcDbArc
 50
196.2602047083118
 51
270.0
  0
ENDSEC
  0
SECTION
  2
OBJECTS
  0
DICTIONARY
  5
C
330
0
100
AcDbDictionary
281
     1
  3
ACAD_COLOR
350
1C
  3
ACAD_GROUP
350
D
  3
ACAD_LAYOUT
350
1A
  3
ACAD_MATERIAL
350
1B
  3
ACAD_MLINESTYLE
350
17
  3
ACAD_PLOTSETTINGS
350
19
  3
ACAD_PLOTSTYLENAME
350
E
  0
DICTIONARY
  5
1C
102
{ACAD_REACTORS
330
C
102
}
330
C
100
AcDbDictionary
281
     1
  0
DICTIONARY
  5
D
102
{ACAD_REACTORS
330
C
102
}
330
C
100
AcDbDictionary
281
     1
  0
DICTIONARY
  5
1A
102
{ACAD_REACTORS
330
C
102
}
330
C
100
AcDbDictionary
281
     1
  3
Model
350
24
  3
1
350
20
  3
2
350
28
  0
DICTIONARY
  5
1B
102
{ACAD_REACTORS
330
C
102
}
330
C
100
AcDbDictionary
281
     1
  0
DICTIONARY
  5
17
102
{ACAD_REACTORS
330
C
102
}
330
C
100
AcDbDictionary
281
     1
  3
Standard
350
18
  0
DICTIONARY
  5
19
102
{ACAD_REACTORS
330
C
102
}
330
C
100
AcDbDictionary
281
     1
  0
ACDBDICTIONARYWDFLT
  5
E
102
{ACAD_REACTORS
330
C
102
}
330
C
100
AcDbDictionary
281
     1
  3
Normal
350
F
100
AcDbDictionaryWithDefault
340
F
  0
LAYOUT
  5
24
102
{ACAD_REACTORS
330
1A
102
}
330
1A
100
AcDbPlotSettings
  1

  2
Microsoft XPS Document Writer
  4

  6

 40
0.0
 41
0.0
 42
0.0
 43
0.0
 44
0.0
 45
0.0
 46
0.0
 47
0.0
 48
0.0
 49
0.0
140
0.0
141
0.0
142
1.0
143
1.0
 70
  1712
 72
     0
 73
     0
 74
     0
  7

 75
     0
147
1.0
 76
     0
 77
     2
 78
   300
148
0.0
149
0.0
100
AcDbLayout
  1
Model
 70
     1
 71
     0
 10
0.0
 20
0.0
 11
12.0
 21
9.0
 12
0.0
 22
0.0
 32
0.0
 14
0.0
 24
0.0
 34
0.0
 15
0.0
 25
0.0
 35
0.0
146
0.0
 13
0.0
 23
0.0
 33
0.0
 16
1.0
 26
0.0
 36
0.0
 17
0.0
 27
1.0
 37
0.0
 76
     0
330
21
  0
LAYOUT
  5
20
102
{ACAD_REACTORS
330
1A
102
}
330
1A
100
AcDbPlotSettings
  1

  2
Microsoft XPS Document Writer
  4

  6

 40
0.0
 41
0.0
 42
0.0
 43
0.0
 44
0.0
 45
0.0
 46
0.0
 47
0.0
 48
0.0
 49
0.0
140
0.0
141
0.0
142
1.0
143
1.0
 70
   688
 72
     0
 73
     0
 74
     5
  7

 75
    16
147
1.0
 76
     0
 77
     2
 78
   300
148
0.0
149
0.0
100
AcDbLayout
  1
1
 70
     1
 71
     1
 10
0.0
 20
0.0
 11
420.0
 21
297.0
 12
0.0
 22
0.0
 32
0.0
 14
1.000000000000000E+20
 24
1.000000000000000E+20
 34
1.000000000000000E+20
 15
-1.000000000000000E+20
 25
-1.000000000000000E+20
 35
-1.000000000000000E+20
146
0.0
 13
0.0
 23
0.0
 33
0.0
 16
1.0
 26
0.0
 36
0.0
 17
0.0
 27
1.0
 37
0.0
 76
     0
330
1D
  0
LAYOUT
  5
28
102
{ACAD_REACTORS
330
1A
102
}
330
1A
100
AcDbPlotSettings
  1

  2
Microsoft XPS Document Writer
  4

  6

 40
0.0
 41
0.0
 42
0.0
 43
0.0
 44
0.0
 45
0.0
 46
0.0
 47
0.0
 48
0.0
 49
0.0
140
0.0
141
0.0
142
1.0
143
1.0
 70
   688
 72
     0
 73
     0
 74
     5
  7

 75
    16
147
1.0
 76
     0
 77
     2
 78
   300
148
0.0
149
0.0
100
AcDbLayout
  1
2
 70
     1
 71
     2
 10
0.0
 20
0.0
 11
12.0
 21
9.0
 12
0.0
 22
0.0
 32
0.0
 14
0.0
 24
0.0
 34
0.0
 15
0.0
 25
0.0
 35
0.0
146
0.0
 13
0.0
 23
0.0
 33
0.0
 16
1.0
 26
0.0
 36
0.0
 17
0.0
 27
1.0
 37
0.0
 76
     0
330
25
  0
MLINESTYLE
  5
18
102
{ACAD_REACTORS
330
17
102
}
330
17
100
AcDbMlineStyle
  2
STANDARD
 70
     0
  3

 62
   256
 51
90.0
 52
90.0
 71
     2
 49
0.5
 62
   256
  6
BYLAYER
 49
-0.5
 62
   256
  6
BYLAYER
  0
ACDBPLACEHOLDER
  5
F
102
{ACAD_REACTORS
330
E
102
}
330
E
  0
ENDSEC
  0
EOF
